<?xml version="1.0" encoding="utf-8"?>
<!-- Generator: Adobe Illustrator 22.0.0, SVG Export Plug-In . SVG Version: 6.00 Build 0)  -->
<svg xmlns="http://www.w3.org/2000/svg" xmlns:xlink="http://www.w3.org/1999/xlink" version="1.1" id="Layer_1" x="0px" y="0px" viewBox="0 0 500 500" style="enable-background:new 0 0 500 500;" xml:space="preserve" width="512" height="512">
<style type="text/css">
	.st0{fill:#83E1E5;}
	.st1{fill:#AAB1BA;}
	.st2{fill:#ECF4F7;}
	.st3{fill:#FDDF7F;}
	.st4{fill:#1C1D21;}
	.st5{fill:#FFFFFF;}
</style>
<g>
	<g>
		<circle class="st3" cx="250" cy="318.697" r="176.303"/>
	</g>
</g>
<g>
	<g>
		<path class="st2" d="M248.424,237.011l-11.759,6.182c-2.484,1.306-5.387-0.803-4.913-3.57l2.246-13.094    c0.188-1.098-0.176-2.219-0.974-2.997l-9.513-9.273c-2.01-1.959-0.901-5.372,1.877-5.776l13.147-1.91    c1.103-0.16,2.056-0.853,2.549-1.852l5.879-11.913c1.242-2.517,4.831-2.517,6.073,0l5.879,11.913    c0.493,0.999,1.447,1.692,2.549,1.852l13.147,1.91c2.777,0.404,3.886,3.817,1.877,5.776l-9.513,9.273    c-0.798,0.778-1.162,1.899-0.974,2.997l2.246,13.094c0.474,2.766-2.429,4.876-4.913,3.57l-11.759-6.182    C250.589,236.492,249.411,236.492,248.424,237.011z"/>
	</g>
</g>
<g>
	<g>
		<path class="st2" d="M309.627,356.271l80.808-80.808c-8.695-28.277-25.698-52.911-48.157-71.066l-79.029,79.035l-15.124-12.927    c-2.986-2.552-6.753-4.009-10.679-4.129l-11.439-0.35c-4.39-0.134-8.563-1.938-11.668-5.043l-56.599-56.599    c-22.462,18.151-39.468,42.782-48.168,71.057l80.831,80.831l-15.894,15.894c-4.115,4.115-4.115,10.788,0,14.903    c4.115,4.115,10.788,4.115,14.903,0c-4.115,4.115-4.115,10.788,0,14.903c4.115,4.115,10.788,4.115,14.903,0    c-4.115,4.115-4.115,10.788,0,14.903c4.115,4.115,10.788,4.115,14.903,0c-4.115,4.115-4.115,10.788,0,14.903    c4.115,4.115,10.788,4.115,14.903,0l15.894-15.894l15.8,15.8c4.103,4.103,10.832,4.413,15.009,0.386    c4.256-4.103,4.303-10.88,0.141-15.042c4.115,4.115,10.788,4.115,14.903,0c4.115-4.115,4.115-10.788,0-14.903    c4.115,4.115,10.788,4.115,14.903,0v0c4.115-4.115,4.115-10.788,0-14.903c4.162,4.162,10.939,4.115,15.042-0.141    c4.027-4.177,3.717-10.907-0.386-15.01L309.627,356.271z"/>
	</g>
</g>
<g>
	<g>
		<polygon class="st0" points="194.758,5 114.622,5 213.064,119.727 293.2,119.727   "/>
	</g>
</g>
<g>
	<g>
		<polygon class="st1" points="391.606,5 311.471,5 253.114,73.01 293.182,119.706   "/>
	</g>
</g>
<path class="st4" d="M142,99.424v5.833h5.833c2.761,0,5,2.239,5,5s-2.239,5-5,5H142v5.833c0,2.761-2.239,5-5,5s-5-2.239-5-5v-5.833  h-5.833c-2.761,0-5-2.239-5-5s2.239-5,5-5H132v-5.833c0-2.761,2.239-5,5-5S142,96.662,142,99.424z M363,126.089c2.761,0,5-2.239,5-5  v-5.833h5.833c2.761,0,5-2.239,5-5s-2.239-5-5-5H368v-5.833c0-2.761-2.239-5-5-5s-5,2.239-5,5v5.833h-5.833c-2.761,0-5,2.239-5,5  s2.239,5,5,5H358v5.833C358,123.851,360.238,126.089,363,126.089z M152.829,10.509c0.989,1.153,2.389,1.744,3.797,1.744  c1.152,0,2.311-0.396,3.254-1.206c2.095-1.798,2.336-4.955,0.538-7.051l-1.934-2.253c-1.799-2.096-4.955-2.337-7.051-0.538  c-2.095,1.798-2.336,4.955-0.538,7.051L152.829,10.509z M346.507,12.253c1.408,0,2.809-0.592,3.797-1.744l1.933-2.253  c1.798-2.096,1.557-5.252-0.539-7.05c-2.096-1.798-5.253-1.557-7.051,0.539l-1.933,2.253c-1.798,2.096-1.557,5.252,0.539,7.05  C344.197,11.857,345.354,12.253,346.507,12.253z M220.021,217.839c-2.302-2.244-3.116-5.538-2.122-8.596  c0.994-3.058,3.587-5.245,6.77-5.708l12.307-1.788l5.504-11.152c1.423-2.884,4.305-4.675,7.521-4.675s6.097,1.791,7.52,4.675  l5.504,11.152l12.307,1.788c3.182,0.462,5.776,2.649,6.77,5.708c0.994,3.058,0.18,6.352-2.123,8.596l-8.905,8.68l2.103,12.258  c0.543,3.169-0.734,6.312-3.336,8.202c-1.47,1.068-3.19,1.611-4.922,1.611c-1.333,0-2.672-0.321-3.91-0.972L250,241.831  l-11.008,5.787c-2.845,1.496-6.23,1.252-8.832-0.638c-2.602-1.89-3.879-5.033-3.336-8.202l2.103-12.257L220.021,217.839z   M229.343,212.961l7.171,6.99c1.977,1.927,2.878,4.702,2.411,7.423l-1.692,9.87l8.864-4.66c1.222-0.642,2.562-0.964,3.902-0.964  s2.681,0.321,3.902,0.964l8.864,4.66l-1.693-9.871c-0.467-2.72,0.435-5.495,2.412-7.422l7.171-6.991l-9.911-1.44  c-2.732-0.397-5.092-2.112-6.314-4.587L250,197.953l-4.432,8.981c-1.222,2.475-3.582,4.19-6.313,4.587L229.343,212.961z   M401.906,318.697c0,83.761-68.145,151.906-151.906,151.906S98.094,402.458,98.094,318.697S166.239,166.791,250,166.791  S401.906,234.935,401.906,318.697z M391.906,318.697c0-78.247-63.659-141.906-141.906-141.906s-141.906,63.659-141.906,141.906  S171.752,460.603,250,460.603S391.906,396.944,391.906,318.697z M379.505,293.465l-62.806,62.806l12.265,12.265  c6.084,6.084,6.287,15.96,0.45,22.015c-2.811,2.916-6.55,4.59-10.575,4.746c-0.15,3.769-1.661,7.493-4.531,10.364  c-2.871,2.871-6.596,4.381-10.364,4.531c-0.152,3.919-1.75,7.583-4.539,10.372c-2.871,2.871-6.596,4.381-10.364,4.531  c-0.156,4.024-1.83,7.764-4.745,10.574c-2.944,2.838-6.793,4.249-10.669,4.249c-4.095,0-8.22-1.573-11.346-4.699l-12.264-12.264  l-12.359,12.359c-3.029,3.029-7.008,4.543-10.987,4.543c-3.979,0-7.958-1.515-10.988-4.544c-2.871-2.871-4.381-6.595-4.531-10.364  c-3.919-0.152-7.582-1.75-10.372-4.539c-2.871-2.871-4.381-6.596-4.531-10.364c-3.919-0.152-7.583-1.75-10.372-4.539  c-2.789-2.789-4.387-6.452-4.539-10.372c-3.769-0.15-7.493-1.66-10.364-4.531c-6.058-6.058-6.058-15.916,0-21.974v0l12.358-12.358  l-64.292-64.291c-1.7-1.7-2.123-4.4-0.789-6.4c1.819-2.727,5.537-2.995,7.729-0.804l116.326,116.326l11.245,11.245c0,0,0,0,0,0  l15.8,15.8c2.256,2.257,5.847,2.4,8.003,0.322c1.081-1.042,1.684-2.441,1.697-3.939c0.014-1.498-0.562-2.907-1.621-3.966  c0,0-0.001-0.001-0.001-0.001l-27.772-27.773c-2.192-2.192-1.923-5.911,0.804-7.729c2-1.333,4.7-0.909,6.4,0.791l27.639,27.639  l0.001,0.001c1.107,1.384,2.903,2.054,4.636,1.683c3.219-0.689,5.055-3.307,4.792-6.134c-0.105-1.137-0.626-2.195-1.349-3.079  l-0.251-0.306l-27.638-27.638c-1.699-1.699-2.123-4.4-0.789-6.4c1.819-2.727,5.537-2.995,7.729-0.804l27.772,27.772  c0,0,0,0,0.001,0.001c2.895,2.895,8.228,1.908,9.463-2.967c0.454-1.792-0.202-3.689-1.63-4.864l-0.002-0.002l-27.772-27.772  c-2.192-2.192-1.923-5.911,0.804-7.729c2-1.333,4.7-0.909,6.4,0.791l27.636,27.636c0.001,0.001,0.003,0.002,0.004,0.003  c1.06,1.06,2.473,1.645,3.967,1.622c1.498-0.014,2.897-0.616,3.939-1.698c2.079-2.157,1.935-5.747-0.322-8.004l-15.799-15.799  c0-0.001-0.001-0.001-0.002-0.001l-36.754-36.754l-12.823,12.823c-5.998,5.998-15.48,7.802-22.691,3.335  c-0.048-0.03-0.1-0.05-0.149-0.078c-0.008-0.005-0.013-0.008-0.021-0.012c-0.003-0.002-0.005-0.003-0.008-0.004  c-0.014-0.008-0.033-0.02-0.047-0.028c-0.127-0.074-0.234-0.137-0.331-0.196c-0.007-0.004-0.014-0.008-0.021-0.012  c-0.001-0.001-0.002-0.002-0.004-0.002c-0.007-0.004-0.014-0.008-0.02-0.012c-0.302-0.184-0.626-0.401-0.947-0.626  c-0.003-0.002-0.006-0.004-0.009-0.007c-0.002-0.002-0.005-0.003-0.007-0.004c-0.211-0.148-0.437-0.313-0.659-0.485  c0,0,0,0-0.001-0.001c-0.001-0.001-0.002-0.002-0.003-0.002c-0.253-0.196-0.501-0.401-0.746-0.611  c-0.001-0.001-0.002-0.002-0.003-0.003c-0.098-0.074-0.24-0.191-0.379-0.317c-0.116-0.105-0.221-0.209-0.322-0.313  c-0.118-0.104-0.223-0.202-0.326-0.304c-0.146-0.147-0.274-0.288-0.399-0.432c-0.2-0.214-0.406-0.44-0.603-0.671  c-0.216-0.252-0.424-0.514-0.627-0.78c0,0,0,0,0,0c-0.001-0.001-0.001-0.001-0.002-0.002c-0.185-0.242-0.365-0.484-0.536-0.732  c-0.189-0.274-0.364-0.549-0.535-0.827c-0.158-0.257-0.31-0.509-0.451-0.765c-0.162-0.295-0.307-0.586-0.448-0.879c0,0,0,0,0,0  c0,0,0-0.001-0.001-0.002c-0.126-0.26-0.254-0.529-0.37-0.802c-0.124-0.289-0.238-0.593-0.35-0.899  c-0.084-0.231-0.155-0.436-0.224-0.645c-0.019-0.057-0.043-0.119-0.061-0.176c0,0,0-0.001,0-0.002c0,0,0,0,0,0  c-0.093-0.296-0.173-0.6-0.252-0.904l0.001,0c-0.002-0.008-0.005-0.016-0.007-0.024c-0.007-0.027-0.012-0.048-0.019-0.074l0,0  c-0.003-0.01-0.005-0.02-0.007-0.029c-0.07-0.273-0.129-0.507-0.177-0.736c-0.063-0.302-0.111-0.6-0.158-0.899l-0.02-0.129  l-0.003-0.022c-0.039-0.247-0.076-0.493-0.103-0.741c-0.034-0.311-0.052-0.606-0.068-0.902l-0.01-0.165  c-0.016-0.254-0.029-0.507-0.032-0.761c-0.003-0.28,0.007-0.575,0.02-0.87l0.008-0.213c0.008-0.239,0.018-0.478,0.039-0.716  c0.025-0.292,0.063-0.575,0.103-0.858l0.034-0.246c0.031-0.235,0.064-0.47,0.107-0.704c0.049-0.269,0.114-0.548,0.182-0.826  l0.066-0.276c0.051-0.221,0.104-0.442,0.167-0.661c0.085-0.293,0.178-0.566,0.274-0.839l0.088-0.255  c0.074-0.221,0.15-0.442,0.237-0.66c0.109-0.273,0.234-0.546,0.362-0.816l0.007-0.016c0-0.001,0.001-0.001,0.001-0.002l0.101-0.219  c0.094-0.211,0.19-0.42,0.297-0.626c0.149-0.286,0.31-0.56,0.475-0.832l0.13-0.22c0.11-0.193,0.223-0.385,0.346-0.573  c0-0.001,0.001-0.001,0.001-0.002c0,0,0-0.001,0.001-0.001c0.203-0.309,0.428-0.612,0.656-0.913l0.07-0.092  c0.141-0.2,0.263-0.366,0.395-0.528c0.404-0.498,0.84-0.982,1.293-1.434l26.073-26.076l-11.014-9.414  c-2.12-1.812-4.796-2.847-7.583-2.932l-11.439-0.35c-5.663-0.173-11.046-2.5-15.052-6.506l-43.595-43.595  c-1.7-1.7-2.123-4.4-0.789-6.4c1.819-2.727,5.537-2.995,7.729-0.803l43.728,43.727c2.205,2.205,5.169,3.486,8.286,3.582l11.438,0.35  c5.064,0.155,9.924,2.033,13.775,5.325l11.609,9.923l61.84-61.845c1.953-1.953,5.118-1.953,7.071,0c1.953,1.953,1.953,5.118,0,7.071  l-65.109,65.113c0,0-0.001,0.001-0.001,0.001l-29.898,29.9c-0.195,0.195-0.384,0.403-0.563,0.621  c-0.042,0.058-0.076,0.106-0.109,0.151c-0.038,0.053-0.074,0.101-0.109,0.148l-0.083,0.109c-0.089,0.118-0.182,0.234-0.263,0.356  l-0.276,0.475c-0.055,0.091-0.113,0.18-0.162,0.274l-0.231,0.508c0,0.001-0.001,0.002-0.001,0.003l-0.005,0.011  c-0.04,0.085-0.082,0.168-0.117,0.254l-0.183,0.537c-0.032,0.091-0.067,0.181-0.094,0.273l-0.127,0.541  c-0.022,0.09-0.046,0.179-0.063,0.27l-0.074,0.538c-0.009,0.062-0.016,0.125-0.025,0.187c-0.006,0.042-0.013,0.083-0.016,0.125  l-0.015,0.391c0,0.005-0.004,0.087-0.005,0.104c0,0.002,0,0.009,0,0.009c-0.005,0.111-0.012,0.221-0.011,0.331  c0.001,0.094,0.008,0.174,0.013,0.253l0.009,0.142c0.01,0.171,0.015,0.283,0.024,0.388c0.002,0.025,0.003,0.052,0.006,0.076  c0.009,0.077,0.025,0.171,0.04,0.265l0.006,0.039l0.013,0.082c0.017,0.112,0.031,0.204,0.046,0.291  c0.009,0.052,0.017,0.104,0.028,0.153c0.02,0.098,0.049,0.199,0.074,0.3c0.001,0.003,0.01,0.038,0.018,0.069  c0.004,0.015,0.007,0.027,0.011,0.042c0.033,0.128,0.065,0.255,0.103,0.381c0.002,0.007,0.004,0.015,0.006,0.023  c0.032,0.102,0.068,0.198,0.104,0.294c0.006,0.017,0.012,0.034,0.018,0.051c0.063,0.175,0.112,0.313,0.17,0.448  c0.056,0.132,0.115,0.25,0.172,0.368c0.069,0.144,0.135,0.28,0.208,0.414c0.063,0.114,0.137,0.233,0.211,0.353  c0.076,0.124,0.156,0.252,0.242,0.378c0.081,0.118,0.166,0.229,0.251,0.34c0.091,0.119,0.187,0.241,0.288,0.36  c0.097,0.114,0.195,0.219,0.294,0.325c0.108,0.114,0.219,0.228,0.335,0.339c0.001,0.001,0.002,0.002,0.003,0.003  c0.105,0.1,0.213,0.197,0.322,0.291c0.114,0.098,0.226,0.192,0.341,0.281c0.099,0.077,0.202,0.15,0.305,0.223  c0.159,0.112,0.303,0.208,0.45,0.299l0.164,0.097c3.381,1.935,7.907,1.257,10.771-1.608l16.396-16.395  c0.022-0.022,0.049-0.036,0.071-0.058c0.218-0.21,0.45-0.405,0.699-0.571c0.172-0.114,0.356-0.196,0.537-0.287  c0.11-0.055,0.212-0.125,0.326-0.172c0.205-0.084,0.419-0.136,0.631-0.192c0.102-0.027,0.199-0.069,0.302-0.09  c0.297-0.058,0.598-0.085,0.9-0.089c0.023,0,0.046-0.007,0.069-0.007c0.016,0,0.032,0.005,0.048,0.005  c0.309,0.003,0.617,0.031,0.921,0.091c0.1,0.02,0.193,0.06,0.291,0.086c0.217,0.056,0.434,0.109,0.643,0.195  c0.114,0.047,0.217,0.117,0.328,0.172c0.181,0.09,0.364,0.172,0.535,0.286c0.275,0.183,0.534,0.392,0.771,0.629l36.754,36.754  l62.938-62.938c2.192-2.191,5.91-1.924,7.729,0.803C381.628,289.064,381.204,291.765,379.505,293.465z M185.996,383.412  l12.239-12.239l-7.832-7.832L178.044,375.7v0c-2.159,2.159-2.159,5.673,0,7.832c1.29,1.29,3.103,1.865,4.961,1.527  C184.147,384.851,185.175,384.233,185.996,383.412z M200.781,398.434l12.357-12.357l-7.832-7.832l-12.237,12.237  c-0.82,0.82-1.439,1.847-1.647,2.988c-0.339,1.859,0.236,3.674,1.526,4.965c1.123,1.123,2.642,1.704,4.243,1.613  c1.224-0.07,2.373-0.618,3.322-1.394L200.781,398.434z M215.685,413.336l12.356-12.356l-7.832-7.832l-12.221,12.222  c-1.952,1.952-2.345,5.08-0.708,7.303c1.195,1.623,3.083,2.459,5.068,2.258c1.116-0.113,2.154-0.626,3.022-1.337L215.685,413.336z   M242.944,415.883l-7.832-7.832l-12.358,12.358l-0.001,0.001c-1.403,1.17-2.067,3.036-1.641,4.813  c0.835,3.488,3.972,5.282,7.11,4.43c0.928-0.252,1.75-0.798,2.43-1.478L242.944,415.883z M431.303,318.697  C431.303,418.667,349.971,500,250,500S68.697,418.667,68.697,318.697c0-75.557,46.465-140.456,112.316-167.654v-27.741  c0-8.397,5.773-15.452,13.553-17.456l-83.738-97.59c-1.798-2.095-1.557-5.252,0.539-7.051c2.095-1.798,5.252-1.557,7.05,0.539  l96.946,112.983h26.892l-77.458-90.271c-1.798-2.095-1.557-5.252,0.539-7.051c2.096-1.798,5.253-1.556,7.05,0.539l83.045,96.782  h26.891L190.963,8.256c-1.798-2.095-1.557-5.252,0.539-7.051c2.096-1.798,5.253-1.556,7.05,0.539l54.562,63.588l54.562-63.588  c1.798-2.096,4.955-2.337,7.05-0.539c2.096,1.798,2.337,4.955,0.539,7.051L259.703,73.01L271.6,86.876l59.147-68.931  c1.798-2.096,4.954-2.337,7.05-0.539c2.096,1.798,2.337,4.955,0.539,7.051l-60.147,70.097l14.994,17.474l94.63-110.283  c1.798-2.096,4.955-2.337,7.05-0.539s2.337,4.955,0.539,7.051l-85.365,99.486c5.344,3.136,8.951,8.928,8.951,15.56v27.741  C384.838,178.24,431.303,243.139,431.303,318.697z M191.013,147.253c18.501-6.383,38.345-9.859,58.987-9.859  s40.486,3.476,58.987,9.859v-23.951c0-3.62-2.405-6.688-5.7-7.694l-6.056,7.057c-0.929,1.275-2.415,2.062-4.031,2.062h-80.136  c-1.458,0-2.845-0.637-3.794-1.744l-6.629-7.726h-3.583c-4.436,0-8.045,3.609-8.045,8.045V147.253z M421.303,318.697  c0-94.457-76.846-171.303-171.303-171.303S78.697,224.24,78.697,318.697S155.543,490,250,490S421.303,413.154,421.303,318.697z"/>
</svg>
