<?xml version="1.0" encoding="utf-8"?>
<!-- Generator: Adobe Illustrator 22.0.0, SVG Export Plug-In . SVG Version: 6.00 Build 0)  -->
<svg xmlns="http://www.w3.org/2000/svg" xmlns:xlink="http://www.w3.org/1999/xlink" version="1.1" id="Layer_1" x="0px" y="0px" viewBox="0 0 500 500" style="enable-background:new 0 0 500 500;" xml:space="preserve" width="512" height="512">
<style type="text/css">
	.st0{fill:#83E1E5;}
	.st1{fill:#AAB1BA;}
	.st2{fill:#ECF4F7;}
	.st3{fill:#FDDF7F;}
	.st4{fill:#1C1D21;}
	.st5{fill:#FFFFFF;}
</style>
<g>
	<g>
		<path class="st2" d="M421.898,353.124h-11.02c0-46.956-37.195-85.218-83.728-86.947c-9.341,9.142-20.271,16.666-32.354,22.091    c-11.441,5.137-18.933,16.355-18.933,28.896v15.113h-51.597v-14.141c0-12.786-7.709-24.208-19.438-29.297    c-12.562-5.451-23.916-13.156-33.572-22.591c-45.786,2.532-82.134,40.458-82.134,86.876h-11.02    c-39.178,0-70.938,31.76-70.938,70.938v0C7.164,463.24,38.924,495,78.102,495h343.796c39.178,0,70.938-31.76,70.938-70.938    S461.076,353.124,421.898,353.124z"/>
	</g>
</g>
<g>
	<g>
		<path class="st1" d="M294.46,351.593v-11.857c0-4.12-3.34-7.46-7.46-7.46h-74.001c-4.12,0-7.46,3.34-7.46,7.46v11.857    c0,4.12,3.34,7.46,7.46,7.46c-4.12,0-7.46,3.34-7.46,7.46v19.317h88.921v-19.317c0-4.12-3.34-7.46-7.46-7.46    C291.121,359.053,294.46,355.713,294.46,351.593z"/>
	</g>
</g>
<g>
	<g>
		<path class="st0" d="M430.524,168.32c0-6.73-5.456-12.187-12.187-12.187h-26.948c-3.735-18.062-10.849-34.885-20.644-49.791    l19.069-19.069c4.759-4.759,4.759-12.476,0-17.235l-24.329-24.33c-4.759-4.759-12.475-4.759-17.235,0l-19.069,19.069    c-14.906-9.795-31.729-16.909-49.791-20.644V17.187C279.39,10.456,273.934,5,267.204,5h-34.407    c-6.73,0-12.187,5.456-12.187,12.187v26.948c-18.062,3.735-34.885,10.849-49.791,20.644L151.75,45.71    c-4.759-4.759-12.475-4.759-17.235,0l-24.329,24.33c-4.759,4.759-4.759,12.475,0,17.235l19.069,19.069    c-9.795,14.906-16.909,31.729-20.644,49.791H81.663c-6.731,0-12.187,5.456-12.187,12.187v19.592h68.221    c-0.006-0.47-0.027-0.935-0.027-1.406c0-62.11,50.784-112.36,113.094-111.49c58.839,0.821,107.368,47.943,109.81,106.737    c0.086,2.067,0.095,4.117,0.07,6.159h69.88V168.32z"/>
	</g>
</g>
<g>
	<g>
		<path class="st3" d="M275.863,317.351c0-12.439,7.193-23.864,18.559-28.917c40.386-17.954,68.125-59.197,66.152-106.681    c-2.442-58.794-50.971-105.916-109.81-106.737c-62.31-0.87-113.094,49.38-113.094,111.49c0,45.904,27.74,85.327,67.372,102.425    c11.662,5.031,19.223,16.504,19.223,29.205v14.141h51.597V317.351z"/>
	</g>
</g>
<path class="st4" d="M421.898,348.124h-6.153c-1.184-22.114-10.198-42.872-25.684-58.907c-14.159-14.661-32.448-24.036-52.31-27.037  c3.572-4.185,6.87-8.632,9.853-13.333c12.748-20.084,18.96-43.357,17.966-67.302c-1.234-29.713-13.759-57.586-35.268-78.486  c-21.501-20.893-49.723-32.627-79.468-33.042c-31.438-0.429-61.087,11.471-83.461,33.535  c-22.378,22.068-34.702,51.529-34.702,82.955c0,28.452,10.331,55.19,28.112,75.904c-42.108,7.063-74.21,42.588-76.527,85.714h-6.154  c-41.873,0-75.938,34.065-75.938,75.938S36.229,500,78.102,500h343.796c41.873,0,75.938-34.065,75.938-75.938  S463.771,348.124,421.898,348.124z M174.395,110.672c20.453-20.17,47.541-31.071,76.299-30.656  c56.472,0.788,102.542,45.568,104.884,101.945c1.276,30.714-10.42,59.457-31.255,80.107c-0.235,0.162-0.465,0.333-0.671,0.536  c-6.719,6.576-14.183,12.178-22.267,16.735c-0.156,0.087-0.31,0.176-0.466,0.262c-1.074,0.598-2.163,1.17-3.258,1.731  c-0.325,0.166-0.645,0.337-0.972,0.5c-1.027,0.512-2.067,1.001-3.112,1.481c-0.397,0.182-0.785,0.376-1.185,0.554  c-9.583,4.261-16.664,12.464-19.774,22.256c-0.071,0.222-0.155,0.439-0.222,0.662c-0.03,0.102-0.052,0.206-0.081,0.308  c-0.942,3.232-1.452,6.615-1.452,10.072v0.188v9.925h-16.691V216.746l26.553-26.817c1.943-1.962,1.927-5.128-0.035-7.071  c-1.961-1.942-5.127-1.927-7.071,0.035l-24.447,24.69l-24.447-24.69c-1.943-1.962-5.109-1.978-7.071-0.035  c-1.962,1.943-1.978,5.109-0.035,7.071l26.553,26.817v110.531h-14.906v-9.141c0-14.701-8.73-27.966-22.243-33.795  c-0.24-0.103-0.472-0.218-0.711-0.323c-1.182-0.52-2.353-1.059-3.512-1.62c-0.397-0.192-0.788-0.393-1.182-0.59  c-0.992-0.496-1.978-1.004-2.953-1.53c-0.358-0.193-0.714-0.387-1.069-0.584c-1.135-0.629-2.26-1.276-3.37-1.946  c-0.146-0.088-0.295-0.174-0.441-0.262c-6.846-4.178-13.215-9.13-19.032-14.814c-0.075-0.074-0.166-0.126-0.245-0.194  c-19.999-19.662-31.835-46.839-31.835-75.971C142.671,157.778,153.938,130.846,174.395,110.672z M289.46,351.593  c0,1.356-1.104,2.46-2.46,2.46H213c-1.356,0-2.46-1.104-2.46-2.46v-11.857c0-1.356,1.104-2.46,2.46-2.46h11.266h51.597H287  c1.356,0,2.46,1.104,2.46,2.46V351.593z M421.898,490H78.102c-36.358,0-65.938-29.58-65.938-65.938s29.58-65.938,65.938-65.938  h11.02h48.549c2.761,0,5-2.239,5-5s-2.239-5-5-5H94.29c2.445-40.522,34.369-73.415,75.073-76.735  c4.855,4.566,10.122,8.738,15.767,12.45c0.057,0.037,0.114,0.073,0.171,0.11c1.222,0.801,2.461,1.579,3.718,2.336  c0.314,0.19,0.63,0.376,0.945,0.562c1.015,0.599,2.041,1.182,3.078,1.752c0.426,0.235,0.851,0.47,1.28,0.699  c0.973,0.519,1.957,1.02,2.948,1.513c0.451,0.224,0.897,0.455,1.351,0.674c1.13,0.544,2.275,1.066,3.428,1.576  c0.265,0.117,0.522,0.247,0.788,0.362c9.979,4.33,16.428,14.03,16.428,24.71v9.141H213c-6.871,0-12.46,5.589-12.46,12.46v11.857  c0,2.799,0.939,5.377,2.504,7.46c-1.564,2.083-2.504,4.66-2.504,7.459v19.317c0,2.761,2.239,5,5,5s5-2.239,5-5v-19.317  c0-1.356,1.104-2.459,2.46-2.459H287c1.356,0,2.46,1.104,2.46,2.459v19.317c0,2.761,2.239,5,5,5s5-2.239,5-5v-19.317  c0-2.799-0.939-5.377-2.504-7.459c1.564-2.083,2.504-4.661,2.504-7.46v-11.857c0-6.871-5.589-12.46-12.46-12.46h-6.138v-9.925  c0-2.59,0.372-5.117,1.065-7.521c0.017-0.058,0.029-0.117,0.046-0.175c0.057-0.194,0.13-0.383,0.192-0.576  c2.308-7.07,7.565-13.057,14.679-16.251c0.35-0.157,0.69-0.332,1.038-0.492c1.003-0.462,2.002-0.929,2.989-1.418  c0.452-0.224,0.897-0.459,1.345-0.689c0.961-0.491,1.916-0.991,2.861-1.507c0.389-0.213,0.775-0.432,1.161-0.65  c1.038-0.583,2.066-1.18,3.084-1.794c0.266-0.16,0.531-0.321,0.795-0.484c1.217-0.746,2.418-1.514,3.604-2.304  c0.056-0.037,0.113-0.074,0.169-0.111c5.401-3.607,10.484-7.65,15.201-12.101c41.564,2.593,74.168,35.559,76.622,76.844h-43.373  c-2.761,0-5,2.239-5,5s2.239,5,5,5h48.539h0.01h11.01c36.358,0,65.938,29.58,65.938,65.938S458.256,490,421.898,490z   M64.476,187.913V168.32c0-9.477,7.71-17.187,17.187-17.187h22.933c3.675-15.612,9.811-30.411,18.284-44.095L106.65,90.81  c-3.246-3.246-5.034-7.563-5.034-12.153c0-4.59,1.788-8.907,5.034-12.153l24.33-24.33c6.701-6.701,17.604-6.701,24.306,0  l16.23,16.23c13.685-8.474,28.484-14.61,44.095-18.285V17.187C215.61,7.71,223.32,0,232.796,0h34.407  c9.477,0,17.187,7.71,17.187,17.187V40.12c15.611,3.674,30.41,9.811,44.095,18.285l16.23-16.23c6.701-6.701,17.604-6.701,24.306,0  l24.33,24.33c3.246,3.246,5.034,7.563,5.034,12.153c0,4.591-1.788,8.907-5.034,12.153l-16.23,16.229  c8.474,13.685,14.61,28.484,18.285,44.095h22.933c9.477,0,17.187,7.71,17.187,17.187v19.592c0,2.761-2.239,5-5,5h-51.593  c-2.761,0-5-2.239-5-5s2.239-5,5-5h46.593V168.32c0-3.963-3.224-7.187-7.187-7.187h-26.948c-2.371,0-4.417-1.666-4.896-3.987  c-3.55-17.17-10.254-33.339-19.926-48.058c-1.302-1.981-1.033-4.604,0.643-6.281l19.069-19.069c1.357-1.357,2.105-3.162,2.105-5.082  c0-1.919-0.748-3.724-2.105-5.082l-24.33-24.33c-1.357-1.357-3.162-2.105-5.082-2.105s-3.724,0.748-5.082,2.105l-19.069,19.069  c-1.677,1.677-4.3,1.945-6.281,0.643c-14.719-9.672-30.888-16.376-48.058-19.926c-2.322-0.48-3.987-2.525-3.987-4.896V17.187  c0-3.962-3.224-7.187-7.187-7.187h-34.407c-3.963,0-7.187,3.224-7.187,7.187v26.948c0,2.371-1.666,4.417-3.987,4.896  c-17.17,3.55-33.339,10.254-48.058,19.926c-1.979,1.302-4.603,1.034-6.281-0.643l-19.069-19.069  c-1.357-1.357-3.162-2.105-5.082-2.105s-3.724,0.748-5.082,2.105l-24.33,24.33c-1.357,1.357-2.105,3.162-2.105,5.082  c0,1.92,0.748,3.725,2.105,5.082l19.069,19.069c1.676,1.677,1.945,4.3,0.643,6.281c-9.671,14.718-16.376,30.887-19.926,48.058  c-0.48,2.322-2.525,3.987-4.896,3.987H81.663c-3.963,0-7.187,3.224-7.187,7.187v14.592h45.988c2.761,0,5,2.239,5,5s-2.239,5-5,5  H69.476C66.715,192.913,64.476,190.674,64.476,187.913z M165.332,353.124c0,2.761-2.239,5-5,5h-3.769c-2.761,0-5-2.239-5-5  s2.239-5,5-5h3.769C163.093,348.124,165.332,350.363,165.332,353.124z M348.447,353.124c0,2.761-2.239,5-5,5h-3.769  c-2.761,0-5-2.239-5-5s2.239-5,5-5h3.769C346.208,348.124,348.447,350.363,348.447,353.124z M55.753,244.906c0-2.761,2.239-5,5-5  h5.833v-5.833c0-2.761,2.239-5,5-5s5,2.239,5,5v5.833h5.833c2.761,0,5,2.239,5,5s-2.239,5-5,5h-5.833v5.833c0,2.761-2.239,5-5,5  s-5-2.239-5-5v-5.833h-5.833C57.992,249.906,55.753,247.667,55.753,244.906z M433.414,239.906h5.833c2.761,0,5,2.239,5,5  s-2.239,5-5,5h-5.833v5.833c0,2.761-2.239,5-5,5s-5-2.239-5-5v-5.833h-5.833c-2.761,0-5-2.239-5-5s2.239-5,5-5h5.833v-5.833  c0-2.761,2.239-5,5-5s5,2.239,5,5V239.906z"/>
</svg>
