<?xml version="1.0" encoding="utf-8"?>
<!-- Generator: Adobe Illustrator 22.0.0, SVG Export Plug-In . SVG Version: 6.00 Build 0)  -->
<svg xmlns="http://www.w3.org/2000/svg" xmlns:xlink="http://www.w3.org/1999/xlink" version="1.1" id="Layer_1" x="0px" y="0px" viewBox="0 0 500 500" style="enable-background:new 0 0 500 500;" xml:space="preserve" width="512" height="512">
<style type="text/css">
	.st0{fill:#83E1E5;}
	.st1{fill:#AAB1BA;}
	.st2{fill:#ECF4F7;}
	.st3{fill:#FDDF7F;}
	.st4{fill:#1C1D21;}
	.st5{fill:#FFFFFF;}
</style>
<g>
	<g>
		<path class="st1" d="M453.759,240.915h-69.026v35.575c0,69.799-53.076,127.2-121.07,134.047    c-4.493,0.452-9.051,0.686-13.663,0.686s-9.169-0.233-13.662-0.686c-67.994-6.848-121.071-64.248-121.071-134.047v-35.575H46.241    c-8.147,0-14.751,6.604-14.751,14.751v41.647c0,8.147,6.604,14.751,14.751,14.751h32.317c4.53,21.943,13.173,42.379,25.076,60.48    l-22.869,22.87c-5.761,5.761-5.761,15.1,0,20.861l29.449,29.449c5.76,5.761,15.1,5.761,20.861,0l22.87-22.87    c18.102,11.904,38.537,20.547,60.48,25.077v32.318c0,8.147,6.604,14.751,14.751,14.751h41.647c8.147,0,14.751-6.604,14.751-14.751    v-32.318c21.943-4.53,42.379-13.173,60.48-25.077l22.87,22.87c5.761,5.761,15.101,5.761,20.861,0l29.449-29.449    c5.76-5.761,5.76-15.1,0-20.861l-22.869-22.87c11.904-18.102,20.547-38.537,25.076-60.48h32.318    c8.147,0,14.751-6.604,14.751-14.751v-41.647C468.51,247.52,461.906,240.915,453.759,240.915z"/>
	</g>
</g>
<g>
	<g>
		<path class="st2" d="M322.689,5H115.267v271.49c0,74.411,60.322,134.733,134.733,134.733c74.411,0,134.733-60.322,134.733-134.733    V67.044L322.689,5z"/>
	</g>
</g>
<g>
	<g>
		<polygon class="st1" points="322.689,5 322.689,67.044 384.733,67.044   "/>
	</g>
</g>
<g>
	<g>
		<g>
			<path class="st0" d="M250,411.223c4.612,0,9.17-0.233,13.663-0.686l0.012-0.016l-3.814-101.432h-19.722l-3.814,101.432     l0.012,0.016C240.831,410.99,245.388,411.223,250,411.223z"/>
		</g>
	</g>
</g>
<g>
	<g>
		<circle class="st3" cx="250" cy="251.175" r="57.913"/>
	</g>
</g>
<path class="st4" d="M61.95,193.442c0-2.761,2.238-5,5-5h5.833v-5.833c0-2.761,2.238-5,5-5s5,2.239,5,5v5.833h5.833  c2.762,0,5,2.239,5,5s-2.238,5-5,5h-5.833v5.833c0,2.761-2.238,5-5,5s-5-2.239-5-5v-5.833H66.95  C64.188,198.442,61.95,196.203,61.95,193.442z M77.783,167.611c2.762,0,5-2.239,5-5v-3.662c0-2.761-2.238-5-5-5s-5,2.239-5,5v3.662  C72.783,165.373,75.021,167.611,77.783,167.611z M77.783,144.343c2.762,0,5-2.239,5-5V5c0-2.761-2.238-5-5-5s-5,2.239-5,5v134.343  C72.783,142.104,75.021,144.343,77.783,144.343z M409.384,20.833h5.833v5.833c0,2.761,2.238,5,5,5s5-2.239,5-5v-5.833h5.833  c2.762,0,5-2.239,5-5s-2.238-5-5-5h-5.833V5c0-2.761-2.238-5-5-5s-5,2.239-5,5v5.833h-5.833c-2.762,0-5,2.239-5,5  S406.622,20.833,409.384,20.833z M425.217,46.663c0-2.761-2.238-5-5-5s-5,2.239-5,5v3.662c0,2.761,2.238,5,5,5s5-2.239,5-5V46.663z   M420.217,64.931c-2.762,0-5,2.239-5,5v134.343c0,2.761,2.238,5,5,5s5-2.239,5-5V69.931  C425.217,67.17,422.979,64.931,420.217,64.931z M453.759,235.915h-50.127c-2.762,0-5,2.239-5,5s2.238,5,5,5h50.127  c5.377,0,9.751,4.374,9.751,9.751v41.647c0,5.377-4.374,9.751-9.751,9.751h-32.317c-2.372,0-4.417,1.666-4.896,3.989  c-4.333,20.99-12.527,40.754-24.357,58.744c-1.303,1.981-1.035,4.606,0.643,6.283l22.869,22.869c3.802,3.802,3.802,9.988,0,13.79  l-29.449,29.449c-1.842,1.842-4.291,2.856-6.896,2.856s-5.053-1.014-6.895-2.856l-22.87-22.87c-1.676-1.676-4.3-1.946-6.282-0.642  c-17.988,11.83-37.753,20.024-58.744,24.358c-2.323,0.479-3.989,2.525-3.989,4.897v32.318c0,5.377-4.374,9.751-9.751,9.751h-41.646  c-5.377,0-9.751-4.374-9.751-9.751v-32.318c0-2.372-1.666-4.417-3.989-4.897c-20.991-4.333-40.756-12.528-58.744-24.358  c-1.982-1.303-4.606-1.034-6.282,0.642l-22.869,22.87c-3.803,3.802-9.988,3.802-13.791,0L84.301,412.74  c-3.802-3.802-3.802-9.988,0-13.79l22.869-22.869c1.678-1.677,1.945-4.301,0.643-6.283c-11.83-17.99-20.024-37.754-24.357-58.744  c-0.479-2.323-2.524-3.989-4.896-3.989H46.241c-5.377,0-9.751-4.374-9.751-9.751v-41.647c0-5.377,4.374-9.751,9.751-9.751h50.095  c2.762,0,5-2.239,5-5s-2.238-5-5-5H46.241c-10.891,0-19.751,8.86-19.751,19.751v41.647c0,10.891,8.86,19.751,19.751,19.751h28.291  c4.471,19.432,12.099,37.826,22.72,54.792L77.23,391.879c-3.73,3.73-5.785,8.69-5.785,13.966s2.055,10.236,5.785,13.966  l29.449,29.449c7.701,7.701,20.232,7.701,27.932,0l20.022-20.022c16.964,10.621,35.358,18.249,54.792,22.72v28.291  c0,10.891,8.86,19.751,19.751,19.751h41.646c10.891,0,19.751-8.86,19.751-19.751v-28.291c19.434-4.471,37.828-12.099,54.792-22.72  l20.022,20.022c3.73,3.731,8.69,5.785,13.966,5.785s10.235-2.054,13.966-5.785l29.449-29.449c3.73-3.731,5.785-8.691,5.785-13.966  s-2.055-10.236-5.785-13.966l-20.021-20.022c10.621-16.966,18.249-35.36,22.72-54.792h28.291c10.891,0,19.751-8.86,19.751-19.751  v-41.647C473.51,244.776,464.649,235.915,453.759,235.915z M115.268,111.519c2.762,0,5-2.239,5-5v-5.36c0-2.761-2.238-5-5-5  s-5,2.239-5,5v5.36C110.268,109.281,112.506,111.519,115.268,111.519z M203.014,344.332v37.461c0,2.761,2.238,5,5,5s5-2.239,5-5  v-37.461c0-2.761-2.238-5-5-5S203.014,341.57,203.014,344.332z M286.985,344.332v37.461c0,2.761,2.238,5,5,5s5-2.239,5-5v-37.461  c0-2.761-2.238-5-5-5S286.985,341.57,286.985,344.332z M201.002,304.089h15.03c-17.394-11.205-28.945-30.729-28.945-52.913  c0-34.691,28.223-62.914,62.913-62.914s62.913,28.223,62.913,62.914c0,22.184-11.552,41.708-28.945,52.913h15.03  c15.82,0,28.69,12.87,28.69,28.69v32.303c0,2.761-2.238,5-5,5s-5-2.239-5-5v-32.303c0-10.306-8.385-18.69-18.69-18.69h-33.947  l2.794,74.291c0.104,2.76-2.049,5.081-4.809,5.185c-0.063,0.002-0.128,0.003-0.19,0.003c-2.676,0-4.893-2.116-4.993-4.812  l-2.809-74.667h-10.091l-2.808,74.667c-0.103,2.759-2.458,4.904-5.184,4.809c-2.76-0.104-4.913-2.425-4.809-5.184l2.793-74.292  h-33.946c-10.306,0-18.69,8.384-18.69,18.69v32.303c0,2.761-2.238,5-5,5s-5-2.239-5-5v-32.303  C172.312,316.959,185.182,304.089,201.002,304.089z M250,304.089c29.177,0,52.913-23.737,52.913-52.913  c0-29.177-23.736-52.914-52.913-52.914s-52.913,23.737-52.913,52.914C197.087,280.352,220.823,304.089,250,304.089z M285.412,72.044  c2.762,0,5-2.239,5-5s-2.238-5-5-5h-5.856c-2.762,0-5,2.239-5,5s2.238,5,5,5H285.412z M192.087,72.044h67.521c2.762,0,5-2.239,5-5  s-2.238-5-5-5h-67.521c-2.762,0-5,2.239-5,5S189.325,72.044,192.087,72.044z M192.087,103.056h115.826c2.762,0,5-2.239,5-5  s-2.238-5-5-5H192.087c-2.762,0-5,2.239-5,5S189.325,103.056,192.087,103.056z M192.087,134.068h115.826c2.762,0,5-2.239,5-5  s-2.238-5-5-5H192.087c-2.762,0-5,2.239-5,5S189.325,134.068,192.087,134.068z M110.268,276.49V125.278c0-2.761,2.238-5,5-5  s5,2.239,5,5V276.49c0,71.535,58.197,129.733,129.732,129.733s129.732-58.198,129.732-129.733V72.044h-57.044c-2.762,0-5-2.239-5-5  V10H120.268v72.401c0,2.761-2.238,5-5,5s-5-2.239-5-5V5c0-2.761,2.238-5,5-5h207.421c0.033,0,0.065,0.009,0.099,0.01  c0.295,0.006,0.59,0.029,0.878,0.087c0.007,0.001,0.014,0.004,0.021,0.006c0.279,0.057,0.551,0.145,0.818,0.249  c0.081,0.031,0.158,0.068,0.237,0.104c0.198,0.089,0.39,0.192,0.576,0.308c0.073,0.045,0.146,0.087,0.216,0.136  c0.242,0.168,0.476,0.352,0.689,0.565l62.044,62.044c0.213,0.213,0.397,0.447,0.565,0.689c0.049,0.071,0.092,0.145,0.138,0.219  c0.115,0.186,0.218,0.377,0.307,0.575c0.035,0.079,0.072,0.155,0.104,0.236c0.105,0.27,0.195,0.545,0.252,0.829  c0.001,0.003,0.002,0.007,0.003,0.01c0.058,0.289,0.081,0.584,0.087,0.88c0.001,0.033,0.01,0.065,0.01,0.098V276.49  c0,77.049-62.684,139.733-139.732,139.733S110.268,353.539,110.268,276.49z M372.661,62.044l-22.486-22.487l-22.486-22.486v44.973  H372.661z"/>
</svg>
