<?xml version="1.0" encoding="utf-8"?>
<!-- Generator: Adobe Illustrator 22.0.0, SVG Export Plug-In . SVG Version: 6.00 Build 0)  -->
<svg xmlns="http://www.w3.org/2000/svg" xmlns:xlink="http://www.w3.org/1999/xlink" version="1.1" id="Layer_1" x="0px" y="0px" viewBox="0 0 500 500" style="enable-background:new 0 0 500 500;" xml:space="preserve" width="512" height="512">
<style type="text/css">
	.st0{fill:#83E1E5;}
	.st1{fill:#AAB1BA;}
	.st2{fill:#ECF4F7;}
	.st3{fill:#FDDF7F;}
	.st4{fill:#1C1D21;}
	.st5{fill:#FFFFFF;}
</style>
<g>
	<g>
		<path class="st2" d="M279.7,342.767h-57.811c-3.219,0-5.828,2.609-5.828,5.828v30.613c0,3.657,2.964,6.621,6.621,6.621h56.225    c3.657,0,6.621-2.964,6.621-6.621v-30.613C285.528,345.376,282.918,342.767,279.7,342.767z"/>
	</g>
</g>
<g>
	<g>
		<path class="st1" d="M258.898,414.004h-16.207c-5.546,0-10.041-4.496-10.041-10.041v-18.134h36.29v18.134    C268.939,409.508,264.443,414.004,258.898,414.004z"/>
	</g>
</g>
<g>
	<g>
		<path class="st3" d="M275.602,328.451c0-11.931,6.9-22.89,17.802-27.737c38.737-17.221,65.344-56.781,63.452-102.327    c-2.343-56.394-48.891-101.593-105.328-102.381c-59.767-0.834-108.478,47.364-108.478,106.94    c0,44.031,26.608,81.845,64.622,98.244c11.186,4.826,18.439,15.83,18.439,28.013v13.564h49.491V328.451z"/>
	</g>
</g>
<g>
	<g>
		<path class="st0" d="M324.648,209.427v-14.228c0-2.783-2.256-5.039-5.039-5.039h-16.992c-1.361-5.917-3.69-11.462-6.818-16.459    l12.015-12.015c1.968-1.968,1.968-5.159,0-7.127l-10.06-10.06c-1.968-1.968-5.159-1.968-7.127,0l-12.015,12.015    c-4.997-3.129-10.542-5.457-16.459-6.818v-16.992c0-2.783-2.256-5.039-5.039-5.039h-14.228c-2.783,0-5.039,2.256-5.039,5.039    v16.992c-5.917,1.361-11.462,3.69-16.459,6.818l-12.015-12.015c-1.968-1.968-5.159-1.968-7.127,0l-10.06,10.06    c-1.968,1.968-1.968,5.159,0,7.127l12.015,12.015c-3.129,4.997-5.457,10.542-6.818,16.459h-16.992    c-2.783,0-5.039,2.256-5.039,5.039v14.228c0,2.783,2.256,5.039,5.039,5.039h16.992c1.361,5.917,3.69,11.462,6.818,16.459    l-12.015,12.015c-1.968,1.968-1.968,5.159,0,7.127l10.06,10.06c1.968,1.968,5.159,1.968,7.127,0l12.015-12.015    c4.997,3.129,10.542,5.457,16.459,6.818v16.992c0,2.783,2.256,5.039,5.039,5.039h14.228c2.783,0,5.039-2.256,5.039-5.039V254.93    c5.917-1.361,11.462-3.69,16.459-6.818l12.015,12.015c1.968,1.968,5.159,1.968,7.127,0l10.06-10.06    c1.968-1.968,1.968-5.159,0-7.127l-12.015-12.015c3.129-4.997,5.457-10.542,6.818-16.459h16.992    C322.392,214.466,324.648,212.21,324.648,209.427z"/>
	</g>
</g>
<g>
	<g>
		<circle class="st2" cx="250" cy="202.313" r="27.738"/>
	</g>
</g>
<g>
	<g>
		<path class="st3" d="M266.545,24.003L245.01,6.384c-1.832-1.498-4.364-1.808-6.503-0.794c-2.139,1.014-3.503,3.169-3.503,5.536    v5.606C178.21,20.305,125.307,44.113,84.71,84.71C40.56,128.861,16.245,187.562,16.245,250h25    c0-110.065,85.625-200.499,193.76-208.212v4.575c0,2.367,1.364,4.522,3.503,5.536c2.139,1.014,4.671,0.705,6.503-0.794    l21.535-17.618c1.422-1.164,2.247-2.904,2.247-4.742C268.792,26.907,267.968,25.166,266.545,24.003z"/>
	</g>
</g>
<g>
	<g>
		<path class="st3" d="M233.455,475.997l21.535,17.618c1.832,1.498,4.364,1.808,6.503,0.794c2.139-1.014,3.503-3.169,3.503-5.536    v-5.606c56.795-3.572,109.698-27.381,150.295-67.978c44.15-44.151,68.465-102.852,68.465-165.29h-25    c0,110.065-85.625,200.499-193.76,208.212v-4.575c0-2.367-1.364-4.522-3.503-5.536c-2.139-1.014-4.671-0.705-6.503,0.794    l-21.535,17.618c-1.422,1.164-2.247,2.904-2.247,4.742C231.208,473.093,232.032,474.834,233.455,475.997z"/>
	</g>
</g>
<path class="st4" d="M227.649,403.962c0,8.294,6.748,15.042,15.042,15.042h16.207c8.293,0,15.041-6.748,15.041-15.042v-13.134h4.968  c6.408,0,11.621-5.213,11.621-11.621v-9.91h5.688c2.761,0,5-2.239,5-5s-2.239-5-5-5h-5.688v-10.703  c0-5.666-4.377-10.321-9.926-10.782v-9.362c0-10.068,5.822-19.162,14.833-23.167c42.269-18.792,68.339-60.832,66.417-107.104  c-1.186-28.553-13.222-55.338-33.89-75.421c-20.661-20.076-47.781-31.353-76.364-31.751c-30.228-0.405-58.7,11.022-80.2,32.225  c-21.504,21.206-33.347,49.516-33.347,79.715c0,44.743,26.551,85.108,67.642,102.835c9.367,4.041,15.419,13.234,15.419,23.422v8.603  c-5.607,0.402-10.049,5.081-10.049,10.788v10.703h-7.276c-2.761,0-5,2.239-5,5s2.239,5,5,5h7.276v9.91  c0,6.408,5.213,11.621,11.621,11.621h4.967V403.962z M263.939,403.962c0,2.78-2.261,5.042-5.041,5.042h-16.207  c-2.78,0-5.042-2.262-5.042-5.042v-13.134h26.29V403.962z M209.652,296.6c-37.422-16.144-61.603-52.905-61.603-93.653  c0-27.501,10.785-53.283,30.369-72.595c19.58-19.308,45.517-29.73,73.039-29.346c54.059,0.754,98.16,43.62,100.402,97.588  c1.751,42.146-21.992,80.438-60.488,97.551c-12.618,5.609-20.771,18.29-20.771,32.305v9.316H231.11v-8.563  C231.11,315.021,222.688,302.223,209.652,296.6z M221.061,348.595c0-0.457,0.371-0.828,0.828-0.828h4.222h49.491h4.098  c0.457,0,0.828,0.371,0.828,0.828v10.703h-59.466V348.595z M221.061,379.208v-9.91h59.466v9.91c0,0.894-0.727,1.621-1.621,1.621  h-9.968h-36.29h-9.967C221.788,380.829,221.061,380.102,221.061,379.208z M190.4,364.298c0,2.761-2.239,5-5,5h-3.118  c-2.761,0-5-2.239-5-5s2.239-5,5-5h3.118C188.162,359.298,190.4,361.537,190.4,364.298z M317.717,359.298c2.761,0,5,2.239,5,5  s-2.239,5-5,5H314.6c-2.761,0-5-2.239-5-5s2.239-5,5-5H317.717z M282.738,202.313c0-18.052-14.687-32.738-32.738-32.738  s-32.738,14.687-32.738,32.738s14.687,32.738,32.738,32.738S282.738,220.365,282.738,202.313z M227.262,202.313  c0-12.538,10.2-22.738,22.738-22.738s22.738,10.2,22.738,22.738s-10.2,22.738-22.738,22.738S227.262,214.851,227.262,202.313z   M232.847,271.922c0,5.536,4.503,10.039,10.039,10.039h14.228c5.536,0,10.039-4.503,10.039-10.039v-13.151  c3.686-1.117,7.244-2.59,10.639-4.407l9.3,9.299c3.915,3.915,10.284,3.914,14.198,0l10.061-10.061  c3.914-3.915,3.914-10.283,0-14.198l-9.3-9.3c1.816-3.395,3.291-6.953,4.407-10.639h13.151c5.536,0,10.039-4.504,10.039-10.04  v-14.228c0-5.536-4.503-10.039-10.039-10.039h-13.151c-1.117-3.686-2.591-7.244-4.407-10.639l9.3-9.3  c3.913-3.914,3.913-10.283,0-14.198l-10.061-10.061c-3.914-3.914-10.284-3.915-14.198,0l-9.3,9.3  c-3.395-1.816-6.953-3.291-10.639-4.407v-13.151c0-5.536-4.503-10.04-10.039-10.04h-14.228c-5.536,0-10.039,4.504-10.039,10.04  v13.151c-3.686,1.117-7.244,2.591-10.639,4.407l-9.3-9.3c-3.914-3.914-10.283-3.913-14.198,0l-10.061,10.061  c-3.913,3.914-3.913,10.283,0,14.198l9.3,9.299c-1.816,3.395-3.291,6.953-4.407,10.639h-13.151c-5.536,0-10.039,4.503-10.039,10.039  v14.228c0,5.536,4.503,10.04,10.039,10.04h13.151c1.117,3.686,2.591,7.244,4.407,10.639l-9.3,9.3  c-3.914,3.915-3.914,10.283,0,14.198l10.061,10.061c3.914,3.914,10.283,3.915,14.198,0l9.3-9.299  c3.396,1.816,6.953,3.29,10.639,4.407V271.922z M224.042,243.875c-0.818-0.512-1.738-0.762-2.652-0.762  c-1.292,0-2.572,0.5-3.537,1.464l-12.071,12.015l-10.061-10.116l12.016-12.016c1.647-1.647,1.938-4.214,0.702-6.189  c-2.884-4.606-4.964-9.628-6.184-14.926c-0.522-2.27-2.543-3.879-4.873-3.879l-17.031-0.04l0.039-14.267h16.992  c2.33,0,4.351-1.609,4.873-3.879c1.219-5.298,3.299-10.32,6.184-14.927c1.236-1.975,0.945-4.542-0.702-6.189l-12.016-12.071  l10.116-10.061l12.016,12.016c1.647,1.647,4.215,1.939,6.189,0.702c4.606-2.884,9.628-4.964,14.927-6.184  c2.27-0.522,3.879-2.543,3.879-4.873l0.039-17.031l14.267,0.04v16.991c0,2.33,1.609,4.351,3.879,4.873  c5.298,1.219,10.32,3.299,14.927,6.184c1.974,1.236,4.542,0.946,6.189-0.702l12.071-12.016l10.061,10.116l-12.016,12.015  c-1.647,1.647-1.938,4.214-0.702,6.189c2.884,4.606,4.964,9.628,6.184,14.927c0.522,2.27,2.543,3.879,4.873,3.879l17.031,0.039  v14.228l-17.031,0.04c-2.33,0-4.351,1.609-4.873,3.879c-1.219,5.298-3.299,10.32-6.184,14.926c-1.236,1.975-0.945,4.542,0.702,6.189  l12.016,12.071l-10.116,10.061l-12.016-12.015c-1.648-1.647-4.215-1.938-6.189-0.702c-4.606,2.884-9.628,4.964-14.927,6.183  c-2.27,0.522-3.879,2.543-3.879,4.873l-0.039,17.031l-14.267-0.039V254.93c0-2.33-1.609-4.351-3.879-4.873  C233.67,248.839,228.648,246.758,224.042,243.875z M230.039,47.225C126.547,57.341,46.245,145.393,46.245,250v66.433  c0,2.761-2.239,5-5,5s-5-2.239-5-5V250c0-54.329,20.484-106.146,57.678-145.904c37.011-39.563,86.989-63.462,140.726-67.295  c1.386-0.094,2.748,0.382,3.763,1.328c1.016,0.946,1.593,2.271,1.593,3.659v4.575c0,0.433,0.253,0.832,0.644,1.017  c0.391,0.186,0.86,0.128,1.197-0.146l21.534-17.618c0.263-0.215,0.413-0.533,0.413-0.872s-0.15-0.657-0.413-0.872l-21.535-17.619  c-0.334-0.272-0.802-0.331-1.194-0.146c-0.394,0.186-0.646,0.585-0.646,1.018v5.605c0,2.64-2.052,4.824-4.686,4.99  c-55.43,3.487-107.662,27.112-147.073,66.523C45.04,131.452,21.245,188.897,21.245,250c0,2.761-2.239,5-5,5s-5-2.239-5-5  c0-63.773,24.835-123.73,69.93-168.826c40.023-40.022,92.716-64.447,148.831-69.091v-0.957c0-4.277,2.498-8.224,6.363-10.054  c3.859-1.833,8.497-1.266,11.808,1.441l21.536,17.62c2.594,2.122,4.081,5.26,4.081,8.611c0,3.352-1.488,6.491-4.082,8.612  l-21.534,17.618c-3.312,2.709-7.947,3.276-11.812,1.442C232.763,54.709,230.349,51.164,230.039,47.225z M488.755,250  c0,63.773-24.835,123.73-69.93,168.826c-40.023,40.022-92.716,64.447-148.83,69.091v0.957c0,4.277-2.498,8.223-6.362,10.054  c-1.507,0.715-3.131,1.064-4.749,1.064c-2.529,0-5.041-0.854-7.06-2.506l-21.536-17.619c-2.593-2.122-4.081-5.26-4.081-8.612  c0-3.352,1.488-6.491,4.082-8.612l21.534-17.618c3.311-2.708,7.947-3.274,11.811-1.442c3.603,1.708,6.017,5.254,6.327,9.192  C373.453,442.659,453.755,354.607,453.755,250v-66.433c0-2.761,2.239-5,5-5s5,2.239,5,5V250c0,54.329-20.484,106.146-57.678,145.904  c-37.011,39.563-86.989,63.462-140.726,67.295c-1.385,0.097-2.748-0.382-3.763-1.328c-1.016-0.946-1.593-2.271-1.593-3.659v-4.575  c0-0.433-0.253-0.832-0.645-1.018c-0.39-0.185-0.86-0.128-1.196,0.146l-21.535,17.619c-0.263,0.214-0.413,0.532-0.413,0.872  c0,0.339,0.15,0.657,0.413,0.872l21.535,17.619c0.334,0.273,0.802,0.331,1.194,0.146c0.393-0.186,0.646-0.585,0.646-1.018v-5.605  c0-2.64,2.052-4.824,4.686-4.99c55.43-3.487,107.661-27.112,147.073-66.523C454.96,368.548,478.755,311.103,478.755,250  c0-2.761,2.239-5,5-5S488.755,247.239,488.755,250z M57.078,372.5c0,2.761-2.239,5-5,5h-5.833v5.833c0,2.761-2.239,5-5,5  s-5-2.239-5-5V377.5h-5.833c-2.761,0-5-2.239-5-5s2.239-5,5-5h5.833v-5.833c0-2.761,2.239-5,5-5s5,2.239,5,5v5.833h5.833  C54.839,367.5,57.078,369.739,57.078,372.5z M36.245,342.638v-4.214c0-2.761,2.239-5,5-5s5,2.239,5,5v4.214c0,2.761-2.239,5-5,5  S36.245,345.399,36.245,342.638z M442.922,127.5c0-2.761,2.239-5,5-5h5.833v-5.833c0-2.761,2.239-5,5-5s5,2.239,5,5v5.833h5.833  c2.761,0,5,2.239,5,5s-2.239,5-5,5h-5.833v5.833c0,2.761-2.239,5-5,5s-5-2.239-5-5V132.5h-5.833  C445.161,132.5,442.922,130.261,442.922,127.5z M463.755,157.362v4.214c0,2.761-2.239,5-5,5s-5-2.239-5-5v-4.214  c0-2.761,2.239-5,5-5S463.755,154.601,463.755,157.362z"/>
</svg>
