<?xml version="1.0" encoding="utf-8"?>
<!-- Generator: Adobe Illustrator 22.0.0, SVG Export Plug-In . SVG Version: 6.00 Build 0)  -->
<svg xmlns="http://www.w3.org/2000/svg" xmlns:xlink="http://www.w3.org/1999/xlink" version="1.1" id="Layer_1" x="0px" y="0px" viewBox="0 0 500 500" style="enable-background:new 0 0 500 500;" xml:space="preserve" width="512" height="512">
<style type="text/css">
	.st0{fill:#83E1E5;}
	.st1{fill:#AAB1BA;}
	.st2{fill:#ECF4F7;}
	.st3{fill:#FDDF7F;}
	.st4{fill:#1C1D21;}
	.st5{fill:#FFFFFF;}
</style>
<g>
	<g>
		<rect x="205" y="284" class="st1" width="90" height="90"/>
	</g>
</g>
<g>
	<g>
		<rect x="333" y="284" class="st1" width="90" height="90"/>
	</g>
</g>
<g>
	<g>
		<rect x="238" y="284" class="st3" width="25" height="28"/>
	</g>
</g>
<g>
	<g>
		<rect x="365" y="284" class="st3" width="25" height="28"/>
	</g>
</g>
<g>
	<g>
		<rect x="77" y="284" class="st1" width="90" height="90"/>
	</g>
</g>
<g>
	<g>
		<rect x="110" y="284" class="st3" width="25" height="28"/>
	</g>
</g>
<g>
	<g>
		<path class="st3" d="M266.954,198.05c-0.001,0-0.001,0.001-0.002,0.001c4.664-4.489,7.568-10.776,7.568-17.741    c0-8.766-4.597-16.46-11.52-20.841V5h-26v154.469c-6.923,4.381-11.52,12.075-11.52,20.841c0,6.969,2.907,13.259,7.576,17.749    c-0.003-0.003-0.007-0.006-0.01-0.009L205,226.881V284h22v-46h45v46h23v-57.119C295,226.881,279.756,211.211,266.954,198.05z"/>
	</g>
</g>
<g>
	<g>
		<path class="st0" d="M428.5,495h-358C37.087,495,10,467.913,10,434.5v0c0-33.413,27.087-60.5,60.5-60.5h358    c33.413,0,60.5,27.087,60.5,60.5v0C489,467.913,461.913,495,428.5,495z"/>
	</g>
</g>
<g>
	<g>
		<circle class="st5" cx="75" cy="434" r="30"/>
	</g>
</g>
<g>
	<g>
		<circle class="st5" cx="162" cy="434" r="30"/>
	</g>
</g>
<g>
	<g>
		<circle class="st5" cx="250" cy="434" r="30"/>
	</g>
</g>
<g>
	<g>
		<circle class="st5" cx="338" cy="434" r="30"/>
	</g>
</g>
<g>
	<g>
		<circle class="st5" cx="425" cy="434" r="30"/>
	</g>
</g>
<path class="st4" d="M232,10.992V6c0-2.762,2.239-5,5-5s5,2.238,5,5v4.992c0,2.762-2.239,5-5,5S232,13.754,232,10.992z M200,267  v-40.229c0-1.298,0.504-2.544,1.407-3.477l24.41-25.227c-3.652-4.911-5.817-10.99-5.817-17.567c0-9.72,4.727-18.354,12-23.73V27.897  c0-2.762,2.239-5,5-5s5,2.238,5,5v122.506c5.173-1.471,10.827-1.471,16,0V6c0-2.762,2.239-5,5-5s5,2.238,5,5v151.545  c6.702,5.412,11,13.689,11,22.955c0,6.315-2.001,12.168-5.393,16.972l24.987,25.822c0.902,0.932,1.407,2.179,1.407,3.477V267  c0,2.762-2.239,5-5,5s-5-2.238-5-5v-38.206l-23.266-24.044c-3.734,2.563-7.99,4.217-12.478,4.861  c-1.549,0.252-3.137,0.389-4.756,0.389c-6.087,0-11.749-1.854-16.452-5.025L210,228.794V267c0,2.762-2.239,5-5,5  S200,269.762,200,267z M230,180.5c0,4.985,1.896,9.524,4.985,12.977c0.49,0.232,0.953,0.527,1.35,0.911  c3.688,3.568,8.541,5.534,13.665,5.534c0.856,0,1.699-0.075,2.536-0.183C261.848,198.273,269,190.217,269,180.5  c0-10.752-8.748-19.5-19.5-19.5S230,169.748,230,180.5z M272,272c2.761,0,5-2.238,5-5v-29c0-2.762-2.239-5-5-5h-45  c-2.761,0-5,2.238-5,5v29c0,2.762,2.239,5,5,5s5-2.238,5-5v-24h35v24C267,269.762,269.239,272,272,272z M72,353v-69  c0-2.762,2.239-5,5-5h33h25h32c2.761,0,5,2.238,5,5v69c0,2.762-2.239,5-5,5s-5-2.238-5-5v-64h-22v23c0,2.762-2.239,5-5,5h-25  c-2.761,0-5-2.238-5-5v-23H82v64c0,2.762-2.239,5-5,5S72,355.762,72,353z M115,289v18h15v-18H115z M200,353v-69c0-2.762,2.239-5,5-5  h33h25h32c2.761,0,5,2.238,5,5v69c0,2.762-2.239,5-5,5s-5-2.238-5-5v-64h-22v23c0,2.762-2.239,5-5,5h-25c-2.761,0-5-2.238-5-5v-23  h-23v64c0,2.762-2.239,5-5,5S200,355.762,200,353z M243,289v18h15v-18H243z M333,279h32h25h33c2.761,0,5,2.238,5,5v69  c0,2.762-2.239,5-5,5s-5-2.238-5-5v-64h-23v23c0,2.762-2.239,5-5,5h-25c-2.761,0-5-2.238-5-5v-23h-22v64c0,2.762-2.239,5-5,5  s-5-2.238-5-5v-69C328,281.238,330.239,279,333,279z M370,289v18h15v-18H370z M494,434.5c0,36.117-29.383,65.5-65.5,65.5h-358  C34.383,500,5,470.617,5,434.5S34.383,369,70.5,369h358C464.617,369,494,398.383,494,434.5z M484,434.5  c0-30.603-24.897-55.5-55.5-55.5h-358C39.897,379,15,403.897,15,434.5S39.897,490,70.5,490h358C459.103,490,484,465.103,484,434.5z   M110,434c0,19.299-15.701,35-35,35s-35-15.701-35-35s15.701-35,35-35S110,414.701,110,434z M100,434c0-13.785-11.215-25-25-25  s-25,11.215-25,25s11.215,25,25,25S100,447.785,100,434z M197,434c0,19.299-15.701,35-35,35s-35-15.701-35-35s15.701-35,35-35  S197,414.701,197,434z M187,434c0-13.785-11.215-25-25-25s-25,11.215-25,25s11.215,25,25,25S187,447.785,187,434z M285,434  c0,19.299-15.701,35-35,35s-35-15.701-35-35s15.701-35,35-35S285,414.701,285,434z M275,434c0-13.785-11.215-25-25-25  s-25,11.215-25,25s11.215,25,25,25S275,447.785,275,434z M373,434c0,19.299-15.701,35-35,35s-35-15.701-35-35s15.701-35,35-35  S373,414.701,373,434z M363,434c0-13.785-11.215-25-25-25s-25,11.215-25,25s11.215,25,25,25S363,447.785,363,434z M460,434  c0,19.299-15.701,35-35,35s-35-15.701-35-35s15.701-35,35-35S460,414.701,460,434z M450,434c0-13.785-11.215-25-25-25  s-25,11.215-25,25s11.215,25,25,25S450,447.785,450,434z M440.5,434c0,8.547-6.953,15.5-15.5,15.5s-15.5-6.953-15.5-15.5  s6.953-15.5,15.5-15.5S440.5,425.453,440.5,434z M430.5,434c0-3.032-2.467-5.5-5.5-5.5s-5.5,2.468-5.5,5.5s2.467,5.5,5.5,5.5  S430.5,437.032,430.5,434z M353.5,434c0,8.547-6.953,15.5-15.5,15.5s-15.5-6.953-15.5-15.5s6.953-15.5,15.5-15.5  S353.5,425.453,353.5,434z M343.5,434c0-3.032-2.467-5.5-5.5-5.5s-5.5,2.468-5.5,5.5s2.467,5.5,5.5,5.5S343.5,437.032,343.5,434z   M265.5,434c0,8.547-6.953,15.5-15.5,15.5s-15.5-6.953-15.5-15.5s6.953-15.5,15.5-15.5S265.5,425.453,265.5,434z M255.5,434  c0-3.032-2.467-5.5-5.5-5.5s-5.5,2.468-5.5,5.5s2.467,5.5,5.5,5.5S255.5,437.032,255.5,434z M177.5,434  c0,8.547-6.953,15.5-15.5,15.5s-15.5-6.953-15.5-15.5s6.953-15.5,15.5-15.5S177.5,425.453,177.5,434z M167.5,434  c0-3.032-2.467-5.5-5.5-5.5s-5.5,2.468-5.5,5.5s2.467,5.5,5.5,5.5S167.5,437.032,167.5,434z M90.5,434c0,8.547-6.953,15.5-15.5,15.5  s-15.5-6.953-15.5-15.5s6.953-15.5,15.5-15.5S90.5,425.453,90.5,434z M80.5,434c0-3.032-2.467-5.5-5.5-5.5s-5.5,2.468-5.5,5.5  s2.467,5.5,5.5,5.5S80.5,437.032,80.5,434z M151,174h6v6c0,2.762,2.239,5,5,5s5-2.238,5-5v-6h6c2.761,0,5-2.238,5-5s-2.239-5-5-5h-6  v-5c0-2.762-2.239-5-5-5s-5,2.238-5,5v5h-6c-2.761,0-5,2.238-5,5S148.239,174,151,174z M327,174h6v6c0,2.762,2.239,5,5,5  s5-2.238,5-5v-6h6c2.761,0,5-2.238,5-5s-2.239-5-5-5h-6v-5c0-2.762-2.239-5-5-5s-5,2.238-5,5v5h-6c-2.761,0-5,2.238-5,5  S324.239,174,327,174z"/>
</svg>
