<?xml version="1.0" encoding="utf-8"?>
<!-- Generator: Adobe Illustrator 22.0.0, SVG Export Plug-In . SVG Version: 6.00 Build 0)  -->
<svg xmlns="http://www.w3.org/2000/svg" xmlns:xlink="http://www.w3.org/1999/xlink" version="1.1" id="Layer_1" x="0px" y="0px" viewBox="0 0 500 500" style="enable-background:new 0 0 500 500;" xml:space="preserve" width="512" height="512">
<style type="text/css">
	.st0{fill:#83E1E5;}
	.st1{fill:#AAB1BA;}
	.st2{fill:#ECF4F7;}
	.st3{fill:#FDDF7F;}
	.st4{fill:#1C1D21;}
	.st5{fill:#FFFFFF;}
</style>
<g>
	<g>
		<path class="st1" d="M407.009,149.481l23.257-23.258c2.415-2.415,2.415-6.33,0-8.745l-13.763-13.763    c-2.415-2.415-6.33-2.415-8.745,0l-23.457,23.457c-31.289-26.389-70.451-43.737-113.463-48.007V45.528h13.748    c3.734,0,6.761-3.027,6.761-6.762V11.762c0-3.735-3.027-6.762-6.761-6.762h-69.172c-3.734,0-6.762,3.027-6.762,6.762v27.005    c0,3.735,3.027,6.762,6.762,6.762h13.748v33.636c-43.012,4.269-82.174,21.618-113.463,48.007l-23.457-23.457    c-2.415-2.415-6.33-2.415-8.745,0l-13.763,13.763c-2.415,2.415-2.415,6.33,0,8.745l23.257,23.257    c-32.022,36.644-51.426,84.597-51.426,137.084C41.565,401.68,134.884,495,250,495c115.115,0,208.435-93.32,208.435-208.435    C458.435,234.077,439.031,186.125,407.009,149.481z"/>
	</g>
</g>
<g>
	<g>
		<circle class="st0" cx="250" cy="286.565" r="176.688"/>
	</g>
</g>
<g>
	<g>
		<path class="st2" d="M150.077,226.993v205.298c28.422,19.526,62.835,30.962,99.923,30.962s71.501-11.437,99.923-30.962V273.007    l-46.015-46.015H150.077z"/>
	</g>
</g>
<g>
	<g>
		<path class="st3" d="M314.143,351.235V339.01c0-2.391-1.939-4.33-4.33-4.33h-14.6c-1.17-5.084-3.17-9.849-5.859-14.143    l10.324-10.324c1.691-1.691,1.691-4.433,0-6.124l-8.645-8.645c-1.691-1.691-4.433-1.691-6.124,0l-10.324,10.324    c-4.294-2.688-9.058-4.689-14.143-5.859v-14.6c0-2.391-1.939-4.33-4.33-4.33h-12.225c-2.391,0-4.33,1.939-4.33,4.33v14.6    c-5.084,1.17-9.849,3.17-14.143,5.859l-10.324-10.324c-1.691-1.691-4.433-1.691-6.124,0l-8.645,8.645    c-1.691,1.691-1.691,4.433,0,6.124l10.324,10.324c-2.688,4.294-4.689,9.058-5.859,14.143h-14.6c-2.391,0-4.33,1.939-4.33,4.33    v12.225c0,2.391,1.939,4.33,4.33,4.33h14.6c1.17,5.084,3.17,9.849,5.859,14.143l-10.324,10.324c-1.691,1.691-1.691,4.433,0,6.124    l8.645,8.645c1.691,1.691,4.433,1.691,6.124,0l10.324-10.324c4.294,2.688,9.058,4.689,14.143,5.859v14.6    c0,2.391,1.939,4.33,4.33,4.33h12.225c2.391,0,4.33-1.939,4.33-4.33v-14.6c5.084-1.17,9.849-3.17,14.143-5.859l10.324,10.324    c1.691,1.691,4.433,1.691,6.124,0l8.645-8.645c1.691-1.691,1.691-4.433,0-6.124l-10.324-10.324    c2.688-4.294,4.689-9.058,5.859-14.143h14.6C312.204,355.566,314.143,353.627,314.143,351.235z"/>
	</g>
</g>
<g>
	<g>
		<circle class="st1" cx="250" cy="345.123" r="23.834"/>
	</g>
</g>
<g>
	<g>
		<polygon class="st1" points="303.909,226.993 303.909,273.007 349.923,273.007   "/>
	</g>
</g>
<path class="st4" d="M133.593,45.528c0-2.762,2.239-5,5-5h5.833v-5.833c0-2.762,2.239-5,5-5s5,2.238,5,5v5.833h5.833  c2.761,0,5,2.238,5,5s-2.239,5-5,5h-5.833v5.833c0,2.762-2.239,5-5,5s-5-2.238-5-5v-5.833h-5.833  C135.832,50.528,133.593,48.29,133.593,45.528z M339.742,50.528h5.833v5.833c0,2.762,2.239,5,5,5s5-2.238,5-5v-5.833h5.833  c2.761,0,5-2.238,5-5s-2.239-5-5-5h-5.833v-5.833c0-2.762-2.239-5-5-5s-5,2.238-5,5v5.833h-5.833c-2.761,0-5,2.238-5,5  S336.98,50.528,339.742,50.528z M278.834,345.123c0,15.899-12.935,28.834-28.834,28.834s-28.834-12.935-28.834-28.834  s12.935-28.835,28.834-28.835S278.834,329.224,278.834,345.123z M268.834,345.123c0-10.386-8.449-18.835-18.834-18.835  s-18.834,8.449-18.834,18.835c0,10.385,8.449,18.834,18.834,18.834S268.834,355.508,268.834,345.123z M319.143,339.01v12.226  c0,5.145-4.186,9.33-9.33,9.33h-10.781c-0.901,2.867-2.051,5.644-3.441,8.308l7.624,7.624c3.637,3.638,3.637,9.557,0,13.194  l-8.645,8.645c-3.639,3.639-9.557,3.638-13.194,0.001l-7.624-7.624c-2.664,1.391-5.44,2.54-8.308,3.441v10.781  c0,5.145-4.186,9.33-9.33,9.33h-12.226c-5.145,0-9.33-4.186-9.33-9.33v-10.781c-2.868-0.901-5.644-2.052-8.308-3.441l-7.624,7.623  c-3.639,3.639-9.557,3.638-13.194,0.001l-8.645-8.646c-3.637-3.638-3.637-9.557,0-13.194l7.624-7.624  c-1.39-2.664-2.541-5.44-3.441-8.308h-10.781c-5.145,0-9.33-4.186-9.33-9.33V339.01c0-5.145,4.186-9.33,9.33-9.33h10.782  c0.901-2.867,2.051-5.644,3.441-8.308l-7.624-7.624c-1.762-1.761-2.732-4.104-2.732-6.597s0.971-4.836,2.733-6.598l8.644-8.644  c1.762-1.763,4.105-2.733,6.597-2.733c2.493,0,4.836,0.971,6.598,2.733l7.623,7.623c2.665-1.391,5.441-2.541,8.308-3.441v-10.781  c0-5.145,4.186-9.33,9.33-9.33h12.226c5.145,0,9.33,4.186,9.33,9.33v10.781c2.867,0.9,5.644,2.051,8.308,3.441l7.623-7.623  c1.762-1.763,4.105-2.733,6.598-2.733c2.492,0,4.835,0.971,6.598,2.733l8.644,8.645c1.762,1.761,2.732,4.104,2.732,6.597  s-0.971,4.836-2.733,6.598l-7.623,7.623c1.391,2.664,2.541,5.44,3.441,8.308h10.781C314.957,329.68,319.143,333.865,319.143,339.01z   M309.143,339.68h-13.931c-2.33,0-4.351-1.608-4.873-3.879c-1.03-4.477-2.787-8.719-5.224-12.61  c-1.236-1.975-0.945-4.541,0.702-6.188l9.85-9.851l-7.697-7.696l-9.85,9.85c-1.647,1.647-4.215,1.938-6.189,0.703  c-3.893-2.438-8.135-4.195-12.609-5.224c-2.271-0.522-3.88-2.543-3.88-4.873V285.98h-10.886v13.931c0,2.33-1.609,4.351-3.879,4.873  c-4.475,1.028-8.717,2.786-12.61,5.224c-1.973,1.235-4.541,0.946-6.189-0.703l-9.851-9.85l-7.696,7.696l9.85,9.851  c1.647,1.646,1.938,4.214,0.703,6.188c-2.437,3.892-4.194,8.135-5.224,12.61c-0.522,2.271-2.543,3.879-4.873,3.879h-13.931v10.886  h13.931c2.33,0,4.351,1.608,4.873,3.879c1.03,4.476,2.788,8.719,5.224,12.61c1.236,1.975,0.944,4.542-0.703,6.188l-9.851,9.852  l7.697,7.696l9.85-9.85c1.647-1.647,4.215-1.938,6.189-0.703c3.891,2.437,8.133,4.193,12.61,5.224  c2.271,0.522,3.879,2.544,3.879,4.873v13.931h10.886v-13.931c0-2.329,1.609-4.351,3.879-4.873c4.477-1.029,8.72-2.787,12.61-5.224  c1.975-1.234,4.542-0.945,6.189,0.703l9.85,9.85l7.697-7.697l-9.851-9.851c-1.647-1.647-1.938-4.214-0.702-6.188  c2.437-3.892,4.194-8.135,5.223-12.61c0.522-2.27,2.543-3.879,4.873-3.879h13.931V339.68z M463.435,286.564  c0,57.011-22.201,110.609-62.514,150.922S307.011,500,250,500H73.312c-2.761,0-5-2.238-5-5s2.239-5,5-5h111.827  c-32.117-10.2-61.547-28.001-86.06-52.514c-40.313-40.313-62.514-93.911-62.514-150.922c0-51.986,18.691-99.683,49.695-136.745  l-20.062-20.061c-2.112-2.112-3.275-4.921-3.275-7.908s1.164-5.796,3.276-7.908l13.762-13.763c2.112-2.112,4.921-3.276,7.908-3.276  c2.988,0,5.796,1.164,7.909,3.276l20.316,20.315c30.32-24.496,67.451-40.873,108.068-45.797V50.528h-8.748  c-6.485,0-11.761-5.276-11.761-11.762V11.762C203.652,5.276,208.928,0,215.414,0h69.173c6.485,0,11.761,5.276,11.761,11.762v27.005  c0,6.485-5.276,11.762-11.761,11.762h-8.748v24.169c40.617,4.924,77.748,21.301,108.068,45.797l20.316-20.315  c2.112-2.112,4.921-3.276,7.909-3.276c2.987,0,5.796,1.164,7.908,3.276l13.763,13.764c2.112,2.111,3.275,4.92,3.275,7.907  c0,2.987-1.164,5.796-3.276,7.908L413.74,149.82C444.744,186.882,463.435,234.578,463.435,286.564z M391.632,126.911  c5.446,4.835,10.659,9.957,15.573,15.302l19.525-19.524c0.287-0.287,0.347-0.614,0.347-0.838s-0.06-0.55-0.346-0.836l-13.764-13.765  c-0.287-0.286-0.613-0.347-0.837-0.347c-0.224,0-0.551,0.061-0.837,0.347L391.632,126.911z M215.414,40.528h13.748h41.677h13.748  c0.971,0,1.761-0.79,1.761-1.762V11.762c0-0.972-0.79-1.762-1.761-1.762h-69.173c-0.971,0-1.761,0.79-1.761,1.762v27.005  C213.652,39.738,214.442,40.528,215.414,40.528z M238.517,73.441c0.553-0.029,1.109-0.051,1.663-0.077  c1.122-0.051,2.243-0.094,3.363-0.128c0.539-0.016,1.078-0.033,1.618-0.045c1.616-0.037,3.23-0.062,4.839-0.062  s3.223,0.025,4.839,0.062c0.54,0.012,1.079,0.029,1.618,0.045c1.121,0.034,2.241,0.077,3.363,0.128  c0.554,0.025,1.109,0.047,1.663,0.077c1.453,0.078,2.905,0.167,4.355,0.273V50.528h-31.677v23.186  C235.612,73.607,237.064,73.519,238.517,73.441z M73.269,122.688l19.526,19.524c4.914-5.345,10.127-10.467,15.573-15.302  L88.707,107.25c-0.287-0.286-0.613-0.347-0.837-0.347c-0.224,0-0.55,0.061-0.837,0.347l-13.763,13.764  c-0.287,0.287-0.347,0.613-0.347,0.837S72.982,122.401,73.269,122.688z M453.435,286.564c0-105.968-81.448-193.258-185.027-202.593  c-1.02-0.091-2.039-0.189-3.062-0.266c-0.326-0.024-0.655-0.04-0.982-0.063c-9.553-0.666-19.176-0.666-28.728,0  c-0.327,0.023-0.656,0.038-0.982,0.063c-1.022,0.076-2.041,0.174-3.062,0.266c-103.58,9.335-185.027,96.625-185.027,202.593  C46.565,398.739,137.826,490,250,490S453.435,398.739,453.435,286.564z M431.688,286.564c0,100.184-81.505,181.688-181.688,181.688  S68.312,386.748,68.312,286.564c0-100.183,81.505-181.688,181.688-181.688S431.688,186.382,431.688,286.564z M421.688,286.564  c0-94.669-77.019-171.688-171.688-171.688S78.312,191.896,78.312,286.564S155.331,458.253,250,458.253  S421.688,381.233,421.688,286.564z M250,147.634c2.761,0,5-2.238,5-5v-6.258c0-2.762-2.239-5-5-5s-5,2.238-5,5v6.258  C245,145.396,247.239,147.634,250,147.634z M352.665,176.829l-4.425,4.425c-1.953,1.953-1.953,5.119,0,7.071  c0.976,0.977,2.256,1.465,3.536,1.465c1.279,0,2.559-0.488,3.535-1.464l4.425-4.425c1.953-1.953,1.953-5.119,0-7.071  C357.784,174.878,354.617,174.878,352.665,176.829z M400.189,281.564h-6.258c-2.761,0-5,2.238-5,5s2.239,5,5,5h6.258  c2.761,0,5-2.238,5-5S402.95,281.564,400.189,281.564z M106.069,281.564h-6.258c-2.761,0-5,2.238-5,5s2.239,5,5,5h6.258  c2.761,0,5-2.238,5-5S108.831,281.564,106.069,281.564z M151.761,188.325c1.953-1.952,1.953-5.118,0-7.07l-4.425-4.425  c-1.953-1.953-5.118-1.953-7.071,0c-1.953,1.952-1.953,5.118,0,7.07l4.425,4.425c0.977,0.977,2.256,1.465,3.536,1.465  S150.785,189.302,151.761,188.325z M354.914,272.91c0.001,0.033,0.01,0.065,0.01,0.098v137.995c0,2.762-2.239,5-5,5s-5-2.238-5-5  V278.007h-41.015c-2.761,0-5-2.238-5-5v-41.015H155.077v179.011c0,2.762-2.239,5-5,5s-5-2.238-5-5V226.992c0-2.762,2.239-5,5-5  h153.832c0.035,0,0.068,0.009,0.103,0.01c0.293,0.006,0.584,0.029,0.87,0.086c0.013,0.002,0.025,0.007,0.037,0.01  c0.274,0.057,0.541,0.142,0.802,0.244c0.085,0.033,0.166,0.072,0.249,0.11c0.192,0.087,0.377,0.187,0.558,0.298  c0.078,0.048,0.156,0.094,0.232,0.146c0.232,0.161,0.455,0.338,0.66,0.542c0.007,0.007,0.017,0.012,0.024,0.02l23.007,23.008  l23.007,23.007c0.215,0.214,0.399,0.449,0.568,0.693c0.047,0.068,0.087,0.138,0.131,0.208c0.118,0.19,0.223,0.385,0.313,0.587  c0.034,0.076,0.07,0.15,0.1,0.228c0.107,0.273,0.198,0.553,0.255,0.84c0,0,0,0,0,0C354.884,272.318,354.908,272.613,354.914,272.91z   M308.909,268.007h28.943l-14.471-14.471l-14.472-14.471V268.007z M48.324,490h-6.759c-2.761,0-5,2.238-5,5s2.239,5,5,5h6.759  c2.761,0,5-2.238,5-5S51.085,490,48.324,490z"/>
</svg>
