<?xml version="1.0" encoding="utf-8"?>
<!-- Generator: Adobe Illustrator 22.0.0, SVG Export Plug-In . SVG Version: 6.00 Build 0)  -->
<svg xmlns="http://www.w3.org/2000/svg" xmlns:xlink="http://www.w3.org/1999/xlink" version="1.1" id="Layer_1" x="0px" y="0px" viewBox="0 0 500 500" style="enable-background:new 0 0 500 500;" xml:space="preserve" width="512" height="512">
<style type="text/css">
	.st0{fill:#83E1E5;}
	.st1{fill:#AAB1BA;}
	.st2{fill:#ECF4F7;}
	.st3{fill:#FDDF7F;}
	.st4{fill:#1C1D21;}
	.st5{fill:#FFFFFF;}
</style>
<g>
	<g>
		<path class="st2" d="M474.441,181.841H298.746c-6.584-13.484-20.427-22.775-36.443-22.775c-22.387,0-40.535,18.148-40.535,40.535    c0,22.387,18.148,40.535,40.535,40.535c16.016,0,29.859-9.291,36.443-22.775h175.695c7.321,0,13.256-5.935,13.256-13.256v-9.008    C487.697,187.776,481.762,181.841,474.441,181.841z"/>
	</g>
</g>
<g>
	<g>
		<polygon class="st1" points="12.303,199.601 59.045,217.361 59.045,181.841   "/>
	</g>
</g>
<g>
	<g>
		<path class="st2" d="M116.034,198.301c0-5.566,0.322-11.056,0.927-16.46H59.045v35.52h58.245    C116.478,211.12,116.034,204.764,116.034,198.301z"/>
	</g>
</g>
<g>
	<g>
		<path class="st3" d="M339.195,217.361c-1.99,8.647-5.392,16.75-9.964,24.052l17.559,17.559c2.876,2.876,2.876,7.539,0,10.415    l-14.702,14.702c-2.876,2.876-7.539,2.876-10.415,0l-17.559-17.559c-7.303,4.572-15.405,7.974-24.052,9.964v24.831    c0,4.067-3.297,7.364-7.364,7.364h-20.792c-4.067,0-7.364-3.297-7.364-7.364v-24.831c-8.647-1.99-16.75-5.392-24.052-9.964    l-17.559,17.559c-2.876,2.876-7.539,2.876-10.415,0l-14.702-14.702c-2.876-2.876-2.876-7.539,0-10.415l17.559-17.559    c-4.572-7.303-7.974-15.405-9.964-24.052h-24.831c-4.067,0-7.364-3.297-7.364-7.364v-20.792c0-4.067,3.297-7.364,7.364-7.364    h24.831c1.99-8.647,5.392-16.75,9.964-24.052l-17.559-17.559c-2.876-2.876-2.876-7.539,0-10.415l14.702-14.702    c2.876-2.876,7.539-2.876,10.415,0l17.559,17.559c7.303-4.572,15.405-7.974,24.052-9.964V97.878c0-4.067,3.297-7.364,7.364-7.364    h20.792c4.067,0,7.364,3.297,7.364,7.364v24.831c8.647,1.99,16.75,5.392,24.052,9.964l17.559-17.559    c2.876-2.876,7.539-2.876,10.415,0l14.702,14.702c2.876,2.876,2.876,7.539,0,10.415l-17.559,17.559    c4.572,7.303,7.974,15.405,9.964,24.052h24.831h43.624c-8.125-72.294-69.517-128.765-143.259-129.794    c-81.739-1.141-148.357,64.777-148.357,146.254c0,60.218,36.39,111.933,88.379,134.362c15.299,6.6,25.217,21.649,25.217,38.311    v18.55h67.686v-19.579c0-16.317,9.436-31.305,24.346-37.933c45.657-20.297,78.989-63.287,85.674-114.651h-43.311H339.195z"/>
	</g>
</g>
<g>
	<g>
		<path class="st0" d="M262.303,240.136c-22.387,0-40.535-18.148-40.535-40.535c0-22.387,18.148-40.535,40.535-40.535    c16.016,0,29.859,9.291,36.443,22.775h40.45c-1.99-8.647-5.392-16.75-9.964-24.052l17.559-17.559    c2.876-2.876,2.876-7.539,0-10.415l-14.702-14.702c-2.876-2.876-7.539-2.876-10.415,0l-17.559,17.559    c-7.303-4.572-15.405-7.974-24.052-9.964V97.878c0-4.067-3.297-7.364-7.364-7.364h-20.792c-4.067,0-7.364,3.297-7.364,7.364    v24.831c-8.647,1.99-16.75,5.392-24.052,9.964l-17.559-17.559c-2.876-2.876-7.539-2.876-10.415,0l-14.702,14.702    c-2.876,2.876-2.876,7.539,0,10.415l17.559,17.559c-4.572,7.303-7.974,15.405-9.964,24.052h-24.831    c-4.067,0-7.364,3.297-7.364,7.364v20.792c0,4.067,3.297,7.364,7.364,7.364h24.831c1.99,8.647,5.392,16.75,9.964,24.052    l-17.559,17.559c-2.876,2.876-2.876,7.539,0,10.415l14.702,14.702c2.876,2.876,7.539,2.876,10.415,0l17.559-17.559    c7.303,4.572,15.405,7.974,24.052,9.964v24.831c0,4.067,3.297,7.364,7.364,7.364h20.792c4.067,0,7.364-3.297,7.364-7.364v-24.831    c8.647-1.99,16.75-5.392,24.052-9.964l17.559,17.559c2.876,2.876,7.539,2.876,10.415,0l14.702-14.702    c2.876-2.876,2.876-7.539,0-10.415l-17.559-17.559c4.572-7.303,7.974-15.405,9.964-24.052h-40.45    C292.162,230.845,278.319,240.136,262.303,240.136z"/>
	</g>
</g>
<g>
	<g>
		<path class="st1" d="M275.583,495h-24.389c-8.109,0-14.683-6.574-14.683-14.683v-23.643h53.755v23.643    C290.266,488.426,283.693,495,275.583,495z"/>
	</g>
</g>
<g>
	<g>
		<path class="st2" d="M310.891,415.128v-17.635c0-4.402-3.568-7.97-7.97-7.97h-79.064c-4.402,0-7.97,3.568-7.97,7.97v17.635    c0,4.402,3.568,7.97,7.97,7.97c-4.402,0-7.97,3.568-7.97,7.97v17.635c0,4.402,3.568,7.97,7.97,7.97h79.064    c4.402,0,7.97-3.568,7.97-7.97v-17.635c0-4.402-3.568-7.97-7.97-7.97C307.323,423.099,310.891,419.53,310.891,415.128z"/>
	</g>
</g>
<g>
	<g>
		<path class="st1" d="M474.441,181.841h-24.977v35.52h24.977c7.321,0,13.256-5.935,13.256-13.256v-9.008    C487.697,187.776,481.762,181.841,474.441,181.841z"/>
	</g>
</g>
<path class="st4" d="M226.768,199.601c0,19.594,15.941,35.535,35.535,35.535c2.762,0,5,2.239,5,5s-2.238,5-5,5  c-25.108,0-45.535-20.427-45.535-45.535s20.427-45.535,45.535-45.535c2.762,0,5,2.239,5,5s-2.238,5-5,5  C242.709,164.066,226.768,180.007,226.768,199.601z M353.947,135.023c0-3.303-1.286-6.408-3.621-8.743l-14.702-14.702  c-4.82-4.821-12.665-4.82-17.485,0l-14.813,14.813c-5.771-3.241-11.889-5.775-18.263-7.565V97.877  c0-6.818-5.547-12.364-12.364-12.364h-20.791c-6.817,0-12.364,5.547-12.364,12.364v20.948c-6.374,1.79-12.49,4.323-18.263,7.565  l-14.813-14.813c-4.82-4.82-12.664-4.821-17.484,0L174.28,126.28c-2.336,2.335-3.622,5.44-3.622,8.743  c0,3.302,1.286,6.407,3.622,8.743l14.813,14.813c-3.241,5.772-5.775,11.889-7.565,18.262h-20.948  c-6.817,0-12.364,5.547-12.364,12.364v20.792c0,6.818,5.547,12.364,12.364,12.364h20.948c1.79,6.374,4.324,12.491,7.565,18.263  l-14.813,14.813c-4.821,4.821-4.821,12.665,0,17.486l14.702,14.702c4.82,4.82,12.664,4.82,17.484,0l14.813-14.813  c5.771,3.241,11.889,5.775,18.263,7.565v20.948c0,6.818,5.547,12.364,12.364,12.364h20.791c6.817,0,12.364-5.547,12.364-12.364  v-20.948c6.374-1.79,12.491-4.324,18.263-7.565l14.813,14.813c4.821,4.822,12.666,4.821,17.485,0l14.701-14.702  c4.821-4.821,4.821-12.665,0-17.486l-14.813-14.814c1.282-2.287,2.462-4.643,3.524-7.041c1.119-2.524-0.021-5.478-2.546-6.597  c-2.522-1.118-5.478,0.021-6.597,2.546c-1.413,3.188-3.062,6.294-4.899,9.229c-1.237,1.975-0.945,4.542,0.702,6.189l17.559,17.558  c0.922,0.922,0.922,2.422,0,3.344l-14.701,14.702c-0.923,0.923-2.424,0.922-3.345,0l-17.559-17.559  c-1.647-1.647-4.213-1.939-6.188-0.702c-6.95,4.351-14.526,7.49-22.521,9.329c-2.271,0.522-3.879,2.543-3.879,4.873v24.831  c0,1.304-1.061,2.364-2.364,2.364h-20.791c-1.304,0-2.364-1.061-2.364-2.364v-24.831c0-2.33-1.608-4.35-3.879-4.873  c-7.994-1.839-15.57-4.978-22.521-9.329c-1.976-1.237-4.541-0.945-6.188,0.702l-17.559,17.559c-0.922,0.922-2.422,0.922-3.344,0  l-14.702-14.702c-0.922-0.922-0.922-2.422,0-3.344l17.559-17.558c1.647-1.647,1.939-4.214,0.703-6.189  c-4.352-6.95-7.49-14.527-9.329-22.52c-0.522-2.27-2.544-3.879-4.873-3.879h-24.831c-1.304,0-2.364-1.061-2.364-2.364v-20.792  c0-1.304,1.061-2.364,2.364-2.364h24.831c2.329,0,4.351-1.609,4.873-3.879c1.839-7.993,4.978-15.57,9.329-22.52  c1.236-1.975,0.944-4.542-0.703-6.189l-17.559-17.558c-0.603-0.603-0.692-1.306-0.692-1.672s0.09-1.069,0.692-1.672l14.702-14.702  c0.922-0.922,2.422-0.921,3.344,0l17.559,17.559c1.646,1.647,4.212,1.939,6.188,0.703c6.95-4.352,14.527-7.49,22.521-9.329  c2.271-0.522,3.879-2.543,3.879-4.873V97.877c0-1.304,1.061-2.364,2.364-2.364h20.791c1.304,0,2.364,1.061,2.364,2.364v24.831  c0,2.33,1.608,4.35,3.879,4.873c7.993,1.839,15.57,4.977,22.521,9.329c1.975,1.236,4.541,0.945,6.188-0.703l17.559-17.559  c0.921-0.921,2.423-0.922,3.344,0l14.702,14.702c0.603,0.603,0.692,1.306,0.692,1.672s-0.09,1.069-0.692,1.672l-17.559,17.558  c-1.647,1.647-1.939,4.215-0.702,6.189c1.765,2.82,3.354,5.792,4.723,8.833c1.133,2.519,4.097,3.642,6.61,2.509  c2.519-1.133,3.642-4.093,2.509-6.611c-1.007-2.24-2.12-4.446-3.324-6.594l14.813-14.814  C352.661,141.43,353.947,138.325,353.947,135.023z M251.47,20.833h5.833v5.833c0,2.761,2.238,5,5,5s5-2.239,5-5v-5.833h5.833  c2.762,0,5-2.239,5-5s-2.238-5-5-5h-5.833V5c0-2.761-2.238-5-5-5s-5,2.239-5,5v5.833h-5.833c-2.762,0-5,2.239-5,5  S248.708,20.833,251.47,20.833z M409.012,235.29c-11.229,44.667-43.123,82.532-85.317,101.291  c-12.986,5.773-21.378,18.869-21.378,33.364v14.579h0.604c7.152,0,12.971,5.818,12.971,12.97v17.635c0,3.006-1.037,5.768-2.76,7.97  c1.722,2.202,2.76,4.964,2.76,7.97v17.635c0,7.152-5.818,12.97-12.971,12.97h-7.654v18.643c0,3.521-0.941,6.821-2.567,9.683h65.261  c2.762,0,5,2.239,5,5s-2.238,5-5,5h-82.378h-24.389h-84.55c-2.762,0-5-2.239-5-5s2.238-5,5-5h67.434  c-1.626-2.862-2.567-6.162-2.567-9.683v-18.643h-7.654c-7.152,0-12.971-5.818-12.971-12.97v-17.635c0-3.006,1.037-5.768,2.76-7.97  c-1.722-2.202-2.76-4.964-2.76-7.97v-17.635c0-7.152,5.818-12.97,12.971-12.97h0.773v-13.55c0-14.667-8.713-27.902-22.198-33.72  c-55.522-23.953-91.398-78.495-91.398-138.953c0-40.804,16.002-79.057,45.059-107.711c29.053-28.649,67.556-44.128,108.368-43.542  c33.614,0.469,66.6,12.458,92.88,33.76c25.951,21.035,44.467,50.328,52.135,82.485c0.641,2.686-1.018,5.383-3.703,6.024  c-2.688,0.64-5.385-1.018-6.023-3.704C384.721,102.593,329.031,57.95,264.322,57.047c-38.16-0.526-74.077,13.909-101.208,40.664  c-27.136,26.76-42.08,62.484-42.08,100.591c0,56.462,33.506,107.4,85.359,129.771c17.153,7.4,28.237,24.24,28.237,42.902v13.55  h57.686v-14.579c0-18.442,10.722-35.125,27.315-42.502c39.408-17.52,69.196-52.881,79.681-94.591  c0.674-2.679,3.395-4.301,6.068-3.63C408.06,229.895,409.685,232.612,409.012,235.29z M285.267,461.674h-43.755v18.643  c0,5.339,4.344,9.683,9.683,9.683h24.389c5.34,0,9.684-4.344,9.684-9.683V461.674z M305.892,431.069c0-1.638-1.333-2.97-2.971-2.97  h-79.063c-1.638,0-2.971,1.333-2.971,2.97v17.635c0,1.638,1.333,2.97,2.971,2.97h12.654h53.755h12.654  c1.638,0,2.971-1.333,2.971-2.97V431.069z M302.921,394.524h-5.604h-67.686h-5.773c-1.638,0-2.971,1.333-2.971,2.97v17.635  c0,1.638,1.333,2.97,2.971,2.97h79.063c1.638,0,2.971-1.333,2.971-2.97v-17.635C305.892,395.856,304.559,394.524,302.921,394.524z   M492.697,195.097v9.008c0,10.066-8.189,18.256-18.256,18.256H263.389c-2.762,0-5-2.239-5-5s2.238-5,5-5h181.075v-25.52H263.389  c-2.762,0-5-2.239-5-5s2.238-5,5-5h211.053C484.508,176.841,492.697,185.031,492.697,195.097z M482.697,195.097  c0-4.552-3.703-8.256-8.256-8.256h-19.978v25.52h19.978c4.553,0,8.256-3.704,8.256-8.256V195.097z M64.045,186.841v25.52h36.23  c2.762,0,5,2.239,5,5s-2.238,5-5,5h-41.23c-0.318,0-0.635-0.035-0.95-0.096c-0.131-0.025-0.254-0.071-0.381-0.106  c-0.148-0.041-0.299-0.069-0.445-0.124l-46.742-17.76c-1.94-0.738-3.224-2.598-3.224-4.674s1.283-3.937,3.224-4.674l46.742-17.76  c0.23-0.087,0.464-0.151,0.7-0.203c0.058-0.013,0.116-0.021,0.175-0.032c0.3-0.055,0.603-0.091,0.905-0.091h41.226  c2.762,0,5,2.239,5,5s-2.238,5-5,5H64.045z M26.38,199.601l27.665,10.511v-21.023L26.38,199.601z M147.213,490h-3.41  c-2.762,0-5,2.239-5,5s2.238,5,5,5h3.41c2.762,0,5-2.239,5-5S149.975,490,147.213,490z M380.803,490h-3.41c-2.762,0-5,2.239-5,5  s2.238,5,5,5h3.41c2.762,0,5-2.239,5-5S383.564,490,380.803,490z"/>
</svg>
