<?xml version="1.0" encoding="utf-8"?>
<!-- Generator: Adobe Illustrator 22.0.0, SVG Export Plug-In . SVG Version: 6.00 Build 0)  -->
<svg xmlns="http://www.w3.org/2000/svg" xmlns:xlink="http://www.w3.org/1999/xlink" version="1.1" id="Layer_1" x="0px" y="0px" viewBox="0 0 500 500" style="enable-background:new 0 0 500 500;" xml:space="preserve" width="512" height="512">
<style type="text/css">
	.st0{fill:#83E1E5;}
	.st1{fill:#AAB1BA;}
	.st2{fill:#ECF4F7;}
	.st3{fill:#FDDF7F;}
	.st4{fill:#1C1D21;}
	.st5{fill:#FFFFFF;}
</style>
<g>
	<g>
		<circle class="st3" cx="456.246" cy="291.85" r="24.763"/>
	</g>
</g>
<g>
	<g>
		<circle class="st3" cx="43.754" cy="291.85" r="24.763"/>
	</g>
</g>
<g>
	<g>
		<circle class="st3" cx="395.838" cy="146.012" r="24.763"/>
	</g>
</g>
<g>
	<g>
		<circle class="st3" cx="104.162" cy="437.689" r="24.763"/>
	</g>
</g>
<g>
	<g>
		<circle class="st3" cx="250" cy="85.604" r="24.763"/>
	</g>
</g>
<g>
	<g>
		<circle class="st3" cx="104.162" cy="146.012" r="24.763"/>
	</g>
</g>
<g>
	<g>
		<circle class="st3" cx="395.838" cy="437.689" r="24.763"/>
	</g>
</g>
<g>
	<g>
		<path class="st0" d="M391.594,267.13h-23.592c-3.115-14.946-9.001-28.874-17.092-41.228l16.692-16.693    c4.003-4.003,4.003-10.493,0-14.496l-20.464-20.465c-4.003-4.003-10.493-4.003-14.497,0l-16.693,16.693    c-12.355-8.091-26.282-13.977-41.228-17.092v-23.593c0-5.661-4.589-10.251-10.251-10.251H235.53    c-5.661,0-10.251,4.59-10.251,10.251v23.593c-14.946,3.115-28.873,9.001-41.228,17.092l-16.692-16.693    c-4.003-4.003-10.493-4.003-14.497,0l-20.464,20.465c-4.003,4.003-4.003,10.493,0,14.496l16.692,16.693    c-8.091,12.355-13.976,26.282-17.092,41.228h-23.592c-5.661,0-10.251,4.589-10.251,10.251v28.94    c0,5.662,4.589,10.251,10.251,10.251h23.592c3.115,14.946,9.001,28.874,17.092,41.228l-16.692,16.693    c-4.003,4.003-4.003,10.493,0,14.496l20.464,20.465c4.003,4.003,10.493,4.003,14.497,0l16.692-16.693    c12.191,7.983,25.916,13.815,40.638,16.961c1.263-4.289,2.233-8.667,2.918-13.102c0.062-0.406,0.129-0.812,0.186-1.218    c0.108-0.759,0.201-1.521,0.291-2.283c0.072-0.613,0.14-1.228,0.201-1.843c0.064-0.646,0.125-1.293,0.177-1.942    c0.063-0.799,0.113-1.601,0.157-2.403c0.028-0.502,0.062-1.004,0.082-1.507c0.053-1.329,0.087-2.661,0.087-3.996v-35.494h-12.122    c-3.594,0-6.508-2.914-6.508-6.508v-11.876c0-3.595,2.914-6.508,6.508-6.508h4.099c-7.463-7.474-12.079-17.794-12.079-29.191    c0-22.817,18.497-41.313,41.314-41.313s41.314,18.496,41.314,41.313c0,11.397-4.616,21.716-12.079,29.191h4.099    c3.594,0,6.508,2.914,6.508,6.508v11.876c0,3.595-2.914,6.508-6.508,6.508h-12.122v35.494c0,1.334,0.034,2.666,0.087,3.994    c0.02,0.505,0.055,1.008,0.083,1.511c0.044,0.802,0.094,1.603,0.157,2.401c0.052,0.649,0.112,1.296,0.177,1.942    c0.061,0.615,0.129,1.229,0.201,1.843c0.09,0.762,0.183,1.524,0.291,2.283c0.057,0.406,0.124,0.812,0.186,1.218    c0.686,4.435,1.656,8.813,2.918,13.102c14.722-3.146,28.447-8.978,40.638-16.961l16.692,16.693c4.003,4.003,10.493,4.003,14.497,0    l20.464-20.465c4.003-4.003,4.003-10.493,0-14.496l-16.692-16.693c8.091-12.355,13.976-26.282,17.092-41.228h23.592    c5.661,0,10.251-4.589,10.251-10.251v-28.94C401.845,271.719,397.255,267.13,391.594,267.13z"/>
	</g>
</g>
<g>
	<g>
		<path class="st3" d="M216.667,321.041h4.099c-7.463-7.474-12.079-17.794-12.079-29.191c0-22.817,18.497-41.313,41.314-41.313    s41.314,18.496,41.314,41.313c0,11.397-4.616,21.716-12.079,29.191h4.099c3.594,0,6.508,2.914,6.508,6.508v4.739h18.3    c7.991-11.466,12.683-25.402,12.683-40.438c0-39.116-31.709-70.824-70.825-70.824s-70.825,31.709-70.825,70.824    c0,15.036,4.692,28.972,12.683,40.438h18.3v-4.739C210.158,323.955,213.072,321.041,216.667,321.041z"/>
	</g>
</g>
<g>
	<g>
		<path class="st1" d="M303.106,462.788h-10.259c6.3,0,9.753-7.337,5.738-12.192l-4.391-5.31    c-14.856-17.966-22.983-40.548-22.983-63.86v-35.494h12.122c3.594,0,6.508-2.914,6.508-6.508v-11.876    c0-3.594-2.914-6.508-6.508-6.508h-4.099c7.936-7.948,12.652-19.112,12.023-31.368c-1.087-21.186-18.454-38.303-39.653-39.105    c-23.548-0.892-42.918,17.933-42.918,41.283c0,11.397,4.616,21.716,12.079,29.191h-4.099c-3.594,0-6.508,2.914-6.508,6.508v11.876    c0,3.594,2.914,6.508,6.508,6.508h12.123v35.494c0,23.311-8.128,45.894-22.983,63.86l-4.391,5.31    c-4.015,4.855-0.562,12.192,5.739,12.192h-10.259c-4.277,0-7.745,3.467-7.745,7.745V494.5h121.701v-23.967    C310.851,466.256,307.383,462.788,303.106,462.788z"/>
	</g>
</g>
<path class="st4" d="M234,15.5c0-2.762,2.239-5,5-5h6v-5c0-2.762,2.239-5,5-5s5,2.238,5,5v5h6c2.761,0,5,2.238,5,5s-2.239,5-5,5h-6  v6c0,2.762-2.239,5-5,5s-5-2.238-5-5v-6h-6C236.239,20.5,234,18.262,234,15.5z M339.656,70.828h6v6c0,2.762,2.239,5,5,5s5-2.238,5-5  v-6h6c2.761,0,5-2.238,5-5s-2.239-5-5-5h-6v-5c0-2.762-2.239-5-5-5s-5,2.238-5,5v5h-6c-2.761,0-5,2.238-5,5  S336.895,70.828,339.656,70.828z M138.344,70.828h6v6c0,2.762,2.239,5,5,5s5-2.238,5-5v-6h6c2.761,0,5-2.238,5-5s-2.239-5-5-5h-6v-5  c0-2.762-2.239-5-5-5s-5,2.238-5,5v5h-6c-2.761,0-5,2.238-5,5S135.583,70.828,138.344,70.828z M194.717,336.39  c2.266-1.578,2.822-4.695,1.243-6.961c-7.71-11.062-11.785-24.057-11.785-37.578c0-36.296,29.529-65.824,65.825-65.824  s65.825,29.528,65.825,65.824c0,13.521-4.075,26.517-11.785,37.578c-1.579,2.266-1.022,5.383,1.243,6.961  c0.871,0.607,1.868,0.898,2.854,0.898c1.58,0,3.134-0.746,4.106-2.141c8.885-12.748,13.581-27.72,13.581-43.297  c0-41.81-34.015-75.824-75.825-75.824s-75.825,34.015-75.825,75.824c0,15.577,4.696,30.549,13.581,43.297  C189.336,337.413,192.453,337.97,194.717,336.39z M170.894,170.711l13.866,13.867c11.057-6.744,22.972-11.685,35.52-14.728v-19.595  c0-8.409,6.841-15.25,15.251-15.25h28.94c8.41,0,15.251,6.841,15.251,15.25v19.595c12.548,3.043,24.463,7.983,35.52,14.728  l13.865-13.866c5.946-5.945,15.621-5.944,21.567-0.001l20.465,20.466c2.88,2.88,4.467,6.71,4.467,10.783  c0,4.074-1.587,7.904-4.467,10.784l-13.865,13.865c6.743,11.056,11.684,22.971,14.727,35.521h19.594  c8.409,0,15.251,6.841,15.251,15.25v28.94c0,8.409-6.842,15.251-15.251,15.251H372c-3.043,12.548-7.983,24.464-14.727,35.52  l13.866,13.866c2.88,2.88,4.467,6.71,4.467,10.783c0,4.074-1.587,7.904-4.467,10.784l-20.464,20.464  c-2.88,2.881-6.71,4.467-10.784,4.467c-4.074,0-7.904-1.586-10.784-4.467l-13.866-13.866c-10.454,6.375-21.689,11.136-33.503,14.21  c3.7,10.4,9.194,20.162,16.31,28.768l4.392,5.311c2.487,3.007,3.387,6.858,2.582,10.538c6.12,0.929,10.829,6.21,10.829,12.585v7.426  c0,2.762-2.239,5-5,5s-5-2.238-5-5v-7.426c0-1.514-1.231-2.745-2.745-2.745h-10.259h-85.693h-10.259  c-1.513,0-2.745,1.231-2.745,2.745v7.426c0,2.762-2.239,5-5,5s-5-2.238-5-5v-7.426c0-6.375,4.71-11.656,10.829-12.585  c-0.805-3.68,0.096-7.531,2.583-10.538l4.391-5.311c7.116-8.605,12.61-18.367,16.311-28.768  c-11.815-3.074-23.049-7.835-33.503-14.21l-13.866,13.866c-2.88,2.881-6.71,4.467-10.784,4.467c-4.073,0-7.903-1.586-10.784-4.467  l-20.464-20.465c-2.88-2.879-4.467-6.709-4.467-10.783c0-4.073,1.586-7.903,4.467-10.783l13.866-13.866  c-6.744-11.056-11.684-22.972-14.727-35.52h-19.594c-8.409,0-15.251-6.842-15.251-15.251v-28.94c0-8.409,6.842-15.25,15.251-15.25  H128c3.043-12.55,7.983-24.465,14.727-35.521l-13.865-13.866c-2.88-2.879-4.467-6.709-4.467-10.783  c0-4.073,1.586-7.903,4.467-10.783l20.464-20.465C155.272,164.767,164.947,164.768,170.894,170.711z M286.313,291.851  c0-20.023-16.29-36.313-36.313-36.313s-36.313,16.29-36.313,36.313c0,9.013,3.263,17.526,9.23,24.19h54.167  C283.05,309.377,286.313,300.863,286.313,291.851z M215.158,339.425c0,0.832,0.677,1.509,1.508,1.509h12.123h42.422h12.123  c0.832,0,1.508-0.677,1.508-1.509V327.55c0-0.832-0.677-1.509-1.508-1.509h-4.099h-58.469h-4.099c-0.832,0-1.508,0.677-1.508,1.509  V339.425z M290.341,448.473c-9.085-10.987-15.767-23.684-19.771-37.202c-0.016-0.047-0.041-0.089-0.055-0.137  c-0.111-0.376-0.205-0.756-0.312-1.133c-0.213-0.752-0.427-1.505-0.623-2.262c-0.15-0.579-0.283-1.161-0.423-1.741  c-0.293-1.217-0.565-2.438-0.815-3.664c-0.16-0.787-0.325-1.573-0.467-2.362c-0.113-0.627-0.206-1.257-0.308-1.887  c-0.124-0.767-0.246-1.532-0.353-2.301c-0.084-0.608-0.158-1.219-0.232-1.829c-0.099-0.814-0.188-1.631-0.268-2.447  c-0.055-0.567-0.108-1.135-0.154-1.704c-0.074-0.919-0.131-1.839-0.181-2.761c-0.025-0.473-0.058-0.944-0.077-1.418  c-0.057-1.398-0.092-2.798-0.092-4.198v-30.493h-32.422v30.493c0,1.4-0.035,2.8-0.092,4.198c-0.019,0.474-0.051,0.945-0.077,1.418  c-0.05,0.922-0.107,1.842-0.181,2.761c-0.046,0.569-0.099,1.137-0.154,1.704c-0.079,0.816-0.169,1.633-0.268,2.447  c-0.074,0.61-0.147,1.221-0.232,1.829c-0.107,0.769-0.229,1.534-0.353,2.301c-0.101,0.629-0.195,1.26-0.308,1.887  c-0.143,0.795-0.309,1.587-0.471,2.379c-0.248,1.22-0.519,2.433-0.81,3.642c-0.14,0.582-0.274,1.166-0.424,1.747  c-0.196,0.758-0.41,1.51-0.623,2.262c-0.107,0.377-0.201,0.757-0.312,1.133c-0.014,0.048-0.04,0.09-0.055,0.138  c-4.005,13.519-10.686,26.214-19.772,37.201l-4.391,5.311c-0.893,1.079-0.527,2.178-0.328,2.601  c0.199,0.422,0.812,1.404,2.213,1.404h85.693c1.401,0,2.015-0.982,2.213-1.404c0.199-0.423,0.565-1.521-0.328-2.601L290.341,448.473  z M156.397,177.783l-20.464,20.464c-0.992,0.992-1.538,2.311-1.538,3.713s0.546,2.721,1.538,3.712l16.693,16.694  c1.674,1.674,1.944,4.294,0.647,6.274c-7.927,12.104-13.438,25.397-16.38,39.51c-0.483,2.318-2.526,3.979-4.895,3.979h-23.592  c-2.896,0-5.251,2.355-5.251,5.25v28.94c0,2.896,2.355,5.251,5.251,5.251h23.592c2.368,0,4.412,1.661,4.895,3.979  c2.942,14.111,8.453,27.404,16.38,39.51c1.297,1.981,1.027,4.601-0.647,6.274l-16.692,16.692c-0.992,0.992-1.538,2.311-1.538,3.713  s0.546,2.721,1.538,3.712l20.465,20.466c0.992,0.991,2.31,1.537,3.712,1.537c1.403,0,2.721-0.546,3.713-1.537l16.692-16.693  c1.675-1.675,4.294-1.943,6.275-0.647c10.599,6.94,22.122,12.03,34.313,15.165c0.064-0.262,0.13-0.524,0.191-0.787  c0.134-0.575,0.268-1.149,0.391-1.726c0.215-1.009,0.418-2.02,0.601-3.036c0.081-0.452,0.15-0.906,0.225-1.359  c0.125-0.76,0.244-1.521,0.35-2.283c0.063-0.448,0.125-0.896,0.181-1.344c0.142-1.13,0.271-2.263,0.372-3.398  c0.018-0.204,0.029-0.409,0.046-0.614c0.085-1.031,0.152-2.064,0.203-3.101c0.017-0.337,0.032-0.674,0.045-1.011  c0.047-1.217,0.08-2.436,0.08-3.656v-30.493h-7.123c-6.346,0-11.508-5.163-11.508-11.509V327.55c0-4.421,2.509-8.263,6.176-10.189  c-4.974-7.505-7.647-16.303-7.647-25.51c0-25.537,20.776-46.313,46.313-46.313s46.313,20.776,46.313,46.313  c0,9.207-2.674,18.005-7.647,25.51c3.666,1.927,6.176,5.769,6.176,10.189v11.875c0,6.346-5.163,11.509-11.508,11.509h-7.123v30.493  c0,1.221,0.033,2.439,0.08,3.656c0.013,0.337,0.029,0.674,0.045,1.011c0.051,1.036,0.119,2.069,0.203,3.101  c0.017,0.205,0.028,0.41,0.046,0.614c0.101,1.136,0.23,2.269,0.372,3.398c0.056,0.448,0.118,0.896,0.181,1.344  c0.107,0.763,0.225,1.523,0.35,2.283c0.075,0.453,0.143,0.907,0.225,1.359c0.182,1.016,0.385,2.026,0.6,3.034  c0.123,0.578,0.257,1.154,0.392,1.729c0.061,0.263,0.128,0.523,0.191,0.785c12.192-3.135,23.714-8.225,34.313-15.165  c0.838-0.549,1.791-0.817,2.738-0.817c1.291,0,2.571,0.499,3.537,1.465l16.692,16.693c0.992,0.991,2.31,1.537,3.713,1.537  c1.402,0,2.721-0.546,3.712-1.537l20.464-20.465c0.992-0.992,1.538-2.311,1.538-3.713s-0.546-2.721-1.538-3.713l-16.692-16.692  c-1.674-1.674-1.944-4.293-0.647-6.274c7.928-12.105,13.438-25.398,16.38-39.51c0.483-2.318,2.526-3.979,4.895-3.979h23.592  c2.896,0,5.251-2.355,5.251-5.251v-28.94c0-2.895-2.355-5.25-5.251-5.25h-23.592c-2.368,0-4.412-1.661-4.895-3.979  c-2.942-14.112-8.453-27.405-16.38-39.51c-1.297-1.98-1.027-4.601,0.647-6.274l16.692-16.693c0.992-0.992,1.538-2.311,1.538-3.713  s-0.546-2.721-1.538-3.713l-20.464-20.465c-2.047-2.046-5.378-2.045-7.426,0.001l-16.692,16.692  c-1.675,1.675-4.294,1.943-6.275,0.647c-12.106-7.928-25.399-13.438-39.509-16.38c-2.319-0.483-3.98-2.526-3.98-4.895v-23.593  c0-2.895-2.355-5.25-5.251-5.25h-28.94c-2.896,0-5.251,2.355-5.251,5.25v23.593c0,2.368-1.661,4.411-3.98,4.895  c-14.11,2.941-27.403,8.452-39.509,16.38c-1.981,1.298-4.601,1.028-6.275-0.647l-16.692-16.693  C161.776,175.736,158.445,175.737,156.397,177.783z M486.01,291.851c0,16.412-13.352,29.764-29.764,29.764  s-29.763-13.352-29.763-29.764s13.352-29.764,29.763-29.764S486.01,275.438,486.01,291.851z M476.01,291.851  c0-10.897-8.866-19.764-19.764-19.764c-10.897,0-19.763,8.866-19.763,19.764s8.866,19.764,19.763,19.764  C467.144,311.614,476.01,302.748,476.01,291.851z M73.517,291.851c0,16.412-13.352,29.764-29.763,29.764  S13.99,308.263,13.99,291.851s13.352-29.764,29.764-29.764S73.517,275.438,73.517,291.851z M63.517,291.851  c0-10.897-8.866-19.764-19.763-19.764c-10.898,0-19.764,8.866-19.764,19.764s8.866,19.764,19.764,19.764  C54.651,311.614,63.517,302.748,63.517,291.851z M374.792,124.967c11.604-11.604,30.487-11.605,42.092,0  c11.604,11.604,11.604,30.486,0,42.091c-5.802,5.803-13.424,8.704-21.046,8.704c-7.622,0-15.243-2.901-21.046-8.704  C363.188,155.453,363.188,136.571,374.792,124.967z M381.863,159.987c7.706,7.706,20.244,7.703,27.95,0  c7.706-7.706,7.706-20.244,0-27.95c-3.853-3.853-8.914-5.779-13.975-5.779c-5.061,0-10.122,1.927-13.975,5.779  C374.158,139.743,374.158,152.281,381.863,159.987z M104.162,467.438c-7.622,0-15.243-2.9-21.045-8.702  c-11.605-11.605-11.605-30.488,0-42.093c11.605-11.603,30.487-11.604,42.092-0.001c0,0.001,0,0.001,0,0.001  c11.604,11.604,11.604,30.487,0,42.092C119.405,464.536,111.784,467.438,104.162,467.438z M90.187,451.664  c7.707,7.703,20.245,7.704,27.95-0.001c7.705-7.705,7.705-20.244,0-27.95l0,0.001c-3.853-3.853-8.914-5.779-13.975-5.779  c-5.062,0-10.123,1.927-13.976,5.779C82.481,431.419,82.481,443.958,90.187,451.664z M220.237,85.604  c0-16.412,13.352-29.764,29.763-29.764s29.763,13.352,29.763,29.764c0,16.411-13.352,29.763-29.763,29.763  S220.237,102.016,220.237,85.604z M230.237,85.604c0,10.897,8.866,19.763,19.763,19.763s19.763-8.865,19.763-19.763  S260.897,65.841,250,65.841S230.237,74.707,230.237,85.604z M83.116,167.058c-11.604-11.604-11.604-30.486,0-42.091  c11.606-11.605,30.487-11.605,42.092,0c11.604,11.604,11.604,30.486,0,42.091c-5.802,5.803-13.424,8.704-21.046,8.704  C96.54,175.762,88.918,172.86,83.116,167.058z M90.187,159.987c7.707,7.708,20.246,7.704,27.95,0c7.706-7.706,7.706-20.244,0-27.95  c-7.707-7.707-20.245-7.704-27.95,0C82.481,139.743,82.481,152.281,90.187,159.987z M416.884,416.642  c11.605,11.605,11.605,30.488,0,42.093c-5.803,5.802-13.424,8.703-21.046,8.703c-7.622,0-15.243-2.9-21.045-8.702  c-11.605-11.605-11.605-30.488,0-42.093c0,0,0,0,0-0.001C386.397,405.039,405.279,405.039,416.884,416.642z M409.813,423.713  c-7.707-7.705-20.245-7.706-27.95,0.001l0-0.001c-7.706,7.706-7.706,20.245,0,27.951c7.706,7.704,20.244,7.705,27.95-0.001  C417.519,443.958,417.519,431.419,409.813,423.713z M374.159,489.5H125.841c-2.761,0-5,2.238-5,5s2.239,5,5,5h248.317  c2.761,0,5-2.238,5-5S376.92,489.5,374.159,489.5z M104.413,489.5h-6.257c-2.761,0-5,2.238-5,5s2.239,5,5,5h6.257  c2.761,0,5-2.238,5-5S107.174,489.5,104.413,489.5z M401.845,489.5h-6.257c-2.761,0-5,2.238-5,5s2.239,5,5,5h6.257  c2.761,0,5-2.238,5-5S404.606,489.5,401.845,489.5z"/>
</svg>
