<?xml version="1.0" encoding="utf-8"?>
<!-- Generator: Adobe Illustrator 22.0.0, SVG Export Plug-In . SVG Version: 6.00 Build 0)  -->
<svg xmlns="http://www.w3.org/2000/svg" xmlns:xlink="http://www.w3.org/1999/xlink" version="1.1" id="Layer_1" x="0px" y="0px" viewBox="0 0 500 500" style="enable-background:new 0 0 500 500;" xml:space="preserve" width="512" height="512">
<style type="text/css">
	.st0{fill:#83E1E5;}
	.st1{fill:#AAB1BA;}
	.st2{fill:#ECF4F7;}
	.st3{fill:#FDDF7F;}
	.st4{fill:#1C1D21;}
	.st5{fill:#FFFFFF;}
</style>
<g>
	<g>
		<path class="st3" d="M266.545,24.003L245.01,6.384c-1.832-1.498-4.364-1.808-6.503-0.794c-2.139,1.014-3.503,3.169-3.503,5.536    v5.606C178.21,20.305,125.307,44.113,84.71,84.71C40.56,128.861,16.245,187.562,16.245,250h25    c0-110.065,85.625-200.499,193.76-208.212v4.575c0,2.367,1.364,4.522,3.503,5.536c2.139,1.014,4.671,0.705,6.503-0.794    l21.535-17.618c1.422-1.164,2.247-2.904,2.247-4.742C268.792,26.907,267.968,25.166,266.545,24.003z"/>
	</g>
</g>
<g>
	<g>
		<path class="st3" d="M233.455,475.997l21.535,17.618c1.832,1.498,4.364,1.808,6.503,0.794c2.139-1.014,3.503-3.169,3.503-5.536    v-5.606c56.795-3.572,109.698-27.381,150.295-67.978c44.15-44.151,68.465-102.852,68.465-165.29h-25    c0,110.065-85.625,200.499-193.76,208.212v-4.575c0-2.367-1.364-4.522-3.503-5.536c-2.139-1.014-4.671-0.705-6.503,0.794    l-21.535,17.618c-1.422,1.164-2.247,2.904-2.247,4.742C231.208,473.093,232.032,474.834,233.455,475.997z"/>
	</g>
</g>
<g>
	<g>
		<circle class="st2" cx="250" cy="250" r="173.836"/>
	</g>
</g>
<g>
	<g>
		<circle class="st0" cx="250" cy="250" r="19.741"/>
	</g>
</g>
<g>
	<g>
		<path class="st0" d="M250,130.311L250,130.311c-5.191,0-9.398-4.208-9.398-9.398v-10.182c0-5.191,4.208-9.398,9.398-9.398h0    c5.191,0,9.398,4.208,9.398,9.398v10.182C259.398,126.103,255.191,130.311,250,130.311z"/>
	</g>
</g>
<g>
	<g>
		<path class="st0" d="M250,398.667L250,398.667c-5.191,0-9.398-4.208-9.398-9.398v-10.182c0-5.191,4.208-9.398,9.398-9.398h0    c5.191,0,9.398,4.208,9.398,9.398v10.182C259.398,394.459,255.191,398.667,250,398.667z"/>
	</g>
</g>
<g>
	<g>
		<path class="st0" d="M334.633,165.367L334.633,165.367c-3.67-3.67-3.67-9.621,0-13.291l7.199-7.199c3.67-3.67,9.621-3.67,13.291,0    h0c3.67,3.67,3.67,9.621,0,13.291l-7.199,7.199C344.254,169.037,338.303,169.037,334.633,165.367z"/>
	</g>
</g>
<g>
	<g>
		<path class="st0" d="M144.876,355.124L144.876,355.124c-3.67-3.67-3.67-9.621,0-13.291l7.199-7.199c3.67-3.67,9.621-3.67,13.291,0    h0c3.67,3.67,3.67,9.621,0,13.291l-7.199,7.199C154.497,358.794,148.547,358.794,144.876,355.124z"/>
	</g>
</g>
<g>
	<g>
		<path class="st0" d="M369.689,250L369.689,250c0-5.191,4.208-9.398,9.398-9.398h10.182c5.191,0,9.398,4.208,9.398,9.398v0    c0,5.191-4.208,9.398-9.398,9.398h-10.182C373.897,259.398,369.689,255.191,369.689,250z"/>
	</g>
</g>
<g>
	<g>
		<path class="st0" d="M101.333,250L101.333,250c0-5.191,4.208-9.398,9.398-9.398h10.182c5.191,0,9.398,4.208,9.398,9.398v0    c0,5.191-4.208,9.398-9.398,9.398h-10.182C105.541,259.398,101.333,255.191,101.333,250z"/>
	</g>
</g>
<g>
	<g>
		<path class="st0" d="M334.633,334.633L334.633,334.633c3.67-3.67,9.621-3.67,13.291,0l7.199,7.199c3.67,3.67,3.67,9.621,0,13.291    l0,0c-3.67,3.67-9.621,3.67-13.291,0l-7.199-7.199C330.963,344.254,330.963,338.303,334.633,334.633z"/>
	</g>
</g>
<g>
	<g>
		<path class="st0" d="M144.876,144.876L144.876,144.876c3.67-3.67,9.621-3.67,13.291,0l7.199,7.199c3.67,3.67,3.67,9.621,0,13.291    l0,0c-3.67,3.67-9.621,3.67-13.291,0l-7.199-7.199C141.206,154.497,141.206,148.547,144.876,144.876z"/>
	</g>
</g>
<path class="st4" d="M488.756,250c0,63.773-24.835,123.73-69.931,168.825c-40.022,40.023-92.716,64.448-148.83,69.091v0.957  c0,4.277-2.497,8.223-6.362,10.054c-1.506,0.714-3.131,1.064-4.748,1.064c-2.528,0-5.041-0.854-7.061-2.505l-21.535-17.62  c-2.593-2.12-4.081-5.259-4.081-8.612c0-3.352,1.487-6.491,4.082-8.612l21.533-17.618c3.312-2.708,7.947-3.274,11.812-1.442  c3.602,1.707,6.017,5.253,6.326,9.191C373.453,442.659,453.756,354.608,453.756,250v-66.433c0-2.761,2.238-5,5-5s5,2.239,5,5V250  c0,54.329-20.484,106.145-57.679,145.904c-37.012,39.563-86.989,63.462-140.727,67.295c-1.37,0.102-2.747-0.383-3.763-1.328  c-1.016-0.946-1.593-2.271-1.593-3.659v-4.575c0-0.433-0.253-0.832-0.644-1.017c-0.394-0.186-0.861-0.128-1.197,0.146  l-21.533,17.617c-0.263,0.215-0.413,0.532-0.413,0.872c0,0.34,0.15,0.657,0.412,0.871l21.535,17.619  c0.335,0.273,0.804,0.332,1.194,0.146c0.393-0.186,0.646-0.585,0.646-1.018v-5.606c0-2.64,2.052-4.824,4.687-4.99  c55.43-3.486,107.661-27.111,147.073-66.523c43.206-43.207,67.001-100.652,67.001-161.754c0-2.761,2.238-5,5-5  S488.756,247.239,488.756,250z M235.318,21.722c2.635-0.166,4.687-2.351,4.687-4.99v-5.606c0-0.433,0.253-0.832,0.646-1.018  c0.392-0.185,0.86-0.127,1.194,0.146l21.535,17.619c0.262,0.214,0.412,0.532,0.412,0.871s-0.15,0.657-0.413,0.872l-21.532,17.617  c-0.336,0.275-0.806,0.333-1.198,0.146c-0.391-0.185-0.644-0.584-0.644-1.017v-4.575c0-1.388-0.577-2.713-1.593-3.659  c-1.016-0.946-2.378-1.427-3.763-1.328c-53.737,3.833-103.715,27.732-140.727,67.295C56.729,143.855,36.244,195.671,36.244,250  v66.433c0,2.761,2.238,5,5,5s5-2.239,5-5V250c0-104.608,80.303-192.659,183.795-202.775c0.31,3.938,2.725,7.485,6.326,9.191  c3.859,1.831,8.497,1.267,11.812-1.442l21.533-17.618c2.595-2.121,4.082-5.26,4.082-8.612c0-3.352-1.487-6.491-4.081-8.612  l-21.536-17.62c-3.312-2.707-7.948-3.272-11.808-1.441c-3.865,1.831-6.362,5.778-6.362,10.055v0.957  c-56.114,4.644-108.808,29.069-148.83,69.091C36.079,126.27,11.244,186.227,11.244,250c0,2.761,2.238,5,5,5s5-2.239,5-5  c0-61.102,23.795-118.548,67.001-161.754C127.657,48.834,179.889,25.209,235.318,21.722z M52.077,367.5h-5.833v-5.833  c0-2.761-2.238-5-5-5s-5,2.239-5,5v5.833h-5.832c-2.762,0-5,2.239-5,5s2.238,5,5,5h5.832v5.833c0,2.761,2.238,5,5,5s5-2.239,5-5  V377.5h5.833c2.762,0,5-2.239,5-5S54.839,367.5,52.077,367.5z M41.244,333.424c-2.762,0-5,2.239-5,5v4.214c0,2.761,2.238,5,5,5  s5-2.239,5-5v-4.214C46.244,335.663,44.006,333.424,41.244,333.424z M447.923,132.5h5.833v5.833c0,2.761,2.238,5,5,5s5-2.239,5-5  V132.5h5.832c2.762,0,5-2.239,5-5s-2.238-5-5-5h-5.832v-5.833c0-2.761-2.238-5-5-5s-5,2.239-5,5v5.833h-5.833c-2.762,0-5,2.239-5,5  S445.161,132.5,447.923,132.5z M458.756,152.362c-2.762,0-5,2.239-5,5v4.214c0,2.761,2.238,5,5,5s5-2.239,5-5v-4.214  C463.756,154.601,461.518,152.362,458.756,152.362z M250,428.836c-98.61,0-178.836-80.226-178.836-178.836S151.39,71.164,250,71.164  S428.836,151.389,428.836,250S348.61,428.836,250,428.836z M250,418.836c93.097,0,168.836-75.74,168.836-168.836  S343.097,81.164,250,81.164S81.164,156.903,81.164,250S156.903,418.836,250,418.836z M250,274.741  c-13.643,0-24.741-11.099-24.741-24.741c0-11.93,8.487-21.914,19.741-24.233v-65.149c0-2.761,2.238-5,5-5s5,2.239,5,5v65.149  c11.254,2.319,19.741,12.303,19.741,24.233c0,5.017-1.505,9.686-4.081,13.589l33.398,33.398c1.953,1.953,1.953,5.119,0,7.071  c-0.976,0.976-2.256,1.465-3.535,1.465s-2.56-0.488-3.535-1.464l-33.399-33.399C259.686,273.236,255.017,274.741,250,274.741z   M250,264.741c8.128,0,14.741-6.613,14.741-14.741s-6.613-14.741-14.741-14.741s-14.741,6.613-14.741,14.741  S241.872,264.741,250,264.741z M235.602,120.913v-10.181c0-7.939,6.459-14.398,14.398-14.398s14.398,6.459,14.398,14.398v10.181  c0,7.939-6.459,14.398-14.398,14.398S235.602,128.852,235.602,120.913z M245.602,120.913c0,2.425,1.973,4.398,4.398,4.398  s4.398-1.973,4.398-4.398v-10.181c0-2.425-1.973-4.398-4.398-4.398s-4.398,1.973-4.398,4.398V120.913z M250,403.667  c-7.939,0-14.398-6.459-14.398-14.398v-10.181c0-7.939,6.459-14.398,14.398-14.398s14.398,6.459,14.398,14.398v10.181  C264.398,397.208,257.939,403.667,250,403.667z M250,393.667c2.426,0,4.398-1.973,4.398-4.398v-10.181  c0-2.425-1.973-4.398-4.398-4.398s-4.398,1.973-4.398,4.398v10.181C245.602,391.694,247.574,393.667,250,393.667z M331.097,168.903  c-5.613-5.614-5.613-14.749,0-20.362l7.2-7.199c5.612-5.613,14.748-5.614,20.362,0s5.614,14.748,0.001,20.362l-7.201,7.2  c-2.719,2.719-6.335,4.217-10.181,4.217S333.816,171.622,331.097,168.903z M338.169,161.832c0.83,0.831,1.935,1.288,3.109,1.288  s2.279-0.458,3.109-1.288l7.201-7.2c1.714-1.715,1.714-4.505-0.001-6.22c-1.714-1.715-4.507-1.714-6.221,0l-7.199,7.199  C336.454,157.326,336.454,160.117,338.169,161.832z M168.903,331.097c5.613,5.614,5.613,14.749,0,20.362l-7.2,7.199  c-2.807,2.807-6.494,4.21-10.182,4.21c-3.687,0-7.374-1.403-10.181-4.21c0,0,0,0-0.001,0c-5.613-5.614-5.613-14.748,0-20.362  l7.201-7.2c2.719-2.719,6.335-4.217,10.181-4.217S166.184,328.378,168.903,331.097z M161.831,338.168  c-0.83-0.831-1.935-1.288-3.109-1.288s-2.279,0.458-3.109,1.288l-7.201,7.2c-1.714,1.715-1.714,4.505,0,6.22  c1.714,1.714,4.506,1.716,6.222,0l7.199-7.199C163.546,342.674,163.546,339.883,161.831,338.168z M364.689,250  c0-7.939,6.459-14.398,14.397-14.398h10.182c7.939,0,14.398,6.459,14.398,14.398s-6.459,14.398-14.398,14.398h-10.182  C371.148,264.398,364.689,257.939,364.689,250z M374.689,250c0,2.425,1.973,4.398,4.397,4.398h10.182  c2.426,0,4.398-1.973,4.398-4.398s-1.973-4.398-4.398-4.398h-10.182C376.662,245.602,374.689,247.575,374.689,250z M135.311,250  c0,7.939-6.459,14.398-14.397,14.398h-10.182c-7.939,0-14.398-6.459-14.398-14.398s6.459-14.398,14.398-14.398h10.182  C128.852,235.602,135.311,242.061,135.311,250z M125.311,250c0-2.425-1.973-4.398-4.397-4.398h-10.182  c-2.426,0-4.398,1.973-4.398,4.398s1.973,4.398,4.398,4.398h10.182C123.338,254.398,125.311,252.425,125.311,250z M358.659,338.297  c5.614,5.614,5.614,14.749,0.001,20.362c-2.808,2.807-6.495,4.21-10.183,4.21c-3.687,0-7.374-1.403-10.181-4.21l-7.199-7.2  c-5.614-5.614-5.614-14.748-0.001-20.362c2.72-2.719,6.336-4.217,10.182-4.217s7.462,1.498,10.182,4.217L358.659,338.297z   M351.588,345.368l-7.199-7.199c-0.831-0.831-1.936-1.288-3.11-1.288s-2.279,0.458-3.109,1.288c-1.715,1.715-1.715,4.506-0.001,6.22  l7.199,7.199c1.716,1.715,4.508,1.714,6.222,0C353.303,349.873,353.303,347.083,351.588,345.368z M141.341,161.703  c-5.614-5.614-5.614-14.749-0.001-20.362c0.001,0,0.001,0,0.001,0c5.613-5.614,14.749-5.613,20.362,0l7.199,7.2  c5.614,5.614,5.614,14.748,0.001,20.362c-2.72,2.719-6.336,4.217-10.182,4.217s-7.462-1.498-10.182-4.217L141.341,161.703z   M148.412,154.632l7.199,7.199c0.831,0.831,1.936,1.288,3.11,1.288s2.279-0.458,3.11-1.288c1.714-1.715,1.714-4.506,0-6.22  l-7.199-7.199c-1.716-1.715-4.506-1.714-6.222,0C146.697,150.127,146.697,152.917,148.412,154.632z"/>
</svg>
