<?xml version="1.0" encoding="utf-8"?>
<!-- Generator: Adobe Illustrator 22.0.0, SVG Export Plug-In . SVG Version: 6.00 Build 0)  -->
<svg xmlns="http://www.w3.org/2000/svg" xmlns:xlink="http://www.w3.org/1999/xlink" version="1.1" id="Layer_1" x="0px" y="0px" viewBox="0 0 500 500" style="enable-background:new 0 0 500 500;" xml:space="preserve" width="512" height="512">
<style type="text/css">
	.st0{fill:#83E1E5;}
	.st1{fill:#AAB1BA;}
	.st2{fill:#ECF4F7;}
	.st3{fill:#FDDF7F;}
	.st4{fill:#1C1D21;}
	.st5{fill:#FFFFFF;}
</style>
<g>
	<path class="st3" d="M352.989,205.456c-7.056-6.747-14.627-13.396-22.71-19.882c-25.559-20.512-53.116-36.992-80.279-48.872   c-27.163,11.879-54.72,28.36-80.279,48.872c-8.083,6.487-15.654,13.135-22.71,19.882c-1.812,14.307-2.773,29.218-2.773,44.544   s0.961,30.237,2.773,44.544c7.056,6.747,14.627,13.396,22.71,19.882c25.559,20.512,53.116,36.992,80.279,48.872   c27.163-11.879,54.72-28.36,80.279-48.872c8.083-6.487,15.654-13.135,22.71-19.882c1.812-14.307,2.773-29.218,2.773-44.544   S354.801,219.763,352.989,205.456z"/>
</g>
<g>
	<circle class="st0" cx="250" cy="250" r="44.544"/>
</g>
<g>
	<path class="st2" d="M330.279,185.574c8.083,6.487,15.654,13.135,22.71,19.882c-4.349-34.34-13.613-65.193-26.353-89.894   c-23.655,2.25-49.953,9.47-76.636,21.14C277.163,148.582,304.72,165.062,330.279,185.574z"/>
</g>
<g>
	<path class="st2" d="M169.721,185.574c25.559-20.512,53.116-36.992,80.279-48.872c-26.683-11.669-52.981-18.89-76.636-21.14   c-12.74,24.701-22.004,55.553-26.353,89.894C154.067,198.709,161.639,192.061,169.721,185.574z"/>
</g>
<g>
	<path class="st2" d="M147.011,294.544c-1.812-14.307-2.773-29.218-2.773-44.544s0.961-30.237,2.773-44.544   c-15.255,14.587-28.065,29.639-38.187,44.544C118.946,264.905,131.756,279.957,147.011,294.544z"/>
</g>
<g>
	<path class="st2" d="M352.989,205.456c1.812,14.307,2.773,29.218,2.773,44.544s-0.961,30.237-2.773,44.544   c15.255-14.587,28.065-29.639,38.187-44.544C381.054,235.095,368.244,220.043,352.989,205.456z"/>
</g>
<g>
	<path class="st2" d="M169.721,314.426c-8.083-6.487-15.654-13.135-22.71-19.882c4.349,34.34,13.613,65.193,26.353,89.894   c23.655-2.25,49.953-9.47,76.636-21.14C222.837,351.418,195.28,334.938,169.721,314.426z"/>
</g>
<g>
	<path class="st2" d="M330.279,314.426c-25.559,20.512-53.116,36.992-80.279,48.872c26.683,11.669,52.981,18.89,76.636,21.14   c12.74-24.701,22.004-55.553,26.353-89.894C345.933,301.291,338.361,307.939,330.279,314.426z"/>
</g>
<g>
	<path class="st3" d="M391.175,250c32.561-47.952,37.38-94.374,6.9-118.835c-16.869-13.538-42.123-18.39-71.44-15.602   c12.74,24.701,22.004,55.553,26.353,89.894C368.244,220.043,381.054,235.095,391.175,250z"/>
</g>
<g>
	<path class="st3" d="M108.825,250c-32.561,47.952-37.38,94.374-6.9,118.835c16.869,13.538,42.123,18.39,71.44,15.602   c-12.74-24.701-22.004-55.553-26.353-89.894C131.756,279.957,118.946,264.905,108.825,250z"/>
</g>
<g>
	<path class="st3" d="M352.989,294.544c-4.349,34.34-13.613,65.193-26.353,89.894c29.316,2.788,54.571-2.064,71.44-15.602   c30.48-24.461,25.66-70.884-6.9-118.835C381.054,264.905,368.244,279.957,352.989,294.544z"/>
</g>
<g>
	<path class="st3" d="M147.011,205.456c4.349-34.34,13.613-65.193,26.353-89.894c-29.316-2.788-54.571,2.064-71.44,15.602   c-30.48,24.461-25.66,70.884,6.9,118.835C118.946,235.095,131.756,220.043,147.011,205.456z"/>
</g>
<g>
	<path class="st3" d="M250,136.702c26.683-11.669,52.981-18.89,76.636-21.14C307.369,78.208,280.159,54.921,250,54.921   s-57.369,23.287-76.636,60.642C197.019,117.812,223.317,125.033,250,136.702z"/>
</g>
<g>
	<path class="st3" d="M250,363.298c-26.683,11.669-52.981,18.89-76.636,21.14c19.267,37.355,46.477,60.642,76.636,60.642   s57.369-23.287,76.636-60.642C302.981,382.188,276.683,374.967,250,363.298z"/>
</g>
<path class="st4" d="M234.167,15.833c0-2.762,2.238-5,5-5H245V5c0-2.762,2.238-5,5-5s5,2.238,5,5v5.833h5.833c2.762,0,5,2.238,5,5  s-2.238,5-5,5H255v5.833c0,2.762-2.238,5-5,5s-5-2.238-5-5v-5.833h-5.833C236.405,20.833,234.167,18.595,234.167,15.833z   M260.833,479.167H255v-5.833c0-2.762-2.238-5-5-5s-5,2.238-5,5v5.833h-5.833c-2.762,0-5,2.238-5,5s2.238,5,5,5H245V495  c0,2.762,2.238,5,5,5s5-2.238,5-5v-5.833h5.833c2.762,0,5-2.238,5-5S263.595,479.167,260.833,479.167z M495,245h-5.833v-5.833  c0-2.762-2.238-5-5-5s-5,2.238-5,5V245h-5.833c-2.762,0-5,2.238-5,5s2.238,5,5,5h5.833v5.833c0,2.762,2.238,5,5,5s5-2.238,5-5V255  H495c2.762,0,5-2.238,5-5S497.762,245,495,245z M26.666,245h-5.833v-5.833c0-2.762-2.238-5-5-5s-5,2.238-5,5V245H5  c-2.762,0-5,2.238-5,5s2.238,5,5,5h5.833v5.833c0,2.762,2.238,5,5,5s5-2.238,5-5V255h5.833c2.762,0,5-2.238,5-5  S29.428,245,26.666,245z M397.167,250c33.509,50.928,35.148,97.768,4.038,122.735c-14.357,11.522-34.596,17.46-59.125,17.46  c-4.072,0-8.268-0.171-12.57-0.5c-20.919,38.968-49.061,60.384-79.51,60.384s-58.591-21.416-79.51-60.383  c-4.302,0.329-8.499,0.5-12.57,0.5c-24.532,0-44.766-5.937-59.125-17.46C67.684,347.768,69.323,300.928,102.833,250  c-33.509-50.928-35.148-97.768-4.038-122.735c16.738-13.432,41.477-19.253,71.687-16.944c20.92-38.978,49.066-60.399,79.518-60.399  s58.598,21.422,79.518,60.399c30.207-2.309,54.948,3.511,71.687,16.944C432.316,152.232,430.677,199.072,397.167,250z   M382.59,253.501c0.85-1.166,1.69-2.333,2.509-3.501c-0.819-1.168-1.66-2.335-2.509-3.501c-0.237-0.326-0.477-0.651-0.717-0.976  c-0.698-0.947-1.405-1.893-2.123-2.838c-0.185-0.243-0.366-0.487-0.552-0.73c-0.879-1.149-1.774-2.297-2.683-3.442  c-0.225-0.283-0.454-0.566-0.681-0.85c-0.73-0.913-1.469-1.824-2.218-2.734c-0.26-0.316-0.518-0.631-0.78-0.947  c-0.951-1.146-1.912-2.289-2.891-3.43c-0.109-0.127-0.221-0.254-0.331-0.381c-0.886-1.029-1.785-2.055-2.694-3.079  c-0.288-0.325-0.577-0.648-0.867-0.973c-0.864-0.964-1.737-1.927-2.62-2.888c-0.176-0.191-0.348-0.383-0.525-0.573  c-1.043-1.128-2.102-2.253-3.173-3.375c-0.096-0.101-0.194-0.201-0.29-0.301c0.874,10.23,1.315,20.615,1.315,31.018  s-0.441,20.788-1.315,31.018c0.096-0.101,0.194-0.201,0.29-0.301c1.071-1.122,2.13-2.247,3.173-3.375  c0.177-0.19,0.349-0.382,0.525-0.573c0.884-0.96,1.757-1.923,2.62-2.888c0.29-0.324,0.579-0.648,0.867-0.973  c0.909-1.024,1.808-2.05,2.694-3.079c0.11-0.127,0.222-0.254,0.331-0.381c0.979-1.141,1.94-2.285,2.891-3.43  c0.262-0.315,0.52-0.631,0.78-0.947c0.748-0.91,1.488-1.821,2.218-2.734c0.227-0.283,0.456-0.566,0.681-0.85  c0.908-1.146,1.803-2.293,2.683-3.442c0.186-0.243,0.368-0.487,0.552-0.73c0.718-0.945,1.425-1.891,2.123-2.838  C382.113,254.152,382.353,253.827,382.59,253.501z M345.96,307.774c-4.082,3.594-8.277,7.12-12.552,10.551  c-21.898,17.575-46.218,32.904-70.916,44.746c1.343,0.53,2.686,1.053,4.026,1.56c0.241,0.091,0.481,0.176,0.721,0.267  c1.249,0.468,2.496,0.927,3.741,1.375c0.517,0.186,1.033,0.365,1.549,0.547c0.98,0.346,1.958,0.687,2.936,1.02  c0.558,0.19,1.116,0.378,1.673,0.564c0.969,0.323,1.936,0.639,2.902,0.95c0.522,0.168,1.045,0.338,1.566,0.502  c1.174,0.37,2.344,0.728,3.513,1.079c0.294,0.088,0.59,0.182,0.885,0.269c1.452,0.43,2.9,0.844,4.344,1.245  c0.426,0.118,0.85,0.229,1.275,0.345c1.032,0.281,2.063,0.556,3.091,0.821c0.525,0.136,1.048,0.267,1.572,0.398  c0.946,0.238,1.889,0.469,2.83,0.693c0.52,0.124,1.039,0.248,1.557,0.368c1.016,0.234,2.027,0.458,3.036,0.678  c0.417,0.09,0.836,0.186,1.252,0.273c1.413,0.298,2.821,0.583,4.22,0.85c0.217,0.042,0.432,0.078,0.649,0.118  c1.187,0.222,2.368,0.435,3.544,0.634c0.459,0.078,0.915,0.15,1.373,0.224c0.943,0.153,1.883,0.301,2.818,0.439  c0.49,0.073,0.979,0.143,1.467,0.211c0.938,0.132,1.872,0.254,2.802,0.371c0.438,0.055,0.878,0.112,1.314,0.164  c0.19,0.022,0.377,0.04,0.567,0.061c0.158-0.321,0.321-0.636,0.478-0.959c0.254-0.522,0.506-1.048,0.757-1.575  c0.466-0.979,0.926-1.966,1.381-2.961c0.239-0.523,0.479-1.045,0.715-1.573c0.503-1.124,0.996-2.261,1.485-3.405  c0.168-0.393,0.34-0.78,0.506-1.175c0.646-1.539,1.279-3.093,1.899-4.666c0.137-0.348,0.268-0.703,0.404-1.052  c0.479-1.234,0.952-2.475,1.416-3.729c0.207-0.561,0.409-1.127,0.614-1.692c0.388-1.074,0.771-2.154,1.146-3.243  c0.208-0.601,0.414-1.204,0.618-1.809c0.378-1.121,0.747-2.25,1.112-3.385c0.177-0.55,0.356-1.096,0.53-1.649  c0.484-1.541,0.957-3.092,1.418-4.657c0.042-0.142,0.086-0.282,0.128-0.424c0.497-1.698,0.977-3.413,1.445-5.137  c0.152-0.561,0.298-1.127,0.448-1.691c0.315-1.189,0.626-2.382,0.928-3.583c0.166-0.659,0.328-1.32,0.489-1.982  c0.28-1.149,0.554-2.303,0.822-3.462c0.152-0.656,0.304-1.311,0.452-1.97c0.288-1.288,0.566-2.584,0.84-3.884  c0.109-0.519,0.223-1.034,0.33-1.554c0.367-1.793,0.72-3.597,1.058-5.412c0.089-0.48,0.171-0.965,0.259-1.446  C345.586,309.941,345.775,308.859,345.96,307.774z M237.509,363.071c-24.698-11.841-49.018-27.171-70.917-44.746h0.001  c-4.276-3.431-8.471-6.958-12.552-10.551c0.185,1.085,0.374,2.167,0.569,3.245c0.087,0.481,0.169,0.966,0.259,1.446  c0.338,1.814,0.691,3.619,1.058,5.412c0.107,0.521,0.22,1.036,0.33,1.554c0.273,1.3,0.551,2.596,0.84,3.883  c0.148,0.661,0.301,1.318,0.453,1.975c0.267,1.156,0.54,2.308,0.82,3.454c0.162,0.664,0.324,1.327,0.49,1.987  c0.302,1.201,0.613,2.393,0.927,3.582c0.149,0.563,0.295,1.13,0.448,1.691c0.469,1.725,0.948,3.439,1.445,5.137  c0.042,0.143,0.086,0.282,0.128,0.424c0.461,1.564,0.934,3.116,1.418,4.657c0.174,0.553,0.354,1.1,0.53,1.649  c0.365,1.135,0.735,2.264,1.112,3.385c0.204,0.605,0.41,1.208,0.618,1.809c0.376,1.088,0.759,2.168,1.146,3.243  c0.204,0.565,0.406,1.131,0.614,1.692c0.462,1.25,0.934,2.488,1.412,3.719c0.137,0.354,0.271,0.712,0.409,1.064  c0.619,1.571,1.252,3.125,1.898,4.663c0.166,0.395,0.338,0.782,0.506,1.175c0.488,1.144,0.982,2.281,1.485,3.405  c0.236,0.528,0.476,1.05,0.715,1.573c0.455,0.995,0.915,1.982,1.381,2.961c0.251,0.526,0.502,1.053,0.757,1.575  c0.157,0.323,0.32,0.638,0.478,0.959c0.19-0.021,0.377-0.039,0.567-0.061c0.436-0.051,0.875-0.109,1.314-0.164  c0.93-0.116,1.864-0.239,2.802-0.371c0.488-0.068,0.977-0.139,1.467-0.211c0.935-0.139,1.875-0.286,2.818-0.439  c0.458-0.074,0.914-0.146,1.373-0.224c1.177-0.2,2.36-0.412,3.547-0.635c0.216-0.041,0.429-0.076,0.646-0.118  c1.4-0.267,2.807-0.552,4.22-0.85c0.416-0.087,0.835-0.183,1.252-0.273c1.009-0.219,2.021-0.443,3.036-0.678  c0.518-0.12,1.038-0.244,1.557-0.368c0.941-0.224,1.885-0.455,2.83-0.693c0.524-0.131,1.047-0.262,1.572-0.398  c1.027-0.265,2.058-0.541,3.091-0.821c0.425-0.116,0.849-0.227,1.275-0.345c1.444-0.401,2.891-0.814,4.344-1.245  c0.294-0.087,0.59-0.181,0.885-0.269c1.169-0.351,2.34-0.709,3.514-1.079c0.521-0.164,1.043-0.334,1.564-0.501  c0.967-0.311,1.935-0.627,2.905-0.951c0.556-0.186,1.113-0.373,1.671-0.563c0.978-0.333,1.957-0.674,2.936-1.02  c0.516-0.182,1.032-0.362,1.549-0.547c1.245-0.448,2.493-0.907,3.741-1.375c0.24-0.09,0.48-0.176,0.721-0.267  C234.823,364.124,236.166,363.601,237.509,363.071z M140.553,281.018c-0.874-10.23-1.315-20.615-1.315-31.018  s0.441-20.788,1.315-31.018c-0.097,0.102-0.195,0.203-0.292,0.304c-1.07,1.122-2.128,2.245-3.171,3.373  c-0.177,0.19-0.349,0.382-0.525,0.573c-0.884,0.96-1.757,1.923-2.62,2.888c-0.29,0.324-0.579,0.648-0.867,0.973  c-0.909,1.024-1.808,2.05-2.694,3.079c-0.11,0.127-0.222,0.254-0.331,0.381c-0.979,1.141-1.94,2.285-2.891,3.43  c-0.262,0.315-0.52,0.631-0.78,0.947c-0.748,0.91-1.488,1.821-2.218,2.734c-0.227,0.283-0.456,0.566-0.681,0.85  c-0.908,1.145-1.802,2.292-2.681,3.44c-0.188,0.245-0.371,0.492-0.558,0.737c-0.716,0.943-1.423,1.888-2.119,2.833  c-0.24,0.325-0.479,0.65-0.717,0.976c-0.85,1.166-1.69,2.333-2.509,3.501c0.819,1.168,1.66,2.335,2.509,3.501  c0.237,0.326,0.477,0.651,0.717,0.976c0.697,0.945,1.403,1.89,2.119,2.833c0.187,0.246,0.37,0.492,0.558,0.737  c0.879,1.148,1.773,2.295,2.681,3.44c0.225,0.283,0.454,0.566,0.681,0.85c0.73,0.913,1.469,1.824,2.218,2.734  c0.26,0.316,0.518,0.631,0.78,0.947c0.951,1.146,1.912,2.289,2.891,3.43c0.109,0.127,0.221,0.254,0.331,0.381  c0.886,1.029,1.785,2.055,2.694,3.079c0.288,0.325,0.577,0.648,0.867,0.973c0.864,0.964,1.737,1.927,2.62,2.888  c0.176,0.191,0.348,0.383,0.525,0.573c1.042,1.127,2.101,2.251,3.171,3.373C140.358,280.815,140.456,280.917,140.553,281.018z   M154.04,192.226c4.082-3.594,8.277-7.12,12.552-10.551c21.898-17.575,46.218-32.904,70.916-44.746  c-1.343-0.53-2.686-1.053-4.026-1.56c-0.242-0.091-0.483-0.177-0.725-0.268c-1.246-0.467-2.491-0.925-3.735-1.372  c-0.519-0.187-1.036-0.367-1.555-0.55c-0.98-0.346-1.959-0.687-2.937-1.02c-0.556-0.189-1.111-0.376-1.666-0.562  c-0.97-0.324-1.939-0.64-2.906-0.951c-0.522-0.167-1.044-0.337-1.564-0.501c-1.174-0.37-2.345-0.728-3.514-1.079  c-0.294-0.088-0.59-0.182-0.885-0.269c-1.452-0.43-2.9-0.844-4.344-1.245c-0.426-0.118-0.85-0.229-1.275-0.345  c-1.032-0.281-2.063-0.556-3.091-0.821c-0.525-0.136-1.048-0.267-1.572-0.398c-0.946-0.238-1.889-0.469-2.83-0.693  c-0.52-0.124-1.039-0.248-1.557-0.368c-1.016-0.234-2.027-0.458-3.036-0.678c-0.417-0.09-0.836-0.186-1.252-0.273  c-1.412-0.298-2.819-0.583-4.217-0.849c-0.223-0.042-0.443-0.08-0.666-0.121c-1.181-0.222-2.358-0.433-3.53-0.632  c-0.459-0.078-0.915-0.15-1.373-0.224c-0.943-0.153-1.883-0.301-2.818-0.439c-0.49-0.073-0.979-0.143-1.467-0.211  c-0.938-0.132-1.872-0.254-2.802-0.371c-0.438-0.055-0.878-0.112-1.314-0.164c-0.19-0.022-0.377-0.04-0.567-0.061  c-0.158,0.321-0.321,0.636-0.478,0.959c-0.254,0.522-0.506,1.048-0.757,1.575c-0.466,0.979-0.926,1.966-1.381,2.961  c-0.239,0.523-0.479,1.045-0.715,1.573c-0.503,1.124-0.996,2.261-1.485,3.405c-0.168,0.393-0.34,0.78-0.506,1.175  c-0.646,1.538-1.279,3.091-1.898,4.663c-0.139,0.352-0.272,0.711-0.409,1.064c-0.478,1.231-0.95,2.469-1.412,3.719  c-0.207,0.561-0.409,1.127-0.614,1.692c-0.388,1.074-0.771,2.154-1.146,3.243c-0.208,0.601-0.414,1.204-0.618,1.809  c-0.378,1.121-0.747,2.25-1.112,3.385c-0.177,0.55-0.356,1.096-0.53,1.649c-0.484,1.541-0.957,3.092-1.418,4.657  c-0.042,0.142-0.086,0.282-0.128,0.424c-0.497,1.698-0.977,3.413-1.445,5.137c-0.152,0.561-0.298,1.127-0.448,1.691  c-0.315,1.188-0.626,2.381-0.927,3.582c-0.166,0.66-0.328,1.323-0.49,1.987c-0.28,1.146-0.552,2.298-0.82,3.454  c-0.152,0.657-0.305,1.314-0.453,1.975c-0.289,1.288-0.566,2.583-0.84,3.883c-0.109,0.519-0.223,1.034-0.33,1.554  c-0.367,1.793-0.72,3.597-1.058,5.412c-0.089,0.48-0.171,0.965-0.259,1.446C154.414,190.059,154.225,191.141,154.04,192.226z   M262.491,136.929c24.698,11.841,49.018,27.171,70.917,44.746h-0.001c4.276,3.431,8.471,6.958,12.552,10.551  c-0.185-1.085-0.374-2.167-0.569-3.245c-0.087-0.481-0.169-0.966-0.259-1.446c-0.338-1.814-0.691-3.619-1.058-5.412  c-0.107-0.521-0.22-1.036-0.33-1.554c-0.273-1.3-0.551-2.596-0.84-3.884c-0.148-0.659-0.3-1.314-0.452-1.97  c-0.268-1.159-0.541-2.313-0.822-3.462c-0.161-0.662-0.323-1.323-0.489-1.982c-0.302-1.201-0.613-2.394-0.928-3.583  c-0.149-0.563-0.295-1.13-0.448-1.691c-0.469-1.725-0.948-3.439-1.445-5.137c-0.042-0.143-0.086-0.282-0.128-0.424  c-0.461-1.564-0.934-3.116-1.418-4.657c-0.174-0.553-0.354-1.1-0.53-1.649c-0.365-1.135-0.735-2.264-1.112-3.385  c-0.204-0.605-0.41-1.208-0.618-1.809c-0.376-1.088-0.759-2.168-1.146-3.243c-0.204-0.565-0.406-1.131-0.614-1.692  c-0.463-1.253-0.936-2.495-1.416-3.729c-0.136-0.35-0.267-0.705-0.404-1.052c-0.62-1.572-1.253-3.127-1.899-4.666  c-0.166-0.395-0.338-0.782-0.506-1.175c-0.488-1.144-0.982-2.281-1.485-3.405c-0.236-0.528-0.476-1.05-0.715-1.573  c-0.455-0.995-0.915-1.982-1.381-2.961c-0.251-0.526-0.502-1.053-0.757-1.575c-0.157-0.323-0.32-0.638-0.478-0.959  c-0.19,0.021-0.377,0.039-0.567,0.061c-0.436,0.051-0.875,0.109-1.314,0.164c-0.93,0.116-1.864,0.239-2.802,0.371  c-0.488,0.068-0.977,0.139-1.467,0.211c-0.935,0.139-1.875,0.286-2.818,0.439c-0.458,0.074-0.914,0.146-1.373,0.224  c-1.17,0.199-2.346,0.41-3.527,0.631c-0.224,0.042-0.445,0.079-0.669,0.122c-1.398,0.267-2.805,0.551-4.217,0.849  c-0.416,0.088-0.835,0.183-1.252,0.273c-1.009,0.219-2.021,0.443-3.036,0.678c-0.518,0.12-1.038,0.244-1.557,0.368  c-0.941,0.224-1.885,0.455-2.83,0.693c-0.524,0.131-1.047,0.262-1.572,0.398c-1.027,0.265-2.058,0.541-3.091,0.821  c-0.425,0.116-0.849,0.227-1.275,0.345c-1.444,0.401-2.891,0.814-4.344,1.245c-0.294,0.087-0.59,0.181-0.885,0.269  c-1.169,0.351-2.34,0.709-3.513,1.079c-0.521,0.164-1.044,0.334-1.566,0.502c-0.967,0.311-1.934,0.627-2.903,0.95  c-0.556,0.186-1.112,0.373-1.668,0.562c-0.978,0.333-1.956,0.674-2.936,1.02c-0.518,0.183-1.036,0.363-1.555,0.55  c-1.243,0.447-2.489,0.905-3.735,1.372c-0.242,0.091-0.483,0.177-0.725,0.268C265.177,135.876,263.834,136.399,262.491,136.929z   M350.762,250c0-14.21-0.855-28.375-2.523-42.141c-6.673-6.313-13.75-12.496-21.089-18.386h-0.001  c-23.723-19.039-50.356-35.353-77.148-47.292c-26.792,11.94-53.426,28.253-77.148,47.292h-0.001  c-7.339,5.89-14.417,12.073-21.089,18.386c-1.668,13.766-2.523,27.931-2.523,42.141s0.855,28.375,2.523,42.141  c6.673,6.313,13.75,12.496,21.089,18.386h0.001c23.723,19.039,50.356,35.353,77.148,47.292  c26.792-11.94,53.426-28.253,77.148-47.292h0.001c7.339-5.89,14.417-12.073,21.089-18.386  C349.907,278.375,350.762,264.21,350.762,250z M334.397,120.004c0.286,0.606,0.56,1.229,0.841,1.841  c0.302,0.657,0.605,1.311,0.902,1.974c0.452,1.011,0.895,2.035,1.335,3.061c0.266,0.619,0.536,1.231,0.798,1.855  c0.505,1.203,0.996,2.422,1.486,3.645c0.185,0.462,0.376,0.916,0.559,1.38c0.665,1.693,1.316,3.403,1.951,5.131  c0.139,0.377,0.27,0.763,0.407,1.142c0.492,1.359,0.979,2.723,1.453,4.102c0.219,0.637,0.428,1.284,0.643,1.925  c0.38,1.137,0.76,2.274,1.127,3.424c0.231,0.722,0.454,1.452,0.68,2.179c0.337,1.086,0.673,2.175,0.999,3.272  c0.228,0.765,0.449,1.534,0.671,2.305c0.311,1.08,0.617,2.164,0.917,3.253c0.216,0.785,0.429,1.572,0.639,2.362  c0.292,1.099,0.578,2.203,0.859,3.311c0.2,0.788,0.4,1.575,0.594,2.367c0.281,1.144,0.552,2.295,0.82,3.448  c0.178,0.764,0.358,1.525,0.531,2.293c0.281,1.247,0.548,2.504,0.815,3.762c0.145,0.684,0.295,1.363,0.436,2.049  c0.328,1.6,0.64,3.21,0.946,4.826c0.066,0.351,0.139,0.698,0.204,1.05c0.367,1.98,0.717,3.973,1.05,5.975  c0.085,0.512,0.161,1.029,0.244,1.543c0.24,1.49,0.477,2.981,0.698,4.482c0.105,0.713,0.201,1.431,0.302,2.146  c0.139,0.987,0.285,1.969,0.416,2.96c0.153,0.148,0.3,0.298,0.452,0.446c1.39,1.348,2.765,2.7,4.116,4.059  c0.157,0.157,0.31,0.316,0.467,0.474c1.292,1.303,2.564,2.611,3.821,3.923c0.192,0.2,0.386,0.4,0.577,0.601  c1.3,1.365,2.577,2.735,3.838,4.108c0.256,0.279,0.511,0.558,0.766,0.837c1.257,1.38,2.499,2.763,3.716,4.151  c0.163,0.186,0.323,0.373,0.485,0.559c1.17,1.341,2.322,2.685,3.455,4.033c0.14,0.167,0.283,0.333,0.422,0.5  c1.175,1.404,2.324,2.812,3.458,4.223c0.225,0.28,0.449,0.56,0.672,0.839c1.117,1.402,2.216,2.807,3.292,4.214  c0.162,0.212,0.321,0.425,0.482,0.638c1.044,1.375,2.07,2.753,3.074,4.133c0.07,0.097,0.145,0.192,0.215,0.289  c28.329-44.871,29.979-85.113,3.913-106.033C380.959,123.839,360.119,118.677,334.397,120.004z M181.271,111.441  c0.328,0.044,0.66,0.098,0.989,0.144c0.586,0.082,1.175,0.168,1.764,0.256c0.894,0.133,1.792,0.273,2.692,0.419  c0.591,0.096,1.182,0.192,1.775,0.293c0.927,0.159,1.859,0.327,2.792,0.499c0.567,0.104,1.133,0.207,1.703,0.316  c1.03,0.198,2.066,0.409,3.103,0.623c0.473,0.098,0.944,0.189,1.419,0.291c1.513,0.322,3.032,0.659,4.558,1.015  c0.096,0.022,0.194,0.048,0.29,0.07c1.43,0.335,2.865,0.686,4.305,1.051c0.509,0.129,1.021,0.267,1.532,0.399  c1.033,0.269,2.068,0.54,3.106,0.824c0.595,0.163,1.192,0.332,1.789,0.5c0.964,0.27,1.929,0.544,2.896,0.828  c0.623,0.182,1.246,0.368,1.87,0.556c0.957,0.287,1.915,0.581,2.874,0.88c0.62,0.193,1.24,0.387,1.86,0.586  c0.99,0.316,1.982,0.642,2.974,0.971c0.587,0.195,1.173,0.387,1.761,0.586c1.109,0.375,2.219,0.764,3.33,1.155  c0.468,0.165,0.935,0.324,1.403,0.492c1.587,0.568,3.176,1.149,4.767,1.749c0.114,0.043,0.228,0.088,0.342,0.132  c1.469,0.556,2.94,1.125,4.412,1.708c0.513,0.203,1.026,0.414,1.538,0.62c1.077,0.433,2.154,0.869,3.231,1.315  c0.599,0.249,1.198,0.503,1.797,0.756c0.618,0.261,1.237,0.514,1.855,0.78c0.618-0.266,1.237-0.519,1.855-0.78  c0.599-0.253,1.198-0.507,1.797-0.756c1.078-0.447,2.154-0.883,3.231-1.315c0.513-0.206,1.026-0.417,1.538-0.62  c1.472-0.583,2.943-1.152,4.412-1.708c0.114-0.043,0.228-0.089,0.342-0.132c1.591-0.599,3.179-1.181,4.765-1.749  c0.47-0.168,0.939-0.328,1.408-0.493c1.11-0.391,2.219-0.779,3.327-1.154c0.588-0.199,1.174-0.391,1.761-0.586  c0.992-0.329,1.984-0.655,2.974-0.971c0.621-0.199,1.24-0.393,1.86-0.586c0.959-0.3,1.917-0.593,2.874-0.88  c0.624-0.188,1.247-0.374,1.87-0.556c0.967-0.283,1.932-0.558,2.896-0.828c0.597-0.167,1.194-0.337,1.789-0.5  c1.038-0.284,2.072-0.555,3.106-0.824c0.51-0.132,1.022-0.271,1.532-0.399c1.44-0.365,2.875-0.715,4.305-1.051  c0.096-0.022,0.194-0.048,0.29-0.07c1.526-0.356,3.044-0.693,4.558-1.015c0.476-0.101,0.947-0.193,1.421-0.291  c1.036-0.214,2.071-0.425,3.101-0.623c0.57-0.109,1.135-0.211,1.703-0.316c0.933-0.172,1.865-0.34,2.792-0.499  c0.594-0.101,1.185-0.198,1.775-0.293c0.9-0.146,1.798-0.286,2.692-0.419c0.589-0.088,1.178-0.174,1.764-0.256  c0.329-0.046,0.661-0.099,0.989-0.144C299.904,78.147,275.682,59.921,250,59.921S200.096,78.147,181.271,111.441z M108.968,241.097  c0.07-0.097,0.145-0.192,0.215-0.289c1.004-1.38,2.03-2.758,3.074-4.133c0.161-0.213,0.32-0.426,0.482-0.638  c1.076-1.409,2.176-2.814,3.294-4.217c0.221-0.278,0.444-0.556,0.667-0.834c1.134-1.412,2.285-2.821,3.46-4.226  c0.139-0.167,0.282-0.333,0.422-0.499c1.133-1.348,2.285-2.692,3.455-4.033c0.162-0.186,0.322-0.373,0.485-0.559  c1.218-1.388,2.459-2.771,3.716-4.151c0.254-0.279,0.51-0.558,0.766-0.837c1.262-1.375,2.54-2.745,3.841-4.111  c0.189-0.198,0.381-0.396,0.571-0.594c1.258-1.313,2.532-2.623,3.826-3.928c0.156-0.158,0.31-0.316,0.466-0.473  c1.352-1.358,2.727-2.71,4.116-4.059c0.153-0.148,0.299-0.298,0.452-0.446c0.131-0.991,0.277-1.974,0.416-2.96  c0.101-0.715,0.197-1.433,0.302-2.146c0.221-1.501,0.458-2.993,0.698-4.482c0.083-0.514,0.159-1.031,0.244-1.543  c0.333-2.002,0.682-3.994,1.05-5.975c0.065-0.352,0.137-0.699,0.204-1.05c0.305-1.616,0.618-3.226,0.946-4.826  c0.141-0.687,0.291-1.366,0.436-2.049c0.267-1.258,0.534-2.515,0.815-3.762c0.173-0.768,0.353-1.529,0.531-2.293  c0.269-1.153,0.54-2.304,0.82-3.448c0.194-0.792,0.394-1.58,0.594-2.367c0.281-1.108,0.567-2.212,0.859-3.311  c0.21-0.79,0.423-1.577,0.639-2.362c0.3-1.09,0.606-2.174,0.917-3.253c0.222-0.771,0.444-1.54,0.671-2.305  c0.326-1.098,0.661-2.187,0.999-3.272c0.226-0.728,0.449-1.457,0.68-2.179c0.368-1.15,0.747-2.288,1.127-3.424  c0.215-0.642,0.424-1.288,0.643-1.925c0.473-1.379,0.961-2.743,1.453-4.102c0.137-0.379,0.269-0.765,0.407-1.142  c0.635-1.728,1.286-3.438,1.951-5.131c0.183-0.464,0.374-0.918,0.559-1.38c0.489-1.223,0.981-2.442,1.486-3.645  c0.262-0.624,0.532-1.237,0.798-1.855c0.441-1.026,0.883-2.05,1.335-3.061c0.297-0.664,0.6-1.317,0.902-1.974  c0.281-0.612,0.555-1.235,0.841-1.841c-2.636-0.136-5.222-0.204-7.753-0.204c-22.176,0-40.24,5.188-52.795,15.264  C78.988,155.983,80.639,196.226,108.968,241.097z M165.603,379.996c-0.286-0.606-0.56-1.229-0.841-1.841  c-0.302-0.657-0.605-1.311-0.902-1.974c-0.452-1.011-0.895-2.035-1.335-3.061c-0.266-0.619-0.536-1.231-0.798-1.855  c-0.505-1.203-0.996-2.422-1.486-3.645c-0.185-0.462-0.376-0.916-0.559-1.38c-0.665-1.693-1.316-3.403-1.951-5.131  c-0.139-0.377-0.27-0.763-0.407-1.142c-0.492-1.359-0.979-2.723-1.453-4.102c-0.219-0.637-0.428-1.284-0.643-1.925  c-0.38-1.137-0.76-2.274-1.127-3.424c-0.231-0.722-0.454-1.452-0.68-2.179c-0.337-1.086-0.673-2.175-0.999-3.272  c-0.228-0.765-0.449-1.534-0.671-2.305c-0.311-1.08-0.617-2.164-0.917-3.253c-0.216-0.785-0.429-1.572-0.639-2.362  c-0.292-1.099-0.578-2.203-0.859-3.311c-0.2-0.788-0.4-1.575-0.594-2.367c-0.281-1.144-0.552-2.295-0.82-3.448  c-0.178-0.764-0.358-1.525-0.531-2.293c-0.281-1.247-0.548-2.504-0.815-3.762c-0.145-0.684-0.295-1.363-0.436-2.049  c-0.328-1.6-0.64-3.21-0.946-4.826c-0.066-0.351-0.139-0.698-0.204-1.05c-0.367-1.98-0.717-3.973-1.05-5.975  c-0.085-0.512-0.161-1.029-0.244-1.543c-0.24-1.49-0.477-2.981-0.698-4.482c-0.105-0.713-0.201-1.431-0.302-2.146  c-0.139-0.987-0.285-1.969-0.416-2.96c-0.153-0.148-0.3-0.298-0.452-0.446c-1.39-1.348-2.765-2.7-4.116-4.059  c-0.157-0.157-0.31-0.315-0.466-0.473c-1.292-1.304-2.566-2.612-3.823-3.925c-0.191-0.2-0.385-0.399-0.576-0.599  c-1.3-1.365-2.577-2.735-3.839-4.109c-0.256-0.279-0.511-0.558-0.766-0.837c-1.257-1.38-2.499-2.763-3.716-4.151  c-0.163-0.186-0.323-0.373-0.485-0.559c-1.17-1.341-2.322-2.685-3.455-4.033c-0.14-0.167-0.283-0.333-0.422-0.499  c-1.175-1.405-2.326-2.814-3.46-4.226c-0.223-0.278-0.446-0.556-0.667-0.834c-1.117-1.402-2.217-2.807-3.293-4.215  c-0.163-0.214-0.323-0.428-0.485-0.642c-1.044-1.375-2.069-2.751-3.073-4.131c-0.07-0.097-0.145-0.192-0.215-0.289  c-28.329,44.871-29.979,85.113-3.913,106.033C119.042,376.162,139.879,381.319,165.603,379.996z M318.729,388.559  c-0.328-0.044-0.66-0.098-0.989-0.144c-0.586-0.082-1.175-0.168-1.764-0.256c-0.894-0.133-1.792-0.273-2.692-0.419  c-0.591-0.096-1.182-0.192-1.775-0.293c-0.927-0.159-1.859-0.327-2.792-0.499c-0.567-0.104-1.133-0.207-1.703-0.316  c-1.03-0.198-2.065-0.409-3.101-0.623c-0.474-0.098-0.946-0.19-1.421-0.291c-1.513-0.322-3.032-0.659-4.558-1.015  c-0.096-0.022-0.194-0.048-0.29-0.07c-1.43-0.335-2.865-0.686-4.305-1.051c-0.509-0.129-1.021-0.267-1.532-0.399  c-1.033-0.269-2.068-0.54-3.106-0.824c-0.595-0.163-1.192-0.332-1.789-0.5c-0.964-0.27-1.929-0.544-2.896-0.828  c-0.623-0.182-1.246-0.368-1.87-0.556c-0.957-0.287-1.915-0.581-2.874-0.88c-0.62-0.193-1.24-0.387-1.86-0.586  c-0.99-0.316-1.982-0.642-2.974-0.971c-0.587-0.195-1.173-0.387-1.761-0.586c-1.107-0.375-2.217-0.763-3.327-1.154  c-0.469-0.165-0.938-0.325-1.408-0.493c-1.586-0.567-3.175-1.149-4.765-1.749c-0.114-0.043-0.228-0.088-0.342-0.132  c-1.469-0.556-2.94-1.125-4.412-1.708c-0.513-0.203-1.026-0.414-1.538-0.62c-1.077-0.433-2.154-0.869-3.231-1.315  c-0.599-0.249-1.198-0.503-1.797-0.756c-0.618-0.261-1.237-0.514-1.855-0.78c-0.618,0.266-1.237,0.519-1.855,0.78  c-0.599,0.253-1.198,0.507-1.797,0.756c-1.078,0.447-2.154,0.883-3.231,1.315c-0.513,0.206-1.026,0.417-1.538,0.62  c-1.472,0.583-2.943,1.152-4.412,1.708c-0.114,0.043-0.228,0.089-0.342,0.132c-1.591,0.6-3.18,1.181-4.767,1.749  c-0.469,0.167-0.935,0.327-1.403,0.492c-1.111,0.391-2.222,0.779-3.33,1.155c-0.588,0.199-1.174,0.391-1.761,0.586  c-0.992,0.329-1.984,0.655-2.974,0.971c-0.621,0.199-1.24,0.393-1.86,0.586c-0.959,0.3-1.917,0.593-2.874,0.88  c-0.624,0.188-1.247,0.374-1.87,0.556c-0.967,0.283-1.932,0.558-2.896,0.828c-0.597,0.167-1.194,0.337-1.789,0.5  c-1.038,0.284-2.072,0.555-3.106,0.824c-0.51,0.132-1.022,0.271-1.532,0.399c-1.44,0.365-2.875,0.715-4.305,1.051  c-0.096,0.022-0.194,0.048-0.29,0.07c-1.526,0.356-3.045,0.693-4.558,1.015c-0.475,0.101-0.946,0.193-1.419,0.291  c-1.037,0.214-2.073,0.425-3.103,0.623c-0.57,0.109-1.135,0.211-1.703,0.316c-0.933,0.172-1.865,0.34-2.792,0.499  c-0.594,0.101-1.185,0.198-1.775,0.293c-0.9,0.146-1.798,0.286-2.692,0.419c-0.589,0.088-1.178,0.174-1.764,0.256  c-0.329,0.046-0.661,0.099-0.989,0.144c18.825,33.294,43.048,51.521,68.729,51.521S299.904,421.853,318.729,388.559z   M391.032,258.903c-0.07,0.097-0.145,0.192-0.215,0.289c-1.004,1.38-2.029,2.756-3.073,4.131c-0.162,0.214-0.322,0.428-0.485,0.642  c-1.075,1.407-2.174,2.812-3.291,4.213c-0.223,0.28-0.448,0.56-0.672,0.839c-1.133,1.411-2.283,2.819-3.458,4.223  c-0.139,0.167-0.282,0.333-0.422,0.5c-1.133,1.348-2.285,2.692-3.455,4.033c-0.162,0.186-0.322,0.373-0.485,0.559  c-1.218,1.388-2.459,2.771-3.716,4.151c-0.255,0.279-0.51,0.559-0.766,0.837c-1.26,1.373-2.537,2.743-3.837,4.106  c-0.192,0.202-0.388,0.404-0.582,0.605c-1.255,1.311-2.528,2.618-3.818,3.92c-0.156,0.158-0.31,0.316-0.467,0.474  c-1.352,1.358-2.727,2.71-4.116,4.059c-0.153,0.148-0.299,0.298-0.452,0.446c-0.131,0.991-0.277,1.974-0.416,2.96  c-0.101,0.715-0.197,1.433-0.302,2.146c-0.221,1.501-0.458,2.993-0.698,4.482c-0.083,0.514-0.159,1.031-0.244,1.543  c-0.333,2.002-0.682,3.994-1.05,5.975c-0.065,0.352-0.137,0.699-0.204,1.05c-0.305,1.616-0.618,3.226-0.946,4.826  c-0.141,0.687-0.291,1.366-0.436,2.049c-0.267,1.258-0.534,2.515-0.815,3.762c-0.173,0.768-0.353,1.529-0.531,2.293  c-0.269,1.153-0.54,2.304-0.82,3.448c-0.194,0.792-0.394,1.58-0.594,2.367c-0.281,1.108-0.567,2.212-0.859,3.311  c-0.21,0.79-0.423,1.577-0.639,2.362c-0.3,1.09-0.606,2.174-0.917,3.253c-0.222,0.771-0.444,1.54-0.671,2.305  c-0.326,1.098-0.661,2.187-0.999,3.272c-0.226,0.728-0.449,1.457-0.68,2.179c-0.368,1.15-0.747,2.288-1.127,3.424  c-0.215,0.642-0.424,1.288-0.643,1.925c-0.473,1.379-0.961,2.743-1.453,4.102c-0.137,0.379-0.269,0.765-0.407,1.142  c-0.635,1.728-1.286,3.438-1.951,5.131c-0.183,0.464-0.374,0.918-0.559,1.38c-0.489,1.223-0.981,2.442-1.486,3.645  c-0.262,0.624-0.532,1.237-0.798,1.855c-0.441,1.026-0.883,2.05-1.335,3.061c-0.297,0.664-0.6,1.317-0.902,1.974  c-0.281,0.612-0.555,1.235-0.841,1.841c25.727,1.327,46.561-3.834,60.548-15.06C421.012,344.017,419.361,303.774,391.032,258.903z   M48.93,245h-2.598c-2.762,0-5,2.238-5,5s2.238,5,5,5h2.598c2.762,0,5-2.238,5-5S51.691,245,48.93,245z M91.114,250  c0-2.762-2.238-5-5-5H66.82c-2.762,0-5,2.238-5,5s2.238,5,5,5h19.294C88.876,255,91.114,252.762,91.114,250z M453.668,245h-2.598  c-2.762,0-5,2.238-5,5s2.238,5,5,5h2.598c2.762,0,5-2.238,5-5S456.43,245,453.668,245z M433.18,245h-19.294c-2.762,0-5,2.238-5,5  s2.238,5,5,5h19.294c2.762,0,5-2.238,5-5S435.941,245,433.18,245z M299.544,250c0,27.318-22.226,49.544-49.544,49.544  S200.456,277.318,200.456,250s22.226-49.544,49.544-49.544S299.544,222.682,299.544,250z M289.544,250  c0-21.805-17.739-39.544-39.544-39.544S210.456,228.195,210.456,250s17.739,39.544,39.544,39.544S289.544,271.805,289.544,250z"/>
</svg>
