<?xml version="1.0" encoding="utf-8"?>
<!-- Generator: Adobe Illustrator 22.0.0, SVG Export Plug-In . SVG Version: 6.00 Build 0)  -->
<svg xmlns="http://www.w3.org/2000/svg" xmlns:xlink="http://www.w3.org/1999/xlink" version="1.1" id="Layer_1" x="0px" y="0px" viewBox="0 0 500 500" style="enable-background:new 0 0 500 500;" xml:space="preserve" width="512" height="512">
<style type="text/css">
	.st0{fill:#83E1E5;}
	.st1{fill:#AAB1BA;}
	.st2{fill:#ECF4F7;}
	.st3{fill:#FDDF7F;}
	.st4{fill:#1C1D21;}
	.st5{fill:#FFFFFF;}
</style>
<g>
	<g>
		<path class="st1" d="M240.227,210.109c-0.419,0-0.828-0.043-1.227-0.115v60.521l3.957-3.957c3.89-3.89,10.196-3.89,14.085,0    l3.957,3.957v-60.521c-0.399,0.071-0.807,0.115-1.227,0.115H240.227z"/>
	</g>
</g>
<g>
	<g>
		<path class="st1" d="M224.012,285.503l3.957-3.957H66.631c-6.075,0-11,4.925-11,11v56.889v0h22v0v-45.889h150.338l-3.957-3.957    C220.122,295.699,220.122,289.393,224.012,285.503z"/>
	</g>
</g>
<g>
	<g>
		<path class="st1" d="M242.957,318.534L239,314.577v83.38c0,0.423,0.029,0.839,0.076,1.25c3.513-0.809,7.166-1.25,10.924-1.25    s7.411,0.441,10.924,1.25c0.047-0.411,0.076-0.827,0.076-1.25v-83.38l-3.957,3.957    C253.153,322.424,246.847,322.424,242.957,318.534z"/>
	</g>
</g>
<g>
	<g>
		<path class="st1" d="M433.369,281.546H272.031l3.957,3.957c3.889,3.889,3.889,10.196,0,14.085l-3.957,3.957h150.338v45.889v0h22v0    v-56.889C444.369,286.471,439.444,281.546,433.369,281.546z"/>
	</g>
</g>
<g>
	<g>
		<path class="st2" d="M242.957,318.534l-18.946-18.946c-3.89-3.889-3.89-10.196,0-14.085l18.946-18.946    c3.89-3.89,10.196-3.89,14.085,0l18.946,18.946c3.89,3.889,3.89,10.196,0,14.085l-18.946,18.946    C253.153,322.424,246.847,322.424,242.957,318.534z"/>
	</g>
</g>
<g>
	<g>
		<path class="st3" d="M104.821,446.478H28.441c-5.706,0-10.331-4.626-10.331-10.331v-76.381c0-5.706,4.626-10.331,10.331-10.331    h76.381c5.706,0,10.331,4.625,10.331,10.331v76.381C115.153,441.853,110.527,446.478,104.821,446.478z"/>
	</g>
</g>
<g>
	<g>
		<path class="st3" d="M471.559,446.478h-76.381c-5.706,0-10.331-4.626-10.331-10.331v-76.381c0-5.706,4.626-10.331,10.331-10.331    h76.381c5.706,0,10.331,4.625,10.331,10.331v76.381C481.891,441.853,477.265,446.478,471.559,446.478z"/>
	</g>
</g>
<g>
	<g>
		<path class="st0" d="M352.554,117.328V97.781c0-3.824-3.1-6.923-6.923-6.923h-23.344c-1.87-8.129-5.069-15.747-9.367-22.612    l16.507-16.507c2.704-2.704,2.704-7.087,0-9.791l-13.821-13.821c-2.704-2.704-7.087-2.704-9.791,0l-16.507,16.507    c-6.865-4.298-14.483-7.497-22.612-9.367V11.923c0-3.824-3.1-6.923-6.923-6.923h-19.546c-3.824,0-6.923,3.1-6.923,6.923v23.344    c-8.129,1.87-15.747,5.069-22.612,9.367l-16.507-16.507c-2.704-2.704-7.087-2.704-9.791,0l-13.821,13.821    c-2.704,2.704-2.704,7.087,0,9.791l16.507,16.507c-4.298,6.865-7.497,14.483-9.367,22.612h-23.344c-3.824,0-6.923,3.1-6.923,6.923    v19.546c0,3.824,3.1,6.923,6.923,6.923h23.344c1.87,8.129,5.069,15.747,9.367,22.612l-16.507,16.507    c-2.704,2.704-2.704,7.087,0,9.791l13.821,13.821c2.704,2.704,7.087,2.704,9.791,0l16.507-16.507    c6.865,4.298,14.483,7.497,22.612,9.367v23.344c0,3.824,3.1,6.923,6.923,6.923h19.546c3.824,0,6.923-3.1,6.923-6.923v-23.344    c8.129-1.87,15.747-5.069,22.612-9.367l16.507,16.507c2.704,2.704,7.087,2.704,9.791,0l13.821-13.821    c2.704-2.704,2.704-7.087,0-9.791l-16.507-16.507c4.298-6.865,7.497-14.483,9.367-22.612h23.344    C349.455,124.251,352.554,121.151,352.554,117.328z"/>
	</g>
</g>
<g>
	<g>
		<circle class="st2" cx="250" cy="107.554" r="38.108"/>
	</g>
</g>
<g>
	<g>
		<circle class="st0" cx="250" cy="446.478" r="48.522"/>
	</g>
</g>
<path class="st4" d="M39.798,118.387c0-2.761,2.239-5,5-5h5.833v-5.833c0-2.761,2.239-5,5-5s5,2.239,5,5v5.833h5.833  c2.761,0,5,2.239,5,5s-2.239,5-5,5h-5.833v5.833c0,2.761-2.239,5-5,5s-5-2.239-5-5v-5.833h-5.833  C42.037,123.387,39.798,121.149,39.798,118.387z M55.631,153.307c2.761,0,5-2.239,5-5v-3.305c0-2.761-2.239-5-5-5s-5,2.239-5,5  v3.305C50.631,151.068,52.87,153.307,55.631,153.307z M50.631,221.502c0,2.761,2.239,5,5,5s5-2.239,5-5v-55.5c0-2.761-2.239-5-5-5  s-5,2.239-5,5V221.502z M433.536,215.669h5.833v5.833c0,2.761,2.239,5,5,5s5-2.239,5-5v-5.833h5.833c2.761,0,5-2.239,5-5  s-2.239-5-5-5h-5.833v-5.833c0-2.761-2.239-5-5-5s-5,2.239-5,5v5.833h-5.833c-2.761,0-5,2.239-5,5S430.775,215.669,433.536,215.669z   M444.369,189.054c2.761,0,5-2.239,5-5v-3.305c0-2.761-2.239-5-5-5s-5,2.239-5,5v3.305  C439.369,186.816,441.608,189.054,444.369,189.054z M444.369,168.054c2.761,0,5-2.239,5-5v-55.5c0-2.761-2.239-5-5-5s-5,2.239-5,5  v55.5C439.369,165.816,441.608,168.054,444.369,168.054z M208.953,276.546H66.631c-8.822,0-16,7.177-16,16v41.66  c0,2.761,2.239,5,5,5s5-2.239,5-5v-41.66c0-3.308,2.691-6,6-6h142.322c2.761,0,5-2.239,5-5S211.714,276.546,208.953,276.546z   M208.953,298.546H77.631c-2.761,0-5,2.239-5,5v30.66c0,2.761,2.239,5,5,5s5-2.239,5-5v-25.66h126.322c2.761,0,5-2.239,5-5  S211.714,298.546,208.953,298.546z M279.524,303.124l-18.946,18.946c-2.917,2.916-6.748,4.374-10.578,4.374  c-3.831,0-7.662-1.458-10.578-4.374l-18.946-18.946c-2.825-2.825-4.382-6.582-4.382-10.578s1.556-7.753,4.382-10.578l18.946-18.946  c5.833-5.833,15.324-5.832,21.156,0l18.946,18.946c2.826,2.826,4.382,6.583,4.382,10.578S282.349,300.299,279.524,303.124z   M273.906,292.546c0-1.325-0.516-2.57-1.453-3.507l-18.946-18.946c-1.934-1.934-5.08-1.934-7.014,0l-18.946,18.946  c-0.937,0.937-1.453,2.182-1.453,3.507s0.516,2.57,1.453,3.507l18.946,18.946c1.934,1.934,5.08,1.934,7.014,0l18.946-18.946  C273.39,295.116,273.906,293.871,273.906,292.546z M244,251.499v-27.398c0-2.761-2.239-5-5-5s-5,2.239-5,5v27.398  c0,2.761,2.239,5,5,5S244,254.26,244,251.499z M266,251.499v-27.398c0-2.761-2.239-5-5-5s-5,2.239-5,5v27.398c0,2.761,2.239,5,5,5  S266,254.26,266,251.499z M234,333.593v51.478c0,2.761,2.239,5,5,5s5-2.239,5-5v-51.478c0-2.761-2.239-5-5-5  S234,330.832,234,333.593z M256,333.593v51.478c0,2.761,2.239,5,5,5s5-2.239,5-5v-51.478c0-2.761-2.239-5-5-5  S256,330.832,256,333.593z M422.369,339.206c2.761,0,5-2.239,5-5v-30.66c0-2.761-2.239-5-5-5H291.047c-2.761,0-5,2.239-5,5  s2.239,5,5,5h126.322v25.66C417.369,336.967,419.608,339.206,422.369,339.206z M444.369,339.206c2.761,0,5-2.239,5-5v-41.66  c0-8.823-7.178-16-16-16H291.047c-2.761,0-5,2.239-5,5s2.239,5,5,5h142.322c3.309,0,6,2.692,6,6v41.66  C439.369,336.967,441.608,339.206,444.369,339.206z M206.892,107.554c0-23.77,19.338-43.108,43.108-43.108  s43.108,19.338,43.108,43.108S273.77,150.662,250,150.662S206.892,131.324,206.892,107.554z M216.892,107.554  c0,18.256,14.852,33.108,33.108,33.108s33.108-14.852,33.108-33.108S268.256,74.447,250,74.447S216.892,89.299,216.892,107.554z   M142.445,117.328V97.781c0-6.574,5.349-11.923,11.923-11.923h19.467c1.666-5.865,3.998-11.495,6.967-16.818l-13.766-13.766  c-4.648-4.649-4.648-12.213,0-16.862l13.821-13.821c4.65-4.649,12.213-4.649,16.862,0l13.766,13.766  c5.323-2.969,10.954-5.302,16.818-6.967V11.923C228.304,5.349,233.652,0,240.227,0h19.546c6.575,0,11.923,5.349,11.923,11.923V31.39  c5.864,1.665,11.495,3.998,16.818,6.967l13.766-13.766c4.648-4.648,12.213-4.649,16.862,0l13.822,13.822  c4.648,4.649,4.648,12.213,0,16.862L319.197,69.04c2.969,5.322,5.301,10.953,6.967,16.818h19.467  c6.575,0,11.923,5.349,11.923,11.923v19.546c0,6.574-5.349,11.923-11.923,11.923h-19.467c-1.666,5.865-3.998,11.496-6.967,16.818  l13.766,13.766c4.649,4.649,4.649,12.213,0,16.862l-13.821,13.821c-4.65,4.649-12.213,4.649-16.862,0l-13.766-13.766  c-5.323,2.969-10.954,5.302-16.818,6.967v19.467c0,6.574-5.349,11.923-11.923,11.923h-19.546c-6.575,0-11.923-5.349-11.923-11.923  v-19.467c-5.864-1.665-11.495-3.998-16.818-6.967l-13.766,13.766c-4.648,4.649-12.212,4.649-16.862,0l-13.822-13.822  c-4.649-4.649-4.649-12.213,0-16.862l13.766-13.766c-2.969-5.322-5.301-10.953-6.967-16.818h-19.467  C147.794,129.251,142.445,123.902,142.445,117.328z M152.445,117.328c0,1.06,0.863,1.923,1.923,1.923h23.344  c2.33,0,4.35,1.609,4.873,3.879c1.722,7.483,4.66,14.575,8.732,21.08c1.236,1.975,0.945,4.542-0.702,6.189l-16.507,16.507  c-0.75,0.75-0.75,1.97,0,2.719l13.821,13.822c0.75,0.75,1.97,0.75,2.72,0l16.507-16.507c0.965-0.965,2.246-1.465,3.537-1.465  c0.914,0,1.833,0.25,2.652,0.762c6.506,4.073,13.598,7.011,21.08,8.732c2.27,0.522,3.879,2.543,3.879,4.873v23.344  c0,1.06,0.863,1.923,1.923,1.923h19.546c1.061,0,1.923-0.863,1.923-1.923v-23.344c0-2.33,1.609-4.35,3.879-4.873  c7.482-1.721,14.574-4.659,21.08-8.732c1.976-1.236,4.542-0.945,6.189,0.703l16.507,16.507c0.749,0.75,1.97,0.75,2.72,0  l13.821-13.821c0.75-0.75,0.75-1.97,0-2.72l-16.507-16.507c-1.647-1.647-1.938-4.214-0.702-6.189  c4.072-6.505,7.01-13.597,8.732-21.08c0.522-2.27,2.543-3.879,4.873-3.879h23.344c1.061,0,1.923-0.863,1.923-1.923V97.781  c0-1.061-0.863-1.923-1.923-1.923h-23.344c-2.33,0-4.35-1.609-4.873-3.879c-1.722-7.483-4.66-14.575-8.732-21.08  c-1.236-1.975-0.945-4.542,0.702-6.189l16.507-16.507c0.75-0.75,0.75-1.97,0-2.72l-13.821-13.821c-0.75-0.75-1.97-0.75-2.72,0  l-16.507,16.507c-1.647,1.648-4.214,1.939-6.189,0.702c-6.505-4.073-13.598-7.011-21.08-8.732c-2.27-0.522-3.879-2.543-3.879-4.873  V11.923c0-1.06-0.863-1.923-1.923-1.923h-19.546c-1.061,0-1.923,0.863-1.923,1.923v23.344c0,2.329-1.609,4.35-3.879,4.873  c-7.482,1.721-14.574,4.659-21.08,8.732c-1.973,1.236-4.54,0.945-6.189-0.702l-16.507-16.507c-0.749-0.75-1.97-0.75-2.72,0  l-13.821,13.821c-0.75,0.75-0.75,1.97,0,2.72l16.507,16.507c1.647,1.647,1.938,4.214,0.702,6.189  c-4.072,6.505-7.01,13.597-8.732,21.08c-0.522,2.27-2.543,3.879-4.873,3.879h-23.344c-1.061,0-1.923,0.863-1.923,1.923V117.328z   M120.153,359.766v65.898v10.482v38.839c0,2.761-2.239,5-5,5s-5-2.239-5-5v-24.483c-1.663,0.62-3.455,0.976-5.332,0.976H28.44  c-8.454,0-15.331-6.878-15.331-15.332v-76.381c0-8.454,6.877-15.331,15.331-15.331h76.381  C113.275,344.435,120.153,351.312,120.153,359.766z M110.153,436.147v-10.482v-65.898c0-2.94-2.392-5.331-5.332-5.331H28.44  c-2.939,0-5.331,2.392-5.331,5.331v76.381c0,2.94,2.392,5.332,5.331,5.332h76.381C107.761,441.478,110.153,439.086,110.153,436.147z   M486.891,359.766v76.381c0,8.454-6.877,15.332-15.331,15.332h-76.381c-1.877,0-3.668-0.356-5.332-0.976v24.483c0,2.761-2.239,5-5,5  s-5-2.239-5-5v-38.839v-10.482v-65.898c0-8.454,6.878-15.331,15.332-15.331h76.381C480.013,344.435,486.891,351.312,486.891,359.766  z M476.891,359.766c0-2.94-2.392-5.331-5.331-5.331h-76.381c-2.94,0-5.332,2.392-5.332,5.331v65.898v10.482  c0,2.94,2.392,5.332,5.332,5.332h76.381c2.939,0,5.331-2.392,5.331-5.332V359.766z M303.522,446.478  C303.522,475.99,279.512,500,250,500s-53.522-24.01-53.522-53.522c0-29.512,24.01-53.522,53.522-53.522  S303.522,416.966,303.522,446.478z M293.522,446.478c0-23.998-19.524-43.522-43.522-43.522s-43.522,19.524-43.522,43.522  S226.002,490,250,490S293.522,470.476,293.522,446.478z M115.153,485.177c-2.761,0-5,2.239-5,5V495c0,2.761,2.239,5,5,5s5-2.239,5-5  v-4.823C120.153,487.415,117.914,485.177,115.153,485.177z M384.847,485.177c-2.761,0-5,2.239-5,5V495c0,2.761,2.239,5,5,5  s5-2.239,5-5v-4.823C389.847,487.415,387.608,485.177,384.847,485.177z"/>
</svg>
