<?xml version="1.0" encoding="utf-8"?>
<!-- Generator: Adobe Illustrator 22.0.0, SVG Export Plug-In . SVG Version: 6.00 Build 0)  -->
<svg xmlns="http://www.w3.org/2000/svg" xmlns:xlink="http://www.w3.org/1999/xlink" version="1.1" id="Layer_1" x="0px" y="0px" viewBox="0 0 500 500" style="enable-background:new 0 0 500 500;" xml:space="preserve" width="512" height="512">
<style type="text/css">
	.st0{fill:#83E1E5;}
	.st1{fill:#AAB1BA;}
	.st2{fill:#ECF4F7;}
	.st3{fill:#FDDF7F;}
	.st4{fill:#1C1D21;}
	.st5{fill:#FFFFFF;}
</style>
<g>
	<g>
		<path class="st0" d="M378.906,250v-20.986h-38.044c-2.351-10.218-6.371-19.793-11.774-28.422l20.748-20.748    c3.398-3.398,3.398-8.908,0-12.307l-17.373-17.373c-3.398-3.398-8.908-3.398-12.307,0l-20.749,20.748    c-8.629-5.402-18.204-9.423-28.422-11.773v-29.342c0-4.806-3.896-8.702-8.702-8.702h-24.569c-4.806,0-8.702,3.896-8.702,8.702    v29.342c-10.218,2.351-19.793,6.371-28.422,11.773l-20.748-20.748c-3.398-3.398-8.908-3.398-12.307,0l-17.373,17.373    c-3.398,3.398-3.398,8.908,0,12.307l20.748,20.748c-5.403,8.629-9.423,18.204-11.774,28.422h-38.044V250H378.906z"/>
	</g>
</g>
<g>
	<g>
		<path class="st1" d="M121.094,270.986h38.044c2.351,10.218,6.371,19.793,11.774,28.422l-20.748,20.748    c-3.398,3.398-3.398,8.908,0,12.307l17.373,17.373c3.398,3.398,8.908,3.398,12.307,0l20.748-20.748    c8.629,5.402,18.204,9.423,28.422,11.773v29.342c0,4.806,3.896,8.702,8.702,8.702h24.569c4.806,0,8.702-3.896,8.702-8.702v-29.342    c10.218-2.351,19.793-6.371,28.422-11.773l20.748,20.748c3.398,3.398,8.908,3.398,12.307,0l17.373-17.373    c3.398-3.398,3.398-8.908,0-12.307l-20.748-20.748c5.402-8.629,9.423-18.204,11.774-28.422h38.044V250H121.094V270.986z"/>
	</g>
</g>
<g>
	<g>
		<circle class="st2" cx="250" cy="250" r="47.899"/>
	</g>
</g>
<g>
	<g>
		<path class="st3" d="M475.997,255.301l17.618-21.535c1.498-1.832,1.808-4.364,0.794-6.503c-1.014-2.139-3.169-3.503-5.536-3.503    h-5.606c-3.572-56.795-27.381-109.698-67.978-150.295C371.139,29.315,312.438,5,250,5v25c110.065,0,200.499,85.625,208.212,193.76    h-4.575c-2.367,0-4.522,1.364-5.536,3.503c-1.014,2.139-0.705,4.671,0.794,6.503l17.618,21.535    c1.164,1.422,2.904,2.247,4.742,2.247C473.093,257.548,474.834,256.723,475.997,255.301z"/>
	</g>
</g>
<g>
	<g>
		<path class="st3" d="M24.003,244.699L6.384,266.234c-1.498,1.832-1.808,4.364-0.794,6.503c1.014,2.139,3.169,3.503,5.536,3.503    h5.606c3.572,56.795,27.381,109.698,67.978,150.295C128.861,470.685,187.562,495,250,495v-25    c-110.065,0-200.499-85.625-208.212-193.76h4.575c2.367,0,4.522-1.364,5.536-3.503c1.014-2.139,0.705-4.671-0.794-6.503    l-17.618-21.535c-1.164-1.422-2.904-2.247-4.742-2.247C26.907,242.452,25.166,243.277,24.003,244.699z"/>
	</g>
</g>
<path class="st4" d="M146.628,164.001l17.373-17.373c5.343-5.341,14.036-5.341,19.377-0.001l17.993,17.994  c7.132-4.071,14.72-7.214,22.643-9.38v-25.444c0-7.556,6.147-13.702,13.702-13.702h24.568c7.555,0,13.702,6.146,13.702,13.702  v25.444c7.922,2.166,15.51,5.309,22.643,9.38l17.993-17.993c5.343-5.342,14.035-5.341,19.377-0.001l17.374,17.374  c5.342,5.342,5.342,14.035,0,19.377l-17.993,17.993c4.071,7.132,7.214,14.72,9.379,22.643h34.147c2.761,0,5,2.238,5,5s-2.239,5-5,5  h-38.044c-2.33,0-4.351-1.608-4.873-3.879c-2.196-9.544-5.944-18.591-11.139-26.89c-1.236-1.975-0.945-4.541,0.702-6.188  l20.749-20.749c1.443-1.443,1.443-3.793,0-5.236l-17.373-17.373c-1.442-1.441-3.791-1.441-5.235,0.001l-20.748,20.748  c-1.648,1.648-4.214,1.938-6.189,0.703c-8.299-5.196-17.346-8.943-26.89-11.139c-2.27-0.522-3.879-2.544-3.879-4.873v-29.342  c0-2.041-1.661-3.702-3.702-3.702h-24.568c-2.042,0-3.702,1.661-3.702,3.702v29.342c0,2.329-1.609,4.351-3.879,4.873  c-9.544,2.195-18.591,5.942-26.89,11.139c-1.975,1.235-4.541,0.945-6.189-0.703l-20.749-20.749  c-1.442-1.441-3.791-1.441-5.235,0.001l-17.373,17.372c-1.443,1.443-1.443,3.793,0,5.236l20.749,20.749  c1.647,1.647,1.938,4.214,0.702,6.188c-5.195,8.299-8.943,17.346-11.139,26.89c-0.522,2.271-2.543,3.879-4.873,3.879h-38.044  c-2.761,0-5-2.238-5-5s2.239-5,5-5h34.147c2.166-7.923,5.309-15.511,9.379-22.643l-17.993-17.993  C141.286,178.036,141.286,169.343,146.628,164.001z M353.372,316.622l-17.993-17.993c4.071-7.133,7.213-14.719,9.379-22.643h34.147  c2.761,0,5-2.238,5-5s-2.239-5-5-5h-38.044c-2.33,0-4.35,1.608-4.873,3.879c-2.196,9.545-5.944,18.592-11.139,26.89  c-1.236,1.975-0.945,4.541,0.702,6.188l20.749,20.749c1.443,1.443,1.443,3.793,0,5.235l-17.373,17.373  c-1.399,1.398-3.837,1.397-5.235,0l-20.749-20.748c-1.646-1.646-4.213-1.938-6.189-0.703c-8.299,5.196-17.346,8.943-26.89,11.139  c-2.27,0.522-3.879,2.544-3.879,4.873v29.342c0,2.041-1.661,3.702-3.702,3.702h-24.568c-2.042,0-3.702-1.661-3.702-3.702v-29.342  c0-2.329-1.609-4.351-3.879-4.873c-9.544-2.195-18.591-5.942-26.89-11.139c-1.974-1.234-4.542-0.944-6.189,0.703l-20.749,20.748  c-1.398,1.398-3.836,1.398-5.235,0l-17.373-17.372c-1.443-1.443-1.443-3.793,0-5.236l20.749-20.749  c1.647-1.647,1.938-4.214,0.702-6.188c-5.195-8.298-8.943-17.345-11.139-26.89c-0.522-2.271-2.543-3.879-4.873-3.879h-38.044  c-2.761,0-5,2.238-5,5s2.239,5,5,5h34.147c2.166,7.924,5.309,15.51,9.379,22.643l-17.993,17.993c-5.342,5.342-5.342,14.035,0,19.377  l17.373,17.372c2.588,2.588,6.029,4.014,9.688,4.014c3.661,0,7.102-1.426,9.689-4.014l17.993-17.992  c7.132,4.071,14.72,7.214,22.643,9.38v25.444c0,7.556,6.147,13.702,13.702,13.702h24.568c7.555,0,13.702-6.146,13.702-13.702  v-25.444c7.922-2.166,15.51-5.309,22.643-9.38l17.993,17.992c2.587,2.588,6.028,4.014,9.689,4.014c3.66,0,7.101-1.426,9.688-4.013  l17.373-17.373C358.714,330.657,358.714,321.964,353.372,316.622z M498.928,225.122c-1.831-3.865-5.777-6.362-10.054-6.362h-0.957  c-4.644-56.113-29.069-108.808-69.091-148.83C373.73,24.835,313.774,0,250,0c-2.761,0-5,2.238-5,5s2.239,5,5,5  c61.103,0,118.548,23.795,161.754,67c39.412,39.413,63.037,91.645,66.523,147.073c0.166,2.635,2.351,4.687,4.99,4.687h5.605  c0.433,0,0.832,0.253,1.018,0.646c0.185,0.391,0.128,0.859-0.146,1.194l-17.619,21.534c-0.43,0.527-1.314,0.526-1.744,0.001  L452.765,230.6c-0.274-0.335-0.332-0.804-0.146-1.195s0.585-0.645,1.018-0.645h4.575c1.388,0,2.713-0.577,3.659-1.593  s1.427-2.379,1.328-3.763c-3.833-53.737-27.732-103.715-67.295-140.727C356.146,45.483,304.329,25,250,25h-66.433  c-2.761,0-5,2.238-5,5s2.239,5,5,5H250c104.607,0,192.659,80.303,202.775,183.794c-3.938,0.31-7.484,2.724-9.192,6.327  c-1.832,3.864-1.266,8.5,1.442,11.811l17.618,21.535c2.122,2.594,5.261,4.081,8.612,4.081c3.351,0,6.489-1.487,8.612-4.081  l17.619-21.535C500.194,233.621,500.759,228.984,498.928,225.122z M116.667,35h5.833v5.833c0,2.762,2.239,5,5,5s5-2.238,5-5V35  h5.833c2.761,0,5-2.238,5-5s-2.239-5-5-5H132.5v-5.833c0-2.762-2.239-5-5-5s-5,2.238-5,5V25h-5.833c-2.761,0-5,2.238-5,5  S113.906,35,116.667,35z M157.362,35h4.214c2.761,0,5-2.238,5-5s-2.239-5-5-5h-4.214c-2.761,0-5,2.238-5,5S154.601,35,157.362,35z   M316.433,465H250c-104.607,0-192.659-80.303-202.775-183.794c3.938-0.31,7.484-2.724,9.192-6.327  c1.832-3.864,1.266-8.5-1.442-11.811l-17.618-21.535c-2.122-2.594-5.261-4.081-8.612-4.081c-3.351,0-6.489,1.487-8.612,4.081  L2.514,263.068c-2.708,3.311-3.273,7.947-1.442,11.81c1.831,3.865,5.777,6.362,10.054,6.362h0.957  c4.644,56.113,29.069,108.808,69.091,148.83C126.27,475.165,186.226,500,250,500c2.761,0,5-2.238,5-5s-2.239-5-5-5  c-61.103,0-118.548-23.795-161.754-67c-39.412-39.413-63.037-91.645-66.523-147.073c-0.166-2.635-2.351-4.687-4.99-4.687h-5.605  c-0.433,0-0.832-0.253-1.018-0.646c-0.185-0.391-0.128-0.859,0.146-1.194l17.619-21.534c0.43-0.527,1.314-0.526,1.744-0.001  L47.235,269.4c0.274,0.335,0.332,0.804,0.146,1.195s-0.585,0.645-1.018,0.645h-4.575c-1.388,0-2.713,0.577-3.659,1.593  s-1.427,2.379-1.328,3.763c3.833,53.737,27.732,103.715,67.295,140.727C143.854,454.517,195.671,475,250,475h66.433  c2.761,0,5-2.238,5-5S319.194,465,316.433,465z M383.333,465H377.5v-5.833c0-2.762-2.239-5-5-5s-5,2.238-5,5V465h-5.833  c-2.761,0-5,2.238-5,5s2.239,5,5,5h5.833v5.833c0,2.762,2.239,5,5,5s5-2.238,5-5V475h5.833c2.761,0,5-2.238,5-5  S386.094,465,383.333,465z M342.638,465h-4.214c-2.761,0-5,2.238-5,5s2.239,5,5,5h4.214c2.761,0,5-2.238,5-5  S345.399,465,342.638,465z M78.651,255h3.742c2.761,0,5-2.238,5-5s-2.239-5-5-5h-3.742c-2.761,0-5,2.238-5,5S75.89,255,78.651,255z   M421.349,245h-3.742c-2.761,0-5,2.238-5,5s2.239,5,5,5h3.742c2.761,0,5-2.238,5-5S424.11,245,421.349,245z M399.761,250  c0,2.762-2.239,5-5,5h-92.105c-2.528,26.832-25.174,47.899-52.656,47.899S199.872,281.832,197.344,255h-92.105c-2.761,0-5-2.238-5-5  s2.239-5,5-5h92.105c2.528-26.832,25.174-47.899,52.656-47.899s50.128,21.067,52.656,47.899h92.105  C397.522,245,399.761,247.238,399.761,250z M207.401,245h85.197c-2.486-21.307-20.636-37.899-42.599-37.899  S209.887,223.693,207.401,245z M292.599,255h-85.197c2.486,21.307,20.636,37.899,42.599,37.899S290.113,276.307,292.599,255z"/>
</svg>
