<?xml version="1.0" encoding="utf-8"?>
<!-- Generator: Adobe Illustrator 22.0.0, SVG Export Plug-In . SVG Version: 6.00 Build 0)  -->
<svg xmlns="http://www.w3.org/2000/svg" xmlns:xlink="http://www.w3.org/1999/xlink" version="1.1" id="Layer_1" x="0px" y="0px" viewBox="0 0 500 500" style="enable-background:new 0 0 500 500;" xml:space="preserve" width="512" height="512">
<style type="text/css">
	.st0{fill:#ECF4F7;}
	.st1{fill:#83E1E5;}
	.st2{fill:#AAB1BA;}
	.st3{fill:#FDDF7F;}
	.st4{fill:#1C1D21;}
</style>
<g>
	<g>
		<path class="st0" d="M297.1,108.2H92.3v312.8h57.2c0,40.8,33.1,73.9,73.9,73.9V347.1c40.8,0,73.9,33.1,73.9,73.9h57.2V165.6    L297.1,108.2z"/>
	</g>
</g>
<g>
	<g>
		<rect x="157.4" y="230" class="st1" width="28.5" height="42.5"/>
	</g>
</g>
<g>
	<g>
		<rect x="209.2" y="210.6" class="st1" width="28.5" height="61.9"/>
	</g>
</g>
<g>
	<g>
		<rect x="260.9" y="195.4" class="st1" width="28.5" height="77.1"/>
	</g>
</g>
<g>
	<g>
		<path class="st2" d="M275.7,368.8c-13.4-13.4-31.9-21.7-52.3-21.7v73.9L275.7,368.8z"/>
	</g>
</g>
<g>
	<polygon class="st2" points="350.3,55 145.5,55 145.5,108.2 297.1,108.2 297.1,165.6 354.5,165.6 354.5,391.8 407.7,391.8    407.7,112.4  "/>
</g>
<g>
	<g>
		<path class="st1" d="M297.3,421.1h-73.9V495C264.2,495,297.3,461.9,297.3,421.1z"/>
	</g>
</g>
<g>
	<g>
		<path class="st3" d="M275.7,368.8l-52.3,52.3h73.9C297.3,400.6,289.1,382.2,275.7,368.8z"/>
	</g>
</g>
<path class="st4" d="M359.4,164.6C359.4,164.6,359.4,164.6,359.4,164.6c-0.1-0.3-0.1-0.6-0.3-0.8c0-0.1-0.1-0.2-0.1-0.2  c-0.1-0.2-0.2-0.4-0.3-0.6c0-0.1-0.1-0.1-0.1-0.2c-0.2-0.2-0.4-0.5-0.6-0.7l-57.4-57.4c0,0,0,0,0,0c-0.2-0.2-0.4-0.4-0.7-0.6  c-0.1-0.1-0.1-0.1-0.2-0.1c-0.2-0.1-0.4-0.2-0.6-0.3c-0.1,0-0.2-0.1-0.2-0.1c-0.6-0.2-1.1-0.3-1.7-0.3c0,0-0.1,0-0.1,0H97.3V70.1  c0-2.8-2.2-5-5-5s-5,2.2-5,5v38.1c0,0,0,0,0,0v312.8c0,2.8,2.2,5,5,5h39.6c2.8,0,5-2.2,5-5s-2.2-5-5-5H97.3V113.2h194.8v52.4  c0,2.8,2.2,5,5,5h52.4v245.4h-33.7c-2.8,0-5,2.2-5,5s2.2,5,5,5h38.7c2.8,0,5-2.2,5-5V165.6c0,0,0-0.1,0-0.1  C359.5,165.2,359.5,164.9,359.4,164.6z M302.1,160.6v-40.3l40.3,40.3H302.1z M87.3,20.8h-5.8c-2.8,0-5-2.2-5-5s2.2-5,5-5h5.8V5  c0-2.8,2.2-5,5-5s5,2.2,5,5v5.8h5.8c2.8,0,5,2.2,5,5s-2.2,5-5,5h-5.8v5.8c0,2.8-2.2,5-5,5s-5-2.2-5-5V20.8z M97.3,44.8v4.7  c0,2.8-2.2,5-5,5s-5-2.2-5-5v-4.7c0-2.8,2.2-5,5-5S97.3,42,97.3,44.8z M423.5,484.2c0,2.8-2.2,5-5,5h-5.8v5.8c0,2.8-2.2,5-5,5  s-5-2.2-5-5v-5.8h-5.8c-2.8,0-5-2.2-5-5s2.2-5,5-5h5.8v-5.8c0-2.8,2.2-5,5-5s5,2.2,5,5v5.8h5.8C421.3,479.2,423.5,481.4,423.5,484.2  z M412.7,450.5v4.7c0,2.8-2.2,5-5,5s-5-2.2-5-5v-4.7c0-2.8,2.2-5,5-5S412.7,447.8,412.7,450.5z M402.7,396.8H375c-2.8,0-5-2.2-5-5  s2.2-5,5-5h27.7V114.5L348.2,60H150.5v29.7c0,2.8-2.2,5-5,5s-5-2.2-5-5V55c0-2.8,2.2-5,5-5h204.8c1.3,0,2.6,0.5,3.5,1.5l57.4,57.4  c0.9,0.9,1.5,2.2,1.5,3.5v279.3c0,0,0,0,0,0v38.1c0,2.8-2.2,5-5,5s-5-2.2-5-5L402.7,396.8L402.7,396.8z M279.2,365.2  c-0.1-0.1-0.2-0.2-0.4-0.3c-14.3-14.1-33.9-22.8-55.4-22.8c-43.5,0-78.9,35.4-78.9,78.9s35.4,78.9,78.9,78.9s78.9-35.4,78.9-78.9  c0-21.6-8.7-41.2-22.8-55.4C279.4,365.5,279.3,365.4,279.2,365.2z M228.4,352.3c15.3,1.1,29.1,7.2,40,16.6l-40,40V352.3z M275.5,376  c9.4,10.9,15.5,24.8,16.6,40h-56.7L275.5,376z M154.5,421.1c0-36.3,28.3-66.2,63.9-68.7v63.7h-11.6c-2.8,0-5,2.2-5,5s2.2,5,5,5h11.6  v63.7C182.7,487.2,154.5,457.4,154.5,421.1z M228.4,489.8v-63.7h63.7C289.7,460.1,262.4,487.3,228.4,489.8z M194.2,421.1  c0,2.8-2.2,5-5,5H186c-2.8,0-5-2.2-5-5s2.2-5,5-5h3.1C191.9,416.1,194.2,418.3,194.2,421.1z M174.7,421.1c0,2.8-2.2,5-5,5h-3.1  c-2.8,0-5-2.2-5-5s2.2-5,5-5h3.1C172.4,416.1,174.7,418.3,174.7,421.1z M180.9,255.1V235h-18.5v20.1c0,2.8-2.2,5-5,5s-5-2.2-5-5V230  c0-2.8,2.2-5,5-5h28.5c2.8,0,5,2.2,5,5v25.1c0,2.8-2.2,5-5,5S180.9,257.9,180.9,255.1z M232.6,255.1v-39.5h-18.5v39.5  c0,2.8-2.2,5-5,5s-5-2.2-5-5v-44.5c0-2.8,2.2-5,5-5h28.5c2.8,0,5,2.2,5,5v44.5c0,2.8-2.2,5-5,5S232.6,257.9,232.6,255.1z   M284.4,255.1v-54.7h-18.5v54.7c0,2.8-2.2,5-5,5s-5-2.2-5-5v-59.7c0-2.8,2.2-5,5-5h28.5c2.8,0,5,2.2,5,5v59.7c0,2.8-2.2,5-5,5  S284.4,257.9,284.4,255.1z M140.2,267.6h166.5c2.8,0,5,2.2,5,5s-2.2,5-5,5H140.2c-2.8,0-5-2.2-5-5S137.4,267.6,140.2,267.6z   M135.2,295.1c0-2.8,2.2-5,5-5h166.5c2.8,0,5,2.2,5,5s-2.2,5-5,5H140.2C137.4,300.1,135.2,297.8,135.2,295.1z M311.6,317.6  c0,2.8-2.2,5-5,5H140.2c-2.8,0-5-2.2-5-5s2.2-5,5-5h166.5C309.4,312.6,311.6,314.8,311.6,317.6z M122.1,267.6c2.8,0,5,2.2,5,5  s-2.2,5-5,5h-2.6c-2.8,0-5-2.2-5-5s2.2-5,5-5H122.1z M324.7,277.6c-2.8,0-5-2.2-5-5s2.2-5,5-5h2.6c2.8,0,5,2.2,5,5s-2.2,5-5,5H324.7  z"/>
</svg>
