<?xml version="1.0" encoding="utf-8"?>
<!-- Generator: Adobe Illustrator 22.0.0, SVG Export Plug-In . SVG Version: 6.00 Build 0)  -->
<svg xmlns="http://www.w3.org/2000/svg" xmlns:xlink="http://www.w3.org/1999/xlink" version="1.1" id="Layer_1" x="0px" y="0px" viewBox="0 0 500 500" style="enable-background:new 0 0 500 500;" xml:space="preserve" width="512" height="512">
<style type="text/css">
	.st0{fill:#83E1E5;}
	.st1{fill:#AAB1BA;}
	.st2{fill:#ECF4F7;}
	.st3{fill:#FDDF7F;}
	.st4{fill:#1C1D21;}
	.st5{fill:#FFFFFF;}
</style>
<g>
	<g>
		<path class="st0" d="M165.344,76.977l-17.92,9.421c-4.054,2.131-8.793-1.311-8.018-5.826l3.422-19.954    c0.307-1.793-0.287-3.622-1.589-4.891l-14.497-14.132c-3.28-3.197-1.47-8.767,3.063-9.426l20.035-2.911    c1.8-0.262,3.356-1.392,4.161-3.023l8.96-18.155c2.027-4.107,7.884-4.107,9.911,0l8.96,18.155    c0.805,1.631,2.361,2.762,4.161,3.023l20.035,2.911c4.533,0.659,6.343,6.229,3.063,9.426l-14.497,14.132    c-1.302,1.27-1.897,3.099-1.589,4.891l3.422,19.954c0.774,4.514-3.964,7.957-8.018,5.826l-17.92-9.421    C168.877,76.131,166.954,76.131,165.344,76.977z"/>
	</g>
</g>
<g>
	<g>
		<path class="st0" d="M165.344,196.93l-17.92,9.421c-4.054,2.131-8.793-1.311-8.018-5.826l3.422-19.954    c0.307-1.793-0.287-3.622-1.589-4.891l-14.497-14.132c-3.28-3.197-1.47-8.767,3.063-9.426l20.035-2.911    c1.8-0.262,3.356-1.392,4.161-3.023l8.96-18.155c2.027-4.107,7.884-4.107,9.911,0l8.96,18.155    c0.805,1.631,2.361,2.762,4.161,3.023l20.035,2.911c4.533,0.659,6.343,6.229,3.063,9.426l-14.497,14.132    c-1.302,1.27-1.897,3.099-1.589,4.891l3.422,19.954c0.774,4.514-3.964,7.957-8.018,5.826l-17.92-9.421    C168.877,196.084,166.954,196.084,165.344,196.93z"/>
	</g>
</g>
<g>
	<g>
		<path class="st0" d="M165.344,316.883l-17.92,9.421c-4.054,2.131-8.793-1.311-8.018-5.826l3.422-19.954    c0.307-1.793-0.287-3.622-1.589-4.891l-14.497-14.132c-3.28-3.197-1.47-8.767,3.063-9.426l20.035-2.911    c1.8-0.262,3.356-1.392,4.161-3.023l8.96-18.155c2.027-4.107,7.884-4.107,9.911,0l8.96,18.155    c0.805,1.631,2.361,2.762,4.161,3.023l20.035,2.911c4.533,0.659,6.343,6.229,3.063,9.426l-14.497,14.132    c-1.302,1.27-1.897,3.099-1.589,4.891l3.422,19.954c0.774,4.514-3.964,7.957-8.018,5.826l-17.92-9.421    C168.877,316.037,166.954,316.037,165.344,316.883z"/>
	</g>
</g>
<g>
	<g>
		<rect x="115.83" y="384.528" class="st1" width="68.011" height="110.472"/>
	</g>
</g>
<g>
	<g>
		<path class="st3" d="M442.6,363.986L442.6,363.986c0-10.337-8.38-18.716-18.716-18.716l-80.212,0    c-14.059,0-25.456-11.397-25.456-25.456v-53.673c0-20.157-16.341-36.498-36.498-36.498h-12.268v90.017    c0,35.825-29.042,64.868-64.867,64.868h-20.74V495h196.418h43.624c10.337,0,18.716-8.38,18.716-18.716    c0-10.337-8.38-18.716-18.716-18.716c10.337,0,18.716-8.38,18.716-18.716c0-10.337-8.38-18.716-18.716-18.716    c10.337,0,18.716-8.38,18.716-18.716v0c0-10.337-8.38-18.716-18.716-18.716C434.22,382.703,442.6,374.323,442.6,363.986z"/>
	</g>
</g>
<path class="st4" d="M353.593,202.353c0-2.761,2.239-5,5-5h5.833v-5.833c0-2.761,2.239-5,5-5s5,2.239,5,5v5.833h5.833  c2.761,0,5,2.239,5,5s-2.239,5-5,5h-5.833v5.833c0,2.761-2.239,5-5,5s-5-2.239-5-5v-5.833h-5.833  C355.832,207.353,353.593,205.114,353.593,202.353z M358.593,265.833h5.833v5.833c0,2.761,2.239,5,5,5s5-2.239,5-5v-5.833h5.833  c2.761,0,5-2.239,5-5s-2.239-5-5-5h-5.833V250c0-2.761-2.239-5-5-5s-5,2.239-5,5v5.833h-5.833c-2.761,0-5,2.239-5,5  S355.832,265.833,358.593,265.833z M123.251,45.176c-2.89-2.817-3.911-6.952-2.663-10.791c1.247-3.838,4.503-6.583,8.497-7.164  l20.035-2.911c0.171-0.025,0.32-0.133,0.396-0.288l8.959-18.154C160.262,2.249,163.879,0,167.915,0s7.653,2.248,9.439,5.868  l8.96,18.155c0.077,0.155,0.225,0.263,0.396,0.288l20.034,2.911c3.994,0.581,7.25,3.326,8.498,7.164  c1.247,3.838,0.227,7.973-2.664,10.791l-14.498,14.132c-0.124,0.121-0.181,0.295-0.151,0.467l3.422,19.953  c0.682,3.978-0.922,7.923-4.188,10.295c-1.845,1.341-4.004,2.022-6.177,2.022c-1.673,0-3.354-0.403-4.908-1.22l-17.92-9.421  c-0.154-0.082-0.337-0.081-0.49,0l-17.919,9.421c-3.572,1.877-7.82,1.571-11.085-0.802c-3.265-2.372-4.87-6.317-4.188-10.295  l3.422-19.954c0.029-0.171-0.027-0.345-0.151-0.466L123.251,45.176z M130.231,38.016l14.498,14.131  c2.481,2.419,3.613,5.903,3.027,9.318l-3.422,19.954c-0.018,0.105-0.056,0.322,0.209,0.515c0.266,0.192,0.46,0.089,0.554,0.04  l17.92-9.421c0,0,0,0,0,0c1.533-0.806,3.215-1.209,4.898-1.209c1.682,0,3.364,0.403,4.897,1.209l17.92,9.421  c0.094,0.049,0.29,0.151,0.554-0.04c0.265-0.192,0.227-0.41,0.209-0.515l-3.422-19.954c-0.585-3.416,0.546-6.898,3.027-9.317  l14.498-14.132c0.076-0.074,0.234-0.229,0.133-0.54s-0.319-0.343-0.425-0.358l-20.035-2.911c-3.43-0.499-6.393-2.652-7.926-5.759  l-8.96-18.154C168.34,10.198,168.243,10,167.916,10s-0.425,0.198-0.472,0.293l-8.96,18.155c-1.534,3.107-4.497,5.259-7.925,5.758  l-20.036,2.912c-0.105,0.015-0.324,0.047-0.425,0.358C129.997,37.787,130.155,37.941,130.231,38.016z M123.251,165.129  c-2.89-2.817-3.911-6.952-2.663-10.791c1.247-3.838,4.503-6.583,8.497-7.164l20.035-2.911c0.171-0.025,0.32-0.133,0.396-0.288  l8.959-18.154c1.786-3.619,5.403-5.868,9.439-5.868s7.653,2.248,9.439,5.868l8.96,18.155c0.077,0.155,0.225,0.263,0.396,0.288  l20.034,2.911c3.994,0.581,7.25,3.326,8.498,7.164c1.247,3.838,0.227,7.973-2.664,10.791l-14.498,14.132  c-0.124,0.121-0.181,0.295-0.151,0.467l3.422,19.953c0.682,3.978-0.922,7.923-4.188,10.295c-1.845,1.341-4.004,2.022-6.177,2.022  c-1.673,0-3.354-0.403-4.908-1.22l-17.92-9.421c-0.154-0.082-0.337-0.081-0.49,0l-17.919,9.421  c-3.572,1.877-7.82,1.571-11.085-0.802c-3.265-2.372-4.87-6.317-4.188-10.295l3.422-19.954c0.029-0.171-0.027-0.345-0.151-0.466  L123.251,165.129z M130.231,157.969l14.498,14.131c2.481,2.419,3.613,5.902,3.027,9.318l-3.422,19.954  c-0.018,0.105-0.056,0.322,0.209,0.515c0.266,0.192,0.46,0.09,0.554,0.04l17.92-9.421c0,0,0,0,0,0  c1.533-0.806,3.215-1.209,4.898-1.209c1.682,0,3.364,0.403,4.897,1.209l17.92,9.421c0.094,0.05,0.29,0.151,0.554-0.04  c0.265-0.192,0.227-0.41,0.209-0.515l-3.422-19.954c-0.585-3.416,0.547-6.899,3.027-9.317l14.498-14.132  c0.076-0.074,0.234-0.229,0.133-0.54s-0.319-0.343-0.425-0.358l-20.035-2.911c-3.43-0.499-6.393-2.652-7.926-5.759l-8.96-18.154  c-0.047-0.095-0.145-0.293-0.472-0.293s-0.425,0.198-0.472,0.293l-8.96,18.155c-1.534,3.107-4.497,5.259-7.925,5.758l-20.036,2.912  c-0.105,0.015-0.324,0.047-0.425,0.358C129.997,157.74,130.155,157.895,130.231,157.969z M123.251,285.083  c-2.89-2.817-3.911-6.952-2.663-10.791c1.247-3.838,4.503-6.583,8.497-7.164l20.035-2.911c0.171-0.025,0.32-0.133,0.396-0.288  l8.959-18.154c1.786-3.619,5.403-5.868,9.439-5.868s7.653,2.248,9.439,5.868l8.96,18.155c0.077,0.155,0.225,0.263,0.396,0.288  l20.034,2.911c3.994,0.581,7.25,3.326,8.498,7.164c1.247,3.838,0.227,7.973-2.664,10.791l-14.498,14.132  c-0.124,0.121-0.181,0.295-0.151,0.467l3.422,19.953c0.682,3.978-0.922,7.923-4.188,10.295c-3.266,2.372-7.514,2.679-11.085,0.8  l-17.919-9.42c-0.154-0.082-0.337-0.082-0.49,0l-17.919,9.421c-1.554,0.817-3.235,1.221-4.908,1.221  c-2.173,0-4.332-0.681-6.177-2.021c-3.266-2.373-4.87-6.317-4.188-10.295l3.422-19.954c0.029-0.171-0.027-0.345-0.151-0.466  L123.251,285.083z M130.231,277.922l14.498,14.131c2.481,2.419,3.613,5.902,3.027,9.318l-3.422,19.954  c-0.018,0.105-0.056,0.322,0.209,0.515s0.459,0.089,0.554,0.04l17.92-9.421c0,0,0,0,0,0c3.066-1.612,6.729-1.612,9.795,0  l17.92,9.421c0.094,0.05,0.29,0.153,0.554-0.04s0.227-0.41,0.209-0.515l-3.422-19.954c-0.585-3.416,0.547-6.899,3.027-9.317  l14.498-14.132c0.076-0.074,0.234-0.229,0.133-0.54s-0.319-0.343-0.425-0.358l-20.035-2.911c-3.43-0.499-6.393-2.652-7.926-5.759  l-8.96-18.154c-0.047-0.095-0.145-0.293-0.472-0.293s-0.425,0.198-0.472,0.293l-8.96,18.155c-1.534,3.107-4.497,5.259-7.925,5.758  l-20.036,2.912c-0.105,0.015-0.324,0.047-0.425,0.358C129.997,277.693,130.155,277.848,130.231,277.922z M438.423,420.135  c5.578,4.343,9.176,11.115,9.176,18.716s-3.598,14.373-9.177,18.716c5.578,4.343,9.177,11.115,9.177,18.716  c0,9.619-5.76,17.913-14.009,21.63c-0.908,1.259-2.378,2.086-4.049,2.086h-5.659h-43.625H81.784c-2.761,0-5-2.239-5-5s2.239-5,5-5  h70.558V389.528H115.83c-2.761,0-5-2.239-5-5s2.239-5,5-5h88.751c33.011,0,59.867-26.856,59.867-59.868v-90.017c0-2.761,2.239-5,5-5  h12.269c22.882,0,41.498,18.616,41.498,41.498v51.68v1.993c0,11.28,9.177,20.457,20.456,20.457h35.524  c0.073,0,0.141,0.018,0.214,0.021c0.282-0.01,0.565-0.021,0.849-0.021h43.625c13.077,0,23.716,10.639,23.716,23.716  c0,7.601-3.598,14.373-9.177,18.716c5.578,4.343,9.177,11.115,9.177,18.716S444.001,415.792,438.423,420.135z M423.883,350.27  h-43.625c-7.563,0-13.716,6.153-13.716,13.716s6.153,13.716,13.716,13.716h43.625c7.563,0,13.716-6.153,13.716-13.716  S431.446,350.27,423.883,350.27z M204.582,389.528h-15.74V490H360.93c-2.758-3.875-4.387-8.608-4.387-13.716  c0-7.601,3.598-14.373,9.176-18.716c-5.578-4.343-9.176-11.115-9.176-18.716s3.598-14.373,9.176-18.716  c-5.578-4.343-9.176-11.115-9.176-18.716s3.598-14.373,9.176-18.716c-5.578-4.343-9.176-11.115-9.176-18.716  c0-5.108,1.629-9.841,4.387-13.716h-17.259c-7.867,0-15.046-2.998-20.456-7.912v6.494c0,24.341-9.479,47.226-26.691,64.438  c-0.977,0.976-2.256,1.464-3.536,1.464s-2.559-0.488-3.536-1.464c-1.953-1.953-1.953-5.119,0-7.071  c15.323-15.323,23.762-35.696,23.762-57.366v-29.039v-1.993v-51.68c0-17.368-14.13-31.498-31.498-31.498h-7.269v85.017  C274.449,358.186,243.106,389.528,204.582,389.528z M162.341,490h16.5V389.528h-16.5V490z M423.883,462.567h-43.625  c-7.563,0-13.716,6.153-13.716,13.716S372.696,490,380.259,490h43.625c7.563,0,13.716-6.153,13.716-13.716  S431.446,462.567,423.883,462.567z M423.883,425.135h-43.625c-7.563,0-13.716,6.153-13.716,13.716s6.153,13.716,13.716,13.716  h43.625c7.563,0,13.716-6.153,13.716-13.716S431.446,425.135,423.883,425.135z M423.883,415.135c7.563,0,13.716-6.153,13.716-13.716  s-6.153-13.716-13.716-13.716h-43.625c-7.563,0-13.716,6.153-13.716,13.716s6.153,13.716,13.716,13.716H423.883z M62.045,490H57.4  c-2.761,0-5,2.239-5,5s2.239,5,5,5h4.645c2.761,0,5-2.239,5-5S64.806,490,62.045,490z"/>
</svg>
