<?xml version="1.0" encoding="utf-8"?>
<!-- Generator: Adobe Illustrator 22.0.0, SVG Export Plug-In . SVG Version: 6.00 Build 0)  -->
<svg xmlns="http://www.w3.org/2000/svg" xmlns:xlink="http://www.w3.org/1999/xlink" version="1.1" id="Layer_1" x="0px" y="0px" viewBox="0 0 500 500" style="enable-background:new 0 0 500 500;" xml:space="preserve" width="512" height="512">
<style type="text/css">
	.st0{fill:#83E1E5;}
	.st1{fill:#AAB1BA;}
	.st2{fill:#ECF4F7;}
	.st3{fill:#FDDF7F;}
	.st4{fill:#1C1D21;}
	.st5{fill:#FFFFFF;}
</style>
<g>
	<g>
		<path class="st3" d="M255.865,75.488H250h-5.865c-2.084,0-3.78-1.696-3.78-3.784V57.842c0-2.088,1.696-3.784,3.78-3.784h27.721    c6.742,0,12.208-5.469,12.208-12.215s-5.466-12.215-12.208-12.215h-7.647V17.215C264.21,10.469,258.74,5,251.999,5    c-6.742,0-12.207,5.469-12.207,12.215v12.751c-13.494,2.098-23.855,13.797-23.855,27.876v13.862    c0,15.558,12.651,28.213,28.199,28.213H250h5.865c2.084,0,3.78,1.696,3.78,3.78v13.866c0,2.084-1.696,3.784-3.78,3.784h-27.718    c-6.745,0-12.211,5.466-12.211,12.215c0,6.745,5.466,12.211,12.211,12.211h11.644v12.418c0,6.745,5.465,12.215,12.207,12.215    c6.742,0,12.211-5.469,12.211-12.215v-13.676c11.489-3.57,19.854-14.299,19.854-26.951v-13.866    C284.064,88.142,271.413,75.488,255.865,75.488z"/>
	</g>
</g>
<g>
	<g>
		<path class="st2" d="M380.785,133.574h-101.74c-3.554,5.133-8.747,9.047-14.835,10.939v13.676c0,6.745-5.469,12.215-12.211,12.215    c-6.742,0-12.207-5.469-12.207-12.215v-12.417h-11.644c-6.741,0-12.203-5.459-12.21-12.198h-96.722    c-8.144,0-14.746,6.602-14.746,14.746v149.363c0,8.144,6.602,14.746,14.746,14.746h220.382c6.067,0,11.777,2.866,15.403,7.729    l40.531,54.366v-76.842v-12.848V148.32C395.531,140.176,388.929,133.574,380.785,133.574z"/>
	</g>
</g>
<g>
	<g>
		<path class="st0" d="M339.597,312.429H119.215c-8.144,0-14.746-6.602-14.746-14.746V405.31v12.848V495L145,440.634    c3.626-4.864,9.336-7.729,15.403-7.729h220.382c8.144,0,14.746-6.602,14.746-14.746v-43.634L355,320.158    C351.374,315.294,345.664,312.429,339.597,312.429z"/>
	</g>
</g>
<path class="st4" d="M319.568,68.512c0-2.761,2.239-5,5-5h5.833v-5.833c0-2.761,2.239-5,5-5s5,2.239,5,5v5.833h5.833  c2.761,0,5,2.239,5,5s-2.239,5-5,5h-5.833v5.833c0,2.761-2.239,5-5,5s-5-2.239-5-5v-5.833h-5.833  C321.807,73.512,319.568,71.274,319.568,68.512z M153.767,73.512h5.833v5.833c0,2.761,2.239,5,5,5s5-2.239,5-5v-5.833h5.833  c2.761,0,5-2.239,5-5s-2.239-5-5-5h-5.833v-5.833c0-2.761-2.239-5-5-5s-5,2.239-5,5v5.833h-5.833c-2.761,0-5,2.239-5,5  S151.005,73.512,153.767,73.512z M104.469,171.144c2.761,0,5-2.239,5-5V148.32c0-5.374,4.372-9.746,9.746-9.746h76.708  c2.761,0,5-2.239,5-5s-2.239-5-5-5h-76.708c-10.888,0-19.746,8.858-19.746,19.746v17.824  C99.469,168.905,101.708,171.144,104.469,171.144z M104.469,198.842c2.761,0,5-2.239,5-5v-6.662c0-2.761-2.239-5-5-5s-5,2.239-5,5  v6.662C99.469,196.603,101.708,198.842,104.469,198.842z M380.785,128.574h-78.762c-2.761,0-5,2.239-5,5s2.239,5,5,5h78.762  c5.374,0,9.746,4.372,9.746,9.746v211.133l-31.522-42.283c-4.547-6.099-11.804-9.741-19.412-9.741H119.215  c-5.374,0-9.746-4.372-9.746-9.746v-86.309c0-2.761-2.239-5-5-5s-5,2.239-5,5v86.309c0,10.888,8.858,19.746,19.746,19.746h220.382  c4.466,0,8.726,2.137,11.395,5.718l40.531,54.366c0.962,1.29,2.46,2.012,4.01,2.012c0.525,0,1.056-0.083,1.573-0.255  c2.045-0.678,3.426-2.591,3.426-4.746V148.32C400.531,137.432,391.673,128.574,380.785,128.574z M395.531,391.341  c-2.761,0-5,2.239-5,5v21.817c0,5.374-4.372,9.746-9.746,9.746H160.403c-7.608,0-14.865,3.641-19.412,9.741l-31.522,42.283V328.959  c0-2.761-2.239-5-5-5s-5,2.239-5,5V495c0,2.155,1.38,4.067,3.426,4.746c0.518,0.172,1.048,0.255,1.573,0.255  c1.549,0,3.048-0.722,4.01-2.012l40.531-54.366c2.669-3.58,6.929-5.718,11.395-5.718h220.382c10.888,0,19.746-8.858,19.746-19.746  v-21.817C400.531,393.58,398.292,391.341,395.531,391.341z M317.031,242.281c-9.9,0-17.954-8.054-17.954-17.954  s8.054-17.954,17.954-17.954s17.954,8.054,17.954,17.954S326.931,242.281,317.031,242.281z M317.031,232.281  c4.386,0,7.954-3.568,7.954-7.954s-3.568-7.954-7.954-7.954s-7.954,3.568-7.954,7.954S312.645,232.281,317.031,232.281z   M267.954,224.327c0,9.9-8.054,17.954-17.954,17.954s-17.954-8.054-17.954-17.954S240.1,206.374,250,206.374  S267.954,214.428,267.954,224.327z M257.954,224.327c0-4.386-3.568-7.954-7.954-7.954s-7.954,3.568-7.954,7.954  s3.568,7.954,7.954,7.954S257.954,228.713,257.954,224.327z M200.923,224.327c0,9.9-8.054,17.954-17.954,17.954  s-17.954-8.054-17.954-17.954s8.054-17.954,17.954-17.954S200.923,214.428,200.923,224.327z M190.923,224.327  c0-4.386-3.568-7.954-7.954-7.954s-7.954,3.568-7.954,7.954s3.568,7.954,7.954,7.954S190.923,228.713,190.923,224.327z   M317.031,379.525c-9.9,0-17.954-8.054-17.954-17.954c0-9.9,8.054-17.954,17.954-17.954s17.954,8.054,17.954,17.954  C334.984,371.471,326.931,379.525,317.031,379.525z M317.031,369.525c4.386,0,7.954-3.568,7.954-7.954s-3.568-7.954-7.954-7.954  s-7.954,3.568-7.954,7.954S312.645,369.525,317.031,369.525z M250,379.525c-9.9,0-17.954-8.054-17.954-17.954  c0-9.9,8.054-17.954,17.954-17.954s17.954,8.054,17.954,17.954C267.954,371.471,259.9,379.525,250,379.525z M250,369.525  c4.386,0,7.954-3.568,7.954-7.954s-3.568-7.954-7.954-7.954s-7.954,3.568-7.954,7.954S245.614,369.525,250,369.525z   M182.969,379.525c-9.9,0-17.954-8.054-17.954-17.954c0-9.9,8.054-17.954,17.954-17.954s17.954,8.054,17.954,17.954  C200.923,371.471,192.869,379.525,182.969,379.525z M182.969,369.525c4.386,0,7.954-3.568,7.954-7.954s-3.568-7.954-7.954-7.954  s-7.954,3.568-7.954,7.954S178.583,369.525,182.969,369.525z M254.645,116.346v-11.43h-10.51c-18.306,0-33.199-14.899-33.199-33.213  V57.842c0-14.756,9.994-27.764,23.855-31.866v-8.761C234.791,7.722,242.51,0,251.999,0c9.49,0,17.211,7.722,17.211,17.215v7.414  h2.647c9.488,0,17.208,7.722,17.208,17.215s-7.719,17.215-17.208,17.215h-26.501v11.43h10.51c18.306,0,33.199,14.898,33.199,33.209  v13.866c0,13.368-7.84,25.165-19.854,30.416v10.211c0,9.492-7.721,17.215-17.211,17.215c-9.488,0-17.208-7.722-17.208-17.215v-7.417  h-6.644c-9.49,0-17.211-7.721-17.211-17.211c0-9.492,7.721-17.215,17.211-17.215H254.645z M264.645,103.697v13.866  c0,4.843-3.939,8.784-8.78,8.784h-27.717c-3.977,0-7.211,3.236-7.211,7.215c0,3.976,3.235,7.211,7.211,7.211h11.644  c2.761,0,5,2.239,5,5v12.417c0,3.978,3.233,7.215,7.208,7.215c3.976,0,7.211-3.236,7.211-7.215v-13.677  c0-2.19,1.425-4.125,3.516-4.775c9.772-3.037,16.338-11.949,16.338-22.176v-13.866c0-12.798-10.407-23.209-23.199-23.209h-11.729  c-4.841,0-8.78-3.94-8.78-8.784V57.842c0-4.843,3.939-8.784,8.78-8.784h27.721c3.974,0,7.208-3.236,7.208-7.215  c0-3.978-3.233-7.215-7.208-7.215h-7.647c-2.761,0-5-2.239-5-5V17.215c0-3.978-3.235-7.215-7.211-7.215  c-3.974,0-7.208,3.236-7.208,7.215v12.751c0,2.465-1.796,4.562-4.232,4.941c-11.187,1.739-19.623,11.599-19.623,22.935v13.862  c0,12.8,10.407,23.213,23.199,23.213h11.729C260.706,94.917,264.645,98.855,264.645,103.697z"/>
</svg>
