<?xml version="1.0" encoding="utf-8"?>
<!-- Generator: Adobe Illustrator 22.0.0, SVG Export Plug-In . SVG Version: 6.00 Build 0)  -->
<svg xmlns="http://www.w3.org/2000/svg" xmlns:xlink="http://www.w3.org/1999/xlink" version="1.1" id="Layer_1" x="0px" y="0px" viewBox="0 0 500 500" style="enable-background:new 0 0 500 500;" xml:space="preserve" width="512" height="512">
<style type="text/css">
	.st0{fill:#83E1E5;}
	.st1{fill:#AAB1BA;}
	.st2{fill:#ECF4F7;}
	.st3{fill:#FDDF7F;}
	.st4{fill:#1C1D21;}
	.st5{fill:#FFFFFF;}
</style>
<g>
	<g>
		<path class="st1" d="M465.582,495H34.418c-10.654,0-19.291-8.637-19.291-19.291V161.547c0-10.654,8.637-19.291,19.291-19.291    h431.164c10.654,0,19.291,8.637,19.291,19.291v314.161C484.873,486.363,476.236,495,465.582,495z"/>
	</g>
</g>
<g>
	<g>
		<path class="st2" d="M281.93,440.705h-62.152c-3.46,0-6.265,2.805-6.265,6.265V495h74.683v-48.03    C288.196,443.51,285.39,440.705,281.93,440.705z"/>
	</g>
</g>
<g>
	<g>
		<path class="st3" d="M277.524,425.314c0-12.827,7.418-24.609,19.139-29.82c41.646-18.514,70.252-61.045,68.217-110.012    c-2.519-60.629-52.562-109.222-113.238-110.069c-64.255-0.897-116.624,50.921-116.624,114.971    c0,47.337,28.607,87.991,69.475,105.622c12.026,5.188,19.823,17.019,19.823,30.116v14.582h53.208V425.314z"/>
	</g>
</g>
<g>
	<g>
		<path class="st0" d="M330.254,297.351v-15.296c0-2.992-2.426-5.418-5.418-5.418h-18.268c-1.464-6.362-3.967-12.322-7.33-17.695    l12.918-12.918c2.116-2.116,2.116-5.546,0-7.662l-10.816-10.816c-2.116-2.116-5.546-2.116-7.662,0l-12.918,12.918    c-5.372-3.363-11.333-5.866-17.695-7.33v-18.268c0-2.992-2.426-5.418-5.418-5.418h-15.296c-2.992,0-5.418,2.426-5.418,5.418    v18.268c-6.362,1.464-12.322,3.967-17.695,7.33l-12.918-12.918c-2.116-2.116-5.546-2.116-7.662,0l-10.816,10.816    c-2.116,2.116-2.116,5.546,0,7.662l12.918,12.918c-3.363,5.372-5.866,11.333-7.33,17.695h-18.268    c-2.992,0-5.418,2.426-5.418,5.418v15.296c0,2.992,2.426,5.418,5.418,5.418h18.268c1.464,6.362,3.967,12.323,7.33,17.695    l-12.918,12.918c-2.116,2.116-2.116,5.546,0,7.662l10.816,10.816c2.116,2.116,5.546,2.116,7.662,0l12.918-12.918    c5.372,3.363,11.333,5.866,17.695,7.33v18.268c0,2.992,2.426,5.418,5.418,5.418h15.296c2.992,0,5.418-2.426,5.418-5.418v-18.268    c6.362-1.464,12.323-3.967,17.695-7.33l12.918,12.918c2.116,2.116,5.546,2.116,7.662,0l10.816-10.816    c2.116-2.116,2.116-5.546,0-7.662l-12.918-12.918c3.363-5.372,5.866-11.333,7.33-17.695h18.268    C327.828,302.769,330.254,300.343,330.254,297.351z"/>
	</g>
</g>
<g>
	<g>
		<circle class="st2" cx="250" cy="289.703" r="29.821"/>
	</g>
</g>
<g>
	<g>
		<path class="st3" d="M182.064,90.473c0-3.952,3.215-7.166,7.166-7.166h121.54c3.952,0,7.167,3.215,7.167,7.166v51.783h29.591    V90.473c0-20.268-16.489-36.757-36.757-36.757H189.23c-20.268,0-36.757,16.489-36.757,36.757v51.783h29.591V90.473z"/>
	</g>
</g>
<path class="st4" d="M333.555,204.443c-22.144-21.517-51.209-33.603-81.843-34.03c-32.379-0.434-62.912,11.813-85.955,34.537  c-23.047,22.728-35.739,53.068-35.739,85.434c0,47.953,28.456,91.215,72.494,110.213c10.208,4.404,16.804,14.424,16.804,25.526  v9.605c-5.997,0.245-10.804,5.186-10.804,11.241v11.883h-8.198c-2.761,0-5,2.238-5,5s2.239,5,5,5h8.199v7.358c0,2.762,2.239,5,5,5  s5-2.238,5-5v-7.358h64.683v7.358c0,2.762,2.238,5,5,5s5-2.238,5-5v-7.358h6.491c2.762,0,5-2.238,5-5s-2.238-5-5-5h-6.491V446.97  c0-6.011-4.737-10.923-10.671-11.234v-10.422c0-10.972,6.347-20.884,16.17-25.25c21.704-9.648,39.92-25.374,52.679-45.476  c13.13-20.685,19.527-44.653,18.503-69.313C368.604,254.675,355.705,225.968,333.555,204.443z M283.195,446.97v11.883h-64.683  V446.97c0-0.697,0.568-1.265,1.266-1.265h4.538h53.208h4.406C282.628,445.705,283.195,446.272,283.195,446.97z M294.632,390.926  c-13.43,5.971-22.107,19.469-22.107,34.388v10.392h-43.208v-9.582c0-15.098-8.966-28.722-22.843-34.708  c-40.37-17.416-66.455-57.073-66.455-101.031c0-29.667,11.635-57.479,32.761-78.313c21.122-20.829,49.105-32.093,78.794-31.657  c58.316,0.813,105.893,47.057,108.311,105.277C361.773,331.156,336.161,372.464,294.632,390.926z M185.549,463.853  c0,2.762-2.239,5-5,5h-3.352c-2.761,0-5-2.238-5-5s2.239-5,5-5h3.352C183.31,458.853,185.549,461.091,185.549,463.853z   M327.803,463.853c0,2.762-2.238,5-5,5h-3.352c-2.762,0-5-2.238-5-5s2.238-5,5-5h3.352  C325.564,458.853,327.803,461.091,327.803,463.853z M250,254.882c-19.201,0-34.821,15.621-34.821,34.821  s15.621,34.821,34.821,34.821c19.2,0,34.821-15.621,34.821-34.821S269.2,254.882,250,254.882z M250,314.524  c-13.687,0-24.821-11.135-24.821-24.821s11.135-24.821,24.821-24.821s24.821,11.135,24.821,24.821S263.687,314.524,250,314.524z   M324.836,271.637h-14.418c-1.229-4.123-2.876-8.098-4.922-11.881l10.195-10.196c4.063-4.062,4.063-10.67,0-14.731l-10.815-10.816  c-1.967-1.968-4.584-3.052-7.367-3.052c-2.782,0-5.399,1.084-7.365,3.052l-10.196,10.195c-3.783-2.047-7.759-3.693-11.882-4.922  v-14.418c0-5.744-4.673-10.418-10.417-10.418h-15.296c-5.745,0-10.418,4.674-10.418,10.418v14.418  c-4.123,1.229-8.098,2.876-11.882,4.922l-10.194-10.195c-1.968-1.968-4.584-3.052-7.367-3.052c-2.783,0-5.399,1.084-7.367,3.052  l-10.815,10.815c-1.968,1.968-3.052,4.584-3.052,7.367c0,2.782,1.084,5.398,3.051,7.365l10.196,10.196  c-2.046,3.783-3.692,7.758-4.922,11.881h-14.418c-5.745,0-10.418,4.674-10.418,10.418v15.296c0,5.744,4.673,10.418,10.418,10.418  h14.418c1.229,4.123,2.875,8.098,4.922,11.882l-10.196,10.195c-1.967,1.968-3.051,4.584-3.051,7.366  c0,2.783,1.084,5.399,3.051,7.366l10.817,10.817c4.062,4.061,10.671,4.06,14.732-0.001l10.195-10.195  c3.784,2.046,7.758,3.692,11.881,4.922v14.418c0,5.744,4.673,10.418,10.418,10.418h15.296c5.744,0,10.417-4.674,10.417-10.418  v-14.418c4.123-1.229,8.098-2.876,11.882-4.922l10.196,10.195c4.061,4.063,10.671,4.063,14.731,0l10.816-10.816  c4.062-4.061,4.062-10.67,0-14.733l-10.195-10.194c2.046-3.784,3.692-7.759,4.922-11.882h14.418c5.744,0,10.418-4.674,10.418-10.418  v-15.296C335.254,276.311,330.58,271.637,324.836,271.637z M325.254,297.351c0,0.23-0.188,0.418-0.418,0.418h-18.268  c-2.329,0-4.351,1.608-4.873,3.879c-1.319,5.736-3.572,11.175-6.695,16.163c-1.236,1.976-0.944,4.542,0.703,6.189l12.917,12.916  c0.163,0.163,0.163,0.429,0.001,0.592l-10.816,10.816c-0.165,0.163-0.428,0.161-0.591,0l-12.918-12.918  c-1.647-1.647-4.213-1.939-6.188-0.703c-4.987,3.123-10.426,5.376-16.163,6.695c-2.271,0.522-3.879,2.544-3.879,4.873v18.268  c0,0.23-0.188,0.418-0.417,0.418h-15.296c-0.23,0-0.418-0.188-0.418-0.418v-18.268c0-2.329-1.608-4.351-3.879-4.873  c-5.737-1.319-11.175-3.572-16.163-6.695c-0.818-0.512-1.737-0.762-2.651-0.762c-1.292,0-2.572,0.5-3.537,1.465l-12.917,12.917  c-0.164,0.165-0.43,0.162-0.591,0.001l-10.816-10.817c-0.03-0.03-0.122-0.122-0.122-0.295s0.092-0.266,0.123-0.295L204.297,324  c1.647-1.647,1.938-4.215,0.702-6.189c-3.123-4.988-5.375-10.427-6.695-16.163c-0.522-2.271-2.543-3.879-4.873-3.879h-18.268  c-0.23,0-0.418-0.188-0.418-0.418v-15.296c0-0.23,0.188-0.418,0.418-0.418h18.268c2.33,0,4.351-1.608,4.873-3.879  c1.32-5.737,3.572-11.175,6.695-16.162c1.236-1.975,0.945-4.541-0.702-6.188l-12.918-12.919c-0.03-0.03-0.122-0.122-0.122-0.294  c0-0.173,0.092-0.265,0.123-0.296l10.816-10.816c0.03-0.03,0.123-0.122,0.295-0.122s0.265,0.092,0.295,0.122L215.704,244  c1.648,1.648,4.215,1.94,6.189,0.702c4.987-3.123,10.425-5.375,16.162-6.694c2.271-0.522,3.879-2.543,3.879-4.873v-18.268  c0-0.23,0.188-0.418,0.418-0.418h15.296c0.229,0,0.417,0.188,0.417,0.418v18.268c0,2.33,1.609,4.351,3.88,4.873  c5.736,1.319,11.175,3.571,16.161,6.694c1.976,1.237,4.542,0.944,6.189-0.702l12.919-12.918c0.03-0.03,0.122-0.122,0.294-0.122  c0.173,0,0.265,0.092,0.296,0.122l10.816,10.816c0.162,0.163,0.162,0.428,0,0.591l-12.918,12.918  c-1.647,1.646-1.939,4.214-0.703,6.188c3.123,4.987,5.376,10.425,6.695,16.162c0.522,2.271,2.544,3.879,4.873,3.879h18.268  c0.23,0,0.418,0.188,0.418,0.418V297.351z M234.167,15.833c0-2.762,2.239-5,5-5H245V5c0-2.762,2.239-5,5-5c2.762,0,5,2.238,5,5  v5.833h5.833c2.762,0,5,2.238,5,5s-2.238,5-5,5H255v5.833c0,2.762-2.238,5-5,5c-2.761,0-5-2.238-5-5v-5.833h-5.833  C236.406,20.833,234.167,18.595,234.167,15.833z M94.952,83.307c0-2.762,2.239-5,5-5h5.833v-5.833c0-2.762,2.239-5,5-5s5,2.238,5,5  v5.833h5.833c2.761,0,5,2.238,5,5s-2.239,5-5,5h-5.833v5.833c0,2.762-2.239,5-5,5s-5-2.238-5-5v-5.833h-5.833  C97.19,88.307,94.952,86.068,94.952,83.307z M373.383,83.307c0-2.762,2.238-5,5-5h5.833v-5.833c0-2.762,2.238-5,5-5s5,2.238,5,5  v5.833h5.832c2.762,0,5,2.238,5,5s-2.238,5-5,5h-5.832v5.833c0,2.762-2.238,5-5,5s-5-2.238-5-5v-5.833h-5.833  C375.621,88.307,373.383,86.068,373.383,83.307z M147.473,125.758V90.474c0-23.025,18.732-41.758,41.757-41.758h121.54  c23.025,0,41.758,18.732,41.758,41.758v35.284c0,2.762-2.238,5-5,5s-5-2.238-5-5V90.474c0-17.512-14.246-31.758-31.758-31.758  H189.23c-17.511,0-31.757,14.246-31.757,31.758v35.284c0,2.762-2.239,5-5,5S147.473,128.52,147.473,125.758z M312.937,125.758  V90.474c0-1.195-0.972-2.167-2.167-2.167H189.23c-1.195,0-2.167,0.972-2.167,2.167v35.284c0,2.762-2.239,5-5,5s-5-2.238-5-5V90.474  c0-6.709,5.458-12.167,12.167-12.167h121.54c6.709,0,12.167,5.458,12.167,12.167v35.284c0,2.762-2.238,5-5,5  S312.937,128.52,312.937,125.758z M465.582,137.256H34.418c-13.395,0-24.292,10.897-24.292,24.292v314.161  c0,13.395,10.897,24.291,24.292,24.291h431.164c13.395,0,24.291-10.896,24.291-24.291V161.548  C489.873,148.153,478.977,137.256,465.582,137.256z M479.873,475.709c0,7.88-6.411,14.291-14.291,14.291H34.418  c-7.88,0-14.292-6.411-14.292-14.291V161.548c0-7.881,6.411-14.292,14.292-14.292h431.164c7.88,0,14.291,6.411,14.291,14.292  V475.709z"/>
</svg>
