<?xml version="1.0" encoding="utf-8"?>
<!-- Generator: Adobe Illustrator 22.0.0, SVG Export Plug-In . SVG Version: 6.00 Build 0)  -->
<svg xmlns="http://www.w3.org/2000/svg" xmlns:xlink="http://www.w3.org/1999/xlink" version="1.1" id="Layer_1" x="0px" y="0px" viewBox="0 0 500 500" style="enable-background:new 0 0 500 500;" xml:space="preserve" width="512" height="512">
<style type="text/css">
	.st0{fill:#83E1E5;}
	.st1{fill:#AAB1BA;}
	.st2{fill:#ECF4F7;}
	.st3{fill:#FDDF7F;}
	.st4{fill:#1C1D21;}
	.st5{fill:#FFFFFF;}
</style>
<g>
	<g>
		<path class="st0" d="M465.582,495H34.418c-10.654,0-19.291-8.637-19.291-19.291V161.547c0-10.654,8.637-19.291,19.291-19.291    h431.164c10.654,0,19.291,8.637,19.291,19.291v314.161C484.873,486.363,476.236,495,465.582,495z"/>
	</g>
</g>
<g>
	<g>
		<path class="st1" d="M15.127,394.127v81.582c0,10.654,8.637,19.291,19.292,19.291h431.164c10.654,0,19.292-8.637,19.292-19.291    v-81.582H15.127z"/>
	</g>
</g>
<g>
	<g>
		<path class="st2" d="M416.85,458.193h-18.838c-6.532,0-11.828-5.295-11.828-11.828v-40.411c0-6.532,5.295-11.828,11.828-11.828    h18.838c6.532,0,11.828,5.295,11.828,11.828v40.411C428.677,452.897,423.382,458.193,416.85,458.193z"/>
	</g>
</g>
<g>
	<g>
		<path class="st2" d="M351.21,394.127H151.879c-2.57,0-4.653,2.083-4.653,4.653v54.76c0,2.57,2.083,4.653,4.653,4.653H351.21    c2.57,0,4.653-2.083,4.653-4.653l0-54.76C355.863,396.21,353.78,394.127,351.21,394.127z"/>
	</g>
</g>
<g>
	<g>
		<path class="st3" d="M182.064,90.473c0-3.952,3.215-7.166,7.166-7.166h121.54c3.952,0,7.167,3.215,7.167,7.166v51.783h29.591    V90.473c0-20.268-16.489-36.757-36.757-36.757H189.23c-20.268,0-36.757,16.489-36.757,36.757v51.783h29.591V90.473z"/>
	</g>
</g>
<g>
	<g>
		<path class="st3" d="M347.168,338.054H152.832c-4.802,0-8.695-3.893-8.695-8.695V187.758c0-4.802,3.893-8.695,8.695-8.695h194.337    c4.802,0,8.695,3.893,8.695,8.695v141.601C355.863,334.161,351.971,338.054,347.168,338.054z"/>
	</g>
</g>
<g>
	<g>
		<path class="st2" d="M144.137,313.293v16.066c0,4.802,3.893,8.695,8.695,8.695h84.5v33.989h25.336v-33.989h84.5    c4.802,0,8.695-3.893,8.695-8.695v-16.066H144.137z"/>
	</g>
</g>
<g>
	<g>
		<path class="st2" d="M355.863,203.824v-16.066c0-4.802-3.893-8.695-8.695-8.695H152.832c-4.802,0-8.695,3.893-8.695,8.695v16.066    H355.863z"/>
	</g>
</g>
<path class="st4" d="M234.167,15.833c0-2.761,2.238-5,5-5H245V5c0-2.761,2.238-5,5-5s5,2.239,5,5v5.833h5.833c2.762,0,5,2.239,5,5  s-2.238,5-5,5H255v5.833c0,2.761-2.238,5-5,5s-5-2.239-5-5v-5.833h-5.833C236.405,20.833,234.167,18.594,234.167,15.833z   M99.952,88.307h5.832v5.833c0,2.761,2.238,5,5,5s5-2.239,5-5v-5.833h5.833c2.762,0,5-2.239,5-5s-2.238-5-5-5h-5.833v-5.833  c0-2.761-2.238-5-5-5s-5,2.239-5,5v5.833h-5.832c-2.762,0-5,2.239-5,5S97.19,88.307,99.952,88.307z M378.383,88.307h5.833v5.833  c0,2.761,2.238,5,5,5s5-2.239,5-5v-5.833h5.832c2.762,0,5-2.239,5-5s-2.238-5-5-5h-5.832v-5.833c0-2.761-2.238-5-5-5s-5,2.239-5,5  v5.833h-5.833c-2.762,0-5,2.239-5,5S375.621,88.307,378.383,88.307z M152.473,130.758c2.762,0,5-2.239,5-5V90.473  c0-17.511,14.246-31.757,31.758-31.757H310.77c17.512,0,31.758,14.246,31.758,31.757v35.285c0,2.761,2.238,5,5,5s5-2.239,5-5V90.473  c0-23.025-18.732-41.757-41.758-41.757H189.23c-23.025,0-41.758,18.732-41.758,41.757v35.285  C147.473,128.52,149.711,130.758,152.473,130.758z M317.937,130.758c2.762,0,5-2.239,5-5V90.473c0-6.708-5.458-12.167-12.167-12.167  H189.23c-6.709,0-12.167,5.458-12.167,12.167v35.285c0,2.761,2.238,5,5,5s5-2.239,5-5V90.473c0-1.195,0.972-2.167,2.167-2.167  H310.77c1.195,0,2.167,0.972,2.167,2.167v35.285C312.937,128.52,315.175,130.758,317.937,130.758z M489.873,161.547v314.161  c0,13.395-10.896,24.292-24.291,24.292H34.418c-13.395,0-24.291-10.897-24.291-24.292V161.547c0-13.395,10.896-24.292,24.291-24.292  h431.164C478.977,137.256,489.873,148.153,489.873,161.547z M479.873,475.708v-76.582h-18.549c-2.762,0-5-2.239-5-5s2.238-5,5-5  h18.549v-227.58c0-7.88-6.411-14.292-14.291-14.292H34.418c-7.88,0-14.291,6.411-14.291,14.292v227.58h86.317c2.762,0,5,2.239,5,5  s-2.238,5-5,5H20.127v76.582c0,7.88,6.411,14.292,14.291,14.292h431.164C473.462,490,479.873,483.589,479.873,475.708z   M360.863,187.758v141.6c0,7.552-6.144,13.695-13.695,13.695h-79.5v23.989h32.126c2.762,0,5,2.239,5,5s-2.238,5-5,5h-37.126h-25.336  h-37.126c-2.762,0-5-2.239-5-5s2.238-5,5-5h32.126v-23.989h-79.5c-7.552,0-13.695-6.144-13.695-13.695v-141.6  c0-7.552,6.144-13.695,13.695-13.695h194.336C354.72,174.063,360.863,180.207,360.863,187.758z M257.668,367.043v-23.941h-15.336  v23.941H257.668z M149.137,308.293h201.727v-99.469H149.137V308.293z M149.137,187.758v11.065h201.727v-11.065  c0-2.038-1.657-3.695-3.695-3.695H152.832C150.794,184.063,149.137,185.721,149.137,187.758z M350.863,329.358v-11.065H149.137  v11.065c0,2.038,1.657,3.695,3.695,3.695h194.336C349.206,333.054,350.863,331.396,350.863,329.358z M360.863,398.78v37.427v0  v17.333c0,5.323-4.33,9.653-9.653,9.653H151.879H85.292c-2.762,0-5-2.239-5-5s2.238-5,5-5h56.935v-16.986v0V398.78  c0-5.323,4.33-9.653,9.652-9.653H351.21C356.533,389.126,360.863,393.457,360.863,398.78z M152.227,435.86h198.637v-36.733H152.227  V435.86z M350.863,445.86H152.227v7.333h198.637V445.86z M173.01,405.471h-2.866c-2.762,0-5,2.239-5,5s2.238,5,5,5h2.866  c2.762,0,5-2.239,5-5S175.771,405.471,173.01,405.471z M199.666,405.471H196.8c-2.762,0-5,2.239-5,5s2.238,5,5,5h2.866  c2.762,0,5-2.239,5-5S202.428,405.471,199.666,405.471z M226.322,405.471h-2.866c-2.762,0-5,2.239-5,5s2.238,5,5,5h2.866  c2.762,0,5-2.239,5-5S229.084,405.471,226.322,405.471z M252.978,405.471h-2.866c-2.762,0-5,2.239-5,5s2.238,5,5,5h2.866  c2.762,0,5-2.239,5-5S255.739,405.471,252.978,405.471z M279.634,405.471h-2.866c-2.762,0-5,2.239-5,5s2.238,5,5,5h2.866  c2.762,0,5-2.239,5-5S282.396,405.471,279.634,405.471z M306.29,405.471h-2.866c-2.762,0-5,2.239-5,5s2.238,5,5,5h2.866  c2.762,0,5-2.239,5-5S309.052,405.471,306.29,405.471z M332.946,405.471h-2.866c-2.762,0-5,2.239-5,5s2.238,5,5,5h2.866  c2.762,0,5-2.239,5-5S335.708,405.471,332.946,405.471z M173.01,421.16h-2.866c-2.762,0-5,2.239-5,5s2.238,5,5,5h2.866  c2.762,0,5-2.239,5-5S175.771,421.16,173.01,421.16z M199.666,421.16H196.8c-2.762,0-5,2.239-5,5s2.238,5,5,5h2.866  c2.762,0,5-2.239,5-5S202.428,421.16,199.666,421.16z M226.322,421.16h-2.866c-2.762,0-5,2.239-5,5s2.238,5,5,5h2.866  c2.762,0,5-2.239,5-5S229.084,421.16,226.322,421.16z M252.978,421.16h-2.866c-2.762,0-5,2.239-5,5s2.238,5,5,5h2.866  c2.762,0,5-2.239,5-5S255.739,421.16,252.978,421.16z M279.634,421.16h-2.866c-2.762,0-5,2.239-5,5s2.238,5,5,5h2.866  c2.762,0,5-2.239,5-5S282.396,421.16,279.634,421.16z M306.29,421.16h-2.866c-2.762,0-5,2.239-5,5s2.238,5,5,5h2.866  c2.762,0,5-2.239,5-5S309.052,421.16,306.29,421.16z M332.946,421.16h-2.866c-2.762,0-5,2.239-5,5s2.238,5,5,5h2.866  c2.762,0,5-2.239,5-5S335.708,421.16,332.946,421.16z M433.677,405.955v40.411c0,9.279-7.549,16.828-16.827,16.828h-18.838  c-9.279,0-16.828-7.549-16.828-16.828v-40.411c0-9.279,7.549-16.828,16.828-16.828h18.838  C426.128,389.127,433.677,396.676,433.677,405.955z M423.677,405.955c0-3.765-3.063-6.828-6.827-6.828h-4.419v9.179  c0,2.761-2.238,5-5,5s-5-2.239-5-5v-9.179h-4.419c-3.765,0-6.828,3.063-6.828,6.828v40.411c0,3.765,3.063,6.828,6.828,6.828h18.838  c3.765,0,6.827-3.063,6.827-6.828V405.955z M182.679,377.043c2.762,0,5-2.239,5-5s-2.238-5-5-5h-2.427c-2.762,0-5,2.239-5,5  s2.238,5,5,5H182.679z M319.748,377.043c2.762,0,5-2.239,5-5s-2.238-5-5-5h-2.427c-2.762,0-5,2.239-5,5s2.238,5,5,5H319.748z   M123.202,399.127h4.587c2.762,0,5-2.239,5-5s-2.238-5-5-5h-4.587c-2.762,0-5,2.239-5,5S120.44,399.127,123.202,399.127z   M445.568,389.127h-3.08c-2.762,0-5,2.239-5,5s2.238,5,5,5h3.08c2.762,0,5-2.239,5-5S448.33,389.127,445.568,389.127z   M68.884,453.193h-2.896c-2.762,0-5,2.239-5,5s2.238,5,5,5h2.896c2.762,0,5-2.239,5-5S71.646,453.193,68.884,453.193z"/>
</svg>
