<?xml version="1.0" encoding="utf-8"?>
<!-- Generator: Adobe Illustrator 22.0.0, SVG Export Plug-In . SVG Version: 6.00 Build 0)  -->
<svg xmlns="http://www.w3.org/2000/svg" xmlns:xlink="http://www.w3.org/1999/xlink" version="1.1" id="Layer_1" x="0px" y="0px" viewBox="0 0 500 500" style="enable-background:new 0 0 500 500;" xml:space="preserve" width="512" height="512">
<style type="text/css">
	.st0{fill:#83E1E5;}
	.st1{fill:#AAB1BA;}
	.st2{fill:#ECF4F7;}
	.st3{fill:#FDDF7F;}
	.st4{fill:#1C1D21;}
	.st5{fill:#FFFFFF;}
</style>
<g>
	<g>
		<path class="st0" d="M266.545,24.003L245.01,6.384c-1.832-1.498-4.364-1.808-6.503-0.794c-2.139,1.014-3.503,3.169-3.503,5.536    v5.606C178.21,20.305,125.307,44.113,84.71,84.71C40.56,128.861,16.245,187.562,16.245,250h25    c0-110.065,85.625-200.499,193.76-208.212v4.575c0,2.367,1.364,4.522,3.503,5.536c2.139,1.014,4.671,0.705,6.503-0.794    l21.535-17.618c1.422-1.164,2.247-2.904,2.247-4.742C268.792,26.907,267.968,25.166,266.545,24.003z"/>
	</g>
</g>
<g>
	<g>
		<path class="st0" d="M233.455,475.997l21.535,17.618c1.832,1.498,4.364,1.808,6.503,0.794c2.139-1.014,3.503-3.169,3.503-5.536    v-5.606c56.795-3.572,109.698-27.381,150.295-67.978c44.15-44.151,68.465-102.852,68.465-165.29h-25    c0,110.065-85.625,200.499-193.76,208.212v-4.575c0-2.367-1.364-4.522-3.503-5.536c-2.139-1.014-4.671-0.705-6.503,0.794    l-21.535,17.618c-1.422,1.164-2.247,2.904-2.247,4.742C231.208,473.093,232.032,474.834,233.455,475.997z"/>
	</g>
</g>
<g>
	<g>
		<circle class="st3" cx="250" cy="250" r="173.836"/>
	</g>
</g>
<g>
	<g>
		<path class="st0" d="M256.104,237.288H250h-6.104c-2.169,0-3.934-1.765-3.934-3.938v-14.427c0-2.173,1.765-3.938,3.934-3.938    h28.851c7.017,0,12.705-5.692,12.705-12.712c0-7.02-5.688-12.712-12.705-12.712h-7.958v-12.92c0-7.02-5.692-12.712-12.709-12.712    s-12.705,5.692-12.705,12.712v13.271c-14.044,2.184-24.827,14.359-24.827,29.012v14.427c0,16.192,13.167,29.362,29.348,29.362H250    h6.104c2.169,0,3.934,1.765,3.934,3.934v14.431c0,2.169-1.765,3.938-3.934,3.938h-28.847c-7.02,0-12.709,5.688-12.709,12.712    c0,7.02,5.688,12.709,12.709,12.709h12.118v12.923c0,7.02,5.688,12.712,12.705,12.712s12.709-5.692,12.709-12.712v-14.234    c11.957-3.716,20.663-14.882,20.663-28.049v-14.431C285.452,250.458,272.285,237.288,256.104,237.288z"/>
	</g>
</g>
<path class="st4" d="M88.246,88.246C45.04,131.452,21.245,188.897,21.245,250c0,2.761-2.239,5-5,5s-5-2.239-5-5  c0-63.773,24.835-123.73,69.93-168.826c40.023-40.022,92.716-64.447,148.831-69.091v-0.957c0-4.277,2.498-8.224,6.363-10.054  c3.86-1.832,8.497-1.266,11.808,1.441l21.535,17.62c2.594,2.121,4.081,5.259,4.081,8.611c0,3.353-1.488,6.492-4.083,8.613  l-21.532,17.617c-3.312,2.709-7.946,3.275-11.812,1.442c-3.602-1.707-6.017-5.253-6.327-9.191  C126.547,57.341,46.245,145.393,46.245,250v66.433c0,2.761-2.239,5-5,5s-5-2.239-5-5V250c0-54.329,20.484-106.146,57.678-145.904  c37.011-39.563,86.989-63.462,140.726-67.295c1.382-0.095,2.748,0.382,3.763,1.328c1.016,0.946,1.593,2.271,1.593,3.659v4.575  c0,0.433,0.253,0.832,0.644,1.017c0.391,0.186,0.86,0.128,1.197-0.146l21.533-17.618c0.263-0.215,0.413-0.533,0.413-0.872  s-0.15-0.657-0.412-0.871l-21.535-17.62c-0.334-0.272-0.802-0.331-1.194-0.146c-0.394,0.186-0.646,0.585-0.646,1.018v5.605  c0,2.64-2.052,4.824-4.686,4.99C179.889,25.209,127.657,48.834,88.246,88.246z M483.756,245c-2.762,0-5,2.239-5,5  c0,61.102-23.795,118.547-67.001,161.754c-39.412,39.412-91.644,63.037-147.073,66.523c-2.635,0.166-4.687,2.351-4.687,4.99v5.605  c0,0.433-0.252,0.832-0.646,1.018c-0.389,0.185-0.859,0.127-1.193-0.146l-21.535-17.619c-0.262-0.214-0.413-0.532-0.413-0.872  c0-0.34,0.15-0.657,0.413-0.872l21.534-17.617c0.336-0.274,0.804-0.332,1.197-0.146c0.391,0.185,0.644,0.584,0.644,1.017v4.575  c0,1.388,0.577,2.713,1.593,3.659c1.016,0.946,2.386,1.428,3.763,1.328c53.737-3.833,103.715-27.732,140.727-67.295  c37.194-39.758,57.679-91.575,57.679-145.904v-66.433c0-2.761-2.238-5-5-5s-5,2.239-5,5V250  c0,104.607-80.303,192.659-183.795,202.775c-0.31-3.938-2.725-7.485-6.326-9.191c-3.864-1.833-8.499-1.268-11.812,1.442  l-21.534,17.618c-2.594,2.121-4.082,5.26-4.082,8.612c0,3.352,1.487,6.49,4.081,8.611l21.536,17.62  c2.021,1.651,4.532,2.505,7.061,2.505c1.617,0,3.241-0.35,4.747-1.064c3.865-1.831,6.363-5.777,6.363-10.055v-0.957  c56.114-4.644,108.809-29.069,148.83-69.091C463.921,373.73,488.756,313.773,488.756,250C488.756,247.239,486.518,245,483.756,245z   M250,428.836c-98.611,0-178.836-80.226-178.836-178.836S151.389,71.164,250,71.164c98.61,0,178.836,80.226,178.836,178.836  S348.61,428.836,250,428.836z M250,418.836c93.097,0,168.836-75.74,168.836-168.836S343.097,81.164,250,81.164  S81.164,156.903,81.164,250S156.903,418.836,250,418.836z M398.883,250c0-82.094-66.788-148.883-148.883-148.883  c-37.987,0-74.156,14.306-101.845,40.283c-2.014,1.889-2.115,5.054-0.226,7.067c1.89,2.014,5.053,2.116,7.067,0.226  c25.829-24.231,59.568-37.576,95.003-37.576c76.58,0,138.883,62.303,138.883,138.883S326.58,388.883,250,388.883  S111.117,326.58,111.117,250c0-24.38,6.405-48.358,18.522-69.343c1.381-2.392,0.562-5.45-1.83-6.831  c-2.393-1.381-5.45-0.561-6.831,1.83c-12.994,22.503-19.862,48.211-19.862,74.344c0,82.094,66.789,148.883,148.883,148.883  C332.095,398.883,398.883,332.094,398.883,250z M132.361,166.984c0.905,0.688,1.968,1.02,3.022,1.02  c1.509,0,3.001-0.681,3.984-1.975c0.647-0.851,1.303-1.694,1.969-2.53c1.721-2.16,1.365-5.305-0.794-7.026  c-2.16-1.722-5.306-1.366-7.026,0.794c-0.713,0.895-1.417,1.798-2.109,2.709C129.735,162.177,130.163,165.313,132.361,166.984z   M255.038,280.015v-12.303h-11.142c-18.939,0-34.348-15.415-34.348-34.363v-14.427c0-15.318,10.411-28.816,24.827-33.012v-9.271  c0-9.767,7.942-17.712,17.705-17.712c9.765,0,17.709,7.945,17.709,17.712v7.92h2.958c9.763,0,17.705,7.946,17.705,17.712  s-7.942,17.712-17.705,17.712h-27.785v12.303h11.142c18.939,0,34.349,15.414,34.349,34.359v14.431  c0,13.876-8.163,26.116-20.663,31.521v10.761c0,9.767-7.944,17.712-17.709,17.712c-9.763,0-17.705-7.945-17.705-17.712v-7.924  h-7.118c-9.765,0-17.709-7.944-17.709-17.708c0-9.767,7.944-17.712,17.709-17.712H255.038z M265.038,266.646v14.431  c0,4.928-4.008,8.938-8.935,8.938h-28.847c-4.251,0-7.709,3.46-7.709,7.712c0,4.25,3.458,7.708,7.709,7.708h12.118  c2.761,0,5,2.239,5,5v12.924c0,4.252,3.457,7.712,7.705,7.712c4.251,0,7.709-3.459,7.709-7.712v-14.234  c0-2.19,1.425-4.125,3.516-4.775c10.257-3.188,17.147-12.541,17.147-23.274v-14.431c0-13.432-10.923-24.359-24.349-24.359h-12.208  c-4.926,0-8.934-4.01-8.934-8.938v-14.427c0-4.928,4.008-8.938,8.934-8.938h28.851c4.249,0,7.705-3.46,7.705-7.712  s-3.456-7.712-7.705-7.712h-7.958c-2.762,0-5-2.239-5-5v-12.92c0-4.252-3.458-7.712-7.709-7.712c-4.249,0-7.705,3.459-7.705,7.712  v13.271c0,2.465-1.796,4.562-4.232,4.94c-11.741,1.826-20.595,12.174-20.595,24.071v14.427c0,13.434,10.922,24.363,24.348,24.363  h12.208C261.03,257.712,265.038,261.72,265.038,266.646z M52.078,367.5h-5.833v-5.833c0-2.761-2.239-5-5-5s-5,2.239-5,5v5.833  h-5.833c-2.761,0-5,2.239-5,5s2.239,5,5,5h5.833v5.833c0,2.761,2.239,5,5,5s5-2.239,5-5V377.5h5.833c2.761,0,5-2.239,5-5  S54.839,367.5,52.078,367.5z M41.245,333.424c-2.761,0-5,2.239-5,5v4.214c0,2.761,2.239,5,5,5s5-2.239,5-5v-4.214  C46.245,335.663,44.006,333.424,41.245,333.424z M447.923,132.5h5.833v5.833c0,2.761,2.238,5,5,5s5-2.239,5-5V132.5h5.832  c2.762,0,5-2.239,5-5s-2.238-5-5-5h-5.832v-5.833c0-2.761-2.238-5-5-5s-5,2.239-5,5v5.833h-5.833c-2.762,0-5,2.239-5,5  S445.161,132.5,447.923,132.5z M458.756,152.362c-2.762,0-5,2.239-5,5v4.214c0,2.761,2.238,5,5,5s5-2.239,5-5v-4.214  C463.756,154.601,461.518,152.362,458.756,152.362z"/>
</svg>
