<?xml version="1.0" encoding="utf-8"?>
<!-- Generator: Adobe Illustrator 22.0.0, SVG Export Plug-In . SVG Version: 6.00 Build 0)  -->
<svg xmlns="http://www.w3.org/2000/svg" xmlns:xlink="http://www.w3.org/1999/xlink" version="1.1" id="Layer_1" x="0px" y="0px" viewBox="0 0 500 500" style="enable-background:new 0 0 500 500;" xml:space="preserve" width="512" height="512">
<style type="text/css">
	.st0{fill:#83E1E5;}
	.st1{fill:#AAB1BA;}
	.st2{fill:#ECF4F7;}
	.st3{fill:#FDDF7F;}
	.st4{fill:#1C1D21;}
	.st5{fill:#FFFFFF;}
</style>
<g>
	<g>
		<g>
			<path class="st0" d="M281.845,117.483c-9.682-9.682-25.44-9.684-35.123,0l-15.23-15.23c18.082-18.08,47.5-18.082,65.584,0     L281.845,117.483z"/>
		</g>
	</g>
</g>
<g>
	<g>
		<g>
			<path class="st0" d="M311.384,87.945c-12.581-12.581-29.308-19.51-47.101-19.51c-17.792,0-34.519,6.928-47.1,19.51l-15.23-15.23     c16.649-16.649,38.785-25.818,62.33-25.818c23.546,0,45.681,9.169,62.331,25.818L311.384,87.945z"/>
		</g>
	</g>
</g>
<g>
	<g>
		<g>
			<path class="st0" d="M341.053,58.276c-42.331-42.33-111.208-42.33-153.539,0l-15.23-15.23c50.728-50.728,133.27-50.727,183.999,0     L341.053,58.276z"/>
		</g>
	</g>
</g>
<g>
	<g>
		<path class="st1" d="M404.494,277.933h-69.926v21.321c0,6.426-5.209,11.635-11.635,11.635H168.265v122.577    c0,6.426,5.209,11.635,11.635,11.635h180.286c3.033,0,5.947,1.185,8.12,3.302L416.129,495V289.567    C416.129,283.142,410.92,277.933,404.494,277.933z"/>
	</g>
</g>
<g>
	<g>
		<circle class="st2" cx="350.355" cy="362.452" r="13.168"/>
	</g>
</g>
<g>
	<g>
		<circle class="st2" cx="292.197" cy="362.452" r="13.168"/>
	</g>
</g>
<g>
	<g>
		<circle class="st2" cx="234.039" cy="362.452" r="13.168"/>
	</g>
</g>
<g>
	<g>
		<path class="st2" d="M322.933,143.721H98.339c-6.426,0-11.635,5.209-11.635,11.635v205.433l47.824-46.598    c2.173-2.117,5.086-3.302,8.12-3.302h180.286c6.426,0,11.635-5.209,11.635-11.635V155.356    C334.568,148.93,329.359,143.721,322.933,143.721z"/>
	</g>
</g>
<g>
	<g>
		<circle class="st3" cx="152.478" cy="228.24" r="13.168"/>
	</g>
</g>
<g>
	<g>
		<circle class="st3" cx="210.636" cy="228.24" r="13.168"/>
	</g>
</g>
<g>
	<g>
		<circle class="st3" cx="268.794" cy="228.24" r="13.168"/>
	</g>
</g>
<path class="st4" d="M431.962,143.721c0,2.762-2.238,5-5,5h-5.833v5.833c0,2.762-2.238,5-5,5s-5-2.238-5-5v-5.833h-5.833  c-2.762,0-5-2.238-5-5s2.238-5,5-5h5.833v-5.832c0-2.762,2.238-5,5-5s5,2.238,5,5v5.832h5.833  C429.724,138.721,431.962,140.959,431.962,143.721z M404.494,272.933h-49.495c-2.762,0-5,2.238-5,5s2.238,5,5,5h49.495  c3.658,0,6.635,2.977,6.635,6.635v193.58l-39.334-38.326c-3.123-3.045-7.246-4.722-11.609-4.722H183.281  c-0.056-0.002-0.108-0.017-0.165-0.017h-3.544c-3.505-0.172-6.307-3.071-6.307-6.618v-106.07c0-2.762-2.239-5-5-5s-5,2.238-5,5  v106.07c0,2.352,0.497,4.588,1.381,6.618h-28.716c-2.761,0-5,2.238-5,5s2.239,5,5,5h43.642c0.11,0.002,0.217,0.017,0.328,0.017  h180.286c1.74,0,3.384,0.668,4.63,1.883l47.824,46.599c0.952,0.928,2.211,1.419,3.49,1.419c0.655,0,1.315-0.129,1.942-0.394  c1.853-0.781,3.057-2.596,3.057-4.606V289.567C421.129,280.395,413.667,272.933,404.494,272.933z M350.354,344.284  c10.018,0,18.168,8.15,18.168,18.168s-8.15,18.168-18.168,18.168s-18.168-8.15-18.168-18.168S340.337,344.284,350.354,344.284z   M342.187,362.452c0,4.504,3.664,8.168,8.168,8.168s8.168-3.664,8.168-8.168s-3.664-8.168-8.168-8.168  S342.187,357.948,342.187,362.452z M292.197,344.284c10.018,0,18.168,8.15,18.168,18.168s-8.15,18.168-18.168,18.168  s-18.168-8.15-18.168-18.168S282.18,344.284,292.197,344.284z M292.197,354.284c-4.504,0-8.168,3.664-8.168,8.168  s3.664,8.168,8.168,8.168s8.168-3.664,8.168-8.168S296.701,354.284,292.197,354.284z M234.039,344.284  c10.018,0,18.168,8.15,18.168,18.168s-8.15,18.168-18.168,18.168s-18.168-8.15-18.168-18.168S224.021,344.284,234.039,344.284z   M234.039,354.284c-4.504,0-8.168,3.664-8.168,8.168s3.664,8.168,8.168,8.168s8.168-3.664,8.168-8.168  S238.543,354.284,234.039,354.284z M81.705,360.788V155.355c0-9.173,7.462-16.635,16.635-16.635h218.545h6.049h41.136  c2.762,0,5,2.238,5,5s-2.238,5-5,5h-25.89c0.889,2.035,1.389,4.276,1.389,6.635v143.898c0,9.173-7.462,16.635-16.635,16.635H142.647  c-1.74,0-3.384,0.669-4.629,1.883l-47.824,46.598c-0.952,0.928-2.211,1.419-3.49,1.419c-0.655,0-1.315-0.129-1.942-0.394  C82.909,364.613,81.705,362.799,81.705,360.788z M91.705,348.936l39.334-38.326c3.123-3.044,7.246-4.721,11.608-4.721h180.286  c3.658,0,6.635-2.977,6.635-6.635V155.355c0-3.658-2.977-6.635-6.635-6.635h-6.049H98.339c-3.658,0-6.635,2.977-6.635,6.635V348.936  z M134.311,228.24c0-10.018,8.15-18.168,18.168-18.168s18.168,8.15,18.168,18.168s-8.15,18.168-18.168,18.168  S134.311,238.258,134.311,228.24z M144.311,228.24c0,4.504,3.664,8.168,8.168,8.168s8.168-3.664,8.168-8.168  s-3.664-8.168-8.168-8.168S144.311,223.736,144.311,228.24z M192.468,228.24c0-10.018,8.15-18.168,18.168-18.168  s18.168,8.15,18.168,18.168s-8.15,18.168-18.168,18.168S192.468,238.258,192.468,228.24z M202.468,228.24  c0,4.504,3.664,8.168,8.168,8.168s8.168-3.664,8.168-8.168s-3.664-8.168-8.168-8.168S202.468,223.736,202.468,228.24z   M250.626,228.24c0-10.018,8.15-18.168,18.168-18.168s18.168,8.15,18.168,18.168s-8.15,18.168-18.168,18.168  S250.626,238.258,250.626,228.24z M260.626,228.24c0,4.504,3.664,8.168,8.168,8.168s8.168-3.664,8.168-8.168  s-3.664-8.168-8.168-8.168S260.626,223.736,260.626,228.24z M300.61,98.716c0.938,0.938,1.465,2.21,1.465,3.536  s-0.526,2.598-1.464,3.535l-15.23,15.23c-0.976,0.977-2.256,1.465-3.535,1.465s-2.559-0.488-3.535-1.464  c-7.733-7.733-20.317-7.733-28.053-0.001c-0.938,0.938-2.209,1.465-3.536,1.465s-2.598-0.526-3.536-1.465l-15.23-15.23  c-0.938-0.938-1.464-2.209-1.464-3.535s0.527-2.598,1.465-3.536C247.988,78.686,280.58,78.689,300.61,98.716z M238.775,102.465  l8.243,8.243c5.148-3.658,11.206-5.485,17.265-5.485s12.116,1.828,17.266,5.485l8.243-8.243  C274.869,90.764,253.699,90.764,238.775,102.465z M307.849,91.48c-11.638-11.637-27.109-18.046-43.565-18.046  c-16.457,0-31.928,6.409-43.564,18.046c-0.938,0.938-2.209,1.465-3.536,1.465s-2.598-0.526-3.536-1.465l-15.23-15.23  c-1.953-1.952-1.953-5.118,0-7.07c17.593-17.594,40.984-27.283,65.865-27.283c24.881,0,48.273,9.689,65.866,27.283  c1.953,1.952,1.953,5.118,0,7.07l-15.23,15.23C312.968,93.434,309.8,93.434,307.849,91.48z M264.283,63.435  c17.451,0,33.95,6.201,46.979,17.561l8.177-8.177c-15.223-13.528-34.62-20.922-55.156-20.922c-20.536,0-39.934,7.393-55.155,20.922  l8.176,8.177C230.333,69.636,246.832,63.435,264.283,63.435z M168.749,46.581c-0.938-0.938-1.464-2.209-1.464-3.535  s0.527-2.598,1.464-3.535c52.677-52.677,138.391-52.679,191.07,0c0.938,0.938,1.465,2.209,1.465,3.535s-0.526,2.598-1.465,3.536  l-15.23,15.229c-0.976,0.976-2.256,1.464-3.535,1.464s-2.56-0.488-3.535-1.465c-40.382-40.38-106.087-40.381-146.468,0  c-1.953,1.953-5.118,1.953-7.071,0L168.749,46.581z M179.425,43.115l8.166,8.166c21.641-19.836,49.166-29.751,76.692-29.751  c27.528,0,55.053,9.915,76.692,29.751l8.167-8.166C301.352-1.037,227.213-1.036,179.425,43.115z M383.006,148.721h4.463  c2.762,0,5-2.238,5-5s-2.238-5-5-5h-4.463c-2.762,0-5,2.238-5,5S380.244,148.721,383.006,148.721z M94.704,440.083h-5.833v-5.832  c0-2.762-2.239-5-5-5s-5,2.238-5,5v5.832h-5.833c-2.761,0-5,2.238-5,5s2.239,5,5,5h5.833v5.833c0,2.762,2.239,5,5,5s5-2.238,5-5  v-5.833h5.833c2.761,0,5-2.238,5-5S97.465,440.083,94.704,440.083z M116.994,440.083h-4.462c-2.761,0-5,2.238-5,5s2.239,5,5,5h4.462  c2.761,0,5-2.238,5-5S119.755,440.083,116.994,440.083z"/>
</svg>
