<?xml version="1.0" encoding="utf-8"?>
<!-- Generator: Adobe Illustrator 22.0.0, SVG Export Plug-In . SVG Version: 6.00 Build 0)  -->
<svg xmlns="http://www.w3.org/2000/svg" xmlns:xlink="http://www.w3.org/1999/xlink" version="1.1" id="Layer_1" x="0px" y="0px" viewBox="0 0 500 500" style="enable-background:new 0 0 500 500;" xml:space="preserve" width="512" height="512">
<style type="text/css">
	.st0{fill:#83E1E5;}
	.st1{fill:#AAB1BA;}
	.st2{fill:#ECF4F7;}
	.st3{fill:#FDDF7F;}
	.st4{fill:#1C1D21;}
	.st5{fill:#FFFFFF;}
</style>
<g>
	<g>
		<path class="st2" d="M410.903,207.214h-73.56c-13.926,0-25.214,11.289-25.214,25.214l-0.004-4.97    c0-11.181-9.064-20.245-20.245-20.245h-83.744c-11.181,0-20.244,9.064-20.244,20.245l-0.021,4.97    c0-13.925-11.289-25.214-25.214-25.214h-73.56c-13.926,0-25.214,11.289-25.214,25.214v126.187h372.234V232.428    C436.117,218.502,424.828,207.214,410.903,207.214z"/>
	</g>
</g>
<g>
	<g>
		<path class="st1" d="M459.031,358.615H40.969c-8.298,0-15.025,6.727-15.025,15.025v5.412c0,8.298,6.727,15.025,15.025,15.025    h163.921l-38.96,76.611c-4.187,8.234-0.907,18.303,7.327,22.49c8.234,4.187,18.303,0.907,22.49-7.327l46.671-91.775h14.444    l46.671,91.775c4.187,8.234,14.256,11.514,22.49,7.327c8.234-4.187,11.514-14.256,7.327-22.49l-38.959-76.611h164.639    c8.298,0,15.025-6.727,15.025-15.025v-5.412C474.056,365.342,467.329,358.615,459.031,358.615z"/>
	</g>
</g>
<g>
	<g>
		<circle class="st3" cx="250.008" cy="158.868" r="48.345"/>
	</g>
</g>
<g>
	<g>
		<polygon class="st0" points="236.787,358.615 263.229,358.615 258.435,207.213 241.582,207.213   "/>
	</g>
</g>
<g>
	<g>
		<polygon class="st0" points="140.156,286.597 113.714,286.597 118.508,207.214 135.361,207.214   "/>
	</g>
</g>
<g>
	<g>
		<circle class="st3" cx="125.877" cy="158.868" r="48.345"/>
	</g>
</g>
<g>
	<g>
		<polygon class="st0" points="359.844,286.597 386.286,286.597 381.492,207.214 364.639,207.214   "/>
	</g>
</g>
<g>
	<g>
		<circle class="st3" cx="374.123" cy="158.868" r="48.345"/>
	</g>
</g>
<g>
	<g>
		<path class="st1" d="M459.031,32.376H40.969c-8.298,0-15.025,6.727-15.025,15.025v5.412c0,8.298,6.727,15.025,15.025,15.025    h418.061c8.298,0,15.025-6.727,15.025-15.025v-5.412C474.056,39.103,467.329,32.376,459.031,32.376z"/>
	</g>
</g>
<path class="st4" d="M86.26,428.667v5.833h4.685c2.761,0,5,2.239,5,5s-2.239,5-5,5H86.26v5.833c0,2.761-2.239,5-5,5s-5-2.239-5-5  V444.5h-4.685c-2.761,0-5-2.239-5-5s2.239-5,5-5h4.685v-5.833c0-2.761,2.239-5,5-5S86.26,425.906,86.26,428.667z M418.74,423.667  c-2.762,0-5,2.239-5,5v5.833h-4.686c-2.762,0-5,2.239-5,5s2.238,5,5,5h4.686v5.833c0,2.761,2.238,5,5,5s5-2.239,5-5V444.5h4.685  c2.762,0,5-2.239,5-5s-2.238-5-5-5h-4.685v-5.833C423.74,425.906,421.502,423.667,418.74,423.667z M89.097,202.214h5.742  c-13.493-9.69-22.308-25.503-22.308-43.345c0-29.415,23.931-53.345,53.345-53.345c29.415,0,53.346,23.931,53.346,53.345  c0,17.843-8.814,33.656-22.308,43.345h5.742c9.796,0,18.515,4.69,24.039,11.938c4.46-7.16,12.401-11.938,21.44-11.938h10.835  c-13.493-9.69-22.308-25.503-22.308-43.345c0-29.415,23.931-53.345,53.345-53.345s53.345,23.931,53.345,53.345  c0,17.843-8.814,33.656-22.308,43.345h10.835c9.034,0,16.971,4.773,21.432,11.927c5.525-7.242,14.239-11.927,24.03-11.927h5.742  c-13.494-9.69-22.308-25.503-22.308-43.345c0-29.415,23.931-53.345,53.346-53.345c29.414,0,53.345,23.931,53.345,53.345  c0,17.843-8.814,33.656-22.308,43.345h5.742c16.66,0,30.215,13.554,30.215,30.214v83.502v24.691c0,2.761-2.238,5-5,5s-5-2.239-5-5  V320.93H317.129v19.691c0,2.761-2.238,5-5,5s-5-2.239-5-5V320.93h-4.377c-10.845,0-19.667-8.823-19.667-19.667  s8.822-19.667,19.667-19.667h4.373v-54.139c0-8.406-6.839-15.245-15.244-15.245h-28.285l4.072,128.596  c0.088,2.76-2.079,5.068-4.839,5.156c-0.054,0.002-0.107,0.002-0.161,0.002c-2.688,0-4.909-2.135-4.994-4.842l-4.082-128.912h-7.166  l-4.082,128.912c-0.088,2.76-2.408,4.925-5.156,4.839c-2.76-0.087-4.927-2.396-4.839-5.156l4.072-128.596h-28.284  c-8.406,0-15.245,6.839-15.245,15.245v54.139h4.356h0c9.489,0,17.429,6.754,19.266,15.708c0.262,1.279,0.4,2.603,0.4,3.959  s-0.138,2.68-0.4,3.959c-1.837,8.953-9.777,15.708-19.266,15.708h0h-4.376v19.691c0,2.761-2.239,5-5,5s-5-2.239-5-5V320.93H68.883  v19.691c0,2.761-2.239,5-5,5s-5-2.239-5-5V315.93v-83.502C58.883,215.768,72.437,202.214,89.097,202.214z M410.902,212.214h-24.099  l4.19,69.384h8.875v-44.266c0-2.761,2.238-5,5-5s5,2.239,5,5v44.266h5.102c2.762,0,5,2.239,5,5s-2.238,5-5,5h-10.102h-18.582  h-26.441h-47.716h-9.377c-5.33,0-9.667,4.336-9.667,9.667c0,5.33,4.337,9.667,9.667,9.667h128.365v-78.502  C431.117,221.282,422.049,212.214,410.902,212.214z M365.156,281.597h15.818l-4.189-69.384h-7.439L365.156,281.597z   M374.123,202.214c23.9,0,43.345-19.445,43.345-43.345c0-23.901-19.444-43.345-43.345-43.345c-23.901,0-43.346,19.445-43.346,43.345  C330.777,182.769,350.222,202.214,374.123,202.214z M317.129,232.428v49.169h12.455v-44.266c0-2.761,2.238-5,5-5s5,2.239,5,5v44.266  h15.553l4.19-69.384h-21.985C326.197,212.214,317.129,221.282,317.129,232.428z M249.989,202.213h0.039  c23.892-0.01,43.326-19.451,43.326-43.345c0-23.901-19.444-43.345-43.345-43.345s-43.345,19.445-43.345,43.345  C206.663,182.763,226.097,202.203,249.989,202.213z M197.248,291.597h-9.376h-47.716h-26.442H95.132H85.03c-2.761,0-5-2.239-5-5  s2.239-5,5-5h5.102v-44.266c0-2.761,2.239-5,5-5s5,2.239,5,5v44.266h8.874l4.191-69.384h-24.1c-11.146,0-20.214,9.068-20.214,20.214  v78.502h128.365c3.998,0,7.437-2.439,8.906-5.908c0.49-1.156,0.761-2.427,0.761-3.759c0-1.333-0.271-2.603-0.761-3.759  C204.685,294.036,201.246,291.597,197.248,291.597z M123.215,212.214l-4.19,69.384h15.82l-4.19-69.384H123.215z M162.657,212.214  h-21.985l4.191,69.384h15.553v-44.266c0-2.761,2.239-5,5-5s5,2.239,5,5v44.266h12.456v-49.169  C182.872,221.282,173.803,212.214,162.657,212.214z M125.877,202.214c23.901,0,43.346-19.445,43.346-43.345  c0-23.901-19.445-43.345-43.346-43.345s-43.345,19.445-43.345,43.345C82.532,182.769,101.976,202.214,125.877,202.214z   M209.128,237.331v38.834c0,2.761,2.239,5,5,5s5-2.239,5-5v-38.834c0-2.761-2.239-5-5-5S209.128,234.569,209.128,237.331z   M290.888,276.165v-38.834c0-2.761-2.238-5-5-5s-5,2.239-5,5v38.834c0,2.761,2.238,5,5,5S290.888,278.927,290.888,276.165z   M479.056,373.64v5.412c0,11.042-8.983,20.025-20.025,20.025H40.969c-11.042,0-20.025-8.983-20.025-20.025v-5.412  c0-11.042,8.983-20.025,20.025-20.025H459.03C470.072,353.615,479.056,362.598,479.056,373.64z M469.056,373.64  c0-5.528-4.497-10.025-10.025-10.025H40.969c-5.528,0-10.025,4.497-10.025,10.025v5.412c0,5.528,4.497,10.025,10.025,10.025H459.03  c5.528,0,10.025-4.497,10.025-10.025V373.64z M479.056,47.401v5.412c0,10.956-8.846,19.873-19.77,20.012v65.186c0,2.761-2.238,5-5,5  s-5-2.239-5-5V72.838H50.713v65.173c0,2.761-2.239,5-5,5s-5-2.239-5-5V72.825c-10.923-0.139-19.769-9.057-19.769-20.012v-5.412  c0-11.042,8.983-20.025,20.025-20.025h188.782c-0.607-1.985-0.93-4.064-0.93-6.188C228.821,9.505,238.326,0,250.009,0  c11.683,0,21.188,9.505,21.188,21.188c0,2.124-0.323,4.203-0.93,6.188H459.03C470.072,27.376,479.056,36.359,479.056,47.401z   M240.699,27.376h18.62c1.221-1.825,1.878-3.964,1.878-6.188c0-6.169-5.019-11.188-11.188-11.188s-11.188,5.019-11.188,11.188  C238.821,23.411,239.478,25.551,240.699,27.376z M469.056,47.401c0-5.528-4.497-10.025-10.025-10.025H261.69h-23.363H40.969  c-5.528,0-10.025,4.497-10.025,10.025v5.412c0,5.528,4.497,10.025,10.025,10.025H459.03c5.528,0,10.025-4.497,10.025-10.025V47.401z   M459.286,155.331v-3.077c0-2.761-2.238-5-5-5s-5,2.239-5,5v3.077c0,2.761,2.238,5,5,5S459.286,158.092,459.286,155.331z   M45.713,160.331c2.761,0,5-2.239,5-5v-3.077c0-2.761-2.239-5-5-5s-5,2.239-5,5v3.077C40.713,158.092,42.952,160.331,45.713,160.331  z M42.5,490h-4.218c-2.761,0-5,2.239-5,5s2.239,5,5,5H42.5c2.761,0,5-2.239,5-5S45.262,490,42.5,490z M438.68,490H336.711  c0.988-1.544,1.806-3.21,2.389-5c1.797-5.518,1.339-11.405-1.292-16.578l-31.145-61.245c-1.253-2.462-4.263-3.443-6.724-2.19  c-2.461,1.252-3.442,4.262-2.19,6.723l31.145,61.245c1.42,2.792,1.668,5.969,0.697,8.947c-0.97,2.978-3.042,5.4-5.834,6.82  c-2.791,1.419-5.969,1.667-8.947,0.697c-2.978-0.97-5.399-3.042-6.819-5.834l-38.856-76.408c-1.253-2.462-4.262-3.443-6.724-2.19  c-2.461,1.252-3.442,4.262-2.19,6.723l38.856,76.409c0.33,0.648,0.689,1.276,1.076,1.881H199.113  c0.388-0.606,0.76-1.227,1.093-1.881l38.856-76.408c1.251-2.461,0.271-5.471-2.19-6.723c-2.463-1.252-5.472-0.271-6.724,2.19  l-38.856,76.408c-2.931,5.763-10.001,8.068-15.768,5.137c-2.792-1.42-4.864-3.842-5.834-6.82c-0.97-2.978-0.722-6.156,0.698-8.948  l31.145-61.245c1.251-2.461,0.271-5.471-2.19-6.723c-2.464-1.252-5.472-0.271-6.724,2.19l-31.145,61.245  c-2.631,5.173-3.09,11.06-1.292,16.578c0.583,1.789,1.401,3.455,2.389,5H61.32c-2.761,0-5,2.239-5,5s2.239,5,5,5H318.28  c0.062,0.001,0.123,0.007,0.185,0.007c0.083,0,0.166-0.006,0.248-0.007H438.68c2.762,0,5-2.239,5-5S441.441,490,438.68,490z   M461.718,490h-4.219c-2.762,0-5,2.239-5,5s2.238,5,5,5h4.219c2.762,0,5-2.239,5-5S464.479,490,461.718,490z"/>
</svg>
