<?xml version="1.0" encoding="utf-8"?>
<!-- Generator: Adobe Illustrator 22.0.0, SVG Export Plug-In . SVG Version: 6.00 Build 0)  -->
<svg xmlns="http://www.w3.org/2000/svg" xmlns:xlink="http://www.w3.org/1999/xlink" version="1.1" id="Layer_1" x="0px" y="0px" viewBox="0 0 500 500" style="enable-background:new 0 0 500 500;" xml:space="preserve" width="512" height="512">
<style type="text/css">
	.st0{fill:#83E1E5;}
	.st1{fill:#AAB1BA;}
	.st2{fill:#ECF4F7;}
	.st3{fill:#FDDF7F;}
	.st4{fill:#1C1D21;}
	.st5{fill:#FFFFFF;}
</style>
<g>
	<g>
		<path class="st3" d="M452.083,269.97H186.941c-8.938,0-16.184,7.245-16.184,16.183v170.623c0,21.11-17.113,38.224-38.224,38.224    h289.726c21.11,0,38.224-17.114,38.224-38.224V278.37C460.483,273.731,456.722,269.97,452.083,269.97z"/>
	</g>
</g>
<g>
	<g>
		<path class="st1" d="M359.311,353.404c0-23.308-18.895-42.203-42.203-42.203s-42.203,18.895-42.203,42.203    c0,17.292,10.404,32.146,25.289,38.666v44.785c0,9.341,7.572,16.913,16.913,16.913s16.914-7.572,16.914-16.913V392.07    C348.907,385.55,359.311,370.696,359.311,353.404z"/>
	</g>
</g>
<g>
	<g>
		<path class="st2" d="M162.069,137.038c0-50.392,40.998-91.39,91.39-91.39c50.392,0,91.389,40.998,91.389,91.39v83.919h40.648    v-83.919C385.497,64.232,326.265,5,253.459,5C180.652,5,121.42,64.232,121.42,137.038v56.176h40.648V137.038z"/>
	</g>
</g>
<g>
	<g>
		<path class="st1" d="M405.69,220.957H225.372c-6.886,0-13.434-2.99-17.944-8.194l-9.842-11.356    c-4.51-5.204-11.057-8.194-17.944-8.194h-69.15c-8.938,0-16.183,7.246-16.183,16.183v247.378c0,21.11,17.113,38.224,38.224,38.224    l0,0c21.11,0,38.224-17.113,38.224-38.224V286.153c0-8.938,7.246-16.183,16.183-16.183h227.15v-40.613    C414.09,224.718,410.33,220.957,405.69,220.957z"/>
	</g>
</g>
<path class="st4" d="M419.923,161.78c0-2.761,2.238-5,5-5h5.833v-5.833c0-2.761,2.238-5,5-5s5,2.239,5,5v5.833h5.833  c2.762,0,5,2.239,5,5s-2.238,5-5,5h-5.833v5.833c0,2.761-2.238,5-5,5s-5-2.239-5-5v-5.833h-5.833  C422.161,166.78,419.923,164.542,419.923,161.78z M424.923,112.289h5.833v5.833c0,2.761,2.238,5,5,5s5-2.239,5-5v-5.833h5.833  c2.762,0,5-2.239,5-5s-2.238-5-5-5h-5.833v-5.833c0-2.761-2.238-5-5-5s-5,2.239-5,5v5.833h-5.833c-2.762,0-5,2.239-5,5  S422.161,112.289,424.923,112.289z M465.482,278.37v178.406c0,23.833-19.39,43.224-43.224,43.224H132.533H66.074  c-2.762,0-5-2.239-5-5s2.238-5,5-5h38.845c-9.531-7.935-15.609-19.882-15.609-33.224V278.97c0-2.761,2.238-5,5-5s5,2.239,5,5  v177.807c0,18.32,14.904,33.224,33.224,33.224c1.145,0,2.277-0.058,3.392-0.172s2.215-0.283,3.295-0.504  c0.54-0.111,1.076-0.235,1.606-0.372c14.32-3.693,24.93-16.719,24.93-32.176V286.153c0-11.681,9.503-21.184,21.184-21.184h222.15  v-35.612c0-1.875-1.525-3.4-3.4-3.4H225.372c-8.342,0-16.259-3.615-21.722-9.919l-9.842-11.355  c-3.563-4.111-8.727-6.469-14.166-6.469h-69.149c-6.167,0-11.184,5.017-11.184,11.184v21.733c0,2.761-2.238,5-5,5s-5-2.239-5-5  v-21.733c0-11.681,9.503-21.184,21.184-21.184h69.149c8.341,0,16.259,3.615,21.723,9.919l9.842,11.355  c3.563,4.111,8.726,6.469,14.165,6.469H405.69c7.389,0,13.4,6.011,13.4,13.4v35.613h32.992  C459.472,264.97,465.482,270.981,465.482,278.37z M455.482,278.37c0-1.875-1.525-3.4-3.399-3.4H186.94  c-5.396,0-9.911,3.841-10.956,8.932c-0.149,0.727-0.228,1.48-0.228,2.251v170.623c0,0.793-0.025,1.579-0.067,2.362  c-0.014,0.258-0.04,0.512-0.059,0.769c-0.038,0.522-0.077,1.044-0.133,1.561c-0.033,0.303-0.076,0.603-0.115,0.905  c-0.061,0.466-0.123,0.93-0.198,1.391c-0.052,0.316-0.111,0.63-0.169,0.943c-0.083,0.442-0.169,0.882-0.265,1.319  c-0.069,0.315-0.142,0.629-0.218,0.942c-0.105,0.432-0.217,0.861-0.335,1.288c-0.084,0.306-0.17,0.612-0.261,0.916  c-0.129,0.431-0.268,0.857-0.411,1.283c-0.097,0.29-0.191,0.581-0.294,0.869c-0.16,0.446-0.333,0.886-0.507,1.326  c-0.102,0.256-0.198,0.516-0.304,0.77c-0.221,0.529-0.458,1.049-0.7,1.568c-0.073,0.156-0.139,0.317-0.214,0.472  c-0.321,0.667-0.659,1.324-1.013,1.972c-0.105,0.193-0.22,0.379-0.328,0.569c-0.257,0.454-0.516,0.907-0.789,1.351  c-0.15,0.244-0.309,0.481-0.463,0.722c-0.246,0.383-0.493,0.764-0.75,1.138c-0.173,0.252-0.353,0.498-0.531,0.746  c-0.254,0.353-0.51,0.704-0.775,1.049c-0.191,0.249-0.385,0.494-0.581,0.739c-0.268,0.335-0.541,0.665-0.819,0.992  c-0.202,0.237-0.405,0.474-0.612,0.707c-0.289,0.326-0.585,0.645-0.884,0.962c-0.208,0.22-0.414,0.441-0.627,0.657  c-0.32,0.325-0.648,0.641-0.978,0.956c-0.203,0.194-0.403,0.391-0.61,0.581c-0.385,0.353-0.78,0.695-1.177,1.034  c-0.141,0.121-0.275,0.249-0.418,0.367h262.105c18.319,0,33.224-14.904,33.224-33.224V278.37z M344.849,205.163c2.762,0,5-2.239,5-5  v-63.125c0-53.15-43.24-96.39-96.39-96.39c-53.15,0-96.391,43.24-96.391,96.39v36.646c0,2.761,2.238,5,5,5s5-2.239,5-5v-36.646  c0-47.636,38.755-86.39,86.391-86.39s86.39,38.754,86.39,86.39v63.125C339.849,202.924,342.087,205.163,344.849,205.163z   M121.42,178.685c2.762,0,5-2.239,5-5v-36.646C126.42,66.989,183.409,10,253.459,10c70.049,0,127.038,56.989,127.038,127.039v63.125  c0,2.761,2.238,5,5,5s5-2.239,5-5v-63.125C390.497,61.475,329.022,0,253.459,0S116.42,61.475,116.42,137.039v36.646  C116.42,176.446,118.658,178.685,121.42,178.685z M94.31,261.464c2.762,0,5-2.239,5-5v-6c0-2.761-2.238-5-5-5s-5,2.239-5,5v6  C89.31,259.226,91.548,261.464,94.31,261.464z M364.311,353.404c0,17.633-9.822,33.699-25.289,41.808v41.643  c0,12.083-9.83,21.914-21.913,21.914s-21.914-9.831-21.914-21.914v-41.643c-15.467-8.109-25.289-24.175-25.289-41.808  c0-26.028,21.175-47.203,47.203-47.203C343.136,306.201,364.311,327.376,364.311,353.404z M354.311,353.404  c0-20.514-16.688-37.203-37.202-37.203s-37.203,16.689-37.203,37.203c0,14.774,8.751,28.153,22.295,34.087  c1.819,0.796,2.994,2.594,2.994,4.58v44.785c0,6.569,5.345,11.914,11.914,11.914s11.913-5.344,11.913-11.914V392.07  c0-1.986,1.175-3.783,2.994-4.58C345.56,381.558,354.311,368.178,354.311,353.404z M44.5,490h-4.982c-2.762,0-5,2.239-5,5  s2.238,5,5,5H44.5c2.762,0,5-2.239,5-5S47.262,490,44.5,490z"/>
</svg>
