<?xml version="1.0" encoding="utf-8"?>
<!-- Generator: Adobe Illustrator 22.0.0, SVG Export Plug-In . SVG Version: 6.00 Build 0)  -->
<svg xmlns="http://www.w3.org/2000/svg" xmlns:xlink="http://www.w3.org/1999/xlink" version="1.1" id="Layer_1" x="0px" y="0px" viewBox="0 0 500 500" style="enable-background:new 0 0 500 500;" xml:space="preserve" width="512" height="512">
<style type="text/css">
	.st0{fill:#83E1E5;}
	.st1{fill:#AAB1BA;}
	.st2{fill:#ECF4F7;}
	.st3{fill:#FDDF7F;}
	.st4{fill:#1C1D21;}
	.st5{fill:#FFFFFF;}
</style>
<g>
	<g>
		<path class="st0" d="M251.691,292.137c-23.272,0-42.137-18.866-42.137-42.137s18.865-42.137,42.137-42.137    c16.649,0,31.039,9.658,37.883,23.675h93.288V25.433C382.862,14.148,373.714,5,362.429,5H137.571    c-11.285,0-20.433,9.148-20.433,20.433v206.105h26.936c-0.009,0.082-0.015,0.165-0.024,0.247    c-3.308,0.846-5.757,3.837-5.757,7.408v21.613c0,3.697,2.621,6.781,6.105,7.498c0.007,0.052,0.011,0.105,0.018,0.157h-27.278    v206.105c0,11.285,9.148,20.433,20.433,20.433h224.858c11.285,0,20.433-9.148,20.433-20.433V268.462h-93.288    C282.73,282.479,268.34,292.137,251.691,292.137z"/>
	</g>
</g>
<g>
	<g>
		<path class="st1" d="M288.158,40.629h-76.317c-7.174,0-12.99-5.816-12.99-12.99V5h102.297v22.639    C301.148,34.813,295.333,40.629,288.158,40.629z"/>
	</g>
</g>
<g>
	<g>
		<path class="st2" d="M138.294,260.807v-21.613c0-3.571,2.449-6.562,5.757-7.408c0.009-0.082,0.015-0.165,0.024-0.247H74.271    v36.924h70.146c-0.007-0.052-0.011-0.106-0.018-0.157C140.914,267.588,138.294,264.503,138.294,260.807z"/>
	</g>
</g>
<g>
	<g>
		<polygon class="st1" points="25.681,250 74.271,268.462 74.271,231.538   "/>
	</g>
</g>
<g>
	<g>
		<path class="st3" d="M251.691,292.137c-23.272,0-42.137-18.865-42.137-42.137c0-23.272,18.865-42.137,42.137-42.137    c16.649,0,31.039,9.658,37.883,23.675h42.048c-2.068-8.989-5.605-17.412-10.357-25.003l18.252-18.252    c2.99-2.99,2.99-7.837,0-10.826l-15.283-15.283c-2.99-2.989-7.836-2.989-10.826,0l-18.252,18.252    c-7.591-4.753-16.014-8.289-25.003-10.357v-25.812c0-4.228-3.427-7.655-7.655-7.655h-21.613c-4.228,0-7.655,3.427-7.655,7.655    v25.812c-8.989,2.068-17.412,5.605-25.003,10.357l-18.252-18.252c-2.99-2.989-7.836-2.989-10.826,0l-15.283,15.283    c-2.99,2.989-2.99,7.837,0,10.826l18.252,18.252c-4.753,7.591-8.289,16.014-10.357,25.003h-25.812    c-4.228,0-7.655,3.427-7.655,7.655v21.613c0,4.228,3.427,7.655,7.655,7.655h25.812c2.068,8.989,5.605,17.412,10.357,25.003    l-18.252,18.252c-2.99,2.989-2.99,7.836,0,10.826l15.283,15.283c2.99,2.99,7.836,2.99,10.826,0l18.252-18.252    c7.591,4.753,16.014,8.289,25.003,10.357v25.812c0,4.228,3.427,7.655,7.655,7.655h21.613c4.228,0,7.655-3.427,7.655-7.655v-25.812    c8.989-2.068,17.412-5.605,25.003-10.357l18.252,18.252c2.99,2.99,7.836,2.99,10.826,0l15.283-15.283    c2.99-2.99,2.99-7.837,0-10.826l-18.252-18.252c4.753-7.591,8.289-16.014,10.357-25.003h-42.048    C282.73,282.479,268.34,292.137,251.691,292.137z"/>
	</g>
</g>
<g>
	<g>
		<path class="st2" d="M460.539,231.538H289.574c-6.844-14.017-21.234-23.675-37.883-23.675c-23.272,0-42.137,18.865-42.137,42.137    s18.865,42.137,42.137,42.137c16.649,0,31.039-9.658,37.883-23.675h170.965c7.61,0,13.78-6.17,13.78-13.78v-9.363    C474.319,237.708,468.149,231.538,460.539,231.538z"/>
	</g>
</g>
<g>
	<g>
		<path class="st1" d="M460.539,231.538h-25.964v36.924h25.964c7.611,0,13.78-6.17,13.78-13.78v-9.364    C474.319,237.708,468.149,231.538,460.539,231.538z"/>
	</g>
</g>
<path class="st4" d="M387.861,285.309v189.259c0,14.023-11.409,25.433-25.433,25.433H137.571c-14.023,0-25.433-11.409-25.433-25.433  V285.194c0-2.761,2.238-5,5-5s5,2.239,5,5v189.374c0,8.51,6.923,15.433,15.433,15.433h224.857c8.51,0,15.433-6.923,15.433-15.433  V285.309c0-2.761,2.238-5,5-5S387.861,282.547,387.861,285.309z M112.139,214.264V25.433C112.139,11.409,123.548,0,137.571,0h61.28  h102.297h61.28c14.023,0,25.433,11.409,25.433,25.433v187.592c0,2.761-2.238,5-5,5s-5-2.239-5-5V25.433  c0-8.51-6.923-15.433-15.433-15.433h-56.28v17.639c0,9.92-8.07,17.99-17.99,17.99h-76.316c-9.92,0-17.99-8.07-17.99-17.99V10h-56.28  c-8.51,0-15.433,6.923-15.433,15.433v188.832c0,2.761-2.238,5-5,5S112.139,217.025,112.139,214.264z M203.852,10v17.639  c0,4.406,3.584,7.99,7.99,7.99h76.316c4.406,0,7.99-3.584,7.99-7.99V10H203.852z M73.321,273.366  c-0.133-0.026-0.257-0.072-0.385-0.107c-0.147-0.041-0.297-0.068-0.442-0.123l-48.589-18.462c-1.94-0.737-3.224-2.598-3.224-4.674  s1.283-3.937,3.224-4.674l48.589-18.462c0.23-0.088,0.465-0.152,0.702-0.204c0.057-0.012,0.114-0.021,0.172-0.031  c0.303-0.056,0.608-0.092,0.913-0.091h42.858c2.762,0,5,2.239,5,5s-2.238,5-5,5H79.271v26.924h37.868c2.762,0,5,2.239,5,5  s-2.238,5-5,5H74.271C73.953,273.462,73.635,273.427,73.321,273.366z M39.759,250l29.512,11.213v-22.427L39.759,250z   M251.691,212.863c2.762,0,5-2.239,5-5s-2.238-5-5-5c-25.991,0-47.137,21.146-47.137,47.137c0,25.992,21.146,47.137,47.137,47.137  c2.762,0,5-2.239,5-5s-2.238-5-5-5c-20.478,0-37.137-16.66-37.137-37.137C214.555,229.523,231.214,212.863,251.691,212.863z   M346.759,182.87c0-3.38-1.316-6.559-3.707-8.949l-15.282-15.283c-2.391-2.39-5.568-3.707-8.948-3.707  c-3.381,0-6.559,1.316-8.948,3.707l-15.504,15.504c-6.069-3.421-12.505-6.087-19.216-7.96v-21.926  c0-6.978-5.677-12.655-12.655-12.655h-21.613c-6.979,0-12.655,5.677-12.655,12.655v21.926c-6.71,1.872-13.146,4.539-19.216,7.96  l-15.504-15.504c-2.391-2.39-5.568-3.707-8.948-3.707c-3.381,0-6.559,1.316-8.948,3.707l-15.284,15.283  c-4.933,4.934-4.933,12.962,0.001,17.897l15.504,15.504c-3.42,6.066-6.087,12.503-7.959,19.215h-21.927  c-6.978,0-12.654,5.677-12.654,12.655v21.613c0,6.978,5.677,12.655,12.654,12.655h21.927c1.872,6.712,4.539,13.148,7.959,19.215  l-15.505,15.505c-4.933,4.934-4.933,12.962,0.001,17.897l15.282,15.282c2.391,2.391,5.568,3.707,8.949,3.707  c3.38,0,6.558-1.316,8.948-3.707l15.504-15.504c6.068,3.421,12.506,6.088,19.216,7.96v21.926c0,6.978,5.677,12.655,12.655,12.655  h21.613c6.979,0,12.655-5.677,12.655-12.655v-21.926c6.711-1.873,13.147-4.539,19.216-7.96l15.503,15.504  c2.391,2.391,5.568,3.707,8.949,3.707c3.38,0,6.558-1.316,8.948-3.707l15.282-15.283c2.391-2.39,3.707-5.568,3.707-8.949  s-1.316-6.559-3.707-8.949l-15.505-15.505c1.359-2.415,2.607-4.902,3.729-7.433c1.119-2.525-0.021-5.479-2.546-6.597  c-2.523-1.119-5.479,0.022-6.597,2.546c-1.471,3.32-3.188,6.556-5.106,9.619c-1.236,1.975-0.944,4.542,0.703,6.189l18.252,18.252  c0.502,0.502,0.777,1.168,0.777,1.877s-0.275,1.375-0.777,1.877l-15.282,15.283c-1.004,1.003-2.752,1.004-3.756,0l-18.252-18.252  c-1.647-1.647-4.213-1.939-6.188-0.702c-7.243,4.535-15.141,7.806-23.471,9.723c-2.271,0.522-3.879,2.543-3.879,4.873v25.812  c0,1.464-1.191,2.655-2.655,2.655h-21.613c-1.464,0-2.655-1.191-2.655-2.655v-25.812c0-2.33-1.608-4.351-3.879-4.873  c-8.33-1.917-16.227-5.188-23.471-9.723c-1.975-1.236-4.542-0.945-6.188,0.702l-18.252,18.252c-1.004,1.003-2.752,1.004-3.756,0  l-15.282-15.282c-1.035-1.036-1.035-2.72-0.001-3.755L185.653,297c1.647-1.647,1.939-4.214,0.703-6.189  c-4.534-7.242-7.806-15.138-9.723-23.47c-0.522-2.271-2.544-3.879-4.873-3.879h-25.813c-1.464,0-2.654-1.191-2.654-2.655v-21.613  c0-1.464,1.19-2.655,2.654-2.655h25.813c2.329,0,4.351-1.608,4.873-3.879c1.917-8.332,5.188-16.229,9.723-23.47  c1.236-1.975,0.944-4.542-0.703-6.189l-18.252-18.252c-1.035-1.036-1.035-2.72-0.001-3.755l15.284-15.283  c1.002-1.003,2.751-1.002,3.755,0l18.252,18.252c1.646,1.646,4.212,1.938,6.188,0.703c7.245-4.536,15.142-7.807,23.471-9.723  c2.271-0.522,3.879-2.543,3.879-4.873v-25.812c0-1.464,1.191-2.655,2.655-2.655h21.613c1.464,0,2.655,1.191,2.655,2.655v25.812  c0,2.33,1.608,4.351,3.879,4.873c8.329,1.917,16.226,5.188,23.471,9.723c1.976,1.236,4.542,0.944,6.188-0.703l18.253-18.253  c1.002-1.003,2.751-1.002,3.755,0l15.282,15.283c0.502,0.502,0.777,1.168,0.777,1.877s-0.275,1.375-0.777,1.877L317.729,203  c-1.647,1.647-1.939,4.214-0.703,6.189c1.84,2.938,3.496,6.036,4.923,9.207c1.133,2.518,4.094,3.643,6.611,2.508  c2.519-1.133,3.641-4.093,2.508-6.611c-1.065-2.368-2.244-4.7-3.521-6.968l15.505-15.505  C345.442,189.429,346.759,186.25,346.759,182.87z M479.318,245.318v9.363c0,10.355-8.425,18.78-18.779,18.78H252.82  c-2.762,0-5-2.239-5-5s2.238-5,5-5h176.755v-26.924H252.82c-2.762,0-5-2.239-5-5s2.238-5,5-5h207.719  C470.894,226.538,479.318,234.963,479.318,245.318z M469.318,245.318c0-4.841-3.938-8.78-8.779-8.78h-20.964v26.924h20.964  c4.841,0,8.779-3.939,8.779-8.78V245.318z M178.244,460.81c-2.762,0-5,2.239-5,5s2.238,5,5,5h143.512c2.762,0,5-2.239,5-5  s-2.238-5-5-5H178.244z M231.589,26.394h15.295c2.762,0,5-2.239,5-5s-2.238-5-5-5h-15.295c-2.762,0-5,2.239-5,5  S228.827,26.394,231.589,26.394z M265.497,26.394h2.914c2.762,0,5-2.239,5-5s-2.238-5-5-5h-2.914c-2.762,0-5,2.239-5,5  S262.735,26.394,265.497,26.394z"/>
</svg>
