<?xml version="1.0" encoding="utf-8"?>
<!-- Generator: Adobe Illustrator 22.0.0, SVG Export Plug-In . SVG Version: 6.00 Build 0)  -->
<svg xmlns="http://www.w3.org/2000/svg" xmlns:xlink="http://www.w3.org/1999/xlink" version="1.1" id="Layer_1" x="0px" y="0px" viewBox="0 0 500 500" style="enable-background:new 0 0 500 500;" xml:space="preserve" width="512" height="512">
<style type="text/css">
	.st0{fill:#83E1E5;}
	.st1{fill:#AAB1BA;}
	.st2{fill:#ECF4F7;}
	.st3{fill:#FDDF7F;}
	.st4{fill:#1C1D21;}
	.st5{fill:#FFFFFF;}
</style>
<g>
	<g>
		<path class="st2" d="M411.573,344.75V223.83l18.462-48.589l0,0V79.91L355.125,5H193.738v74.91h79.682    c10.209,0,18.486,8.276,18.486,18.485V344.75H411.573z"/>
	</g>
</g>
<g>
	<g>
		<polygon class="st1" points="430.035,79.91 355.125,79.91 355.125,5   "/>
	</g>
</g>
<g>
	<g>
		<path class="st0" d="M273.42,79.91H69.989c-10.209,0-18.486,8.276-18.486,18.486v378.119c0,10.209,8.276,18.486,18.486,18.486    H273.42c10.209,0,18.486-8.276,18.486-18.486V98.395C291.905,88.186,283.629,79.91,273.42,79.91z"/>
	</g>
</g>
<g>
	<g>
		<circle class="st2" cx="171.704" cy="296.865" r="53.507"/>
	</g>
</g>
<g>
	<g>
		<polygon class="st3" points="156.085,268.448 156.085,325.282 202.81,296.865   "/>
	</g>
</g>
<g>
	<g>
		<path class="st1" d="M209.804,115.484h-76.2c-7.163,0-12.97-5.807-12.97-12.97V79.91h102.14v22.604    C222.775,109.677,216.968,115.484,209.804,115.484z"/>
	</g>
</g>
<g>
	<g>
		<path class="st3" d="M411.573,223.83v257.39c0,7.61,6.17,13.78,13.78,13.78h9.363c7.611,0,13.78-6.169,13.78-13.78V223.83H411.573    z"/>
	</g>
</g>
<g>
	<g>
		<polygon class="st1" points="430.034,175.241 411.573,223.83 448.496,223.83   "/>
	</g>
</g>
<g>
	<g>
		<path class="st1" d="M448.496,481.22v-25.964h-36.924v25.964c0,7.611,6.17,13.78,13.78,13.78h9.364    C442.327,495,448.496,488.831,448.496,481.22z"/>
	</g>
</g>
<path class="st4" d="M129.419,15.833c0-2.762,2.238-5,5-5h5.833V5c0-2.762,2.238-5,5-5s5,2.238,5,5v5.833h5.833c2.762,0,5,2.238,5,5  s-2.238,5-5,5h-5.833v5.833c0,2.762-2.238,5-5,5s-5-2.238-5-5v-5.833h-5.833C131.657,20.833,129.419,18.595,129.419,15.833z   M362.572,392.299h-5.833v-5.833c0-2.762-2.238-5-5-5s-5,2.238-5,5v5.833h-5.833c-2.762,0-5,2.238-5,5s2.238,5,5,5h5.833v5.833  c0,2.762,2.238,5,5,5s5-2.238,5-5v-5.833h5.833c2.762,0,5-2.238,5-5S365.334,392.299,362.572,392.299z M188.738,60.144V5  c0-2.762,2.238-5,5-5h161.387c0.031,0,0.062,0.009,0.093,0.009c0.592,0.011,1.175,0.127,1.727,0.343  c0.078,0.031,0.153,0.066,0.23,0.101c0.2,0.09,0.393,0.194,0.581,0.311c0.072,0.045,0.145,0.086,0.214,0.135  c0.243,0.168,0.476,0.352,0.69,0.566l74.91,74.909c0.213,0.213,0.397,0.446,0.565,0.688c0.05,0.071,0.092,0.145,0.138,0.219  c0.115,0.186,0.218,0.377,0.307,0.575c0.036,0.079,0.073,0.156,0.104,0.236c0.105,0.27,0.194,0.544,0.251,0.827  c0.001,0.004,0.002,0.008,0.003,0.012c0.058,0.29,0.081,0.584,0.087,0.88c0.001,0.033,0.01,0.065,0.01,0.099v74.455  c0,2.762-2.238,5-5,5s-5-2.238-5-5V84.909h-69.91c-2.762,0-5-2.238-5-5V10H198.738v50.144c0,2.762-2.238,5-5,5  S188.738,62.905,188.738,60.144z M360.125,74.909h57.839L389.044,45.99l-28.919-28.919V74.909z M392.244,339.75h-80.357  c-2.762,0-5,2.238-5,5s2.238,5,5,5h80.357c2.762,0,5-2.238,5-5S395.006,339.75,392.244,339.75z M101.786,468.592  c0,2.762,2.238,5,5,5h129.837c2.762,0,5-2.238,5-5s-2.238-5-5-5H106.786C104.024,463.592,101.786,465.83,101.786,468.592z   M153.321,101.278h15.272c2.762,0,5-2.238,5-5s-2.238-5-5-5h-15.272c-2.762,0-5,2.238-5,5S150.56,101.278,153.321,101.278z   M187.178,101.278h2.909c2.762,0,5-2.238,5-5s-2.238-5-5-5h-2.909c-2.762,0-5,2.238-5,5S184.416,101.278,187.178,101.278z   M296.905,98.396v378.119c0,12.95-10.535,23.485-23.485,23.485H69.989c-12.95,0-23.486-10.535-23.486-23.485V195.082  c0-2.762,2.238-5,5-5s5,2.238,5,5v281.433c0,7.436,6.05,13.485,13.486,13.485H273.42c7.436,0,13.485-6.05,13.485-13.485V98.396  c0-7.437-6.05-13.486-13.485-13.486h-45.646v17.604c0,9.908-8.062,17.97-17.97,17.97h-76.2c-9.908,0-17.97-8.062-17.97-17.97V84.909  H69.989c-7.437,0-13.486,6.05-13.486,13.486v55.969c0,2.762-2.238,5-5,5s-5-2.238-5-5V98.396c0-12.95,10.536-23.486,23.486-23.486  h50.646h102.14h50.646C286.37,74.909,296.905,85.445,296.905,98.396z M217.774,84.909h-92.14v17.604c0,4.395,3.575,7.97,7.97,7.97  h76.2c4.395,0,7.97-3.575,7.97-7.97V84.909z M51.503,183.62c2.762,0,5-2.238,5-5v-4.745c0-2.762-2.238-5-5-5s-5,2.238-5,5v4.745  C46.503,181.382,48.741,183.62,51.503,183.62z M205.408,301.137l-46.726,28.417c-0.797,0.484-1.696,0.728-2.598,0.728  c-0.844,0-1.688-0.214-2.45-0.642c-1.575-0.886-2.55-2.552-2.55-4.358v-56.834c0-1.807,0.975-3.473,2.55-4.358  c1.575-0.885,3.505-0.852,5.048,0.086l46.726,28.417c1.492,0.907,2.402,2.526,2.402,4.272S206.9,300.229,205.408,301.137z   M193.188,296.864l-32.104-19.524v39.049L193.188,296.864z M171.704,355.372c-32.261,0-58.507-26.246-58.507-58.508  c0-32.261,26.246-58.507,58.507-58.507c32.262,0,58.508,26.246,58.508,58.507C230.212,329.126,203.966,355.372,171.704,355.372z   M171.704,345.372c26.747,0,48.508-21.761,48.508-48.508s-21.761-48.507-48.508-48.507s-48.507,21.76-48.507,48.507  S144.957,345.372,171.704,345.372z M453.496,223.83v257.39c0,10.355-8.425,18.78-18.779,18.78h-9.364  c-10.354,0-18.779-8.425-18.779-18.78V223.83c0-0.002,0-0.004,0-0.006c0-0.297,0.036-0.594,0.09-0.89  c0.011-0.062,0.02-0.123,0.033-0.184c0.052-0.235,0.115-0.468,0.202-0.696l18.461-48.589c0.737-1.941,2.598-3.225,4.674-3.225  s3.937,1.283,4.674,3.224l18.462,48.589c0.087,0.229,0.151,0.462,0.203,0.698c0.013,0.06,0.022,0.121,0.033,0.182  c0.054,0.295,0.089,0.593,0.09,0.891C453.496,223.826,453.496,223.828,453.496,223.83z M418.821,218.83h22.426l-11.213-29.512  L418.821,218.83z M443.496,460.257h-26.923v20.963c0,4.842,3.938,8.78,8.779,8.78h9.364c4.841,0,8.779-3.938,8.779-8.78V460.257z   M443.496,228.83h-26.923v221.427h26.923V228.83z M383.058,105.569h-58.667c-2.762,0-5,2.238-5,5s2.238,5,5,5h58.667  c2.762,0,5-2.238,5-5S385.819,105.569,383.058,105.569z M383.058,130.366h-58.667c-2.762,0-5,2.238-5,5s2.238,5,5,5h58.667  c2.762,0,5-2.238,5-5S385.819,130.366,383.058,130.366z M383.058,155.164h-58.667c-2.762,0-5,2.238-5,5s2.238,5,5,5h58.667  c2.762,0,5-2.238,5-5S385.819,155.164,383.058,155.164z M383.058,179.961h-58.667c-2.762,0-5,2.238-5,5s2.238,5,5,5h58.667  c2.762,0,5-2.238,5-5S385.819,179.961,383.058,179.961z M383.058,204.759h-58.667c-2.762,0-5,2.238-5,5s2.238,5,5,5h58.667  c2.762,0,5-2.238,5-5S385.819,204.759,383.058,204.759z"/>
</svg>
