<?xml version="1.0" encoding="utf-8"?>
<!-- Generator: Adobe Illustrator 22.0.0, SVG Export Plug-In . SVG Version: 6.00 Build 0)  -->
<svg xmlns="http://www.w3.org/2000/svg" xmlns:xlink="http://www.w3.org/1999/xlink" version="1.1" id="Layer_1" x="0px" y="0px" viewBox="0 0 500 500" style="enable-background:new 0 0 500 500;" xml:space="preserve" width="512" height="512">
<style type="text/css">
	.st0{fill:#83E1E5;}
	.st1{fill:#AAB1BA;}
	.st2{fill:#ECF4F7;}
	.st3{fill:#FDDF7F;}
	.st4{fill:#1C1D21;}
	.st5{fill:#FFFFFF;}
</style>
<g>
	<g>
		<path class="st0" d="M285.509,374.767c0-16.548,9.57-31.748,24.691-38.47c53.728-23.885,90.632-78.755,88.007-141.927    c-3.249-78.218-67.811-140.908-146.089-142.001c-82.896-1.157-150.457,65.694-150.457,148.324    c0,61.07,36.905,113.518,89.63,136.264c15.515,6.693,25.574,21.956,25.574,38.853v18.813h68.644V374.767z"/>
	</g>
</g>
<g>
	<g>
		<path class="st3" d="M336.322,188.064c0-7.586-6.149-13.735-13.735-13.735h-58.863c-10.317,0-18.681-8.364-18.681-18.681v-39.388    c0-14.792-11.991-26.783-26.783-26.783h-9.003v66.058c0,26.29-21.312,47.603-47.602,47.603h-59.97    c0.486,30.041,9.903,57.909,25.711,81.069h163.179h32.013c7.586,0,13.735-6.149,13.735-13.735c0-7.586-6.149-13.735-13.735-13.735    c7.586,0,13.735-6.149,13.735-13.735s-6.149-13.735-13.735-13.735c7.586,0,13.735-6.149,13.735-13.735l0,0    c0-7.585-6.149-13.735-13.735-13.735C330.173,201.799,336.322,195.649,336.322,188.064z"/>
	</g>
</g>
<g>
	<g>
		<path class="st1" d="M258.565,495h-17.129c-8.803,0-15.94-7.137-15.94-15.94v-27.803h49.009v27.803    C274.504,487.863,267.368,495,258.565,495z"/>
	</g>
</g>
<g>
	<g>
		<path class="st2" d="M303.772,415.051v-12.539c0-4.357-3.532-7.889-7.889-7.889h-91.766c-4.357,0-7.889,3.532-7.889,7.889v12.539    c0,4.357,3.532,7.889,7.889,7.889c-4.357,0-7.889,3.532-7.889,7.889v12.539c0,4.357,3.532,7.889,7.889,7.889h91.766    c4.357,0,7.889-3.532,7.889-7.889v-12.539c0-4.357-3.532-7.889-7.889-7.889C300.24,422.94,303.772,419.408,303.772,415.051z"/>
	</g>
</g>
<path class="st4" d="M234.167,15.833c0-2.762,2.238-5,5-5H245V5c0-2.762,2.238-5,5-5s5,2.238,5,5v5.833h5.833c2.762,0,5,2.238,5,5  s-2.238,5-5,5H255v5.833c0,2.762-2.238,5-5,5s-5-2.238-5-5v-5.833h-5.833C236.405,20.833,234.167,18.595,234.167,15.833z   M81.068,165.164c2.762,0,5-2.238,5-5s-2.238-5-5-5h-5.833v-5.833c0-2.762-2.238-5-5-5s-5,2.238-5,5v5.833h-5.833  c-2.762,0-5,2.238-5,5s2.238,5,5,5h5.833v5.833c0,2.762,2.238,5,5,5s5-2.238,5-5v-5.833H81.068z M440.598,155.164h-5.833v-5.833  c0-2.762-2.238-5-5-5s-5,2.238-5,5v5.833h-5.833c-2.762,0-5,2.238-5,5s2.238,5,5,5h5.833v5.833c0,2.762,2.238,5,5,5s5-2.238,5-5  v-5.833h5.833c2.762,0,5-2.238,5-5S443.359,155.164,440.598,155.164z M403.203,194.163c1.31,31.517-6.867,62.147-23.646,88.582  c-16.307,25.691-39.588,45.789-67.326,58.121c-13.196,5.865-21.723,19.172-21.723,33.9v14.856h5.374  c7.106,0,12.889,5.782,12.889,12.889v12.539c0,2.973-1.022,5.707-2.719,7.89c1.697,2.183,2.719,4.916,2.719,7.889v12.539  c0,7.107-5.782,12.89-12.889,12.89h-16.378v22.803c0,4.012-1.154,7.751-3.119,10.939h35.161c2.762,0,5,2.238,5,5s-2.238,5-5,5  h-52.982h-17.129h-52.982c-2.762,0-5-2.238-5-5s2.238-5,5-5h35.161c-1.965-3.188-3.119-6.927-3.119-10.939v-22.803h-16.378  c-7.106,0-12.889-5.782-12.889-12.89v-12.539c0-2.973,1.022-5.706,2.719-7.889c-1.697-2.183-2.719-4.917-2.719-7.89v-12.539  c0-7.106,5.782-12.889,12.889-12.889h7.748v-13.813c0-14.903-8.854-28.352-22.555-34.263  c-25.926-11.185-48.166-29.261-64.507-52.341H83.93c-2.762,0-5-2.238-5-5s2.238-5,5-5h190.073c-0.224-0.423-0.425-0.858-0.617-1.299  c-0.047-0.108-0.092-0.218-0.137-0.328c-0.203-0.493-0.391-0.993-0.552-1.505c-0.016-0.051-0.028-0.104-0.044-0.155  c-0.148-0.487-0.274-0.982-0.383-1.484c-0.022-0.102-0.046-0.202-0.067-0.303c-0.105-0.528-0.186-1.064-0.246-1.607  c-0.012-0.112-0.021-0.225-0.031-0.337c-0.052-0.566-0.087-1.137-0.087-1.716c0-0.663,0.037-1.316,0.104-1.961  c0.022-0.214,0.067-0.421,0.097-0.633c0.06-0.426,0.116-0.854,0.204-1.271c0.052-0.247,0.126-0.485,0.188-0.729  c0.094-0.372,0.184-0.744,0.3-1.106c0.081-0.254,0.182-0.498,0.274-0.747c0.125-0.339,0.246-0.68,0.39-1.009  c0.109-0.25,0.236-0.491,0.355-0.736c0.153-0.313,0.304-0.627,0.474-0.931c0.136-0.242,0.285-0.474,0.431-0.709  c0.18-0.29,0.359-0.58,0.554-0.859c0.16-0.23,0.333-0.45,0.503-0.672c0.205-0.267,0.409-0.532,0.627-0.787  c0.184-0.215,0.377-0.42,0.57-0.626c0.227-0.243,0.455-0.482,0.695-0.712c0.082-0.08,0.156-0.168,0.24-0.246  c-0.083-0.078-0.156-0.166-0.239-0.245c-0.24-0.231-0.469-0.471-0.697-0.714c-0.193-0.206-0.385-0.411-0.568-0.625  c-0.219-0.256-0.424-0.521-0.629-0.789c-0.17-0.222-0.341-0.441-0.501-0.67c-0.195-0.279-0.374-0.569-0.554-0.86  c-0.146-0.235-0.296-0.467-0.431-0.709c-0.17-0.303-0.32-0.616-0.473-0.929c-0.12-0.246-0.247-0.487-0.356-0.739  c-0.143-0.328-0.264-0.667-0.388-1.005c-0.092-0.25-0.194-0.496-0.275-0.751c-0.115-0.36-0.205-0.732-0.298-1.102  c-0.062-0.245-0.137-0.484-0.189-0.733c-0.088-0.416-0.144-0.842-0.204-1.267c-0.03-0.213-0.075-0.421-0.097-0.636  c-0.067-0.645-0.104-1.299-0.104-1.961s0.037-1.316,0.104-1.961c0.022-0.215,0.068-0.423,0.097-0.636  c0.059-0.425,0.116-0.851,0.204-1.267c0.052-0.249,0.127-0.488,0.189-0.733c0.094-0.37,0.183-0.741,0.298-1.102  c0.082-0.255,0.183-0.5,0.275-0.75c0.125-0.338,0.245-0.678,0.388-1.006c0.11-0.251,0.236-0.492,0.356-0.738  c0.153-0.313,0.304-0.627,0.474-0.93c0.135-0.242,0.285-0.474,0.431-0.709c0.18-0.291,0.359-0.581,0.554-0.86  c0.16-0.229,0.332-0.449,0.501-0.67c0.205-0.268,0.411-0.533,0.629-0.789c0.183-0.214,0.375-0.419,0.568-0.625  c0.228-0.243,0.457-0.483,0.697-0.714c0.082-0.079,0.155-0.167,0.239-0.245c-0.084-0.078-0.157-0.166-0.24-0.246  c-0.24-0.23-0.468-0.47-0.695-0.712c-0.193-0.206-0.386-0.412-0.57-0.626c-0.218-0.255-0.423-0.521-0.627-0.787  c-0.17-0.223-0.343-0.442-0.503-0.672c-0.195-0.279-0.374-0.569-0.554-0.859c-0.146-0.235-0.296-0.467-0.431-0.709  c-0.17-0.304-0.321-0.618-0.474-0.931c-0.12-0.245-0.246-0.486-0.355-0.736c-0.144-0.33-0.265-0.67-0.39-1.009  c-0.092-0.249-0.193-0.493-0.274-0.747c-0.116-0.362-0.206-0.734-0.3-1.106c-0.062-0.244-0.136-0.482-0.188-0.729  c-0.088-0.417-0.145-0.844-0.204-1.271c-0.03-0.212-0.074-0.418-0.097-0.633c-0.067-0.645-0.104-1.298-0.104-1.961  c0-0.662,0.037-1.315,0.104-1.96c0.023-0.219,0.069-0.431,0.099-0.647c0.059-0.421,0.115-0.844,0.202-1.255  c0.053-0.254,0.129-0.499,0.193-0.749c0.093-0.364,0.18-0.729,0.294-1.084c0.084-0.262,0.188-0.513,0.282-0.77  c0.122-0.331,0.24-0.664,0.381-0.985c0.112-0.258,0.242-0.505,0.365-0.757c0.15-0.306,0.297-0.613,0.463-0.91  c0.139-0.249,0.292-0.486,0.442-0.727c0.177-0.284,0.352-0.568,0.543-0.842c0.163-0.234,0.338-0.457,0.511-0.683  c0.202-0.264,0.405-0.526,0.621-0.778c0.185-0.217,0.379-0.423,0.574-0.631c0.226-0.242,0.455-0.481,0.693-0.711  c0.083-0.079,0.156-0.167,0.239-0.245c-0.084-0.078-0.157-0.166-0.239-0.245c-0.239-0.229-0.467-0.469-0.693-0.711  c-0.195-0.208-0.389-0.414-0.574-0.631c-0.216-0.252-0.418-0.515-0.621-0.778c-0.173-0.226-0.348-0.449-0.511-0.683  c-0.191-0.274-0.366-0.558-0.543-0.842c-0.15-0.241-0.303-0.479-0.442-0.727c-0.166-0.296-0.313-0.603-0.463-0.909  c-0.124-0.252-0.253-0.5-0.366-0.758c-0.14-0.321-0.258-0.654-0.38-0.984c-0.095-0.257-0.199-0.509-0.282-0.771  c-0.114-0.355-0.201-0.721-0.294-1.084c-0.063-0.25-0.139-0.495-0.193-0.749c-0.087-0.412-0.143-0.834-0.202-1.255  c-0.03-0.216-0.076-0.428-0.099-0.647c-0.067-0.645-0.104-1.298-0.104-1.96c0-0.581,0.035-1.154,0.087-1.723  c0.01-0.107,0.018-0.214,0.03-0.321c0.06-0.55,0.143-1.094,0.249-1.63c0.017-0.085,0.038-0.17,0.056-0.256  c0.242-1.132,0.586-2.229,1.025-3.28c0.019-0.045,0.037-0.091,0.057-0.136c0.201-0.472,0.414-0.938,0.653-1.39h-10.271  c-5.094,0-9.814-1.622-13.681-4.37v1.999c0,18.218-7.095,35.345-19.976,48.228c-0.977,0.977-2.257,1.465-3.536,1.465  s-2.559-0.488-3.535-1.464c-1.953-1.953-1.953-5.119-0.001-7.071c10.993-10.994,17.048-25.61,17.048-41.157v-21.31v-1.463v-37.925  c0-12.012-9.771-21.783-21.783-21.783h-4.003v61.059c0,29.005-23.598,52.603-52.603,52.603H116.27c-2.762,0-5-2.238-5-5s2.238-5,5-5  h45.385c23.491,0,42.603-19.111,42.603-42.603V89.478c0-2.762,2.238-5,5-5h9.003c17.525,0,31.783,14.258,31.783,31.783v37.925v1.463  c0,7.544,6.137,13.681,13.681,13.681h26.069c0.09,0,0.173,0.021,0.261,0.026c0.174-0.005,0.344-0.026,0.52-0.026h32.013  c10.331,0,18.735,8.404,18.735,18.734c0,5.429-2.335,10.311-6.036,13.735c3.701,3.425,6.036,8.306,6.036,13.734  c0,5.429-2.335,10.311-6.036,13.735c3.701,3.425,6.036,8.306,6.036,13.734s-2.335,10.31-6.036,13.734  c3.701,3.425,6.036,8.307,6.036,13.735c0,7.478-4.415,13.928-10.766,16.93c-0.917,1.094-2.277,1.805-3.816,1.805h-4.153h-32.013  H137.256c14.789,18.829,33.983,33.654,56.015,43.159c17.37,7.493,28.594,24.546,28.594,43.444v13.813h58.644v-14.856  c0-18.676,10.857-35.569,27.66-43.039c54.124-24.061,87.505-77.896,85.042-137.149c-3.151-75.879-65.157-136.148-141.162-137.21  c-38.689-0.488-75.162,14.113-102.69,41.259c-27.533,27.152-42.697,63.4-42.697,102.066c0,20.952,4.416,41.142,13.126,60.008  c1.158,2.507,0.063,5.478-2.443,6.636c-2.507,1.156-5.477,0.064-6.636-2.444c-9.32-20.19-14.047-41.79-14.047-64.199  c0-41.363,16.222-80.14,45.676-109.187c29.449-29.04,68.506-44.717,109.851-44.137c39.149,0.546,76.295,15.992,104.596,43.491  C385.093,118.37,401.578,155.057,403.203,194.163z M322.587,261.737h-32.013c-4.816,0-8.735,3.919-8.735,8.735  s3.919,8.734,8.735,8.734h32.013c4.816,0,8.735-3.918,8.735-8.734S327.403,261.737,322.587,261.737z M322.587,234.269h-32.013  c-4.816,0-8.735,3.918-8.735,8.734s3.919,8.734,8.735,8.734h32.013c4.816,0,8.735-3.918,8.735-8.734  S327.403,234.269,322.587,234.269z M322.587,206.799h-32.013c-4.816,0-8.735,3.918-8.735,8.734s3.919,8.735,8.735,8.735h32.013  c4.816,0,8.735-3.919,8.735-8.735S327.403,206.799,322.587,206.799z M322.587,179.329h-32.013c-0.719,0-1.415,0.097-2.084,0.262  c-0.013,0.003-0.025,0.009-0.038,0.013c-0.952,0.238-1.832,0.627-2.621,1.136c-0.02,0.013-0.041,0.024-0.061,0.037  c-0.113,0.074-0.22,0.156-0.329,0.235c-0.111,0.081-0.223,0.161-0.331,0.247c-0.081,0.065-0.159,0.134-0.238,0.202  c-0.129,0.111-0.256,0.225-0.378,0.343c-0.062,0.06-0.122,0.12-0.182,0.181c-0.135,0.139-0.265,0.282-0.39,0.429  c-0.044,0.051-0.089,0.102-0.131,0.154c-0.145,0.179-0.283,0.363-0.414,0.553c-0.019,0.027-0.039,0.053-0.058,0.08  c-0.299,0.445-0.558,0.919-0.772,1.417c-0.027,0.063-0.051,0.129-0.076,0.193c-0.073,0.18-0.141,0.362-0.201,0.548  c-0.028,0.087-0.054,0.176-0.08,0.265c-0.05,0.169-0.094,0.341-0.133,0.514c-0.022,0.096-0.043,0.191-0.062,0.288  c-0.035,0.181-0.061,0.365-0.084,0.55c-0.011,0.087-0.025,0.174-0.033,0.262c-0.026,0.272-0.042,0.547-0.042,0.826  c0,4.816,3.919,8.735,8.735,8.735h32.013c4.816,0,8.735-3.918,8.735-8.734S327.403,179.329,322.587,179.329z M269.505,456.258  h-39.01v22.803c0,6.032,4.908,10.939,10.94,10.939h17.129c6.032,0,10.94-4.907,10.94-10.939V456.258z M298.771,430.829  c0-1.593-1.296-2.889-2.889-2.889h-91.766c-1.593,0-2.889,1.296-2.889,2.889v12.539c0,1.594,1.296,2.89,2.889,2.89h21.378h49.01  h21.378c1.593,0,2.889-1.296,2.889-2.89V430.829z M295.883,399.623h-10.374h-68.644h-12.748c-1.593,0-2.889,1.296-2.889,2.889  v12.539c0,1.594,1.296,2.89,2.889,2.89h91.766c1.593,0,2.889-1.296,2.889-2.89v-12.539  C298.771,400.919,297.476,399.623,295.883,399.623z M170.41,490h-4.316c-2.762,0-5,2.238-5,5s2.238,5,5,5h4.316c2.762,0,5-2.238,5-5  S173.172,490,170.41,490z M333.906,490h-4.316c-2.762,0-5,2.238-5,5s2.238,5,5,5h4.316c2.762,0,5-2.238,5-5S336.668,490,333.906,490  z M64.886,279.207h-5.483c-2.762,0-5,2.238-5,5s2.238,5,5,5h5.483c2.762,0,5-2.238,5-5S67.647,279.207,64.886,279.207z"/>
</svg>
