<?xml version="1.0" encoding="utf-8"?>
<!-- Generator: Adobe Illustrator 22.0.0, SVG Export Plug-In . SVG Version: 6.00 Build 0)  -->
<svg xmlns="http://www.w3.org/2000/svg" xmlns:xlink="http://www.w3.org/1999/xlink" version="1.1" id="Layer_1" x="0px" y="0px" viewBox="0 0 500 500" style="enable-background:new 0 0 500 500;" xml:space="preserve" width="512" height="512">
<style type="text/css">
	.st0{fill:#83E1E5;}
	.st1{fill:#AAB1BA;}
	.st2{fill:#ECF4F7;}
	.st3{fill:#FDDF7F;}
	.st4{fill:#1C1D21;}
	.st5{fill:#FFFFFF;}
</style>
<g>
	<g>
		<path class="st2" d="M305.746,5H144.17v148.989v85.13c30.273,5.441,66.67,8.615,105.83,8.615s75.556-3.174,105.83-8.615v-85.13    V55.083L305.746,5z"/>
	</g>
</g>
<g>
	<g>
		<path class="st3" d="M314.146,139.982v-12.226c0-2.392-1.939-4.33-4.33-4.33h-14.601c-1.17-5.085-3.17-9.849-5.859-14.143    l10.325-10.325c1.691-1.691,1.691-4.433,0-6.124l-8.645-8.645c-1.691-1.691-4.433-1.691-6.124,0l-10.325,10.325    c-4.294-2.688-9.059-4.689-14.143-5.859V74.053c0-2.392-1.939-4.33-4.33-4.33h-12.226c-2.392,0-4.33,1.939-4.33,4.33v14.601    c-5.085,1.17-9.849,3.17-14.143,5.859l-10.325-10.325c-1.691-1.691-4.433-1.691-6.124,0l-8.645,8.645    c-1.691,1.691-1.691,4.433,0,6.124l10.325,10.325c-2.688,4.294-4.689,9.059-5.859,14.143h-14.601c-2.392,0-4.33,1.939-4.33,4.33    v12.226c0,2.392,1.939,4.33,4.33,4.33h14.601c1.17,5.085,3.17,9.849,5.859,14.143L200.32,168.78c-1.691,1.691-1.691,4.433,0,6.124    l8.645,8.645c1.691,1.691,4.433,1.691,6.124,0l10.325-10.325c4.294,2.688,9.059,4.689,14.143,5.859v14.601    c0,2.392,1.939,4.33,4.33,4.33h12.226c2.392,0,4.33-1.939,4.33-4.33v-14.601c5.085-1.17,9.849-3.17,14.143-5.859l10.325,10.325    c1.691,1.691,4.433,1.691,6.124,0l8.645-8.645c1.691-1.691,1.691-4.433,0-6.124l-10.325-10.325    c2.688-4.294,4.689-9.059,5.859-14.143h14.601C312.207,144.312,314.146,142.373,314.146,139.982z"/>
	</g>
</g>
<g>
	<g>
		<circle class="st1" cx="250" cy="133.869" r="23.836"/>
	</g>
</g>
<g>
	<g>
		<path class="st0" d="M80.9,220.164l101.845,88.049c20.445,17.676,32.196,43.368,32.196,70.395v61.933h70.117v-61.933    c0-27.027,11.75-52.718,32.196-70.395L419.1,220.164c-31.773,16.381-95.568,27.57-169.1,27.57S112.673,236.545,80.9,220.164z"/>
	</g>
</g>
<g>
	<g>
		<path class="st1" d="M144.17,153.989L144.17,153.989c-51.085,9.181-84.726,24.816-84.726,42.564    c0,18.38,36.08,34.494,90.248,43.52c-1.861-0.31-3.704-0.628-5.522-0.955V153.989z"/>
	</g>
</g>
<g>
	<g>
		<path class="st1" d="M355.83,239.119c-1.818,0.327-3.661,0.644-5.522,0.955c54.168-9.026,90.248-25.14,90.248-43.52    c0-17.748-33.641-33.384-84.726-42.564l0,0V239.119z"/>
	</g>
</g>
<path class="st4" d="M80.723,91.135c0-2.762,2.239-5,5-5h5.833v-5.833c0-2.762,2.239-5,5-5s5,2.238,5,5v5.833h5.833  c2.761,0,5,2.238,5,5s-2.239,5-5,5h-5.833v5.832c0,2.762-2.239,5-5,5s-5-2.238-5-5v-5.832h-5.833  C82.962,96.135,80.723,93.896,80.723,91.135z M392.611,96.135h5.833v5.832c0,2.762,2.238,5,5,5s5-2.238,5-5v-5.832h5.833  c2.762,0,5-2.238,5-5s-2.238-5-5-5h-5.833v-5.833c0-2.762-2.238-5-5-5s-5,2.238-5,5v5.833h-5.833c-2.762,0-5,2.238-5,5  S389.85,96.135,392.611,96.135z M278.836,133.869c0,15.899-12.936,28.835-28.836,28.835c-15.9,0-28.835-12.936-28.835-28.835  c0-15.9,12.936-28.836,28.835-28.836C265.9,105.033,278.836,117.969,278.836,133.869z M268.836,133.869  c0-10.386-8.45-18.836-18.836-18.836s-18.835,8.45-18.835,18.836s8.45,18.835,18.835,18.835S268.836,144.255,268.836,133.869z   M319.146,127.756v12.226c0,5.145-4.186,9.33-9.33,9.33h-10.782c-0.901,2.868-2.051,5.645-3.441,8.309l7.624,7.625  c3.638,3.637,3.638,9.556,0.001,13.193l-8.646,8.646c-3.638,3.638-9.559,3.637-13.194-0.001l-7.624-7.623  c-2.665,1.391-5.441,2.54-8.309,3.441v10.781c0,5.146-4.186,9.331-9.33,9.331h-12.226c-5.145,0-9.331-4.186-9.331-9.331v-10.781  c-2.867-0.901-5.644-2.051-8.308-3.441l-7.624,7.623c-1.763,1.763-4.105,2.733-6.598,2.733c-2.493,0-4.836-0.971-6.598-2.733  l-8.645-8.645c-1.762-1.763-2.732-4.105-2.732-6.598s0.971-4.836,2.733-6.598l7.624-7.624c-1.391-2.664-2.541-5.44-3.442-8.309  h-10.782c-5.145,0-9.33-4.186-9.33-9.33v-12.226c0-5.145,4.186-9.33,9.33-9.33h10.782c0.901-2.868,2.051-5.645,3.442-8.309  l-7.624-7.625c-1.762-1.761-2.732-4.104-2.732-6.597s0.97-4.835,2.732-6.598l8.646-8.645c1.762-1.763,4.105-2.733,6.598-2.733  c2.492,0,4.835,0.971,6.598,2.733l7.624,7.624c2.664-1.391,5.441-2.541,8.308-3.442V74.054c0-5.145,4.186-9.33,9.331-9.33h12.226  c5.145,0,9.33,4.186,9.33,9.33v10.781c2.867,0.901,5.644,2.052,8.309,3.442l7.623-7.624c3.638-3.638,9.558-3.64,13.195,0  l8.646,8.644c3.638,3.64,3.638,9.559,0,13.195l-7.624,7.625c1.391,2.664,2.54,5.44,3.441,8.309h10.782  C314.96,118.426,319.146,122.611,319.146,127.756z M309.146,128.426h-13.932c-2.329,0-4.351-1.608-4.873-3.879  c-1.03-4.478-2.787-8.721-5.224-12.611c-1.236-1.975-0.944-4.541,0.703-6.188l9.852-9.852l-7.698-7.698l-9.851,9.852  c-1.647,1.646-4.213,1.939-6.189,0.703c-3.894-2.438-8.137-4.195-12.611-5.225c-2.271-0.522-3.879-2.544-3.879-4.873V74.724h-10.887  v13.931c0,2.329-1.609,4.351-3.879,4.873c-4.476,1.029-8.719,2.787-12.611,5.225c-1.973,1.235-4.542,0.945-6.189-0.703l-9.851-9.852  l-7.698,7.698l9.851,9.852c1.647,1.647,1.938,4.214,0.702,6.188c-2.437,3.892-4.194,8.135-5.224,12.611  c-0.522,2.271-2.543,3.879-4.873,3.879h-13.931v10.886h13.931c2.33,0,4.351,1.608,4.873,3.879c1.03,4.477,2.788,8.72,5.224,12.611  c1.236,1.975,0.945,4.541-0.702,6.188l-9.851,9.852l7.698,7.698l9.851-9.851c1.648-1.647,4.216-1.938,6.188-0.703  c3.893,2.437,8.136,4.194,12.611,5.224c2.27,0.522,3.879,2.544,3.879,4.873v13.932h10.887v-13.932c0-2.329,1.608-4.351,3.879-4.873  c4.474-1.029,8.718-2.787,12.612-5.224c1.973-1.237,4.54-0.945,6.188,0.703l9.852,9.851l7.698-7.698l-9.852-9.852  c-1.647-1.647-1.939-4.214-0.703-6.188c2.437-3.891,4.193-8.134,5.224-12.611c0.522-2.271,2.544-3.879,4.873-3.879h13.932V128.426z   M214.941,451.596c-2.761,0-5,2.238-5,5v2.318c0,2.762,2.239,5,5,5s5-2.238,5-5v-2.318  C219.941,453.834,217.703,451.596,214.941,451.596z M285.059,451.236c-2.762,0-5,2.238-5,5v2.678c0,2.762,2.238,5,5,5s5-2.238,5-5  v-2.678C290.059,453.475,287.82,451.236,285.059,451.236z M214.941,469.969c-2.761,0-5,2.238-5,5v2.319c0,2.762,2.239,5,5,5  s5-2.238,5-5v-2.319C219.941,472.207,217.703,469.969,214.941,469.969z M285.059,469.61c-2.762,0-5,2.238-5,5v2.678  c0,2.762,2.238,5,5,5s5-2.238,5-5v-2.678C290.059,471.849,287.82,469.61,285.059,469.61z M214.941,487.681c-2.761,0-5,2.238-5,5V495  c0,2.762,2.239,5,5,5s5-2.238,5-5v-2.319C219.941,489.919,217.703,487.681,214.941,487.681z M285.059,487.322c-2.762,0-5,2.238-5,5  V495c0,2.762,2.238,5,5,5s5-2.238,5-5v-2.678C290.059,489.561,287.82,487.322,285.059,487.322z M250,451.236c-2.761,0-5,2.238-5,5  v2.678c0,2.762,2.239,5,5,5c2.762,0,5-2.238,5-5v-2.678C255,453.475,252.762,451.236,250,451.236z M250,469.61c-2.761,0-5,2.238-5,5  v2.678c0,2.762,2.239,5,5,5c2.762,0,5-2.238,5-5v-2.678C255,471.849,252.762,469.61,250,469.61z M250,487.322c-2.761,0-5,2.238-5,5  V495c0,2.762,2.239,5,5,5c2.762,0,5-2.238,5-5v-2.678C255,489.561,252.762,487.322,250,487.322z M422.114,224.168l-101.588,87.827  c-19.362,16.74-30.467,41.02-30.467,66.612v61.754c0,2.762-2.238,5-5,5s-5-2.238-5-5v-61.754c0-28.499,12.365-55.536,33.926-74.177  l79.926-69.099c-11.738,3.548-25.132,6.621-39.76,9.157c-0.643,0.112-1.272,0.22-1.885,0.324c-30.115,5.09-65.347,7.92-102.265,7.92  c-36.907,0-72.129-2.828-102.238-7.915c-0.629-0.107-1.275-0.218-1.936-0.333c-14.62-2.536-28.005-5.606-39.736-9.153l79.926,69.099  c21.561,18.641,33.926,45.677,33.926,74.177v61.934c0,2.762-2.239,5-5,5s-5-2.238-5-5v-61.934c0-25.593-11.104-49.872-30.466-66.612  L77.886,224.168c-13.654-7.156-23.442-16.248-23.442-27.614c0-26.32,51.266-40.364,84.726-46.724V5c0-2.762,2.239-5,5-5h161.576  c0.033,0,0.064,0.009,0.096,0.01c0.297,0.005,0.592,0.029,0.882,0.087c0.003,0.001,0.006,0.002,0.009,0.002  c0.284,0.057,0.56,0.146,0.83,0.252c0.08,0.031,0.156,0.067,0.234,0.103c0.199,0.09,0.391,0.193,0.578,0.309  c0.073,0.045,0.146,0.087,0.216,0.136c0.242,0.168,0.476,0.352,0.689,0.566l50.084,50.083c0.213,0.213,0.397,0.446,0.565,0.688  c0.05,0.071,0.092,0.145,0.138,0.219c0.115,0.186,0.218,0.377,0.307,0.575c0.036,0.079,0.073,0.156,0.104,0.236  c0.105,0.27,0.194,0.544,0.251,0.827c0.001,0.004,0.002,0.008,0.003,0.012c0.058,0.29,0.081,0.584,0.087,0.88  c0.001,0.033,0.01,0.065,0.01,0.099v94.747c33.459,6.359,84.726,20.403,84.726,46.724  C445.556,207.92,435.768,217.012,422.114,224.168z M310.746,50.083h33.013l-16.506-16.506l-16.506-16.506V50.083z M435.556,196.554  c0-10.322-19.719-25.857-74.726-36.542v58.985c0,2.762-2.238,5-5,5s-5-2.238-5-5V60.083h-45.084c-2.762,0-5-2.238-5-5V10H149.17  v208.997c0,2.762-2.239,5-5,5s-5-2.238-5-5v-58.985c-55.007,10.684-74.726,26.219-74.726,36.542  c0,12.069,26.613,28.681,86.07,38.588c0.141,0.023,0.268,0.075,0.403,0.109c29.138,4.809,63.247,7.482,99.083,7.482  c35.837,0,69.946-2.673,99.084-7.482c0.135-0.034,0.262-0.086,0.403-0.109C408.942,225.234,435.556,208.623,435.556,196.554z"/>
</svg>
