<?xml version="1.0" encoding="utf-8"?>
<!-- Generator: Adobe Illustrator 22.0.0, SVG Export Plug-In . SVG Version: 6.00 Build 0)  -->
<svg xmlns="http://www.w3.org/2000/svg" xmlns:xlink="http://www.w3.org/1999/xlink" version="1.1" id="Layer_1" x="0px" y="0px" viewBox="0 0 500 500" style="enable-background:new 0 0 500 500;" xml:space="preserve" width="512" height="512">
<style type="text/css">
	.st0{fill:#83E1E5;}
	.st1{fill:#AAB1BA;}
	.st2{fill:#ECF4F7;}
	.st3{fill:#FDDF7F;}
	.st4{fill:#1C1D21;}
	.st5{fill:#FFFFFF;}
</style>
<g>
	<g>
		<path class="st2" d="M332.591,211.83v-47.869c0-14.866-12.051-26.917-26.917-26.917H194.327    c-14.866,0-26.917,12.051-26.917,26.917v47.869H332.591z"/>
	</g>
</g>
<g>
	<g>
		<circle class="st3" cx="250" cy="71.022" r="66.022"/>
	</g>
</g>
<g>
	<g>
		<path class="st0" d="M185.112,58.876H92.083c-16.909,0-30.667,13.757-30.667,30.666v74.775H37.362    c-4.955,0-9.466,2.854-11.588,7.332c-2.123,4.478-1.475,9.776,1.662,13.612l36.878,45.076c2.435,2.977,6.079,4.704,9.926,4.704    s7.49-1.726,9.926-4.704l36.878-45.076c3.137-3.836,3.785-9.134,1.662-13.612c-2.122-4.478-6.633-7.332-11.588-7.332H87.064    V89.542c0-2.767,2.251-5.019,5.02-5.019h93.281c-0.906-4.359-1.386-8.874-1.386-13.501    C183.978,66.871,184.379,62.815,185.112,58.876z"/>
	</g>
</g>
<g>
	<g>
		<path class="st0" d="M474.226,171.649c-2.122-4.478-6.633-7.332-11.588-7.332h-24.055V89.542    c0-16.909-13.758-30.666-38.312-30.666h-85.383c0.733,3.939,1.134,7.994,1.134,12.146c0,4.628-0.481,9.142-1.386,13.501h93.281    c2.768,0,5.02,2.252,5.02,5.019v74.775h-24.055c-4.955,0-9.466,2.854-11.588,7.332c-2.123,4.478-1.475,9.776,1.662,13.612    l36.878,45.076c2.435,2.977,6.079,4.704,9.926,4.704c3.847,0,7.49-1.726,9.926-4.704l36.878-45.076    C475.7,181.425,476.349,176.127,474.226,171.649z"/>
	</g>
</g>
<g>
	<g>
		<polygon class="st0" points="264.762,211.83 261.204,137.044 238.796,137.044 235.239,211.83   "/>
	</g>
</g>
<g>
	<g>
		<path class="st1" d="M196.759,495v-46.226c0-14.356-11.638-25.994-25.994-25.994H63.239c-14.356,0-25.994,11.638-25.994,25.994    V495H196.759z"/>
	</g>
</g>
<g>
	<g>
		<circle class="st3" cx="117.002" cy="359.023" r="63.757"/>
	</g>
</g>
<g>
	<g>
		<polygon class="st0" points="131.258,495 127.822,422.779 106.182,422.779 102.747,495   "/>
	</g>
</g>
<g>
	<g>
		<path class="st1" d="M463.004,495v-46.226c0-14.356-11.638-25.994-25.994-25.994H329.483c-14.356,0-25.994,11.638-25.994,25.994    V495H463.004z"/>
	</g>
</g>
<g>
	<g>
		<circle class="st3" cx="383.247" cy="359.023" r="63.757"/>
	</g>
</g>
<g>
	<g>
		<polygon class="st0" points="397.502,495 394.066,422.779 372.427,422.779 368.992,495   "/>
	</g>
</g>
<path class="st4" d="M265.833,250c0,2.762-2.239,5-5,5H255v5.833c0,2.762-2.239,5-5,5s-5-2.238-5-5V255h-5.833c-2.761,0-5-2.238-5-5  s2.239-5,5-5H245v-5.833c0-2.762,2.239-5,5-5s5,2.238,5,5V245h5.833C263.594,245,265.833,247.238,265.833,250z M260.833,294.003H255  v-5.833c0-2.762-2.239-5-5-5s-5,2.238-5,5v5.833h-5.833c-2.761,0-5,2.238-5,5s2.239,5,5,5H245v5.832c0,2.762,2.239,5,5,5  s5-2.238,5-5v-5.832h5.833c2.761,0,5-2.238,5-5S263.594,294.003,260.833,294.003z M60.643,233.502  c3.398,4.155,8.426,6.538,13.796,6.538c5.369,0,10.397-2.383,13.795-6.537l36.88-45.077c4.336-5.305,5.243-12.73,2.309-18.917  c-2.934-6.191-9.255-10.191-16.106-10.191H92.264l0.018-69.794h68c2.761,0,5-2.238,5-5s-2.239-5-5-5h-68  c-5.525,0-10.02,4.494-10.02,10.019v74.775c0,2.762,2.239,5,5,5h24.055c3.007,0,5.781,1.756,7.069,4.475  c1.288,2.716,0.89,5.975-1.013,8.303l-36.879,45.076c-1.491,1.823-3.699,2.869-6.056,2.869s-4.564-1.046-6.056-2.869l-36.877-45.075  c-1.904-2.329-2.303-5.588-1.014-8.306c1.288-2.717,4.063-4.473,7.069-4.473h24.054c2.761,0,5-2.238,5-5V89.542  c0-14.152,11.514-25.666,25.667-25.666h67.829c2.761,0,5-2.238,5-5s-2.239-5-5-5H92.282c-19.667,0-35.667,16-35.667,35.666v69.775  H37.561c-6.851,0-13.173,4-16.106,10.189c-2.934,6.189-2.028,13.615,2.31,18.92L60.643,233.502z M388.683,169.317h24.055  c2.761,0,5-2.238,5-5V89.542c0-5.524-4.495-10.019-10.02-10.019h-68c-2.761,0-5,2.238-5,5s2.239,5,5,5l68.02,0.019v69.775h-19.055  c-6.851,0-13.172,4-16.105,10.189c-2.934,6.189-2.028,13.615,2.31,18.92l36.878,45.076c3.398,4.154,8.427,6.537,13.796,6.537  s10.397-2.383,13.796-6.537l36.878-45.077c4.337-5.304,5.244-12.729,2.31-18.917c-2.934-6.191-9.256-10.191-16.106-10.191h-19.054  V89.542c0-19.666-16-35.666-35.667-35.666H339.89c-2.761,0-5,2.238-5,5s2.239,5,5,5h67.828c14.153,0,25.667,11.514,25.667,25.666  v74.775c0,2.762,2.239,5,5,5h24.054c3.007,0,5.782,1.756,7.07,4.475c1.288,2.716,0.89,5.975-1.014,8.303l-36.878,45.076  c-1.491,1.823-3.699,2.869-6.056,2.869s-4.564-1.046-6.056-2.869l-36.877-45.075c-1.904-2.329-2.303-5.588-1.014-8.306  C382.902,171.073,385.676,169.317,388.683,169.317z M207.293,193.134v-18.696c0-2.762-2.239-5-5-5s-5,2.238-5,5v18.696  c0,2.762,2.239,5,5,5S207.293,195.896,207.293,193.134z M302.705,193.134v-18.696c0-2.762-2.239-5-5-5s-5,2.238-5,5v18.696  c0,2.762,2.239,5,5,5S302.705,195.896,302.705,193.134z M194.327,132.044h19.389c-20.783-12.405-34.738-35.11-34.738-61.021  C178.978,31.86,210.838,0,250,0c39.162,0,71.022,31.86,71.022,71.022c0,25.912-13.955,48.617-34.738,61.021h19.389  c17.599,0,31.917,14.318,31.917,31.918v29.172c0,2.762-2.239,5-5,5s-5-2.238-5-5v-29.172c0-12.086-9.832-21.918-21.917-21.918  h-39.226l2.461,51.728c0.131,2.758-1.998,5.101-4.756,5.231c-0.081,0.004-0.162,0.006-0.242,0.006c-2.652,0-4.863-2.085-4.99-4.763  l-2.483-52.202h-12.873l-2.483,52.202c-0.13,2.759-2.474,4.892-5.231,4.757c-2.759-0.131-4.888-2.474-4.757-5.231l2.46-51.728  h-39.226c-12.085,0-21.917,9.832-21.917,21.918v29.172c0,2.762-2.239,5-5,5s-5-2.238-5-5v-29.172  C162.409,146.362,176.728,132.044,194.327,132.044z M250,132.044c33.648,0,61.022-27.374,61.022-61.021S283.648,10,250,10  c-33.647,0-61.022,27.375-61.022,61.022S216.353,132.044,250,132.044z M65.933,458.89v20.934c0,2.762,2.239,5,5,5s5-2.238,5-5  V458.89c0-2.762-2.239-5-5-5S65.933,456.128,65.933,458.89z M158.071,458.89v20.934c0,2.762,2.239,5,5,5s5-2.238,5-5V458.89  c0-2.762-2.239-5-5-5S158.071,456.128,158.071,458.89z M191.759,479.823v-31.05c0-11.576-9.417-20.994-20.994-20.994h-37.7  l2.459,51.699c0.131,2.758-1.998,5.101-4.756,5.231c-0.081,0.004-0.162,0.006-0.242,0.006c-2.652,0-4.863-2.085-4.99-4.763  l-2.482-52.174h-6.014c-0.013,0-0.026,0.001-0.038,0.001s-0.026-0.001-0.038-0.001h-6.014l-2.481,52.174  c-0.131,2.759-2.484,4.889-5.231,4.757c-2.758-0.131-4.888-2.474-4.757-5.231l2.458-51.699h-37.7  c-11.576,0-20.994,9.418-20.994,20.994v31.05c0,2.762-2.239,5-5,5s-5-2.238-5-5v-31.05c0-17.09,13.904-30.994,30.994-30.994h18.087  c-19.819-12.079-33.08-33.898-33.08-58.757c0-37.913,30.844-68.757,68.757-68.757s68.757,30.844,68.757,68.757  c0,24.859-13.261,46.678-33.08,58.757h18.087c17.09,0,30.994,13.904,30.994,30.994v31.05c0,2.762-2.239,5-5,5  S191.759,482.585,191.759,479.823z M116.964,417.779h0.077c32.381-0.021,58.718-26.37,58.718-58.757  c0-32.398-26.358-58.757-58.757-58.757s-58.757,26.358-58.757,58.757C58.246,391.409,84.583,417.758,116.964,417.779z   M332.177,458.89v20.934c0,2.762,2.239,5,5,5s5-2.238,5-5V458.89c0-2.762-2.239-5-5-5S332.177,456.128,332.177,458.89z   M424.315,458.89v20.934c0,2.762,2.239,5,5,5s5-2.238,5-5V458.89c0-2.762-2.239-5-5-5S424.315,456.128,424.315,458.89z   M458.004,479.823v-31.05c0-11.576-9.417-20.994-20.994-20.994H399.31l2.459,51.699c0.131,2.758-1.998,5.101-4.756,5.231  c-0.081,0.004-0.162,0.006-0.242,0.006c-2.652,0-4.863-2.085-4.99-4.763l-2.482-52.174h-6.014c-0.013,0-0.026,0.001-0.038,0.001  s-0.026-0.001-0.038-0.001h-6.013l-2.482,52.174c-0.131,2.759-2.483,4.889-5.231,4.757c-2.758-0.131-4.888-2.474-4.757-5.231  l2.459-51.699h-37.7c-11.576,0-20.994,9.418-20.994,20.994v31.05c0,2.762-2.239,5-5,5s-5-2.238-5-5v-31.05  c0-17.09,13.904-30.994,30.994-30.994h18.087c-19.819-12.079-33.08-33.898-33.08-58.757c0-37.913,30.844-68.757,68.757-68.757  c37.913,0,68.757,30.844,68.757,68.757c0,24.859-13.261,46.678-33.08,58.757h18.087c17.09,0,30.994,13.904,30.994,30.994v31.05  c0,2.762-2.239,5-5,5S458.004,482.585,458.004,479.823z M383.208,417.779h0.077c32.381-0.021,58.719-26.37,58.719-58.757  c0-32.398-26.358-58.757-58.757-58.757c-32.398,0-58.757,26.358-58.757,58.757C324.49,391.409,350.827,417.758,383.208,417.779z   M211.104,490H22.9c-2.761,0-5,2.238-5,5s2.239,5,5,5h188.205c2.761,0,5-2.238,5-5S213.866,490,211.104,490z M7.551,490H5  c-2.761,0-5,2.238-5,5s2.239,5,5,5h2.551c2.761,0,5-2.238,5-5S10.313,490,7.551,490z M228.507,490h-2.551c-2.761,0-5,2.238-5,5  s2.239,5,5,5h2.551c2.761,0,5-2.238,5-5S231.268,490,228.507,490z M477.598,490H289.393c-2.761,0-5,2.238-5,5s2.239,5,5,5h188.205  c2.761,0,5-2.238,5-5S480.359,490,477.598,490z M274.044,490h-2.551c-2.761,0-5,2.238-5,5s2.239,5,5,5h2.551c2.761,0,5-2.238,5-5  S276.806,490,274.044,490z M495,490h-2.551c-2.761,0-5,2.238-5,5s2.239,5,5,5H495c2.761,0,5-2.238,5-5S497.761,490,495,490z   M352.703,211.83c0-2.762-2.239-5-5-5H152.812c-2.761,0-5,2.238-5,5s2.239,5,5,5h194.891  C350.464,216.83,352.703,214.592,352.703,211.83z M136.918,216.83c2.761,0,5-2.238,5-5s-2.239-5-5-5h-2.642c-2.761,0-5,2.238-5,5  s2.239,5,5,5H136.918z M365.724,216.83c2.761,0,5-2.238,5-5s-2.239-5-5-5h-2.642c-2.761,0-5,2.238-5,5s2.239,5,5,5H365.724z"/>
</svg>
