<?xml version="1.0" encoding="utf-8"?>
<!-- Generator: Adobe Illustrator 22.0.0, SVG Export Plug-In . SVG Version: 6.00 Build 0)  -->
<svg xmlns="http://www.w3.org/2000/svg" xmlns:xlink="http://www.w3.org/1999/xlink" version="1.1" id="Layer_1" x="0px" y="0px" viewBox="0 0 500 500" style="enable-background:new 0 0 500 500;" xml:space="preserve" width="512" height="512">
<style type="text/css">
	.st0{fill:#83E1E5;}
	.st1{fill:#AAB1BA;}
	.st2{fill:#ECF4F7;}
	.st3{fill:#FDDF7F;}
	.st4{fill:#1C1D21;}
	.st5{fill:#FFFFFF;}
</style>
<g>
	<g>
		<path class="st1" d="M445.924,424.603H54.076l-21.72,41.511v23.338c0,3.064,2.484,5.548,5.548,5.548h424.192    c3.064,0,5.548-2.484,5.548-5.548v-23.338L445.924,424.603z"/>
	</g>
</g>
<g>
	<g>
		<path class="st0" d="M54.076,204.64v219.962h391.849V204.64c0-10.921-8.854-19.775-19.775-19.775H73.851    C62.929,184.865,54.076,193.719,54.076,204.64z"/>
	</g>
</g>
<g>
	<g>
		<rect x="54.075" y="395.095" class="st2" width="391.849" height="29.507"/>
	</g>
</g>
<g>
	<g>
		<path class="st3" d="M215.5,163.052L215.5,163.052c0-19.054,15.446-34.5,34.5-34.5c19.054,0,34.5,15.446,34.5,34.5v21.813h58.345    v-30.662c0-3.461-2.806-6.268-6.268-6.268h-21.134c-1.693-7.36-4.589-14.256-8.48-20.471l14.944-14.944    c2.448-2.448,2.448-6.416,0-8.864l-12.513-12.513c-2.448-2.448-6.416-2.448-8.864,0l-14.944,14.944    c-6.215-3.891-13.112-6.787-20.471-8.48V76.474c0-3.461-2.806-6.268-6.268-6.268h-17.696c-3.461,0-6.268,2.806-6.268,6.268v21.134    c-7.36,1.693-14.256,4.589-20.471,8.48l-14.944-14.944c-2.448-2.448-6.416-2.448-8.864,0l-12.513,12.513    c-2.448,2.448-2.448,6.416,0,8.864l14.944,14.944c-3.891,6.215-6.787,13.111-8.48,20.471h-21.134    c-3.462,0-6.268,2.806-6.268,6.268v30.662H215.5V163.052z"/>
	</g>
</g>
<g>
	<g>
		<path class="st2" d="M163.422,221.794h21.134c1.693,7.36,4.589,14.256,8.48,20.471l-14.944,14.944    c-2.448,2.448-2.448,6.416,0,8.864l12.513,12.513c2.448,2.448,6.416,2.448,8.864,0l14.944-14.944    c6.215,3.891,13.112,6.787,20.471,8.48v21.134c0,3.461,2.806,6.268,6.268,6.268h17.696c3.461,0,6.268-2.806,6.268-6.268v-21.134    c7.36-1.693,14.256-4.589,20.471-8.48l14.944,14.944c2.448,2.448,6.416,2.448,8.864,0l12.513-12.513    c2.448-2.448,2.448-6.416,0-8.864l-14.944-14.944c3.891-6.215,6.787-13.111,8.48-20.471h21.134c3.462,0,6.268-2.806,6.268-6.268    v-30.662H284.5v21.813h0c0,19.054-15.446,34.5-34.5,34.5c-19.054,0-34.5-15.446-34.5-34.5v-21.813h-58.345v30.662    C157.155,218.988,159.961,221.794,163.422,221.794z"/>
	</g>
</g>
<path class="st4" d="M234.167,15.833c0-2.762,2.238-5,5-5H245V5c0-2.762,2.238-5,5-5s5,2.238,5,5v5.833h5.833c2.762,0,5,2.238,5,5  s-2.238,5-5,5H255v5.833c0,2.762-2.238,5-5,5s-5-2.238-5-5v-5.833h-5.833C236.405,20.833,234.167,18.595,234.167,15.833z   M99.952,88.307h5.832v5.833c0,2.762,2.238,5,5,5s5-2.238,5-5v-5.833h5.833c2.762,0,5-2.238,5-5s-2.238-5-5-5h-5.833v-5.833  c0-2.762-2.238-5-5-5s-5,2.238-5,5v5.833h-5.832c-2.762,0-5,2.238-5,5S97.19,88.307,99.952,88.307z M378.383,88.307h5.833v5.833  c0,2.762,2.238,5,5,5s5-2.238,5-5v-5.833h5.832c2.762,0,5-2.238,5-5s-2.238-5-5-5h-5.832v-5.833c0-2.762-2.238-5-5-5s-5,2.238-5,5  v5.833h-5.833c-2.762,0-5,2.238-5,5S375.621,88.307,378.383,88.307z M163.422,226.795h17.269c1.477,5.106,3.51,10.016,6.076,14.67  l-12.211,12.21c-4.392,4.394-4.392,11.541,0.001,15.936l12.513,12.511c2.128,2.129,4.958,3.301,7.968,3.301s5.84-1.172,7.967-3.3  l12.211-12.21c4.654,2.565,9.565,4.6,14.67,6.077v17.267c0,6.213,5.055,11.268,11.268,11.268h17.695  c6.213,0,11.268-5.055,11.268-11.268v-17.267c5.104-1.478,10.016-3.512,14.67-6.077l12.21,12.209  c2.128,2.129,4.958,3.301,7.968,3.301s5.84-1.172,7.967-3.3l12.515-12.513c4.392-4.394,4.392-11.541-0.001-15.935l-12.21-12.211  c2.565-4.653,4.599-9.563,6.076-14.669h17.268c6.214,0,11.269-5.055,11.269-11.268v-8.849c0-2.762-2.238-5-5-5s-5,2.238-5,5v8.849  c0,0.699-0.569,1.268-1.269,1.268h-21.134c-2.329,0-4.351,1.608-4.873,3.879c-1.547,6.723-4.186,13.095-7.845,18.938  c-1.236,1.975-0.944,4.542,0.703,6.188l14.943,14.944c0.494,0.494,0.494,1.3,0.001,1.793l-12.515,12.513  c-0.307,0.307-0.656,0.371-0.896,0.371s-0.589-0.064-0.896-0.372l-14.944-14.943c-1.647-1.646-4.214-1.939-6.188-0.702  c-5.848,3.66-12.221,6.3-18.94,7.846c-2.271,0.522-3.879,2.544-3.879,4.873v21.133c0,0.699-0.568,1.268-1.268,1.268h-17.695  c-0.699,0-1.268-0.568-1.268-1.268v-21.133c0-2.329-1.608-4.351-3.879-4.873c-6.72-1.546-13.093-4.186-18.94-7.846  c-1.975-1.236-4.541-0.943-6.188,0.702l-14.945,14.944c-0.307,0.307-0.656,0.371-0.896,0.371s-0.589-0.064-0.896-0.372  l-12.513-12.511c-0.494-0.494-0.494-1.3-0.001-1.794l14.944-14.944c1.647-1.647,1.939-4.214,0.702-6.188  c-3.659-5.844-6.298-12.216-7.844-18.938c-0.522-2.271-2.543-3.88-4.873-3.88h-21.135c-0.699,0-1.268-0.568-1.268-1.268v-8.849  c0-2.762-2.238-5-5-5s-5,2.238-5,5v8.849C152.154,221.74,157.209,226.795,163.422,226.795z M250,246.179  c21.78,0,39.5-17.72,39.5-39.5c0-2.762-2.238-5-5-5s-5,2.238-5,5c0,16.267-13.233,29.5-29.5,29.5s-29.5-13.233-29.5-29.5  c0-2.762-2.238-5-5-5s-5,2.238-5,5C210.5,228.459,228.22,246.179,250,246.179z M157.154,168.052c2.762,0,5-2.238,5-5v-8.849  c0-0.699,0.569-1.268,1.269-1.268h21.134c2.329,0,4.351-1.608,4.873-3.879c1.547-6.723,4.186-13.095,7.845-18.938  c1.236-1.975,0.944-4.542-0.703-6.188l-14.943-14.944c-0.494-0.494-0.494-1.3-0.001-1.793l12.515-12.513  c0.307-0.307,0.656-0.371,0.896-0.371s0.589,0.064,0.896,0.372l14.944,14.943c1.646,1.645,4.213,1.938,6.188,0.702  c5.848-3.66,12.221-6.3,18.94-7.846c2.271-0.522,3.879-2.544,3.879-4.873V76.475c0-0.699,0.568-1.268,1.268-1.268h17.695  c0.699,0,1.268,0.568,1.268,1.268v21.133c0,2.329,1.608,4.351,3.879,4.873c6.72,1.546,13.093,4.186,18.94,7.846  c1.974,1.236,4.541,0.942,6.188-0.702l14.945-14.944c0.307-0.307,0.656-0.371,0.896-0.371s0.589,0.064,0.896,0.372l12.513,12.511  c0.494,0.494,0.494,1.3,0.001,1.794l-14.944,14.944c-1.647,1.647-1.939,4.214-0.702,6.188c3.659,5.844,6.298,12.216,7.844,18.938  c0.522,2.271,2.543,3.88,4.873,3.88h21.135c0.699,0,1.268,0.568,1.268,1.268v8.849c0,2.762,2.238,5,5,5s5-2.238,5-5v-8.849  c0-6.213-5.055-11.268-11.268-11.268H319.31c-1.477-5.106-3.51-10.016-6.076-14.67l12.211-12.21  c4.392-4.394,4.392-11.541-0.001-15.936l-12.513-12.511c-2.128-2.129-4.958-3.301-7.968-3.301s-5.84,1.172-7.967,3.3l-12.211,12.21  c-4.654-2.565-9.565-4.6-14.67-6.077V76.475c0-6.213-5.055-11.268-11.268-11.268h-17.695c-6.213,0-11.268,5.055-11.268,11.268  v17.267c-5.104,1.478-10.016,3.512-14.67,6.077l-12.21-12.209c-2.128-2.129-4.958-3.301-7.968-3.301s-5.84,1.172-7.967,3.3  l-12.515,12.513c-4.392,4.394-4.392,11.541,0.001,15.935l12.21,12.211c-2.565,4.653-4.599,9.563-6.076,14.669h-17.268  c-6.214,0-11.269,5.055-11.269,11.268v8.849C152.154,165.813,154.393,168.052,157.154,168.052z M250,123.552  c-21.78,0-39.5,17.72-39.5,39.5c0,2.762,2.238,5,5,5s5-2.238,5-5c0-16.267,13.233-29.5,29.5-29.5s29.5,13.233,29.5,29.5  c0,2.762,2.238,5,5,5s5-2.238,5-5C289.5,141.271,271.78,123.552,250,123.552z M472.645,466.113v23.339  c0,5.816-4.732,10.548-10.549,10.548H37.904c-5.816,0-10.549-4.731-10.549-10.548v-23.339c0-0.036,0.01-0.07,0.011-0.105  c0.006-0.268,0.032-0.534,0.08-0.798c0.009-0.048,0.013-0.098,0.023-0.146c0.059-0.274,0.145-0.543,0.251-0.808  c0.028-0.07,0.06-0.138,0.091-0.207c0.039-0.084,0.069-0.171,0.113-0.254l21.15-40.423V204.64c0-13.661,11.114-24.774,24.775-24.774  h352.299c13.661,0,24.775,11.113,24.775,24.774v218.732l21.15,40.423c0.043,0.083,0.074,0.17,0.113,0.254  c0.031,0.069,0.063,0.136,0.091,0.207c0.106,0.264,0.192,0.533,0.251,0.808c0.01,0.048,0.015,0.098,0.023,0.146  c0.049,0.265,0.075,0.531,0.08,0.798C472.635,466.043,472.645,466.077,472.645,466.113z M59.075,419.603h381.85v-19.508H59.075  V419.603z M59.075,204.64v185.455h381.85V204.64c0-8.146-6.628-14.774-14.775-14.774H73.851  C65.703,189.865,59.075,196.493,59.075,204.64z M40.614,461.113h418.771l-16.488-31.511H57.103L40.614,461.113z M462.645,471.113  H37.355v18.339c0,0.302,0.246,0.548,0.549,0.548h424.191c0.303,0,0.549-0.246,0.549-0.548V471.113z M194.533,336.983h-8.779  c-2.762,0-5,2.238-5,5s2.238,5,5,5h8.779c2.762,0,5-2.238,5-5S197.295,336.983,194.533,336.983z M224.461,336.983h-8.778  c-2.762,0-5,2.238-5,5s2.238,5,5,5h8.778c2.762,0,5-2.238,5-5S227.223,336.983,224.461,336.983z M254.39,336.983h-8.779  c-2.762,0-5,2.238-5,5s2.238,5,5,5h8.779c2.762,0,5-2.238,5-5S257.151,336.983,254.39,336.983z M284.317,336.983h-8.778  c-2.762,0-5,2.238-5,5s2.238,5,5,5h8.778c2.762,0,5-2.238,5-5S287.079,336.983,284.317,336.983z M314.246,336.983h-8.779  c-2.762,0-5,2.238-5,5s2.238,5,5,5h8.779c2.762,0,5-2.238,5-5S317.008,336.983,314.246,336.983z"/>
</svg>
