<?xml version="1.0" encoding="utf-8"?>
<!-- Generator: Adobe Illustrator 22.0.0, SVG Export Plug-In . SVG Version: 6.00 Build 0)  -->
<svg xmlns="http://www.w3.org/2000/svg" xmlns:xlink="http://www.w3.org/1999/xlink" version="1.1" id="Layer_1" x="0px" y="0px" viewBox="0 0 500 500" style="enable-background:new 0 0 500 500;" xml:space="preserve" width="512" height="512">
<style type="text/css">
	.st0{fill:#83E1E5;}
	.st1{fill:#AAB1BA;}
	.st2{fill:#ECF4F7;}
	.st3{fill:#FDDF7F;}
	.st4{fill:#1C1D21;}
	.st5{fill:#FFFFFF;}
</style>
<g>
	<g>
		<path class="st2" d="M267.063,226.028l9.685,9.375l96.859-71.479V57.264c0-5.844-4.737-10.581-10.581-10.581H136.973    c-5.844,0-10.581,4.737-10.581,10.581v106.66l96.859,71.48l0,0l9.686-9.376C242.449,216.821,257.551,216.821,267.063,226.028z"/>
	</g>
</g>
<g>
	<g>
		<path class="st1" d="M267.292,11.223c-10.035-8.298-24.55-8.298-34.585,0l-42.884,35.46h120.353L267.292,11.223z"/>
	</g>
</g>
<g>
	<g>
		<polygon class="st1" points="373.608,99.134 373.608,163.924 415.011,133.37   "/>
	</g>
</g>
<g>
	<g>
		<polygon class="st1" points="84.989,133.37 84.989,133.37 126.392,163.924 126.392,99.134   "/>
	</g>
</g>
<g>
	<g>
		<path class="st3" d="M276.748,235.404l-9.685-9.375c-9.512-9.208-24.613-9.208-34.125,0l-9.686,9.376l-73.338-54.121    L84.989,133.37v189.889c0,9.818,7.959,17.777,17.777,17.777h11.362l0,0h271.744v0h11.362c9.818,0,17.777-7.959,17.777-17.777    V133.37L276.748,235.404z"/>
	</g>
</g>
<g>
	<g>
		<circle class="st0" cx="250" cy="129.22" r="19.877"/>
	</g>
</g>
<path class="st4" d="M100.822,450.333c0,2.761-2.239,5-5,5h-5.833v5.833c0,2.761-2.239,5-5,5s-5-2.239-5-5v-5.833h-5.833  c-2.761,0-5-2.239-5-5s2.239-5,5-5h5.833V439.5c0-2.761,2.239-5,5-5s5,2.239,5,5v5.833h5.833  C98.583,445.333,100.822,447.572,100.822,450.333z M423.24,445.333h-4.685V439.5c0-2.761-2.239-5-5-5s-5,2.239-5,5v5.833h-4.685  c-2.761,0-5,2.239-5,5s2.239,5,5,5h4.685v5.833c0,2.761,2.239,5,5,5s5-2.239,5-5v-5.833h4.685c2.761,0,5-2.239,5-5  S426.001,445.333,423.24,445.333z M84.989,424.502c2.761,0,5-2.239,5-5v-3.662c0-2.761-2.239-5-5-5s-5,2.239-5,5v3.662  C79.989,422.264,82.228,424.502,84.989,424.502z M415.011,410.84c-2.761,0-5,2.239-5,5v3.662c0,2.761,2.239,5,5,5s5-2.239,5-5  v-3.662C420.011,413.079,417.772,410.84,415.011,410.84z M410.011,342.104c-3.646,2.48-8.045,3.932-12.777,3.932H102.766  c-4.732,0-9.131-1.452-12.777-3.932v54.13c0,2.761-2.239,5-5,5s-5-2.239-5-5v-72.976v-7.269V133.37c0-0.042,0.008-0.084,0.009-0.126  c0.001-0.054,0.003-0.107,0.006-0.162c0.006-0.101,0.015-0.201,0.027-0.301c0.009-0.078,0.021-0.155,0.034-0.233  c0.016-0.094,0.032-0.188,0.053-0.281c0.011-0.051,0.025-0.1,0.038-0.151c0.017-0.065,0.033-0.13,0.052-0.195  c0.046-0.152,0.101-0.3,0.162-0.447c0.02-0.048,0.035-0.098,0.056-0.145c0.006-0.013,0.011-0.026,0.017-0.04  c0.01-0.021,0.023-0.042,0.033-0.063c0.073-0.154,0.152-0.304,0.24-0.45c0.03-0.049,0.064-0.094,0.096-0.141  c0.039-0.06,0.079-0.12,0.121-0.179c0.013-0.018,0.02-0.038,0.033-0.056c0.006-0.008,0.013-0.013,0.018-0.021  c0.03-0.04,0.063-0.079,0.094-0.119c0.048-0.061,0.101-0.118,0.152-0.177c0.088-0.101,0.18-0.199,0.277-0.293  c0.04-0.039,0.076-0.08,0.117-0.117c0.027-0.025,0.056-0.045,0.084-0.069c0.033-0.029,0.062-0.061,0.095-0.088l39.59-32.736V57.264  c0-8.591,6.989-15.581,15.581-15.581h51.051L229.521,7.37c11.866-9.812,29.091-9.812,40.957,0l41.498,34.314h51.051  c8.591,0,15.581,6.99,15.581,15.581V96.78l39.59,32.736c0.034,0.028,0.063,0.06,0.095,0.088c0.027,0.024,0.056,0.045,0.083,0.069  c0.041,0.037,0.078,0.078,0.117,0.117c0.097,0.094,0.188,0.192,0.277,0.293c0.051,0.059,0.103,0.116,0.151,0.177  c0.032,0.04,0.064,0.079,0.094,0.119c0.006,0.007,0.013,0.013,0.018,0.02c0.013,0.018,0.02,0.037,0.033,0.055  c0.042,0.059,0.082,0.119,0.122,0.18c0.031,0.047,0.066,0.092,0.095,0.141c0.088,0.146,0.167,0.296,0.24,0.45  c0.01,0.021,0.023,0.041,0.033,0.063c0.006,0.013,0.011,0.026,0.017,0.04c0.021,0.047,0.037,0.097,0.056,0.145  c0.06,0.147,0.116,0.295,0.162,0.447c0.02,0.064,0.036,0.13,0.052,0.195c0.013,0.05,0.027,0.1,0.039,0.151  c0.021,0.093,0.038,0.188,0.053,0.282c0.013,0.077,0.024,0.154,0.034,0.232c0.012,0.1,0.021,0.2,0.027,0.301  c0.003,0.054,0.005,0.107,0.006,0.162c0.001,0.042,0.009,0.083,0.009,0.126v182.62v7.269v72.976c0,2.761-2.239,5-5,5s-5-2.239-5-5  V342.104z M126.482,336.036h247.036l-100.247-97.039c0,0,0,0,0,0l-9.685-9.375c-0.952-0.922-1.972-1.728-3.042-2.42  c-7.492-4.839-17.462-4.032-24.128,2.419l-9.686,9.376c0,0,0,0-0.001,0L126.482,336.036z M203.716,41.684h92.567l-32.177-26.607  c-8.174-6.759-20.039-6.759-28.213,0L203.716,41.684z M93.106,133.146l36.255,26.755c0,0,0,0,0.001,0.001l93.453,68.966l6.645-6.432  c11.518-11.15,29.562-11.149,41.081,0l6.644,6.431l93.454-68.966c0,0,0,0,0,0l36.255-26.755l-28.287-23.39v30.18  c0,2.761-2.239,5-5,5s-5-2.239-5-5V57.264c0-3.077-2.503-5.581-5.581-5.581h-52.85H189.823h-52.85c-3.077,0-5.581,2.504-5.581,5.581  v82.672c0,2.761-2.239,5-5,5s-5-2.239-5-5v-30.18L93.106,133.146z M102.766,336.036h9.338L215.53,235.92L89.989,143.274V315.99  v7.269C89.989,330.304,95.721,336.036,102.766,336.036z M410.011,323.259v-7.269V143.274L284.47,235.919l103.426,100.117h9.338  C404.279,336.036,410.011,330.304,410.011,323.259z M175.843,485.899c-2.761,0-5,2.239-5,5v4.1c0,2.761,2.239,5,5,5s5-2.239,5-5  v-4.1C180.843,488.138,178.604,485.899,175.843,485.899z M175.843,355.531c-2.761,0-5,2.239-5,5v108.418c0,2.761,2.239,5,5,5  s5-2.239,5-5V360.531C180.843,357.769,178.604,355.531,175.843,355.531z M324.158,485.899c-2.761,0-5,2.239-5,5v4.1  c0,2.761,2.239,5,5,5s5-2.239,5-5v-4.1C329.158,488.138,326.919,485.899,324.158,485.899z M324.157,473.949c2.761,0,5-2.239,5-5  V360.531c0-2.761-2.239-5-5-5s-5,2.239-5,5v108.418C319.157,471.71,321.396,473.949,324.157,473.949z M226.571,485.9  c-2.761,0-5,2.239-5,5v4.1c0,2.761,2.239,5,5,5s5-2.239,5-5v-4.1C231.571,488.139,229.332,485.9,226.571,485.9z M226.571,355.531  c-2.761,0-5,2.239-5,5v108.418c0,2.761,2.239,5,5,5s5-2.239,5-5V360.531C231.571,357.77,229.332,355.531,226.571,355.531z   M273.43,485.9c-2.761,0-5,2.239-5,5v4.1c0,2.761,2.239,5,5,5s5-2.239,5-5v-4.1C278.43,488.139,276.191,485.9,273.43,485.9z   M273.43,355.531c-2.761,0-5,2.239-5,5v108.418c0,2.761,2.239,5,5,5s5-2.239,5-5V360.531  C278.43,357.77,276.191,355.531,273.43,355.531z M250,183.75h17.831c2.761,0,5-2.239,5-5s-2.239-5-5-5H250  c-24.554,0-44.529-19.976-44.529-44.53S225.446,84.69,250,84.69s44.529,19.976,44.529,44.53v10.749c0,2.761,2.239,5,5,5s5-2.239,5-5  V129.22c0-30.068-24.462-54.53-54.529-54.53s-54.529,24.462-54.529,54.53S219.933,183.75,250,183.75z M292.336,157.276  c0,2.761-2.239,5-5,5h-6.625c-7.868,0-14.395-5.774-15.613-13.304c-4.19,3.211-9.424,5.125-15.099,5.125  c-13.717,0-24.876-11.16-24.876-24.877s11.16-24.877,24.876-24.877c5.574,0,10.725,1.843,14.877,4.95v-1.792c0-2.761,2.239-5,5-5  s5,2.239,5,5v38.94c0,3.217,2.617,5.835,5.834,5.835h6.625C290.097,152.276,292.336,154.514,292.336,157.276z M264.877,129.22  c0-8.203-6.674-14.877-14.877-14.877s-14.876,6.674-14.876,14.877s6.673,14.877,14.876,14.877S264.877,137.423,264.877,129.22z   M285.909,173.75h-1.898c-2.761,0-5,2.239-5,5s2.239,5,5,5h1.898c2.761,0,5-2.239,5-5S288.67,173.75,285.909,173.75z"/>
</svg>
