<?xml version="1.0" encoding="utf-8"?>
<!-- Generator: Adobe Illustrator 22.0.0, SVG Export Plug-In . SVG Version: 6.00 Build 0)  -->
<svg xmlns="http://www.w3.org/2000/svg" xmlns:xlink="http://www.w3.org/1999/xlink" version="1.1" id="Layer_1" x="0px" y="0px" viewBox="0 0 500 500" style="enable-background:new 0 0 500 500;" xml:space="preserve" width="512" height="512">
<style type="text/css">
	.st0{fill:#83E1E5;}
	.st1{fill:#AAB1BA;}
	.st2{fill:#ECF4F7;}
	.st3{fill:#FDDF7F;}
	.st4{fill:#1C1D21;}
	.st5{fill:#FFFFFF;}
</style>
<g>
	<g>
		<path class="st2" d="M410.219,495L410.219,495c31.085,0,56.284-25.199,56.284-56.284V235.842H201.714v202.874    c0,31.085-25.199,56.284-56.284,56.284h0H410.219z"/>
	</g>
</g>
<g>
	<g>
		<path class="st3" d="M270.634,351.379h-5.364h-5.364c-1.906,0-3.457-1.551-3.457-3.461V335.24c0-1.91,1.551-3.461,3.457-3.461    h25.354c6.166,0,11.165-5.002,11.165-11.171c0-6.169-4.999-11.171-11.165-11.171h-6.994v-11.354    c0-6.169-5.002-11.171-11.168-11.171s-11.165,5.002-11.165,11.171v11.662c-12.342,1.919-21.818,12.619-21.818,25.495v12.678    c0,14.229,11.571,25.804,25.791,25.804h5.364h5.364c1.906,0,3.457,1.551,3.457,3.457v12.682c0,1.906-1.551,3.461-3.457,3.461    h-25.351c-6.169,0-11.168,4.999-11.168,11.171c0,6.169,4.999,11.168,11.168,11.168h10.65v11.357    c0,6.169,4.999,11.171,11.165,11.171s11.168-5.002,11.168-11.171V414.51c10.508-3.266,18.159-13.078,18.159-24.649v-12.682    C296.425,362.953,284.854,351.379,270.634,351.379z"/>
	</g>
</g>
<g>
	<g>
		<path class="st1" d="M89.147,160.371v278.345c0,31.084,25.199,56.284,56.284,56.284s56.284-25.199,56.284-56.284V235.842h36.699    v-75.471H89.147z"/>
	</g>
</g>
<g>
	<g>
		<polygon class="st0" points="332.19,40.823 197.877,125.616 238.414,125.616 238.414,235.842 270.736,235.842 270.736,125.616     316.029,125.616 316.029,235.842 348.351,235.842 348.351,125.616 393.644,125.616 393.644,235.842 425.966,235.842     425.966,125.616 466.503,125.616   "/>
	</g>
</g>
<path class="st4" d="M197.876,130.616h268.626c2.227,0,4.185-1.472,4.803-3.611c0.619-2.139-0.251-4.429-2.134-5.617L334.858,36.596  c-1.631-1.029-3.707-1.029-5.338,0l-134.313,84.792c-1.883,1.188-2.753,3.479-2.134,5.617S195.65,130.616,197.876,130.616z   M332.189,46.737l117.027,73.879H215.163L332.189,46.737z M270.735,135.724c2.762,0,5,2.239,5,5v80.011c0,2.761-2.238,5-5,5  s-5-2.239-5-5v-80.011C265.735,137.963,267.974,135.724,270.735,135.724z M238.414,135.724c2.761,0,5,2.239,5,5v80.011  c0,2.761-2.239,5-5,5s-5-2.239-5-5v-80.011C233.414,137.963,235.652,135.724,238.414,135.724z M348.351,135.724c2.762,0,5,2.239,5,5  v80.011c0,2.761-2.238,5-5,5s-5-2.239-5-5v-80.011C343.351,137.963,345.589,135.724,348.351,135.724z M316.029,135.724  c2.762,0,5,2.239,5,5v80.011c0,2.761-2.238,5-5,5s-5-2.239-5-5v-80.011C311.029,137.963,313.268,135.724,316.029,135.724z   M425.966,135.724c2.762,0,5,2.239,5,5v80.011c0,2.761-2.238,5-5,5s-5-2.239-5-5v-80.011  C420.966,137.963,423.204,135.724,425.966,135.724z M393.645,135.724c2.762,0,5,2.239,5,5v80.011c0,2.761-2.238,5-5,5s-5-2.239-5-5  v-80.011C388.645,137.963,390.883,135.724,393.645,135.724z M466.503,230.842H201.714h0h0c-2.761,0-5,2.239-5,5v202.874  c0,25.627-18.894,46.924-43.484,50.692c-2.544,0.39-5.148,0.592-7.8,0.592c-28.278,0-51.284-23.006-51.284-51.284V165.371h125.89  c2.761,0,5-2.239,5-5s-2.239-5-5-5H89.147c-2.761,0-5,2.239-5,5v278.345c0,21.438,11.073,40.328,27.792,51.284H63.348  c-2.761,0-5,2.239-5,5s2.239,5,5,5h82.083H410.22c33.792,0,61.283-27.492,61.283-61.284V235.842  C471.503,233.081,469.265,230.842,466.503,230.842z M461.503,438.716c0,28.278-23.006,51.284-51.283,51.284H178.95  c0.166-0.109,0.327-0.223,0.492-0.333c0.159-0.106,0.316-0.214,0.474-0.321c0.723-0.494,1.439-0.999,2.14-1.523  c0.03-0.022,0.058-0.046,0.088-0.068c0.676-0.507,1.337-1.031,1.991-1.566c0.146-0.119,0.293-0.238,0.438-0.359  c0.659-0.548,1.308-1.108,1.943-1.683c0.107-0.096,0.21-0.196,0.316-0.293c0.57-0.523,1.13-1.058,1.68-1.602  c0.113-0.112,0.229-0.223,0.341-0.336c0.601-0.604,1.189-1.222,1.765-1.851c0.127-0.138,0.251-0.279,0.377-0.418  c0.54-0.6,1.07-1.209,1.586-1.83c0.052-0.062,0.105-0.122,0.156-0.184c0.548-0.665,1.079-1.345,1.599-2.034  c0.122-0.161,0.242-0.322,0.362-0.484c0.513-0.693,1.016-1.394,1.501-2.109c0.047-0.07,0.092-0.142,0.139-0.212  c0.449-0.669,0.883-1.349,1.306-2.036c0.1-0.162,0.2-0.323,0.298-0.485c0.442-0.733,0.871-1.476,1.283-2.228  c0.078-0.143,0.153-0.287,0.23-0.431c0.368-0.685,0.723-1.377,1.065-2.076c0.065-0.133,0.132-0.264,0.196-0.397  c0.374-0.779,0.73-1.569,1.071-2.366c0.076-0.177,0.15-0.356,0.224-0.534c0.329-0.787,0.645-1.58,0.942-2.384  c0.014-0.038,0.03-0.076,0.044-0.114c0.306-0.834,0.588-1.679,0.857-2.529c0.059-0.187,0.118-0.374,0.176-0.562  c0.26-0.848,0.506-1.701,0.73-2.564c0.025-0.095,0.046-0.192,0.07-0.287c0.204-0.802,0.39-1.612,0.562-2.427  c0.036-0.173,0.075-0.345,0.11-0.518c0.177-0.875,0.335-1.756,0.473-2.644c0.026-0.164,0.048-0.33,0.072-0.494  c0.122-0.824,0.229-1.653,0.317-2.488c0.013-0.119,0.028-0.237,0.04-0.356c0.091-0.909,0.159-1.826,0.209-2.746  c0.011-0.193,0.019-0.387,0.028-0.581c0.043-0.939,0.072-1.881,0.072-2.83V240.842h254.789V438.716z M261.992,15.833  c0-2.761,2.238-5,5-5h5.833V5c0-2.761,2.238-5,5-5s5,2.239,5,5v5.833h5.833c2.762,0,5,2.239,5,5s-2.238,5-5,5h-5.833v5.833  c0,2.761-2.238,5-5,5s-5-2.239-5-5v-5.833h-5.833C264.23,20.833,261.992,18.594,261.992,15.833z M218.656,45.169  c0-2.761,2.239-5,5-5h5.833v-5.833c0-2.761,2.239-5,5-5s5,2.239,5,5v5.833h5.833c2.761,0,5,2.239,5,5s-2.239,5-5,5h-5.833v5.833  c0,2.761-2.239,5-5,5s-5-2.239-5-5v-5.833h-5.833C220.895,50.169,218.656,47.93,218.656,45.169z M229.116,438.189  c0,2.761,2.239,5,5,5h155.577c2.762,0,5-2.239,5-5s-2.238-5-5-5H282.037c0.789-1.903,1.23-3.986,1.23-6.171v-9.061  c10.998-4.925,18.159-15.793,18.159-28.097v-12.681c0-16.983-13.813-30.801-30.791-30.801h-9.186v-9.6h23.811  c8.914,0,16.166-7.254,16.166-16.171s-7.252-16.171-16.166-16.171h-1.993v-6.354c0-8.917-7.253-16.171-16.168-16.171  c-8.913,0-16.165,7.254-16.165,16.171v7.696c-12.696,3.905-21.818,15.886-21.818,29.462v12.678  c0,16.985,13.813,30.804,30.791,30.804h9.186v9.6h-23.808c-8.915,0-16.168,7.254-16.168,16.171c0,8.916,7.253,16.168,16.168,16.168  h5.65v6.357c0,2.185,0.441,4.268,1.229,6.171h-18.047C231.354,433.189,229.116,435.428,229.116,438.189z M260.934,427.018v-11.357  c0-2.761-2.238-5-5-5h-10.65c-3.401,0-6.168-2.767-6.168-6.168c0-3.403,2.767-6.171,6.168-6.171h25.351  c4.663,0,8.457-3.795,8.457-8.461v-12.681c0-4.664-3.794-8.458-8.457-8.458h-10.729c-11.464,0-20.791-9.333-20.791-20.804V335.24  c0-10.159,7.561-18.996,17.586-20.555c2.436-0.378,4.231-2.476,4.231-4.94v-11.662c0-3.403,2.766-6.171,6.165-6.171  c3.401,0,6.168,2.769,6.168,6.171v11.354c0,2.761,2.238,5,5,5h6.993c3.4,0,6.166,2.769,6.166,6.171s-2.766,6.171-6.166,6.171  h-25.354c-4.663,0-8.457,3.795-8.457,8.461v12.678c0,4.665,3.794,8.46,8.457,8.46h10.729c11.464,0,20.791,9.331,20.791,20.801  v12.681c0,9.166-5.885,17.153-14.643,19.874c-2.092,0.65-3.517,2.585-3.517,4.775v12.509c0,3.403-2.767,6.171-6.168,6.171  C263.699,433.189,260.934,430.421,260.934,427.018z M416.653,438.189c0,2.761-2.238,5-5,5h-3.121c-2.762,0-5-2.239-5-5s2.238-5,5-5  h3.121C414.415,433.189,416.653,435.428,416.653,438.189z M320.896,286.911c0-2.761,2.238-5,5-5h85.757c2.762,0,5,2.239,5,5  s-2.238,5-5,5h-85.757C323.135,291.911,320.896,289.672,320.896,286.911z M320.896,312.528c0-2.761,2.238-5,5-5h85.757  c2.762,0,5,2.239,5,5s-2.238,5-5,5h-85.757C323.135,317.528,320.896,315.289,320.896,312.528z M320.896,338.145c0-2.761,2.238-5,5-5  h85.757c2.762,0,5,2.239,5,5s-2.238,5-5,5h-85.757C323.135,343.145,320.896,340.906,320.896,338.145z M320.896,363.762  c0-2.761,2.238-5,5-5h85.757c2.762,0,5,2.239,5,5s-2.238,5-5,5h-85.757C323.135,368.762,320.896,366.523,320.896,363.762z   M45.027,495c0,2.761-2.239,5-5,5h-6.53c-2.761,0-5-2.239-5-5s2.239-5,5-5h6.53C42.788,490,45.027,492.239,45.027,495z"/>
</svg>
