<?xml version="1.0" encoding="utf-8"?>
<!-- Generator: Adobe Illustrator 22.0.0, SVG Export Plug-In . SVG Version: 6.00 Build 0)  -->
<svg xmlns="http://www.w3.org/2000/svg" xmlns:xlink="http://www.w3.org/1999/xlink" version="1.1" id="Layer_1" x="0px" y="0px" viewBox="0 0 500 500" style="enable-background:new 0 0 500 500;" xml:space="preserve" width="512" height="512">
<style type="text/css">
	.st0{fill:#83E1E5;}
	.st1{fill:#AAB1BA;}
	.st2{fill:#ECF4F7;}
	.st3{fill:#FDDF7F;}
	.st4{fill:#1C1D21;}
	.st5{fill:#FFFFFF;}
</style>
<g>
	<g>
		<path class="st1" d="M250,5C155.63,5,79.128,81.502,79.128,175.872c0,88.079,66.644,160.581,152.256,169.859v130.654    c0,10.281,8.335,18.616,18.616,18.616s18.616-8.335,18.616-18.616V345.73c85.611-9.277,152.255-81.78,152.255-169.859    C420.871,81.502,344.37,5,250,5z"/>
	</g>
</g>
<g>
	<g>
		<circle class="st0" cx="250" cy="175.872" r="136.793"/>
	</g>
</g>
<g>
	<g>
		<path class="st2" d="M302.798,215.833H197.202c-14.098,0-25.527,11.428-25.527,25.527v46.666    c22.188,15.524,49.19,24.639,78.325,24.639s56.137-9.115,78.325-24.639v-46.666C328.324,227.261,316.896,215.833,302.798,215.833z    "/>
	</g>
</g>
<g>
	<g>
		<path class="st0" d="M239.374,215.832l-3.193,96.141c4.544,0.456,9.154,0.692,13.818,0.692c4.665,0,9.274-0.236,13.819-0.692    l-3.193-96.141H239.374z"/>
	</g>
</g>
<g>
	<g>
		<circle class="st3" cx="250" cy="153.221" r="62.612"/>
	</g>
</g>
<path class="st4" d="M94.961,335.91c0,2.762-2.239,5-5,5h-5.833v5.833c0,2.762-2.239,5-5,5s-5-2.238-5-5v-5.833h-5.833  c-2.761,0-5-2.238-5-5s2.239-5,5-5h5.833v-5.832c0-2.762,2.239-5,5-5s5,2.238,5,5v5.832h5.833  C92.723,330.91,94.961,333.148,94.961,335.91z M79.128,311.991c2.761,0,5-2.238,5-5v-4.723c0-2.762-2.239-5-5-5s-5,2.238-5,5v4.723  C74.128,309.753,76.367,311.991,79.128,311.991z M431.704,10.833h-5.833V5c0-2.761-2.238-5-5-5s-5,2.239-5,5v5.833h-5.832  c-2.762,0-5,2.239-5,5s2.238,5,5,5h5.832v5.833c0,2.761,2.238,5,5,5s5-2.239,5-5v-5.833h5.833c2.762,0,5-2.239,5-5  S434.466,10.833,431.704,10.833z M420.871,39.752c-2.762,0-5,2.239-5,5v4.723c0,2.761,2.238,5,5,5s5-2.239,5-5v-4.723  C425.871,41.991,423.633,39.752,420.871,39.752z M425.871,70.138v104.8c0,0.036-0.01,0.069-0.01,0.104  c0.001,0.277,0.01,0.552,0.01,0.83c0,96.976-78.896,175.872-175.871,175.872c-76.49,0-141.72-49.089-165.871-117.414v47.276  c0,2.762-2.239,5-5,5s-5-2.238-5-5v-104.8c0-0.033,0.009-0.063,0.01-0.096c-0.001-0.28-0.011-0.558-0.011-0.838  C74.128,78.896,153.024,0,250,0c76.491,0,141.721,49.09,165.871,117.416V70.138c0-2.761,2.238-5,5-5S425.871,67.376,425.871,70.138z   M415.871,175.872C415.871,84.41,341.462,10,250,10S84.128,84.41,84.128,175.872c0,91.461,74.41,165.872,165.872,165.872  S415.871,267.333,415.871,175.872z M391.793,175.872c0,78.185-63.608,141.792-141.793,141.792  c-78.185,0-141.793-63.607-141.793-141.792c0-78.185,63.608-141.792,141.793-141.792C328.185,34.079,391.793,97.687,391.793,175.872  z M381.793,175.872c0-72.67-59.122-131.792-131.793-131.792s-131.793,59.122-131.793,131.792S177.329,307.664,250,307.664  S381.793,248.542,381.793,175.872z M268.616,358.692c-2.762,0-5,2.238-5,5v112.692c0,7.508-6.108,13.615-13.616,13.615  s-13.616-6.107-13.616-13.615V363.692c0-2.762-2.239-5-5-5s-5,2.238-5,5v112.692C226.384,489.406,236.978,500,250,500  c13.022,0,23.616-10.594,23.616-23.615V363.692C273.616,360.931,271.378,358.692,268.616,358.692z M204.758,246.294  c-2.761,0-5,2.239-5,5v33.055c0,2.762,2.239,5,5,5s5-2.238,5-5v-33.055C209.758,248.533,207.519,246.294,204.758,246.294z   M295.241,246.294c-2.762,0-5,2.239-5,5v33.055c0,2.762,2.238,5,5,5s5-2.238,5-5v-33.055  C300.241,248.533,298.003,246.294,295.241,246.294z M333.324,241.359v22.89c0,2.762-2.238,5-5,5s-5-2.238-5-5v-22.89  c0-11.318-9.208-20.527-20.526-20.527h-37.004l2.415,72.708c0.092,2.76-2.071,5.071-4.831,5.163  c-0.057,0.002-0.113,0.003-0.169,0.003c-2.685,0-4.904-2.131-4.994-4.834l-2.427-73.04h-11.577l-2.426,73.04  c-0.091,2.76-2.385,4.942-5.163,4.831c-2.76-0.092-4.923-2.403-4.831-5.163l2.415-72.708h-37.004  c-11.318,0-20.527,9.208-20.527,20.527v22.89c0,2.762-2.239,5-5,5s-5-2.238-5-5v-22.89c0-16.833,13.694-30.527,30.527-30.527h17.457  c-19.344-11.91-32.271-33.277-32.271-57.612c0-37.281,30.331-67.612,67.612-67.612s67.612,30.331,67.612,67.612  c0,24.335-12.928,45.702-32.271,57.612h17.457C319.63,210.833,333.324,224.527,333.324,241.359z M249.981,210.832h0.039  c31.759-0.011,57.593-25.851,57.593-57.611c0-31.767-25.845-57.612-57.612-57.612c-31.767,0-57.612,25.845-57.612,57.612  C192.388,184.981,218.223,210.821,249.981,210.832z"/>
</svg>
