<?xml version="1.0" encoding="utf-8"?>
<!-- Generator: Adobe Illustrator 22.0.0, SVG Export Plug-In . SVG Version: 6.00 Build 0)  -->
<svg xmlns="http://www.w3.org/2000/svg" xmlns:xlink="http://www.w3.org/1999/xlink" version="1.1" id="Layer_1" x="0px" y="0px" viewBox="0 0 500 500" style="enable-background:new 0 0 500 500;" xml:space="preserve" width="512" height="512">
<style type="text/css">
	.st0{fill:#83E1E5;}
	.st1{fill:#AAB1BA;}
	.st2{fill:#ECF4F7;}
	.st3{fill:#FDDF7F;}
	.st4{fill:#1C1D21;}
	.st5{fill:#FFFFFF;}
</style>
<g>
	<g>
		<path class="st0" d="M433.706,188.706C433.706,87.248,351.458,5,250,5S66.294,87.248,66.294,188.706    c0,78.098,48.739,144.804,117.456,171.385c0.439-3.815,2.109-7.516,5.036-10.442v0c6.886-6.886,18.051-6.886,24.938,0    l20.193,20.193v-114.82c0-8.842,7.167-16.009,16.009-16.009h0c8.842,0,16.009,7.167,16.009,16.009v74.763h67.959    c7.973,0,14.72,5.229,17.011,12.442C400.78,309.379,433.706,252.892,433.706,188.706z"/>
	</g>
</g>
<g>
	<g>
		<circle class="st3" cx="250" cy="188.706" r="21.487"/>
	</g>
</g>
<g>
	<g>
		<circle class="st3" cx="182.741" cy="290.168" r="21.487"/>
	</g>
</g>
<g>
	<g>
		<circle class="st3" cx="316.334" cy="84.826" r="21.487"/>
	</g>
</g>
<g>
	<g>
		<path class="st3" d="M333.894,329.785h-67.959v-74.763c0-8.842-7.168-16.009-16.009-16.009h0c-8.842,0-16.009,7.168-16.009,16.009    v114.82l-20.193-20.193c-6.886-6.886-18.051-6.886-24.937,0v0c-6.886,6.886-6.886,18.051,0,24.937l14.122,14.122    c19.854,19.854,31.008,46.782,31.008,74.86V495h117.828v-19.691V459.94V347.635C351.744,337.776,343.752,329.785,333.894,329.785z    "/>
	</g>
</g>
<path class="st4" d="M398.952,15.833c0-2.761,2.238-5,5-5h5.832V5c0-2.761,2.238-5,5-5s5,2.239,5,5v5.833h5.833c2.762,0,5,2.239,5,5  s-2.238,5-5,5h-5.833v5.833c0,2.761-2.238,5-5,5s-5-2.239-5-5v-5.833h-5.832C401.19,20.833,398.952,18.594,398.952,15.833z   M125.282,380.497h-5.833v-5.833c0-2.761-2.238-5-5-5s-5,2.239-5,5v5.833h-5.833c-2.762,0-5,2.239-5,5s2.238,5,5,5h5.833v5.833  c0,2.761,2.238,5,5,5s5-2.239,5-5v-5.833h5.833c2.762,0,5-2.239,5-5S128.044,380.497,125.282,380.497z M378.295,327.059  c-0.113,0.116-0.232,0.224-0.354,0.327c-3.185,2.934-6.469,5.785-9.878,8.522c-2.154,1.729-5.3,1.386-7.029-0.768  c-1.729-2.153-1.386-5.3,0.768-7.029c1.737-1.395,3.433-2.828,5.109-4.277c-14.255-10.777-29.769-19.451-46.162-25.869  c-1.919,5.969-4.002,11.713-6.246,17.196c-0.793,1.936-2.66,3.107-4.63,3.107c-0.631,0-1.271-0.12-1.892-0.374  c-2.556-1.046-3.78-3.966-2.734-6.521c2.192-5.355,4.224-10.974,6.094-16.817c-13.039-4.336-26.569-7.275-40.407-8.758v38.986  h62.959c12.6,0,22.851,10.25,22.851,22.85V495c0,2.761-2.238,5-5,5s-5-2.239-5-5V347.635c0-7.085-5.765-12.85-12.851-12.85h-6.606  v24.777c0,2.761-2.238,5-5,5s-5-2.239-5-5v-24.777h-17.376v24.777c0,2.761-2.238,5-5,5s-5-2.239-5-5v-24.777h-18.977v24.777  c0,2.761-2.238,5-5,5s-5-2.239-5-5v-29.777v-74.763c0-6.07-4.938-11.009-11.01-11.009c-6.07,0-11.009,4.939-11.009,11.009v114.82  v15.655c0,2.761-2.238,5-5,5s-5-2.239-5-5v-13.584l-18.728-18.728c-2.387-2.386-5.56-3.7-8.934-3.7c-3.375,0-6.547,1.314-8.933,3.7  c-2.387,2.387-3.701,5.559-3.701,8.934s1.314,6.547,3.7,8.933l14.122,14.122c20.94,20.941,32.473,48.782,32.473,78.396V495  c0,2.761-2.238,5-5,5h-50.295c-2.762,0-5-2.239-5-5s2.238-5,5-5h45.295v-26.432c0-26.942-10.492-52.272-29.543-71.324  l-14.122-14.122c-4.275-4.275-6.63-9.958-6.63-16.004s2.354-11.729,6.63-16.004c4.274-4.275,9.958-6.629,16.004-6.629  c6.045,0,11.729,2.354,16.004,6.629l11.657,11.657v-71.955c-6.624,0.717-13.223,1.773-19.718,3.161  c0.018,0.395,0.03,0.792,0.03,1.191c0,9.955-5.522,18.64-13.661,23.165c1.79,4.244,3.676,8.304,5.631,12.115  c1.26,2.457,0.29,5.471-2.167,6.731c-0.73,0.375-1.511,0.552-2.278,0.552c-1.815,0-3.567-0.992-4.453-2.719  c-2.185-4.261-4.282-8.816-6.264-13.567c-1.081,0.135-2.178,0.212-3.295,0.212c-8.678,0-16.395-4.195-21.229-10.664  c-9.954,5.11-19.488,11.088-28.44,17.853c9.834,8.504,20.667,16.031,32.417,22.35c2.432,1.308,3.344,4.34,2.035,6.772  c-0.902,1.678-2.627,2.633-4.407,2.633c-0.8,0-1.61-0.192-2.364-0.597c-61.349-32.989-99.46-96.71-99.46-166.296  c0-54.355,23.11-103.407,60.009-137.873c0.031-0.041,0.051-0.087,0.083-0.128c0.33-0.41,0.722-0.733,1.139-1.01  C156.128,18.854,200.902,0,250,0c49.099,0,93.873,18.855,127.477,49.697c0.415,0.276,0.807,0.599,1.136,1.008  c0.032,0.04,0.051,0.085,0.082,0.126c36.9,34.466,60.011,83.519,60.011,137.875C438.706,241.678,416.839,291.373,378.295,327.059z   M374.338,60.48c-9.981,7.677-20.666,14.424-31.857,20.124c0.221,1.375,0.34,2.785,0.34,4.221c0,10.263-5.872,19.176-14.429,23.571  c5.033,23.66,7.734,48.949,8.036,75.309h92.204C427.3,135.438,406.73,91.899,374.338,60.48z M326.428,183.706  c-0.298-25.39-2.87-49.736-7.661-72.509c-0.802,0.073-1.613,0.116-2.433,0.116c-9.776,0-18.325-5.327-22.914-13.227  c-12.578,2.725-25.461,4.266-38.42,4.58v60.032c10.602,2.034,18.973,10.406,21.008,21.008H326.428z M266.487,188.706  c0-9.091-7.396-16.488-16.487-16.488s-16.487,7.396-16.487,16.488s7.396,16.487,16.487,16.487S266.487,197.797,266.487,188.706z   M223.992,183.706c2.034-10.602,10.406-18.974,21.008-21.008V102.67c-20.207-0.5-40.172-4.025-59.202-10.332  c-7.599,27.168-11.836,58.509-12.226,91.368H223.992z M316.334,68.338c-9.091,0-16.487,7.396-16.487,16.487  s7.396,16.487,16.487,16.487s16.487-7.396,16.487-16.487S325.425,68.338,316.334,68.338z M303.411,61.717  c-13.182-30.139-30.48-48.415-48.411-51.3v82.249c11.839-0.301,23.611-1.673,35.117-4.09c-0.175-1.226-0.27-2.477-0.27-3.75  C289.847,74.911,295.325,66.257,303.411,61.717z M196.97,60.833c-3.065,6.913-5.846,14.299-8.339,22.076  c17.99,5.98,36.906,9.278,56.37,9.76v-82.25C227.333,13.302,210.062,31.309,196.97,60.833z M281.979,12.87  c11.655,9.89,22.182,25.306,30.973,45.691c1.108-0.142,2.235-0.223,3.382-0.223c9.607,0,18.035,5.142,22.679,12.818  c9.743-5.039,19.075-10.917,27.852-17.543C343.176,33.093,314.054,18.689,281.979,12.87z M218.111,12.853  c-32.11,5.808-61.264,20.22-84.975,40.759c14.316,10.83,29.778,19.495,46.09,25.889c2.574-7.994,5.442-15.596,8.602-22.722  C196.471,37.288,206.77,22.461,218.111,12.853z M71.367,183.706h92.203c0.396-34.021,4.834-66.538,12.799-94.757  c-18.102-6.996-35.22-16.551-50.717-28.46C93.266,91.907,72.7,135.443,71.367,183.706z M157.15,296.994  c-0.582-2.179-0.896-4.466-0.896-6.826c0-10.415,6.045-19.441,14.808-23.766c-4.683-22.921-7.199-47.33-7.491-72.696H71.379  c1.311,47.21,21.123,91.228,54.198,123.291C135.475,309.377,146.062,302.67,157.15,296.994z M199.229,290.168  c0-9.091-7.396-16.487-16.487-16.487s-16.487,7.396-16.487,16.487s7.396,16.488,16.487,16.488S199.229,299.259,199.229,290.168z   M245,234.619v-19.906c-10.602-2.034-18.973-10.406-21.008-21.008h-50.422c0.288,24.457,2.689,47.978,7.155,70.059  c0.666-0.05,1.336-0.084,2.015-0.084c10.713,0,19.954,6.397,24.122,15.568c7.26-1.561,14.645-2.729,22.053-3.492v-20.735  C228.916,245.136,235.788,236.845,245,234.619z M314.207,284.972c7.583-27.208,11.826-58.616,12.22-91.266h-50.419  c-2.034,10.602-10.406,18.973-21.008,21.008v19.944c9.136,2.279,15.935,10.532,15.935,20.364v20.72  C285.758,277.251,300.249,280.354,314.207,284.972z M374.409,316.973c33.501-32.427,52.937-76.328,54.227-123.267h-92.208  c-0.399,33.81-4.844,66.399-12.791,94.652C341.721,295.354,358.8,304.951,374.409,316.973z M163.124,490h-4.318  c-2.762,0-5,2.239-5,5s2.238,5,5,5h4.318c2.762,0,5-2.239,5-5S165.886,490,163.124,490z"/>
</svg>
