<?xml version="1.0" encoding="utf-8"?>
<!-- Generator: Adobe Illustrator 22.0.0, SVG Export Plug-In . SVG Version: 6.00 Build 0)  -->
<svg xmlns="http://www.w3.org/2000/svg" xmlns:xlink="http://www.w3.org/1999/xlink" version="1.1" id="Layer_1" x="0px" y="0px" viewBox="0 0 500 500" style="enable-background:new 0 0 500 500;" xml:space="preserve" width="512" height="512">
<style type="text/css">
	.st0{fill:#83E1E5;}
	.st1{fill:#AAB1BA;}
	.st2{fill:#ECF4F7;}
	.st3{fill:#FDDF7F;}
	.st4{fill:#1C1D21;}
	.st5{fill:#FFFFFF;}
</style>
<g>
	<g>
		<path class="st0" d="M444.488,252.476H414.83c-4.357-21.261-12.733-41.054-24.286-58.567l20.99-20.99    c5.499-5.498,5.499-14.413,0-19.912l-28.109-28.109c-5.499-5.499-14.413-5.499-19.912,0l-20.99,20.99    c-11.432-7.542-23.849-13.701-36.999-18.299v43.949l20.078,20.078c12.847,12.847,20.063,30.27,20.063,48.437v67.013    l-18.323-18.323c1.161,5.393,1.788,10.987,1.788,16.729c0,43.702-35.428,79.13-79.13,79.13s-79.13-35.428-79.13-79.13    c0-5.742,0.627-11.336,1.788-16.729l-18.323,18.323v-67.013c0-18.167,7.217-35.59,20.063-48.437l20.078-20.078v-43.949    c-13.15,4.599-25.567,10.758-36.999,18.299l-20.99-20.99c-5.499-5.499-14.413-5.499-19.912,0l-28.109,28.109    c-5.499,5.498-5.499,14.413,0,19.912l20.99,20.99c-11.553,17.514-19.929,37.306-24.286,58.567H55.512    c-7.776,0-14.08,6.304-14.08,14.08v39.752c0,7.776,6.304,14.08,14.08,14.08H85.17c4.357,21.261,12.734,41.054,24.286,58.567    l-20.99,20.99c-5.499,5.498-5.499,14.413,0,19.911l28.109,28.109c5.499,5.499,14.413,5.499,19.912,0l20.99-20.99    c17.513,11.553,37.306,19.929,58.567,24.287v29.658c0,7.776,6.304,14.08,14.08,14.08h39.752c7.776,0,14.08-6.304,14.08-14.08    v-29.658c21.261-4.357,41.054-12.733,58.567-24.287l20.99,20.99c5.498,5.499,14.413,5.499,19.912,0l28.109-28.109    c5.499-5.498,5.499-14.413,0-19.911l-20.99-20.99c11.553-17.514,19.929-37.306,24.286-58.567h29.658    c7.776,0,14.08-6.304,14.08-14.08v-39.752C458.568,258.78,452.264,252.476,444.488,252.476z"/>
	</g>
</g>
<g>
	<g>
		<rect x="194.477" y="242.603" class="st1" width="111.047" height="24.321"/>
	</g>
</g>
<g>
	<g>
		<path class="st2" d="M325.602,191.615l-20.078-20.078v-67.974c0-27.395-9.128-54.008-25.941-75.636l-10.607-13.644    c-9.622-12.377-28.328-12.377-37.95,0l-10.607,13.644c-16.814,21.628-25.941,48.242-25.941,75.636v67.974l-20.078,20.078    c-12.846,12.847-20.063,30.27-20.063,48.437v67.014l40.142-40.142v-24.321h111.047v24.321l40.142,40.142v-67.014    C345.665,221.886,338.448,204.462,325.602,191.615z"/>
	</g>
</g>
<g>
	<g>
		<circle class="st0" cx="250" cy="115.939" r="28.727"/>
	</g>
</g>
<g>
	<g>
		<path class="st1" d="M327.342,288.743l-21.818-21.819H194.477l-21.818,21.819c-1.161,5.394-1.788,10.987-1.788,16.729    c0,43.702,35.428,79.13,79.13,79.13s79.13-35.428,79.13-79.13C329.13,299.731,328.503,294.137,327.342,288.743z"/>
	</g>
</g>
<g>
	<g>
		<path class="st3" d="M250,384.602c15.069,0,29.152-4.215,41.14-11.525V266.924H208.86v106.153    C220.848,380.387,234.931,384.602,250,384.602z"/>
	</g>
</g>
<path class="st4" d="M141.967,58.876c0-2.762,2.239-5,5-5h5.833v-5.833c0-2.762,2.239-5,5-5s5,2.238,5,5v5.833h5.833  c2.761,0,5,2.238,5,5s-2.239,5-5,5h-5.833v5.833c0,2.762-2.239,5-5,5s-5-2.238-5-5v-5.833h-5.833  C144.206,63.876,141.967,61.638,141.967,58.876z M331.368,63.876h5.833v5.833c0,2.762,2.239,5,5,5s5-2.238,5-5v-5.833h5.833  c2.761,0,5-2.238,5-5s-2.239-5-5-5h-5.833v-5.833c0-2.762-2.239-5-5-5s-5,2.238-5,5v5.833h-5.833c-2.761,0-5,2.238-5,5  S328.606,63.876,331.368,63.876z M444.488,247.476H418.86c-4.306-18.756-11.668-36.509-21.931-52.882l18.14-18.14  c3.604-3.604,5.589-8.396,5.589-13.491c0-5.097-1.985-9.889-5.588-13.491l-28.109-28.109c-3.604-3.604-8.395-5.589-13.492-5.589  s-9.888,1.984-13.492,5.589l-18.141,18.141c-5.167-3.233-10.527-6.209-15.984-8.869c-2.482-1.209-5.475-0.179-6.686,2.303  c-1.21,2.482-0.179,5.476,2.303,6.686c6.292,3.067,12.449,6.58,18.3,10.439c1.981,1.306,4.608,1.041,6.289-0.639l20.99-20.99  c1.715-1.715,3.995-2.659,6.42-2.659s4.706,0.944,6.42,2.659l28.109,28.11c1.715,1.714,2.659,3.994,2.659,6.42  c0,2.425-0.944,4.705-2.66,6.42l-20.99,20.99c-1.679,1.679-1.945,4.307-0.638,6.288c11.472,17.392,19.4,36.508,23.562,56.818  c0.477,2.326,2.524,3.996,4.898,3.996h29.658c5.006,0,9.08,4.073,9.08,9.08v39.752c0,5.007-4.073,9.08-9.08,9.08H414.83  c-2.375,0-4.421,1.67-4.898,3.996c-4.162,20.31-12.089,39.426-23.562,56.818c-1.307,1.981-1.041,4.609,0.638,6.288l20.991,20.991  c1.715,1.714,2.659,3.994,2.659,6.42s-0.944,4.706-2.66,6.421l-28.109,28.108c-1.715,1.715-3.995,2.659-6.42,2.659  s-4.705-0.944-6.42-2.659l-20.991-20.99c-1.681-1.681-4.308-1.945-6.289-0.639c-17.392,11.473-36.508,19.4-56.817,23.562  c-2.326,0.477-3.996,2.523-3.996,4.898v29.658c0,5.007-4.073,9.08-9.08,9.08h-39.752c-5.007,0-9.08-4.073-9.08-9.08v-29.658  c0-2.375-1.67-4.422-3.996-4.898c-20.31-4.161-39.426-12.089-56.817-23.562c-1.983-1.307-4.61-1.042-6.289,0.639l-20.99,20.99  c-1.715,1.715-3.995,2.659-6.42,2.659s-4.706-0.944-6.42-2.659l-28.109-28.109c-1.715-1.714-2.659-3.994-2.659-6.42  s0.944-4.706,2.66-6.421l20.99-20.99c1.679-1.679,1.945-4.307,0.638-6.288c-11.473-17.393-19.4-36.509-23.562-56.818  c-0.477-2.326-2.524-3.996-4.898-3.996H55.512c-5.006,0-9.08-4.073-9.08-9.08v-39.752c0-5.007,4.073-9.08,9.08-9.08H85.17  c2.375,0,4.421-1.67,4.898-3.996c4.162-20.311,12.089-39.427,23.562-56.818c1.307-1.981,1.041-4.609-0.638-6.288l-20.991-20.991  c-1.715-1.714-2.659-3.994-2.659-6.419c0-2.426,0.944-4.706,2.66-6.421l28.109-28.109c1.715-1.715,3.995-2.659,6.42-2.659  s4.706,0.944,6.42,2.659l20.99,20.99c1.679,1.68,4.307,1.944,6.289,0.639c6.256-4.127,12.857-7.854,19.622-11.077  c2.493-1.188,3.551-4.172,2.363-6.664c-1.188-2.493-4.17-3.553-6.665-2.363c-5.951,2.836-11.784,6.039-17.387,9.546l-18.141-18.141  c-3.604-3.604-8.395-5.589-13.492-5.589s-9.888,1.984-13.492,5.589l-28.108,28.108c-3.604,3.604-5.589,8.396-5.589,13.492  c0,5.096,1.985,9.888,5.588,13.49l18.141,18.141c-10.263,16.373-17.625,34.126-21.931,52.882H55.512  c-10.521,0-19.08,8.56-19.08,19.08v39.752c0,10.521,8.559,19.08,19.08,19.08H81.14c4.306,18.756,11.668,36.509,21.931,52.882  l-18.14,18.14c-3.604,3.604-5.589,8.396-5.589,13.492s1.985,9.889,5.588,13.491l28.109,28.108c3.604,3.604,8.395,5.589,13.492,5.589  s9.888-1.984,13.492-5.589l18.14-18.14c16.373,10.263,34.126,17.625,52.881,21.931v25.628c0,10.521,8.559,19.08,19.08,19.08h39.752  c10.521,0,19.08-8.56,19.08-19.08v-25.628c18.755-4.306,36.509-11.668,52.881-21.931l18.141,18.14  c3.604,3.604,8.395,5.589,13.491,5.589s9.888-1.984,13.492-5.589l28.108-28.107c3.604-3.604,5.589-8.396,5.589-13.492  s-1.985-9.889-5.588-13.491l-18.141-18.141c10.263-16.373,17.625-34.126,21.931-52.882h25.628c10.521,0,19.08-8.56,19.08-19.08  v-39.752C463.568,256.035,455.009,247.476,444.488,247.476z M216.273,115.939c0-18.598,15.13-33.728,33.727-33.728  s33.727,15.13,33.727,33.728c0,18.597-15.13,33.727-33.727,33.727S216.273,134.536,216.273,115.939z M226.273,115.939  c0,13.083,10.644,23.727,23.727,23.727s23.727-10.644,23.727-23.727S263.083,92.212,250,92.212S226.273,102.856,226.273,115.939z   M189.477,169.466v-65.903c0-28.361,9.586-56.313,26.994-78.704l10.607-13.645C232.618,4.088,240.973,0,250,0  s17.382,4.088,22.923,11.215l10.607,13.645c17.407,22.392,26.994,50.343,26.994,78.704v65.903l18.614,18.615  c13.882,13.881,21.528,32.339,21.528,51.972v67.014c0,2.022-1.218,3.846-3.086,4.619c-0.619,0.257-1.269,0.381-1.913,0.381  c-1.301,0-2.58-0.508-3.537-1.465l-38.677-38.677h-7.313V348.5c0,2.762-2.239,5-5,5s-5-2.238-5-5v-76.575h-17.614V348.5  c0,2.762-2.239,5-5,5s-5-2.238-5-5v-76.575h-17.052V348.5c0,2.762-2.239,5-5,5s-5-2.238-5-5v-76.575H213.86V348.5  c0,2.762-2.239,5-5,5s-5-2.238-5-5v-76.575h-7.313l-38.677,38.677c-0.957,0.957-2.235,1.465-3.537,1.465  c-0.644,0-1.294-0.124-1.913-0.381c-1.868-0.773-3.086-2.597-3.086-4.619v-67.014c0-19.633,7.646-38.091,21.528-51.973  L189.477,169.466z M159.335,294.995l30.142-30.142v-22.25v-58.995l-11.542,11.543c-11.994,11.993-18.599,27.939-18.599,44.901  V294.995z M300.523,247.604H199.477v14.321h9.374c0.003,0,0.006-0.001,0.01-0.001s0.006,0.001,0.01,0.001h27.595  c0.003,0,0.006-0.001,0.01-0.001s0.006,0.001,0.01,0.001h27.032c0.003,0,0.006-0.001,0.01-0.001s0.006,0.001,0.01,0.001h27.595  c0.003,0,0.006-0.001,0.01-0.001s0.006,0.001,0.01,0.001h9.374V247.604z M310.523,183.608v58.995v22.25l30.142,30.142v-54.942  c0-16.962-6.605-32.908-18.599-44.9L310.523,183.608z M199.477,171.537v66.066h101.047v-66.066v-67.974  c0-26.15-8.839-51.921-24.889-72.567l-10.607-13.645C261.396,12.68,255.918,10,250,10s-11.396,2.68-15.027,7.352l-10.607,13.645  c-16.05,20.646-24.889,46.417-24.889,72.567V171.537z M176.824,317.147c-0.431-2.728-2.99-4.591-5.72-4.157  c-2.727,0.432-4.588,2.992-4.157,5.72c3.097,19.57,13.103,37.508,28.175,50.509c15.238,13.144,34.728,20.383,54.878,20.383  s39.64-7.239,54.878-20.383c15.072-13.001,25.078-30.938,28.175-50.509c0.432-2.728-1.43-5.288-4.157-5.72  c-2.724-0.429-5.288,1.43-5.72,4.157c-5.727,36.188-36.502,62.454-73.176,62.454S182.551,353.336,176.824,317.147z M241.474,367.566  v-3.375c0-2.762-2.239-5-5-5s-5,2.238-5,5v3.375c0,2.762,2.239,5,5,5S241.474,370.328,241.474,367.566z M268.526,367.566v-3.375  c0-2.762-2.239-5-5-5s-5,2.238-5,5v3.375c0,2.762,2.239,5,5,5S268.526,370.328,268.526,367.566z"/>
</svg>
