<?xml version="1.0" encoding="utf-8"?>
<!-- Generator: Adobe Illustrator 22.0.0, SVG Export Plug-In . SVG Version: 6.00 Build 0)  -->
<svg xmlns="http://www.w3.org/2000/svg" xmlns:xlink="http://www.w3.org/1999/xlink" version="1.1" id="Layer_1" x="0px" y="0px" viewBox="0 0 500 500" style="enable-background:new 0 0 500 500;" xml:space="preserve" width="512" height="512">
<style type="text/css">
	.st0{fill:#83E1E5;}
	.st1{fill:#AAB1BA;}
	.st2{fill:#ECF4F7;}
	.st3{fill:#FDDF7F;}
	.st4{fill:#1C1D21;}
	.st5{fill:#FFFFFF;}
</style>
<g>
	<g>
		<circle class="st3" cx="179.432" cy="128.2" r="52.4"/>
	</g>
</g>
<g>
	<g>
		<circle class="st0" cx="320.568" cy="233" r="52.4"/>
	</g>
</g>
<g>
	<g>
		<circle class="st1" cx="320.568" cy="442.6" r="52.4"/>
	</g>
</g>
<g>
	<g>
		<circle class="st2" cx="179.432" cy="337.8" r="52.4"/>
	</g>
</g>
<path class="st4" d="M210.875,15.833c0-2.762,2.238-5,5-5h5.832V5c0-2.762,2.238-5,5-5s5,2.238,5,5v5.833h5.833c2.762,0,5,2.238,5,5  s-2.238,5-5,5h-5.833v5.833c0,2.762-2.238,5-5,5s-5-2.238-5-5v-5.833h-5.832C213.113,20.833,210.875,18.595,210.875,15.833z   M262.46,20.833h5.833v5.833c0,2.762,2.238,5,5,5s5-2.238,5-5v-5.833h5.832c2.762,0,5-2.238,5-5s-2.238-5-5-5h-5.832V5  c0-2.762-2.238-5-5-5s-5,2.238-5,5v5.833h-5.833c-2.762,0-5,2.238-5,5S259.698,20.833,262.46,20.833z M423.182,495  c0,2.762-2.238,5-5,5H227.192c-2.762,0-5-2.238-5-5s2.238-5,5-5h61.048c-15.124-10.348-25.071-27.732-25.071-47.4  s9.947-37.052,25.071-47.399H179.432c-31.65,0-57.4-25.75-57.4-57.4s25.75-57.399,57.4-57.399H288.24  c-15.124-10.348-25.071-27.732-25.071-47.4s9.947-37.052,25.071-47.399H179.432c-31.65,0-57.4-25.75-57.4-57.4s25.75-57.4,57.4-57.4  s57.399,25.75,57.399,57.4c0,19.668-9.948,37.053-25.071,47.4h108.809c31.65,0,57.4,25.749,57.4,57.399s-25.75,57.4-57.4,57.4  H211.76c15.124,10.348,25.071,27.731,25.071,47.399s-9.948,37.053-25.071,47.4h108.809c31.65,0,57.4,25.749,57.4,57.399  c0,19.668-9.948,37.053-25.072,47.4h65.285C420.943,490,423.182,492.238,423.182,495z M179.432,175.601  c26.136,0,47.399-21.264,47.399-47.4s-21.264-47.4-47.399-47.4c-26.137,0-47.4,21.264-47.4,47.4S153.295,175.601,179.432,175.601z   M320.568,280.4c26.137,0,47.4-21.264,47.4-47.4c0-26.136-21.264-47.399-47.4-47.399c-26.136,0-47.399,21.264-47.399,47.399  C273.169,259.137,294.433,280.4,320.568,280.4z M179.432,385.2c26.136,0,47.399-21.264,47.399-47.4  c0-26.136-21.264-47.399-47.399-47.399c-26.137,0-47.4,21.264-47.4,47.399C132.031,363.937,153.295,385.2,179.432,385.2z   M320.568,490c26.137,0,47.4-21.264,47.4-47.4c0-26.136-21.264-47.399-47.4-47.399c-26.136,0-47.399,21.264-47.399,47.399  C273.169,468.736,294.433,490,320.568,490z M204.142,490h-4.301c-2.762,0-5,2.238-5,5s2.238,5,5,5h4.301c2.762,0,5-2.238,5-5  S206.903,490,204.142,490z M442.742,490h-3.757c-2.762,0-5,2.238-5,5s2.238,5,5,5h3.757c2.762,0,5-2.238,5-5  S445.504,490,442.742,490z M179.432,151.739c-12.979,0-23.539-10.56-23.539-23.539s10.56-23.539,23.539-23.539  s23.539,10.56,23.539,23.539S192.411,151.739,179.432,151.739z M179.432,141.739c7.466,0,13.539-6.073,13.539-13.539  s-6.073-13.539-13.539-13.539s-13.539,6.073-13.539,13.539S171.966,141.739,179.432,141.739z M344.107,233  c0,12.979-10.56,23.539-23.539,23.539s-23.539-10.56-23.539-23.539s10.56-23.539,23.539-23.539S344.107,220.021,344.107,233z   M334.107,233c0-7.466-6.073-13.539-13.539-13.539s-13.539,6.073-13.539,13.539s6.073,13.539,13.539,13.539  S334.107,240.466,334.107,233z M179.432,361.339c-12.979,0-23.539-10.56-23.539-23.539s10.56-23.539,23.539-23.539  s23.539,10.56,23.539,23.539S192.411,361.339,179.432,361.339z M179.432,351.339c7.466,0,13.539-6.073,13.539-13.539  s-6.073-13.539-13.539-13.539s-13.539,6.073-13.539,13.539S171.966,351.339,179.432,351.339z M344.107,442.6  c0,12.979-10.56,23.539-23.539,23.539s-23.539-10.56-23.539-23.539s10.56-23.539,23.539-23.539S344.107,429.62,344.107,442.6z   M334.107,442.6c0-7.466-6.073-13.539-13.539-13.539s-13.539,6.073-13.539,13.539s6.073,13.539,13.539,13.539  S334.107,450.065,334.107,442.6z"/>
</svg>
