<?xml version="1.0" encoding="utf-8"?>
<!-- Generator: Adobe Illustrator 22.0.0, SVG Export Plug-In . SVG Version: 6.00 Build 0)  -->
<svg xmlns="http://www.w3.org/2000/svg" xmlns:xlink="http://www.w3.org/1999/xlink" version="1.1" id="Layer_1" x="0px" y="0px" viewBox="0 0 500 500" style="enable-background:new 0 0 500 500;" xml:space="preserve" width="512" height="512">
<style type="text/css">
	.st0{fill:#83E1E5;}
	.st1{fill:#AAB1BA;}
	.st2{fill:#ECF4F7;}
	.st3{fill:#FDDF7F;}
	.st4{fill:#1C1D21;}
	.st5{fill:#FFFFFF;}
</style>
<g>
	<g>
		<polygon class="st1" points="150.233,191.458 150.233,273.28 233.642,273.28 233.642,315.274 252.437,315.274 268.499,315.274     268.499,273.28 351.767,273.28 351.767,191.458   "/>
	</g>
</g>
<g>
	<g>
		<path class="st3" d="M286.655,328.238L286.655,328.238c0-7.16-5.804-12.964-12.964-12.964h-42.508c0,0-9.904,0-9.904,0    c-16.492,0-29.861,13.369-29.861,29.861v132.411V495h61.019v-30.79h-11.914c-3.8,0-6.881-3.081-6.881-6.881V341.202h36.803    c0,0-0.001,0-0.001,0h3.247C280.851,341.202,286.655,335.398,286.655,328.238z"/>
	</g>
</g>
<g>
	<g>
		<path class="st2" d="M318.236,5H126.375v186.458h0v-4.24c0-4.751,3.852-8.603,8.603-8.603h6.653c4.751,0,8.603,3.852,8.603,8.603    v4.24h201.534v-4.24c0-4.751,3.852-8.603,8.603-8.603h6.653c4.751,0,8.603,3.852,8.603,8.603v4.24h0V62.39L318.236,5z"/>
	</g>
</g>
<g>
	<g>
		<polygon class="st1" points="318.236,5 318.236,62.39 375.625,62.39   "/>
	</g>
</g>
<g>
	<g>
		<path class="st3" d="M309.481,377.708c0-6.72-5.448-12.169-12.168-12.169c6.72,0,12.168-5.448,12.168-12.168    c0-6.72-5.448-12.168-12.168-12.168h-28.814c-6.72,0-12.168,5.448-12.168,12.168c0,6.72,5.448,12.168,12.168,12.168    c-6.72,0-12.168,5.448-12.168,12.169c0,6.72,5.448,12.168,12.168,12.168c-6.72,0-12.168,5.448-12.168,12.168v0    c0,6.72,5.447,12.167,12.166,12.168c-6.719,0.001-12.166,5.449-12.166,12.168c0,6.72,5.448,12.169,12.168,12.169h28.814    c6.72,0,12.168-5.448,12.168-12.169c0-6.72-5.447-12.167-12.166-12.168c6.719-0.001,12.166-5.449,12.166-12.168v0    c0-6.72-5.448-12.168-12.168-12.168C304.033,389.876,309.481,384.428,309.481,377.708z"/>
	</g>
</g>
<g>
	<g>
		<path class="st1" d="M268.499,414.213c-6.72,0-12.168-5.448-12.168-12.168v0c0-6.72,5.448-12.168,12.168-12.168    c-6.72,0-12.168-5.448-12.168-12.168c0-6.72,5.448-12.169,12.168-12.169c-6.72,0-12.168-5.448-12.168-12.168    c0-6.72,5.448-12.168,12.168-12.168h1.945c0,0,0.001,0,0.001,0h-36.803v116.127c0,3.8,3.081,6.881,6.881,6.881h11.914h14.135    c3.8,0,6.881-3.081,6.881-6.881v-18.777h-4.955c-6.72,0-12.168-5.448-12.168-12.168c0-6.72,5.448-12.169,12.168-12.169h4.955    v-0.001h-2.605H268.499z"/>
	</g>
</g>
<g>
	<g>
		<path class="st0" d="M134.978,286.123h6.653c4.751,0,8.603-3.852,8.603-8.603v-90.302c0-4.751-3.852-8.603-8.603-8.603h-6.653    c-4.751,0-8.603,3.852-8.603,8.603v90.302C126.375,282.271,130.226,286.123,134.978,286.123z"/>
	</g>
</g>
<g>
	<g>
		<path class="st0" d="M360.369,286.123h6.653c4.751,0,8.603-3.852,8.603-8.603v-90.302c0-4.751-3.852-8.603-8.603-8.603h-6.653    c-4.751,0-8.603,3.852-8.603,8.603v90.302C351.767,282.271,355.618,286.123,360.369,286.123z"/>
	</g>
</g>
<g>
	<g>
		<path class="st0" d="M170.624,104.828v60.15l18.652-19.156l18.652,19.156v-60.15c-5.542,3.02-11.896,4.736-18.652,4.736    S176.166,107.848,170.624,104.828z"/>
	</g>
</g>
<g>
	<g>
		<circle class="st3" cx="189.276" cy="70.522" r="39.043"/>
	</g>
</g>
<path class="st4" d="M101.033,193.442c0,2.761-2.239,5-5,5H90.2v5.833c0,2.761-2.239,5-5,5s-5-2.239-5-5v-5.833h-5.833  c-2.761,0-5-2.239-5-5s2.239-5,5-5H80.2v-5.833c0-2.761,2.239-5,5-5s5,2.239,5,5v5.833h5.833  C98.794,188.442,101.033,190.68,101.033,193.442z M85.2,167.611c2.761,0,5-2.239,5-5v-3.662c0-2.761-2.239-5-5-5s-5,2.239-5,5v3.662  C80.2,165.373,82.438,167.611,85.2,167.611z M85.2,144.343c2.761,0,5-2.239,5-5V5c0-2.761-2.239-5-5-5s-5,2.239-5,5v134.343  C80.2,142.104,82.438,144.343,85.2,144.343z M425.633,10.833H419.8V5c0-2.761-2.239-5-5-5s-5,2.239-5,5v5.833h-5.833  c-2.761,0-5,2.239-5,5s2.239,5,5,5h5.833v5.833c0,2.761,2.239,5,5,5s5-2.239,5-5v-5.833h5.833c2.761,0,5-2.239,5-5  S428.394,10.833,425.633,10.833z M414.8,41.663c-2.761,0-5,2.239-5,5v3.662c0,2.761,2.239,5,5,5s5-2.239,5-5v-3.662  C419.8,43.902,417.562,41.663,414.8,41.663z M414.8,64.931c-2.761,0-5,2.239-5,5v134.343c0,2.761,2.239,5,5,5s5-2.239,5-5V69.931  C419.8,67.17,417.562,64.931,414.8,64.931z M380.615,62.29c0.001,0.034,0.01,0.066,0.01,0.1v101.379c0,2.761-2.239,5-5,5  s-5-2.239-5-5V67.39h-52.39c-2.761,0-5-2.239-5-5V10h-181.86v153.769c0,2.761-2.239,5-5,5s-5-2.239-5-5V5c0-2.761,2.239-5,5-5  h191.86c0.034,0,0.067,0.009,0.102,0.01c0.294,0.006,0.588,0.029,0.876,0.087c0.007,0.001,0.013,0.004,0.02,0.005  c0.28,0.057,0.553,0.145,0.821,0.249c0.08,0.031,0.156,0.068,0.234,0.103c0.199,0.09,0.392,0.193,0.58,0.31  c0.072,0.045,0.144,0.086,0.214,0.135c0.243,0.168,0.477,0.352,0.69,0.566l57.39,57.39c0.213,0.213,0.397,0.447,0.565,0.689  c0.049,0.071,0.092,0.145,0.137,0.218c0.115,0.186,0.217,0.377,0.307,0.574c0.036,0.079,0.073,0.157,0.105,0.238  c0.104,0.267,0.192,0.54,0.249,0.821c0.001,0.006,0.004,0.012,0.005,0.019C380.586,61.701,380.609,61.995,380.615,62.29z   M363.554,57.39L343.395,37.23l-20.159-20.159V57.39H363.554z M380.625,187.219v90.302c0,7.5-6.102,13.603-13.603,13.603h-6.653  c-7.244,0-13.167-5.696-13.565-12.842h-73.307v31.993h0.192c9.906,0,17.964,8.059,17.964,17.964c0,2.862-0.69,5.56-1.886,7.964  h7.543c9.467,0,17.168,7.702,17.168,17.168c0,4.752-1.942,9.057-5.072,12.169c3.13,3.112,5.072,7.417,5.072,12.169  s-1.942,9.057-5.072,12.168c3.13,3.112,5.072,7.417,5.072,12.168s-1.942,9.057-5.072,12.168c3.13,3.112,5.072,7.417,5.072,12.168  c0,9.467-7.702,17.168-17.168,17.168h-18.859v13.779c0,6.551-5.33,11.881-11.881,11.881h-9.36V495c0,2.761-2.239,5-5,5s-5-2.239-5-5  v-25.791h-6.688c-6.551,0-11.881-5.33-11.881-11.881V346.202h-9.252c-2.761,0-5-2.239-5-5s2.239-5,5-5h14.252h34.856h5.192  c4.392,0,7.964-3.573,7.964-7.964c0-4.391-3.573-7.964-7.964-7.964h-5.192h-34.856h-2.459c-0.001,0-0.002,0-0.002,0h-9.902  c-13.708,0-24.861,11.153-24.861,24.861V495c0,2.761-2.239,5-5,5s-5-2.239-5-5V345.135c0-19.223,15.639-34.861,34.861-34.861h7.364  V278.28h-73.448c-0.398,7.146-6.321,12.842-13.565,12.842h-6.653c-7.5,0-13.603-6.102-13.603-13.603v-90.302  c0-7.5,6.102-13.603,13.603-13.603h6.653c7.244,0,13.166,5.696,13.565,12.842h191.61c0.398-7.146,6.321-12.842,13.565-12.842h6.653  C374.523,173.616,380.625,179.718,380.625,187.219z M268.453,443.55c-0.308-0.001-0.609-0.032-0.913-0.049  c-0.271-0.015-0.546-0.016-0.814-0.043c-0.314-0.032-0.62-0.093-0.929-0.142c-0.257-0.041-0.518-0.068-0.771-0.12  c-0.31-0.064-0.609-0.155-0.913-0.235c-0.243-0.064-0.491-0.115-0.729-0.19c-0.307-0.096-0.602-0.218-0.901-0.33  c-0.224-0.084-0.454-0.155-0.673-0.248c-0.302-0.128-0.59-0.281-0.883-0.426c-0.204-0.101-0.416-0.19-0.616-0.298  c-0.289-0.157-0.562-0.338-0.841-0.511c-0.19-0.118-0.388-0.224-0.573-0.35c-0.269-0.182-0.521-0.386-0.778-0.582  c-0.18-0.137-0.368-0.263-0.543-0.407c-0.252-0.208-0.485-0.437-0.725-0.659c-0.163-0.151-0.336-0.292-0.493-0.45  c-0.23-0.23-0.439-0.479-0.656-0.721c-0.149-0.167-0.309-0.325-0.452-0.499c-0.212-0.257-0.402-0.531-0.599-0.8  c-0.128-0.175-0.268-0.341-0.389-0.521c-0.191-0.283-0.359-0.582-0.533-0.877c-0.107-0.181-0.226-0.353-0.326-0.538  c-0.161-0.297-0.297-0.608-0.441-0.915c-0.092-0.196-0.197-0.385-0.282-0.585c-0.131-0.311-0.236-0.634-0.35-0.954  c-0.074-0.208-0.162-0.41-0.228-0.622c-0.104-0.335-0.18-0.682-0.264-1.025c-0.051-0.207-0.116-0.408-0.159-0.618  c-0.082-0.398-0.133-0.807-0.186-1.215c-0.021-0.163-0.058-0.322-0.074-0.487c-0.059-0.576-0.089-1.16-0.089-1.752  c0-0.593,0.03-1.179,0.089-1.756c0.017-0.17,0.055-0.334,0.077-0.502c0.053-0.404,0.104-0.809,0.185-1.204  c0.038-0.185,0.097-0.363,0.141-0.546c0.089-0.37,0.173-0.742,0.285-1.102c0.055-0.176,0.129-0.343,0.189-0.516  c0.125-0.357,0.244-0.717,0.391-1.063c0.074-0.175,0.167-0.339,0.246-0.511c0.155-0.334,0.305-0.67,0.481-0.992  c0.093-0.171,0.203-0.329,0.302-0.496c0.183-0.31,0.361-0.624,0.563-0.921c0.112-0.166,0.241-0.318,0.359-0.48  c0.208-0.284,0.41-0.573,0.634-0.843c0.136-0.164,0.288-0.314,0.43-0.473c0.224-0.252,0.443-0.508,0.682-0.746  c0.005-0.005,0.009-0.011,0.014-0.016c-0.004-0.004-0.008-0.009-0.012-0.013c-0.261-0.26-0.501-0.539-0.745-0.815  c-0.121-0.137-0.252-0.265-0.368-0.405c-0.239-0.289-0.457-0.596-0.677-0.9c-0.103-0.143-0.217-0.277-0.317-0.423  c-0.214-0.315-0.404-0.647-0.597-0.977c-0.087-0.148-0.185-0.289-0.268-0.44c-0.184-0.338-0.343-0.691-0.505-1.042  c-0.072-0.155-0.156-0.304-0.223-0.461c-0.153-0.361-0.28-0.736-0.409-1.11c-0.055-0.158-0.122-0.31-0.172-0.47  c-0.117-0.375-0.205-0.762-0.297-1.147c-0.04-0.168-0.094-0.331-0.129-0.501c-0.084-0.407-0.136-0.824-0.191-1.241  c-0.02-0.156-0.055-0.308-0.071-0.465c-0.059-0.578-0.089-1.164-0.089-1.756c0-0.593,0.03-1.179,0.089-1.756  c0.019-0.191,0.06-0.374,0.086-0.563c0.052-0.383,0.098-0.768,0.175-1.142c0.047-0.231,0.119-0.453,0.175-0.68  c0.081-0.323,0.151-0.651,0.25-0.967c0.075-0.241,0.174-0.47,0.259-0.706c0.105-0.292,0.201-0.588,0.321-0.872  c0.105-0.247,0.233-0.481,0.349-0.722c0.125-0.26,0.24-0.527,0.378-0.78c0.133-0.244,0.288-0.474,0.432-0.711  c0.144-0.235,0.277-0.478,0.431-0.706c0.158-0.233,0.336-0.45,0.505-0.674c0.163-0.216,0.316-0.441,0.488-0.649  c0.18-0.218,0.38-0.419,0.571-0.628c0.18-0.197,0.352-0.403,0.541-0.592c0.006-0.006,0.012-0.013,0.018-0.02  c-0.005-0.005-0.01-0.012-0.015-0.017c-0.218-0.218-0.417-0.453-0.624-0.682c-0.162-0.18-0.334-0.351-0.489-0.538  c-0.193-0.233-0.365-0.483-0.546-0.726c-0.149-0.2-0.308-0.392-0.448-0.598c-0.167-0.246-0.312-0.508-0.466-0.763  c-0.132-0.218-0.275-0.429-0.398-0.654c-0.146-0.268-0.268-0.549-0.4-0.826c-0.108-0.226-0.228-0.445-0.327-0.677  c-0.126-0.297-0.226-0.607-0.336-0.912c-0.08-0.223-0.173-0.439-0.244-0.666c-0.101-0.323-0.174-0.658-0.256-0.989  c-0.055-0.22-0.124-0.435-0.17-0.658c-0.077-0.376-0.124-0.763-0.176-1.148c-0.025-0.187-0.066-0.369-0.085-0.557  c-0.059-0.578-0.089-1.163-0.089-1.756s0.03-1.179,0.089-1.756c0.018-0.177,0.057-0.348,0.08-0.523  c0.053-0.397,0.102-0.795,0.182-1.183c0.041-0.199,0.103-0.39,0.151-0.587c0.086-0.356,0.166-0.714,0.274-1.06  c0.064-0.204,0.149-0.399,0.22-0.6c0.116-0.328,0.225-0.66,0.36-0.979c0.09-0.213,0.201-0.414,0.3-0.622  c0.14-0.295,0.271-0.595,0.427-0.881c0.117-0.214,0.254-0.415,0.379-0.624c0.16-0.265,0.311-0.537,0.484-0.792  c0.144-0.213,0.308-0.411,0.462-0.617c0.176-0.236,0.343-0.479,0.531-0.706c0.171-0.207,0.361-0.397,0.541-0.595  c0.19-0.209,0.371-0.425,0.57-0.624c0.006-0.006,0.011-0.013,0.017-0.019c-0.006-0.006-0.011-0.013-0.017-0.018  c-0.207-0.207-0.396-0.431-0.592-0.648c-0.173-0.191-0.355-0.373-0.519-0.571c-0.193-0.233-0.365-0.482-0.545-0.725  c-0.149-0.2-0.308-0.392-0.448-0.598c-0.175-0.258-0.327-0.531-0.488-0.799c-0.124-0.207-0.26-0.406-0.376-0.618  c-0.157-0.288-0.29-0.591-0.431-0.889c-0.097-0.205-0.207-0.403-0.296-0.613c-0.136-0.321-0.246-0.655-0.363-0.985  c-0.07-0.199-0.155-0.391-0.218-0.594c-0.107-0.343-0.186-0.698-0.272-1.051c-0.049-0.2-0.112-0.394-0.154-0.597  c-0.079-0.386-0.128-0.783-0.181-1.178c-0.024-0.177-0.063-0.349-0.081-0.528c-0.059-0.578-0.089-1.163-0.089-1.756  c0-0.617,0.036-1.225,0.1-1.826c0.021-0.2,0.063-0.394,0.091-0.592c0.056-0.396,0.112-0.791,0.195-1.178  c0.05-0.231,0.117-0.455,0.176-0.683c0.089-0.344,0.176-0.688,0.286-1.023c0.077-0.237,0.169-0.466,0.256-0.698  c0.118-0.314,0.236-0.628,0.372-0.933c0.034-0.077,0.059-0.16,0.094-0.236h-14.256v111.126c0,1.037,0.844,1.881,1.881,1.881h26.049  c1.037,0,1.881-0.844,1.881-1.881V443.55z M297.317,419.213c-0.002,0-0.003,0-0.005,0h-28.814c0,0-0.001,0-0.001,0c0,0,0,0-0.001,0  c-3.602,0-6.584,2.676-7.084,6.142c-0.049,0.336-0.082,0.677-0.082,1.026c0,3.953,3.216,7.168,7.168,7.168h4.955h23.859  c3.953,0,7.168-3.216,7.168-7.168C304.481,422.43,301.268,419.216,297.317,419.213z M297.313,394.876h-28.814  c-3.953,0-7.168,3.216-7.168,7.168c0,0.056,0.007,0.11,0.008,0.165c0.005,0.206,0.014,0.41,0.036,0.611  c0.356,3.283,2.937,5.901,6.198,6.326c0.065,0.008,0.128,0.023,0.194,0.03c0.104,0.011,0.212,0.01,0.317,0.016  c0.137,0.008,0.272,0.021,0.41,0.021c0.002,0,0.003,0,0.005,0h28.814c0.002,0,0.003,0,0.005,0c3.95-0.003,7.164-3.217,7.164-7.168  C304.481,398.092,301.265,394.876,297.313,394.876z M297.313,370.539h-28.814c-3.953,0-7.168,3.216-7.168,7.169  c0,0.494,0.05,0.977,0.146,1.443c0.67,3.263,3.564,5.725,7.023,5.725c0.001,0,0.002,0,0.002,0h28.812  c3.953,0,7.168-3.216,7.168-7.168C304.481,373.755,301.265,370.539,297.313,370.539z M297.313,346.202h-23.622h-5.192  c-3.953,0-7.168,3.216-7.168,7.168s3.216,7.168,7.168,7.168h28.814c3.953,0,7.168-3.216,7.168-7.168  S301.265,346.202,297.313,346.202z M321.087,268.28v-71.822H180.913v71.822h52.73h34.856H321.087z M331.087,268.28h15.679v-71.822  h-15.679V268.28z M145.233,273.28v-81.822v-4.24c0-1.987-1.616-3.603-3.603-3.603h-6.653c-1.986,0-3.603,1.616-3.603,3.603v90.302  c0,1.986,1.616,3.603,3.603,3.603h6.653c1.987,0,3.603-1.616,3.603-3.603V273.28z M155.233,268.28h15.679v-71.822h-15.679V268.28z   M263.499,278.28h-24.856v31.993h24.856V278.28z M370.625,187.219c0-1.987-1.616-3.603-3.603-3.603h-6.653  c-1.987,0-3.603,1.616-3.603,3.603v4.24v81.822v4.24c0,1.986,1.616,3.603,3.603,3.603h6.653c1.986,0,3.603-1.616,3.603-3.603  V187.219z M170.624,116.216c-2.761,0-5,2.239-5,5v43.763c0,2.034,1.233,3.866,3.118,4.632c1.883,0.766,4.045,0.314,5.465-1.144  l15.069-15.477l15.069,15.477c0.96,0.986,2.26,1.512,3.583,1.512c0.633,0,1.272-0.12,1.881-0.368  c1.885-0.766,3.118-2.598,3.118-4.632v-43.763c0-2.761-2.239-5-5-5s-5,2.239-5,5v31.46l-10.069-10.342  c-0.941-0.967-2.233-1.512-3.583-1.512s-2.641,0.545-3.583,1.512l-10.069,10.342v-31.46  C175.624,118.454,173.385,116.216,170.624,116.216z M189.276,114.565c-24.285,0-44.042-19.758-44.042-44.043  s19.757-44.042,44.042-44.042s44.042,19.757,44.042,44.042S213.561,114.565,189.276,114.565z M223.318,70.522  c0-18.771-15.271-34.042-34.042-34.042s-34.042,15.271-34.042,34.042c0,18.771,15.271,34.043,34.042,34.043  S223.318,89.293,223.318,70.522z M252.731,168.769h84.317c2.761,0,5-2.239,5-5s-2.239-5-5-5h-84.317c-2.761,0-5,2.239-5,5  S249.97,168.769,252.731,168.769z M252.731,144.343h84.317c2.761,0,5-2.239,5-5s-2.239-5-5-5h-84.317c-2.761,0-5,2.239-5,5  S249.97,144.343,252.731,144.343z M252.731,119.917h84.317c2.761,0,5-2.239,5-5s-2.239-5-5-5h-84.317c-2.761,0-5,2.239-5,5  S249.97,119.917,252.731,119.917z M252.731,95.492h84.317c2.761,0,5-2.239,5-5s-2.239-5-5-5h-84.317c-2.761,0-5,2.239-5,5  S249.97,95.492,252.731,95.492z"/>
</svg>
