<?xml version="1.0" encoding="utf-8"?>
<!-- Generator: Adobe Illustrator 22.0.0, SVG Export Plug-In . SVG Version: 6.00 Build 0)  -->
<svg xmlns="http://www.w3.org/2000/svg" xmlns:xlink="http://www.w3.org/1999/xlink" version="1.1" id="Layer_1" x="0px" y="0px" viewBox="0 0 500 500" style="enable-background:new 0 0 500 500;" xml:space="preserve" width="512" height="512">
<style type="text/css">
	.st0{fill:#83E1E5;}
	.st1{fill:#AAB1BA;}
	.st2{fill:#ECF4F7;}
	.st3{fill:#FDDF7F;}
	.st4{fill:#1C1D21;}
	.st5{fill:#FFFFFF;}
</style>
<g>
	<g>
		<path class="st1" d="M409.913,257.842c0-52.213-42.326-94.539-94.539-94.539s-94.539,42.327-94.539,94.539    c0,47.282,34.711,86.455,80.041,93.431c-0.003,0-0.006-0.001-0.009-0.001v129.22c0,8.012,6.495,14.508,14.507,14.508    c8.012,0,14.507-6.496,14.507-14.508v-129.22c-0.003,0-0.006,0.001-0.009,0.001C375.201,344.297,409.913,305.124,409.913,257.842z    "/>
	</g>
</g>
<g>
	<g>
		<path class="st0" d="M220.835,257.842c0-52.213,42.326-94.539,94.539-94.539s94.539,42.327,94.539,94.539    c0,38.533-23.057,71.674-56.124,86.398H470.55V106.115c0-12.294-9.966-22.261-22.26-22.261H51.71    c-12.294,0-22.26,9.967-22.26,22.261V344.24h247.509C243.892,329.516,220.835,296.375,220.835,257.842z"/>
	</g>
</g>
<g>
	<g>
		<path class="st2" d="M470.55,118.188v-12.073c0-12.293-9.966-22.261-22.26-22.261H51.71c-12.294,0-22.26,9.968-22.26,22.261    v12.073H470.55z"/>
	</g>
</g>
<g>
	<g>
		<path class="st0" d="M29.45,377.457L5,424.184v26.272c0,3.45,2.796,6.245,6.245,6.245h289.622v-79.245H29.45z"/>
	</g>
</g>
<g>
	<g>
		<path class="st0" d="M470.55,377.457h-140.67v79.245h158.874c3.449,0,6.245-2.796,6.245-6.245v-26.272L470.55,377.457z"/>
	</g>
</g>
<g>
	<g>
		<path class="st2" d="M329.881,351.272v26.184h140.67l0,0V344.24H353.789C346.283,347.582,338.265,349.98,329.881,351.272z"/>
	</g>
</g>
<g>
	<g>
		<path class="st2" d="M300.867,377.457v-26.184c-8.385-1.292-16.403-3.69-23.908-7.032H29.45v33.217l0,0H300.867z"/>
	</g>
</g>
<g>
	<g>
		<path class="st3" d="M224.242,232.699h-49.696l-47.835,47.834c12.242,12.242,29.154,19.814,47.835,19.814    c19.191,0,36.501-8.004,48.813-20.841c-1.633-6.96-2.524-14.206-2.524-21.664C220.835,249.132,222.037,240.707,224.242,232.699z"/>
	</g>
</g>
<g>
	<g>
		<path class="st2" d="M260.71,180.733c-10.556-23.613-34.234-40.076-61.771-40.076v67.648h35.914    C241.536,197.464,250.353,188.089,260.71,180.733z"/>
	</g>
</g>
<g>
	<g>
		<path class="st1" d="M174.546,165.049L174.546,165.049c-37.362,0-67.649,30.287-67.649,67.649    c0,18.681,7.572,35.592,19.814,47.834l47.835-47.834V165.049z"/>
	</g>
</g>
<g>
	<g>
		<circle class="st2" cx="315.374" cy="257.842" r="68.067"/>
	</g>
</g>
<path class="st4" d="M208.733,15.833c0-2.762,2.238-5,5-5h5.833V5c0-2.762,2.238-5,5-5s5,2.238,5,5v5.833h5.833c2.762,0,5,2.238,5,5  s-2.238,5-5,5h-5.833v5.833c0,2.762-2.238,5-5,5s-5-2.238-5-5v-5.833h-5.833C210.972,20.833,208.733,18.595,208.733,15.833z   M264.601,20.833h5.833v5.833c0,2.762,2.238,5,5,5s5-2.238,5-5v-5.833h5.833c2.762,0,5-2.238,5-5s-2.238-5-5-5h-5.833V5  c0-2.762-2.238-5-5-5s-5,2.238-5,5v5.833h-5.833c-2.762,0-5,2.238-5,5S261.839,20.833,264.601,20.833z M92.929,307.244l-2.79,2.789  c-1.953,1.952-1.953,5.118-0.001,7.071c0.977,0.977,2.256,1.465,3.536,1.465c1.279,0,2.559-0.488,3.535-1.464l2.79-2.789  c1.953-1.952,1.953-5.118,0.001-7.071C98.047,305.292,94.882,305.291,92.929,307.244z M106.231,293.942l13.543-13.543  c-11.553-13.227-17.878-29.973-17.878-47.701c0-40.059,32.591-72.648,72.649-72.648c2.762,0,5,2.238,5,5v62.648h25.138  c2.762,0,5,2.238,5,5s-2.238,5-5,5h-28.066l-21.349,21.349l-21.349,21.348c11.324,9.677,25.571,14.952,40.626,14.952  c11.187,0,22.165-2.989,31.75-8.645c2.381-1.402,5.445-0.611,6.848,1.766c1.403,2.379,0.612,5.444-1.766,6.848  c-11.124,6.563-23.859,10.031-36.832,10.031c-17.728,0-34.475-6.324-47.702-17.876l-13.542,13.542  c-0.976,0.977-2.256,1.465-3.535,1.465s-2.56-0.488-3.535-1.465C104.278,299.061,104.278,295.895,106.231,293.942z M111.896,232.698  c0,15.056,5.276,29.302,14.952,40.626l42.697-42.697v-60.38C137.329,172.803,111.896,199.836,111.896,232.698z M242.307,257.842  c0-40.289,32.778-73.067,73.067-73.067s73.067,32.778,73.067,73.067s-32.778,73.067-73.067,73.067S242.307,298.131,242.307,257.842z   M252.307,257.842c0,34.775,28.292,63.067,63.067,63.067s63.067-28.292,63.067-63.067s-28.292-63.067-63.067-63.067  S252.307,223.066,252.307,257.842z M271.09,244.201c0.646,0.278,1.317,0.41,1.979,0.41c1.935,0,3.777-1.13,4.593-3.02  c5.43-12.584,16.69-21.594,30.121-24.104c2.715-0.507,4.504-3.119,3.997-5.833c-0.508-2.715-3.122-4.501-5.833-3.997  c-16.709,3.122-30.716,14.326-37.467,29.971C267.387,240.165,268.555,243.107,271.09,244.201z M274.321,257.842  c0-0.901,0.03-1.822,0.089-2.737c0.179-2.755-1.911-5.134-4.667-5.312c-2.751-0.215-5.134,1.91-5.312,4.667  c-0.073,1.129-0.11,2.267-0.11,3.382c0,2.762,2.238,5,5,5S274.321,260.604,274.321,257.842z M223.025,208.305c0-2.762-2.238-5-5-5  h-14.087v-57.449c16.759,1.331,32.271,9.324,43.146,22.388c1.766,2.12,4.917,2.409,7.042,0.644c2.122-1.767,2.41-4.92,0.644-7.042  c-13.854-16.643-34.204-26.188-55.831-26.188c-2.762,0-5,2.238-5,5v67.647c0,2.762,2.238,5,5,5h19.087  C220.787,213.305,223.025,211.066,223.025,208.305z M500,424.184v26.272c0,6.2-5.045,11.245-11.245,11.245H352.372  c-2.762,0-5-2.238-5-5s2.238-5,5-5h136.383c0.687,0,1.245-0.559,1.245-1.245v-21.272H352.372c-2.762,0-5-2.238-5-5s2.238-5,5-5  h134.369l-19.218-36.729H352.372c-2.762,0-5-2.238-5-5s2.238-5,5-5h113.179V349.24h-78.164c-2.762,0-5-2.238-5-5s2.238-5,5-5h78.164  V123.188H34.449v216.052h203.106c2.762,0,5,2.238,5,5s-2.238,5-5,5H34.449v23.216h243.169c2.762,0,5,2.238,5,5s-2.238,5-5,5H32.477  l-19.218,36.729h264.359c2.762,0,5,2.238,5,5s-2.238,5-5,5H10v21.272c0,0.687,0.559,1.245,1.245,1.245h266.373c2.762,0,5,2.238,5,5  s-2.238,5-5,5H11.245c-6.2,0-11.245-5.045-11.245-11.245v-26.272c0-0.036,0.01-0.069,0.011-0.105  c0.006-0.268,0.032-0.534,0.08-0.798c0.009-0.049,0.013-0.099,0.023-0.146c0.059-0.274,0.145-0.544,0.251-0.808  c0.028-0.07,0.06-0.138,0.091-0.206c0.039-0.085,0.069-0.172,0.113-0.255l23.88-45.641v-270.11  c0-15.031,12.229-27.261,27.261-27.261h396.58c15.031,0,27.261,12.229,27.261,27.261v270.11l23.88,45.641  c0.043,0.083,0.074,0.17,0.113,0.255c0.031,0.068,0.063,0.136,0.091,0.206c0.106,0.264,0.192,0.533,0.251,0.808  c0.01,0.048,0.015,0.098,0.023,0.146c0.049,0.264,0.075,0.53,0.08,0.798C499.99,424.114,500,424.147,500,424.184z M465.551,113.188  v-7.073c0-9.518-7.743-17.261-17.261-17.261H51.71c-9.518,0-17.261,7.743-17.261,17.261v7.073H465.551z M370.415,495  c0,2.762-2.238,5-5,5H208.837c-2.762,0-5-2.238-5-5s2.238-5,5-5h89.52c-1.58-2.816-2.49-6.056-2.49-9.508V355.456  c-45.578-9.093-80.032-49.403-80.032-97.614c0-54.886,44.653-99.539,99.539-99.539s99.539,44.653,99.539,99.539  c0,48.211-34.455,88.521-80.032,97.614v125.036c0,3.452-0.91,6.691-2.49,9.508h33.024C368.177,490,370.415,492.238,370.415,495z   M301.923,346.371c0.917,0.138,1.838,0.26,2.761,0.369c0.231,0.027,0.463,0.054,0.695,0.08c2.15,0.237,4.312,0.402,6.479,0.485  c0.039,0.001,0.077,0.003,0.116,0.004c2.265,0.085,4.534,0.085,6.799,0c0.039-0.001,0.078-0.003,0.116-0.004  c2.168-0.083,4.33-0.248,6.479-0.485c0.232-0.026,0.464-0.053,0.696-0.08c0.923-0.109,1.843-0.231,2.76-0.369  c43.014-6.508,76.088-43.729,76.088-88.529c0-49.372-40.167-89.539-89.539-89.539s-89.539,40.167-89.539,89.539  C225.835,302.643,258.909,339.862,301.923,346.371z M315.374,490c5.242,0,9.507-4.266,9.507-9.508V356.93  c-0.096,0.009-0.192,0.012-0.289,0.021c-1.466,0.135-2.939,0.242-4.422,0.313c-0.04,0.002-0.081,0.002-0.121,0.004  c-1.55,0.072-3.108,0.113-4.675,0.113s-3.125-0.041-4.675-0.113c-0.04-0.002-0.081-0.002-0.121-0.004  c-1.483-0.071-2.957-0.179-4.422-0.313c-0.096-0.009-0.193-0.012-0.289-0.021v123.563C305.867,485.734,310.132,490,315.374,490z   M185.425,490h-6.05c-2.762,0-5,2.238-5,5s2.238,5,5,5h6.05c2.762,0,5-2.238,5-5S188.187,490,185.425,490z M155.959,490h-6.051  c-2.762,0-5,2.238-5,5s2.238,5,5,5h6.051c2.762,0,5-2.238,5-5S158.721,490,155.959,490z"/>
</svg>
