<?xml version="1.0" encoding="utf-8"?>
<!-- Generator: Adobe Illustrator 22.0.0, SVG Export Plug-In . SVG Version: 6.00 Build 0)  -->
<svg xmlns="http://www.w3.org/2000/svg" xmlns:xlink="http://www.w3.org/1999/xlink" version="1.1" id="Layer_1" x="0px" y="0px" viewBox="0 0 500 500" style="enable-background:new 0 0 500 500;" xml:space="preserve" width="512" height="512">
<style type="text/css">
	.st0{fill:#83E1E5;}
	.st1{fill:#AAB1BA;}
	.st2{fill:#ECF4F7;}
	.st3{fill:#FDDF7F;}
	.st4{fill:#1C1D21;}
	.st5{fill:#FFFFFF;}
</style>
<g>
	<g>
		<path class="st1" d="M459.031,32.376H40.969c-8.298,0-15.025,6.727-15.025,15.025v5.412c0,8.298,6.727,15.025,15.025,15.025    h179.182c8.437-5.975,18.732-9.498,29.857-9.498c11.125,0,21.42,3.523,29.857,9.498h179.165c8.298,0,15.025-6.727,15.025-15.025    v-5.412C474.056,39.103,467.329,32.376,459.031,32.376z"/>
	</g>
</g>
<g>
	<g>
		<path class="st0" d="M425.632,358.615v-24.6c0-7.014-5.686-12.7-12.7-12.7h-52.536c-7.014,0-12.7,5.686-12.7,12.7v24.6H425.632z"/>
	</g>
</g>
<g>
	<g>
		<path class="st0" d="M288.968,358.615v-24.6c0-7.014-5.686-12.7-12.7-12.7h-52.536c-7.014,0-12.7,5.686-12.7,12.7v24.6H288.968z"/>
	</g>
</g>
<g>
	<g>
		<path class="st0" d="M152.304,358.615v-24.6c0-7.014-5.686-12.7-12.7-12.7H87.068c-7.014,0-12.7,5.686-12.7,12.7v24.6H152.304z"/>
	</g>
</g>
<g>
	<g>
		<path class="st2" d="M314.724,220.405v-37.508c0-11.648-9.443-21.092-21.091-21.092h-87.248c-11.648,0-21.092,9.443-21.092,21.092    v37.508H314.724z"/>
	</g>
</g>
<g>
	<g>
		<path class="st1" d="M459.031,358.615H40.969c-8.298,0-15.025,6.727-15.025,15.025v5.412c0,8.298,6.727,15.025,15.025,15.025    h163.921l-38.96,76.611c-4.187,8.234-0.907,18.303,7.327,22.49c8.234,4.187,18.303,0.907,22.49-7.327l46.671-91.775h14.444    l46.671,91.775c4.187,8.234,14.256,11.514,22.49,7.327c8.234-4.187,11.514-14.256,7.327-22.49l-38.959-76.611h164.639    c8.298,0,15.025-6.727,15.025-15.025v-5.412C474.056,365.342,467.329,358.615,459.031,358.615z"/>
	</g>
</g>
<g>
	<g>
		<circle class="st3" cx="250.008" cy="110.073" r="51.733"/>
	</g>
</g>
<g>
	<g>
		<polygon class="st0" points="261.575,220.405 258.788,161.805 241.229,161.805 238.442,220.405   "/>
	</g>
</g>
<g>
	<g>
		<circle class="st3" cx="386.664" cy="290.165" r="31.151"/>
	</g>
</g>
<g>
	<g>
		<circle class="st3" cx="250" cy="290.165" r="31.151"/>
	</g>
</g>
<g>
	<g>
		<circle class="st3" cx="113.336" cy="290.165" r="31.151"/>
	</g>
</g>
<path class="st4" d="M459.03,353.615H40.97c-11.042,0-20.025,8.983-20.025,20.025v5.412c0,11.042,8.983,20.025,20.025,20.025H459.03  c11.042,0,20.025-8.983,20.025-20.025v-5.412C479.056,362.598,470.072,353.615,459.03,353.615z M469.056,379.052  c0,5.528-4.497,10.025-10.025,10.025H40.97c-5.528,0-10.025-4.497-10.025-10.025v-5.412c0-5.528,4.497-10.025,10.025-10.025H459.03  c5.528,0,10.025,4.497,10.025,10.025V379.052z M459.03,27.376H270.266c0.607-1.985,0.93-4.064,0.93-6.188  C271.196,9.505,261.691,0,250.009,0c-11.684,0-21.188,9.505-21.188,21.188c0,2.124,0.323,4.203,0.93,6.188H40.97  c-11.042,0-20.025,8.983-20.025,20.025v5.412c0,10.956,8.846,19.873,19.77,20.012v124.309c0,2.761,2.238,5,5,5s5-2.239,5-5V72.838  h140.743c2.762,0,5-2.239,5-5s-2.238-5-5-5H40.97c-5.528,0-10.025-4.497-10.025-10.025v-5.412c0-5.528,4.497-10.025,10.025-10.025  h197.357h23.363h197.34c5.528,0,10.025,4.497,10.025,10.025v5.412c0,5.528-4.497,10.025-10.025,10.025H307.237c-2.762,0-5,2.239-5,5  s2.238,5,5,5h142.049v124.296c0,2.761,2.238,5,5,5s5-2.239,5-5V72.825c10.923-0.139,19.77-9.057,19.77-20.012v-5.412  C479.056,36.359,470.072,27.376,459.03,27.376z M240.698,27.376c-1.221-1.824-1.878-3.964-1.878-6.188  c0-6.169,5.02-11.188,11.188-11.188s11.188,5.019,11.188,11.188c0,2.223-0.657,4.363-1.878,6.188H240.698z M454.286,219.454  c-2.762,0-5-2.239-5-5v-3.077c0-2.761,2.238-5,5-5s5,2.239,5,5v3.077C459.286,217.215,457.048,219.454,454.286,219.454z   M40.714,214.454v-3.077c0-2.761,2.238-5,5-5s5,2.239,5,5v3.077c0,2.761-2.238,5-5,5S40.714,217.215,40.714,214.454z M47.501,495  c0,2.761-2.238,5-5,5h-4.219c-2.762,0-5-2.239-5-5s2.238-5,5-5h4.219C45.263,490,47.501,492.239,47.501,495z M443.68,495  c0,2.761-2.238,5-5,5H318.713c-0.083,0.001-0.165,0.007-0.248,0.007c-0.062,0-0.124-0.007-0.185-0.007H181.002  c-0.062,0.001-0.123,0.007-0.185,0.007c-0.083,0-0.166-0.006-0.249-0.007H61.32c-2.762,0-5-2.239-5-5s2.238-5,5-5h101.244  c-4.016-6.28-4.707-14.466-1.09-21.577l31.146-61.245c1.253-2.462,4.262-3.442,6.724-2.19c2.461,1.252,3.442,4.262,2.19,6.723  l-31.146,61.245c-2.931,5.763-0.626,12.837,5.137,15.767c1.745,0.888,3.64,1.317,5.543,1.277h0.003  c1.142-0.024,2.286-0.217,3.401-0.58c2.979-0.97,5.4-3.042,6.819-5.833l38.856-76.409c1.252-2.462,4.262-3.442,6.724-2.19  c2.461,1.252,3.442,4.262,2.19,6.723l-38.856,76.408c-0.33,0.649-0.689,1.276-1.076,1.881h101.022  c-0.387-0.605-0.746-1.233-1.076-1.881L260.22,411.71c-1.252-2.461-0.271-5.471,2.19-6.723c2.461-1.252,5.471-0.271,6.724,2.19  l38.856,76.408c1.42,2.792,3.842,4.864,6.819,5.834c2.978,0.97,6.155,0.723,8.947-0.697c2.792-1.42,4.864-3.842,5.834-6.82  c0.971-2.978,0.723-6.156-0.697-8.947l-31.145-61.245c-1.252-2.461-0.271-5.471,2.19-6.723c2.462-1.252,5.471-0.271,6.724,2.19  l31.145,61.245c2.631,5.173,3.089,11.06,1.292,16.578c-0.583,1.789-1.401,3.455-2.389,5H438.68  C441.441,490,443.68,492.239,443.68,495z M466.718,495c0,2.761-2.238,5-5,5h-4.219c-2.762,0-5-2.239-5-5s2.238-5,5-5h4.219  C464.479,490,466.718,492.239,466.718,495z M212.627,186.105c2.762,0,5,2.239,5,5v12.819c0,2.761-2.238,5-5,5s-5-2.239-5-5v-12.819  C207.627,188.344,209.865,186.105,212.627,186.105z M287.389,186.105c2.762,0,5,2.239,5,5v12.819c0,2.761-2.238,5-5,5s-5-2.239-5-5  v-12.819C282.389,188.344,284.627,186.105,287.389,186.105z M180.293,182.897v21.027c0,2.761,2.238,5,5,5s5-2.239,5-5v-21.027  c0-8.873,7.219-16.092,16.092-16.092h29.601l-1.851,38.91c-0.132,2.758,1.998,5.101,4.757,5.232  c2.781,0.135,5.101-1.999,5.231-4.757l1.873-39.385h8.023l1.874,39.385c0.127,2.677,2.338,4.762,4.99,4.762  c0.08,0,0.161-0.002,0.241-0.006c2.759-0.131,4.889-2.474,4.757-5.232l-1.851-38.91h29.602c8.872,0,16.091,7.219,16.091,16.092  v21.027c0,2.761,2.238,5,5,5s5-2.239,5-5v-21.027c0-14.387-11.704-26.092-26.091-26.092h-11.508  c14.855-10.241,24.616-27.365,24.616-46.733c0-31.282-25.45-56.733-56.732-56.733c-31.283,0-56.733,25.45-56.733,56.733  c0,19.368,9.761,36.492,24.617,46.733h-11.507C191.998,156.805,180.293,168.51,180.293,182.897z M203.275,110.073  c0-25.769,20.965-46.733,46.733-46.733s46.732,20.964,46.732,46.733c0,25.765-20.959,46.727-46.723,46.732h-0.02  C224.235,156.8,203.275,135.838,203.275,110.073z M422.814,290.165c0-19.933-16.217-36.15-36.15-36.15s-36.15,16.217-36.15,36.15  c0,10.279,4.319,19.562,11.229,26.151h-1.347c-9.76,0-17.7,7.94-17.7,17.7v8.573c0,2.761,2.238,5,5,5s5-2.239,5-5v-8.573  c0-4.246,3.454-7.7,7.7-7.7h52.535c4.246,0,7.701,3.454,7.701,7.7v8.573c0,2.761,2.238,5,5,5s5-2.239,5-5v-8.573  c0-9.76-7.94-17.7-17.701-17.7h-1.347C418.495,309.727,422.814,300.443,422.814,290.165z M360.514,290.165  c0-14.419,11.731-26.15,26.15-26.15s26.15,11.731,26.15,26.15s-11.731,26.151-26.15,26.151S360.514,304.584,360.514,290.165z   M288.968,347.588c2.762,0,5-2.239,5-5v-8.573c0-9.76-7.94-17.7-17.7-17.7h-1.347c6.91-6.588,11.229-15.872,11.229-26.151  c0-19.933-16.217-36.15-36.15-36.15s-36.15,16.217-36.15,36.15c0,10.279,4.319,19.562,11.229,26.151h-1.347  c-9.76,0-17.7,7.94-17.7,17.7v8.573c0,2.761,2.238,5,5,5s5-2.239,5-5v-8.573c0-4.246,3.454-7.7,7.7-7.7h52.535  c4.246,0,7.7,3.454,7.7,7.7v8.573C283.968,345.35,286.206,347.588,288.968,347.588z M223.85,290.165  c0-14.419,11.731-26.15,26.15-26.15s26.15,11.731,26.15,26.15s-11.731,26.151-26.15,26.151S223.85,304.584,223.85,290.165z   M69.367,334.015v8.573c0,2.761,2.238,5,5,5s5-2.239,5-5v-8.573c0-4.246,3.455-7.7,7.701-7.7h52.535c4.246,0,7.7,3.454,7.7,7.7  v8.573c0,2.761,2.238,5,5,5s5-2.239,5-5v-8.573c0-9.76-7.94-17.7-17.7-17.7h-1.347c6.91-6.588,11.229-15.872,11.229-26.151  c0-19.933-16.217-36.15-36.15-36.15s-36.15,16.217-36.15,36.15c0,10.279,4.319,19.562,11.229,26.151h-1.347  C77.308,316.315,69.367,324.255,69.367,334.015z M87.186,290.165c0-14.419,11.731-26.15,26.15-26.15s26.15,11.731,26.15,26.15  s-11.731,26.151-26.15,26.151S87.186,304.584,87.186,290.165z M410.358,215.405c2.762,0,5,2.239,5,5s-2.238,5-5,5h-18.694v16.864  c0,2.761-2.238,5-5,5s-5-2.239-5-5v-16.864H255v16.864c0,2.761-2.238,5-5,5s-5-2.239-5-5v-16.864H118.336v16.864  c0,2.761-2.238,5-5,5s-5-2.239-5-5v-16.864H89.642c-2.762,0-5-2.239-5-5s2.238-5,5-5H410.358z"/>
</svg>
