<?xml version="1.0" encoding="utf-8"?>
<!-- Generator: Adobe Illustrator 22.0.0, SVG Export Plug-In . SVG Version: 6.00 Build 0)  -->
<svg xmlns="http://www.w3.org/2000/svg" xmlns:xlink="http://www.w3.org/1999/xlink" version="1.1" id="Layer_1" x="0px" y="0px" viewBox="0 0 500 500" style="enable-background:new 0 0 500 500;" xml:space="preserve" width="512" height="512">
<style type="text/css">
	.st0{fill:#83E1E5;}
	.st1{fill:#AAB1BA;}
	.st2{fill:#ECF4F7;}
	.st3{fill:#FDDF7F;}
	.st4{fill:#1C1D21;}
	.st5{fill:#FFFFFF;}
</style>
<g>
	<g>
		<path class="st2" d="M308.865,316.383v-30.884c0-12.382-10.037-22.419-22.419-22.419h-72.892    c-12.382,0-22.419,10.037-22.419,22.419v30.884H308.865z"/>
	</g>
</g>
<g>
	<g>
		<circle class="st3" cx="250" cy="216.024" r="47.056"/>
	</g>
</g>
<g>
	<g>
		<polygon class="st0" points="260.521,316.383 257.986,263.08 242.014,263.08 239.479,316.383   "/>
	</g>
</g>
<g>
	<g>
		<path class="st0" d="M217.842,66.671h20.976v73.181h22.364V66.671h20.976c4.32,0,8.254-2.489,10.104-6.394    c1.851-3.905,1.286-8.525-1.449-11.87L258.655,9.102C256.531,6.505,253.354,5,250,5s-6.532,1.505-8.655,4.102l-32.158,39.307    c-2.735,3.344-3.3,7.965-1.449,11.87C209.588,64.182,213.522,66.671,217.842,66.671z"/>
	</g>
</g>
<g>
	<g>
		<path class="st0" d="M282.158,433.329h-20.976v-73.181h-22.364v73.181h-20.976c-4.32,0-8.254,2.489-10.104,6.394    c-1.851,3.905-1.286,8.525,1.449,11.87l32.158,39.306c2.124,2.596,5.301,4.102,8.655,4.102s6.531-1.505,8.655-4.102l32.158-39.306    c2.735-3.344,3.3-7.965,1.449-11.87C290.412,435.818,286.478,433.329,282.158,433.329z"/>
	</g>
</g>
<g>
	<g>
		<path class="st0" d="M356.894,97.628l14.832,14.832l-51.747,51.747l15.814,15.814l51.747-51.747l14.832,14.832    c3.055,3.055,7.597,4.076,11.666,2.624c4.07-1.452,6.938-5.119,7.368-9.418l5.055-50.533c0.334-3.337-0.848-6.648-3.22-9.02    c-2.372-2.372-5.683-3.554-9.02-3.22l-50.533,5.055c-4.299,0.431-7.966,3.298-9.418,7.368    C352.818,90.031,353.839,94.573,356.894,97.628z"/>
	</g>
</g>
<g>
	<g>
		<path class="st0" d="M143.106,402.372l-14.832-14.832l51.747-51.747l-15.814-15.814l-51.747,51.747l-14.832-14.832    c-3.055-3.055-7.597-4.076-11.666-2.624c-4.07,1.452-6.938,5.119-7.368,9.418l-5.055,50.533c-0.334,3.337,0.848,6.648,3.22,9.02    c2.372,2.372,5.683,3.554,9.02,3.22l50.533-5.055c4.299-0.431,7.966-3.298,9.418-7.368    C147.182,409.969,146.161,405.427,143.106,402.372z"/>
	</g>
</g>
<g>
	<g>
		<path class="st0" d="M433.329,217.842v20.976h-73.181v22.364h73.181v20.976c0,4.32,2.489,8.254,6.394,10.104    c3.905,1.851,8.525,1.286,11.87-1.449l39.306-32.158c2.596-2.124,4.102-5.301,4.102-8.655s-1.505-6.532-4.102-8.655    l-39.306-32.158c-3.344-2.735-7.965-3.3-11.87-1.449C435.818,209.588,433.329,213.522,433.329,217.842z"/>
	</g>
</g>
<g>
	<g>
		<path class="st0" d="M66.671,282.158v-20.976h73.181v-22.364H66.671v-20.976c0-4.32-2.489-8.254-6.394-10.104    c-3.905-1.851-8.525-1.286-11.87,1.449L9.102,241.345C6.505,243.468,5,246.646,5,250s1.505,6.531,4.102,8.655l39.307,32.158    c3.344,2.735,7.965,3.3,11.87,1.449C64.182,290.412,66.671,286.478,66.671,282.158z"/>
	</g>
</g>
<g>
	<g>
		<path class="st0" d="M402.372,356.894l-14.832,14.832l-51.747-51.747l-15.814,15.814l51.747,51.747l-14.832,14.832    c-3.055,3.055-4.076,7.597-2.624,11.666c1.452,4.07,5.119,6.938,9.418,7.368l50.533,5.055c3.337,0.334,6.648-0.848,9.02-3.22    c2.372-2.372,3.554-5.683,3.22-9.02l-5.055-50.533c-0.431-4.299-3.298-7.966-7.368-9.418    C409.969,352.818,405.427,353.839,402.372,356.894z"/>
	</g>
</g>
<g>
	<g>
		<path class="st0" d="M97.628,143.106l14.832-14.832l51.747,51.747l15.814-15.814l-51.747-51.747l14.832-14.832    c3.055-3.055,4.076-7.597,2.624-11.666c-1.452-4.07-5.119-6.938-9.418-7.368l-50.533-5.055c-3.337-0.334-6.648,0.848-9.02,3.22    c-2.372,2.372-3.554,5.683-3.22,9.02l5.055,50.533c0.431,4.299,3.298,7.966,7.368,9.418    C90.031,147.182,94.573,146.161,97.628,143.106z"/>
	</g>
</g>
<path class="st4" d="M138.589,15.833c0-2.762,2.238-5,5-5h5.833V5c0-2.762,2.238-5,5-5s5,2.238,5,5v5.833h5.833c2.762,0,5,2.238,5,5  s-2.238,5-5,5h-5.833v5.833c0,2.762-2.238,5-5,5s-5-2.238-5-5v-5.833h-5.833C140.827,20.833,138.589,18.595,138.589,15.833z   M334.745,20.833h5.833v5.833c0,2.762,2.238,5,5,5s5-2.238,5-5v-5.833h5.833c2.762,0,5-2.238,5-5s-2.238-5-5-5h-5.833V5  c0-2.762-2.238-5-5-5s-5,2.238-5,5v5.833h-5.833c-2.762,0-5,2.238-5,5S331.983,20.833,334.745,20.833z M165.255,479.167h-5.833  v-5.833c0-2.762-2.238-5-5-5s-5,2.238-5,5v5.833h-5.833c-2.762,0-5,2.238-5,5s2.238,5,5,5h5.833V495c0,2.762,2.238,5,5,5  s5-2.238,5-5v-5.833h5.833c2.762,0,5-2.238,5-5S168.017,479.167,165.255,479.167z M356.411,479.167h-5.833v-5.833  c0-2.762-2.238-5-5-5s-5,2.238-5,5v5.833h-5.833c-2.762,0-5,2.238-5,5s2.238,5,5,5h5.833V495c0,2.762,2.238,5,5,5s5-2.238,5-5  v-5.833h5.833c2.762,0,5-2.238,5-5S359.173,479.167,356.411,479.167z M220.998,316.383v-26.651c0-2.762-2.238-5-5-5s-5,2.238-5,5  v26.651c0,2.762,2.238,5,5,5S220.998,319.145,220.998,316.383z M289.001,316.383v-26.651c0-2.762-2.238-5-5-5s-5,2.238-5,5v26.651  c0,2.762,2.238,5,5,5S289.001,319.145,289.001,316.383z M313.865,285.499v30.884c0,2.762-2.238,5-5,5s-5-2.238-5-5v-30.884  c0-9.604-7.814-17.419-17.419-17.419h-23.218l2.287,48.065c0.132,2.758-1.998,5.101-4.757,5.231  c-0.08,0.004-0.161,0.006-0.241,0.006c-2.652,0-4.863-2.085-4.99-4.763l-2.31-48.54h-6.436l-2.309,48.54  c-0.131,2.759-2.468,4.893-5.231,4.757c-2.759-0.131-4.889-2.474-4.757-5.231l2.286-48.065h-23.218  c-9.604,0-17.419,7.814-17.419,17.419v30.884c0,2.762-2.238,5-5,5s-5-2.238-5-5v-30.884c0-15.119,12.3-27.419,27.419-27.419h5.82  c-12.977-9.476-21.429-24.794-21.429-42.057c0-28.703,23.353-52.056,52.056-52.056c28.704,0,52.057,23.353,52.057,52.056  c0,17.263-8.453,32.581-21.429,42.057h5.819C301.565,258.08,313.865,270.38,313.865,285.499z M250,258.08  c23.19,0,42.057-18.866,42.057-42.057c0-23.189-18.866-42.056-42.057-42.056c-23.189,0-42.056,18.866-42.056,42.056  C207.944,239.214,226.811,258.08,250,258.08z M238.817,129.611c-2.762,0-5,2.238-5,5v5.241c0,2.762,2.238,5,5,5s5-2.238,5-5v-5.241  C243.817,131.85,241.579,129.611,238.817,129.611z M217.842,71.671h15.976v44.785c0,2.762,2.238,5,5,5s5-2.238,5-5V66.671  c0-2.762-2.238-5-5-5h-20.976c-2.376,0-4.567-1.388-5.586-3.536c-1.018-2.146-0.703-4.722,0.801-6.561l32.157-39.307  C246.394,10.827,248.138,10,250,10s3.606,0.827,4.785,2.268l32.158,39.306c1.504,1.84,1.818,4.415,0.8,6.563  c-1.018,2.146-3.209,3.534-5.585,3.534h-20.976c-2.762,0-5,2.238-5,5v73.182c0,2.762,2.238,5,5,5s5-2.238,5-5V71.671h15.976  c6.22,0,11.959-3.632,14.621-9.251c2.665-5.619,1.843-12.361-2.096-17.178L262.524,5.936C259.438,2.163,254.873,0,250,0  s-9.438,2.163-12.525,5.936l-32.158,39.308c-3.938,4.815-4.761,11.558-2.097,17.175C205.883,68.039,211.622,71.671,217.842,71.671z   M261.183,368.813c2.762,0,5-2.238,5-5v-3.665c0-2.762-2.238-5-5-5s-5,2.238-5,5v3.665  C256.183,366.574,258.421,368.813,261.183,368.813z M282.158,428.329h-15.976v-47.522c0-2.762-2.238-5-5-5s-5,2.238-5,5v52.522  c0,2.762,2.238,5,5,5h20.976c2.376,0,4.567,1.388,5.586,3.536c1.018,2.146,0.703,4.722-0.801,6.561l-32.157,39.307  c-1.18,1.44-2.924,2.268-4.786,2.268s-3.606-0.827-4.785-2.268l-32.158-39.306c-1.504-1.84-1.818-4.415-0.8-6.563  c1.018-2.146,3.209-3.534,5.585-3.534h20.976c2.762,0,5-2.238,5-5v-73.182c0-2.762-2.238-5-5-5s-5,2.238-5,5v68.182h-15.976  c-6.22,0-11.959,3.632-14.621,9.251c-2.665,5.619-1.843,12.361,2.096,17.178l32.159,39.307C240.562,497.837,245.127,500,250,500  s9.438-2.163,12.525-5.936l32.158-39.308c3.938-4.815,4.761-11.558,2.097-17.175C294.117,431.961,288.378,428.329,282.158,428.329z   M323.514,167.742l51.748-51.747c0.938-0.938,1.465-2.209,1.465-3.535s-0.526-2.598-1.465-3.535L360.43,94.092  c-1.681-1.68-2.249-4.211-1.449-6.45c0.797-2.237,2.841-3.836,5.205-4.072l50.533-5.055c1.855-0.188,3.671,0.464,4.987,1.779  c1.316,1.317,1.965,3.135,1.779,4.987l-5.055,50.533c-0.236,2.364-1.835,4.408-4.074,5.206c-2.235,0.799-4.769,0.229-6.449-1.45  l-14.832-14.832c-0.938-0.938-2.209-1.465-3.535-1.465s-2.598,0.526-3.535,1.465l-51.747,51.748c-1.953,1.952-1.953,5.118,0,7.07  c0.976,0.977,2.256,1.465,3.535,1.465s2.56-0.488,3.535-1.465l48.212-48.212l11.296,11.296c4.397,4.399,11.021,5.89,16.882,3.799  c5.857-2.09,10.044-7.438,10.664-13.629l5.055-50.533c0.484-4.85-1.214-9.607-4.66-13.054c-3.446-3.447-8.21-5.138-13.054-4.66  l-50.533,5.056c-6.19,0.619-11.539,4.806-13.628,10.661c-2.092,5.858-0.602,12.486,3.798,16.883l11.296,11.297l-48.212,48.212  c-1.953,1.952-1.953,5.118,0,7.07C318.395,169.695,321.563,169.695,323.514,167.742z M176.486,332.258l-51.748,51.747  c-0.938,0.938-1.465,2.209-1.465,3.535s0.526,2.598,1.465,3.535l14.832,14.833c1.681,1.68,2.249,4.211,1.449,6.45  c-0.797,2.237-2.841,3.836-5.205,4.072l-50.533,5.055c-1.855,0.195-3.671-0.464-4.987-1.779c-1.316-1.317-1.965-3.135-1.779-4.987  l5.055-50.533c0.236-2.364,1.835-4.408,4.074-5.206c2.236-0.799,4.769-0.229,6.449,1.45l14.832,14.832  c0.938,0.938,2.209,1.465,3.535,1.465s2.598-0.526,3.535-1.465l51.747-51.748c1.953-1.952,1.953-5.118,0-7.07  c-1.951-1.953-5.119-1.953-7.07,0l-48.212,48.212l-11.296-11.296c-4.398-4.399-11.021-5.89-16.882-3.799  c-5.857,2.09-10.044,7.438-10.664,13.629l-5.055,50.533c-0.484,4.85,1.214,9.607,4.66,13.054c3.059,3.06,7.151,4.741,11.424,4.741  c0.541,0,1.085-0.027,1.63-0.081l50.533-5.056c6.19-0.619,11.539-4.806,13.628-10.661c2.092-5.858,0.602-12.486-3.798-16.883  l-11.296-11.297l48.212-48.212c1.953-1.952,1.953-5.118,0-7.07C181.605,330.305,178.438,330.305,176.486,332.258z M494.064,237.475  l-39.308-32.158c-4.814-3.938-11.558-4.76-17.175-2.097c-5.621,2.663-9.253,8.402-9.253,14.622v15.976h-68.182c-2.762,0-5,2.238-5,5  s2.238,5,5,5h73.182c2.762,0,5-2.238,5-5v-20.976c0-2.376,1.388-4.567,3.536-5.586c2.146-1.019,4.723-0.702,6.561,0.801  l39.307,32.157c1.44,1.18,2.268,2.924,2.268,4.786s-0.827,3.606-2.268,4.785l-39.306,32.158c-1.84,1.504-4.416,1.818-6.563,0.8  c-2.146-1.018-3.534-3.209-3.534-5.585v-20.976c0-2.762-2.238-5-5-5h-73.182c-2.762,0-5,2.238-5,5s2.238,5,5,5h68.182v15.976  c0,6.22,3.632,11.959,9.251,14.621c2.192,1.04,4.556,1.549,6.909,1.549c3.679,0,7.332-1.243,10.269-3.645l39.307-32.159  C497.837,259.438,500,254.873,500,250S497.837,240.562,494.064,237.475z M71.671,266.183h68.182c2.762,0,5-2.238,5-5s-2.238-5-5-5  H66.671c-2.762,0-5,2.238-5,5v20.976c0,2.376-1.388,4.567-3.536,5.586c-2.146,1.019-4.723,0.703-6.561-0.801l-39.307-32.157  C10.827,253.606,10,251.862,10,250s0.827-3.606,2.268-4.785l39.306-32.158c1.841-1.505,4.416-1.818,6.563-0.8  c2.146,1.018,3.534,3.209,3.534,5.585v20.976c0,2.762,2.238,5,5,5h73.182c2.762,0,5-2.238,5-5s-2.238-5-5-5H71.671v-15.976  c0-6.22-3.632-11.959-9.251-14.621c-5.619-2.665-12.362-1.842-17.178,2.096L5.936,237.476C2.163,240.562,0,245.127,0,250  s2.163,9.438,5.936,12.525l39.308,32.158c2.937,2.402,6.59,3.645,10.268,3.645c2.353,0,4.716-0.509,6.907-1.548  c5.621-2.663,9.253-8.402,9.253-14.622V266.183z M426.381,363.189c-0.619-6.19-4.806-11.539-10.661-13.628  c-5.856-2.089-12.485-0.601-16.883,3.798l-11.297,11.296l-48.212-48.212c-1.951-1.953-5.119-1.953-7.07,0  c-1.953,1.952-1.953,5.118,0,7.07l51.747,51.748c0.938,0.938,2.209,1.465,3.535,1.465s2.598-0.526,3.535-1.465l14.833-14.832  c1.68-1.679,4.21-2.252,6.45-1.449c2.237,0.797,3.836,2.841,4.072,5.205l5.055,50.533c0.186,1.853-0.463,3.67-1.779,4.987  c-1.316,1.315-3.131,1.976-4.987,1.779l-50.533-5.055c-2.364-0.236-4.408-1.835-5.206-4.074c-0.799-2.237-0.23-4.769,1.45-6.449  l14.832-14.832c0.938-0.938,1.465-2.209,1.465-3.535s-0.526-2.598-1.465-3.535l-51.748-51.747c-1.951-1.953-5.119-1.953-7.07,0  c-1.953,1.952-1.953,5.118,0,7.07l48.212,48.212l-11.296,11.296c-4.399,4.397-5.89,11.025-3.799,16.882  c2.09,5.857,7.438,10.044,13.629,10.664l50.533,5.055c0.546,0.054,1.089,0.081,1.63,0.081c4.272,0,8.365-1.682,11.424-4.741  c3.446-3.446,5.145-8.204,4.66-13.054L426.381,363.189z M135.345,112.46l11.296-11.296c4.399-4.397,5.89-11.025,3.799-16.882  c-2.09-5.857-7.438-10.044-13.629-10.664l-50.533-5.055c-4.856-0.479-9.608,1.214-13.054,4.66c-3.446,3.446-5.145,8.204-4.66,13.054  l5.056,50.533c0.619,6.19,4.806,11.539,10.661,13.628c5.859,2.091,12.486,0.602,16.883-3.798l11.297-11.296l48.212,48.212  c0.976,0.977,2.256,1.465,3.535,1.465s2.56-0.488,3.535-1.465c1.953-1.952,1.953-5.118,0-7.07l-51.747-51.748  c-0.938-0.938-2.209-1.465-3.535-1.465s-2.598,0.526-3.535,1.465L94.092,139.57c-1.679,1.68-4.211,2.252-6.45,1.449  c-2.237-0.797-3.836-2.841-4.072-5.205l-5.055-50.533c-0.186-1.853,0.463-3.67,1.779-4.987c1.316-1.315,3.132-1.966,4.987-1.779  l50.533,5.055c2.364,0.236,4.408,1.835,5.206,4.074c0.799,2.237,0.23,4.769-1.45,6.449l-14.832,14.832  c-0.938,0.938-1.465,2.209-1.465,3.535s0.526,2.598,1.465,3.535l51.748,51.747c1.951,1.953,5.119,1.953,7.07,0  c1.953-1.952,1.953-5.118,0-7.07L135.345,112.46z"/>
</svg>
