<?xml version="1.0" encoding="utf-8"?>
<!-- Generator: Adobe Illustrator 22.0.0, SVG Export Plug-In . SVG Version: 6.00 Build 0)  -->
<svg xmlns="http://www.w3.org/2000/svg" xmlns:xlink="http://www.w3.org/1999/xlink" version="1.1" id="Layer_1" x="0px" y="0px" viewBox="0 0 500 500" style="enable-background:new 0 0 500 500;" xml:space="preserve" width="512" height="512">
<style type="text/css">
	.st0{fill:#83E1E5;}
	.st1{fill:#AAB1BA;}
	.st2{fill:#ECF4F7;}
	.st3{fill:#FDDF7F;}
	.st4{fill:#1C1D21;}
	.st5{fill:#FFFFFF;}
</style>
<g>
	<g>
		<path class="st3" d="M427.396,273.789H396.04c-3.85-18.247-11.033-35.262-20.883-50.384l22.181-22.18    c5.015-5.016,5.015-13.148,0-18.164l-25.639-25.638c-5.015-5.016-13.147-5.016-18.162,0l-22.182,22.181    c-15.122-9.851-32.137-17.032-50.384-20.884V83.17h33.132c0,0-64.105-78.17-64.104-78.17l-64.105,78.17h33.133v75.55    c-18.247,3.852-35.262,11.033-50.384,20.884l-22.182-22.181c-5.015-5.016-13.147-5.016-18.162,0l-25.639,25.638    c-5.015,5.015-5.015,13.147,0,18.164l22.181,22.18c-9.85,15.123-17.033,32.138-20.884,50.384H72.604    c-7.093,0-12.843,5.751-12.843,12.843v36.258c0,7.093,5.75,12.843,12.843,12.843h31.356c3.851,18.247,11.033,35.264,20.884,50.385    l-22.181,22.181c-5.015,5.016-5.015,13.146,0,18.163l25.639,25.639c5.015,5.015,13.147,5.015,18.162,0l22.181-22.181    c15.122,9.849,32.138,17.031,50.384,20.883v31.355c0,7.093,5.75,12.843,12.842,12.843h36.259c7.093,0,12.842-5.749,12.842-12.843    v-31.355c18.247-3.852,35.262-11.034,50.384-20.883l22.181,22.181c5.015,5.015,13.147,5.015,18.162,0l25.639-25.639    c5.015-5.016,5.015-13.146,0-18.163l-22.181-22.181c9.85-15.121,17.033-32.139,20.883-50.385h31.356    c7.092,0,12.843-5.749,12.843-12.843v-36.258C440.239,279.539,434.489,273.789,427.396,273.789z"/>
	</g>
</g>
<g>
	<g>
		<circle class="st0" cx="250" cy="304.761" r="90.861"/>
	</g>
</g>
<g>
	<g>
		<circle class="st5" cx="250" cy="304.761" r="61.201"/>
	</g>
</g>
<g>
	<g>
		<circle class="st1" cx="250" cy="304.761" r="16.032"/>
	</g>
</g>
<path class="st4" d="M140.674,113.17c0-2.762,2.239-5,5-5h6v-5c0-2.762,2.239-5,5-5s5,2.238,5,5v5h6c2.761,0,5,2.238,5,5  s-2.239,5-5,5h-6v6c0,2.762-2.239,5-5,5s-5-2.238-5-5v-6h-6C142.913,118.17,140.674,115.932,140.674,113.17z M332.326,118.17h6v6  c0,2.762,2.238,5,5,5s5-2.238,5-5v-6h6c2.762,0,5-2.238,5-5s-2.238-5-5-5h-6v-5c0-2.762-2.238-5-5-5s-5,2.238-5,5v5h-6  c-2.762,0-5,2.238-5,5S329.564,118.17,332.326,118.17z M250,248.56c9.012,0,17.617,2.067,25.577,6.144  c2.456,1.259,5.471,0.288,6.729-2.171c1.259-2.458,0.287-5.471-2.171-6.729c-9.384-4.807-19.523-7.243-30.136-7.243  c-36.504,0-66.202,29.697-66.202,66.201c0,13.149,3.853,25.86,11.142,36.759c0.964,1.442,2.548,2.222,4.161,2.222  c0.956,0,1.921-0.273,2.775-0.845c2.295-1.535,2.912-4.641,1.376-6.936c-6.185-9.248-9.455-20.037-9.455-31.2  C193.798,273.771,219.01,248.56,250,248.56z M298.124,342.896c0.854,0.571,1.819,0.845,2.774,0.845c1.613,0,3.197-0.78,4.161-2.222  c7.289-10.898,11.142-23.609,11.142-36.759c0-11.373-2.934-22.594-8.484-32.447c-1.354-2.405-4.404-3.256-6.811-1.902  c-2.406,1.355-3.258,4.404-1.902,6.811c4.709,8.358,7.197,17.882,7.197,27.539c0,11.163-3.27,21.952-9.454,31.2  C295.212,338.256,295.828,341.361,298.124,342.896z M323.194,250.686c-2.306,1.519-2.944,4.619-1.426,6.926  c9.22,14.003,14.093,30.308,14.093,47.15c0,47.344-38.518,85.86-85.861,85.86s-85.861-38.517-85.861-85.86S202.656,218.9,250,218.9  c16.592,0,32.69,4.739,46.557,13.705c2.318,1.499,5.415,0.834,6.913-1.483c1.5-2.318,0.836-5.414-1.483-6.913  C286.499,214.194,268.522,208.9,250,208.9c-52.858,0-95.861,43.003-95.861,95.861c0,52.857,43.003,95.86,95.861,95.86  c52.858,0,95.861-43.003,95.861-95.86c0-18.803-5.443-37.009-15.741-52.65C328.602,249.807,325.504,249.168,323.194,250.686z   M260.889,286.802l62.736-62.735c1.951-1.953,5.119-1.953,7.07,0c1.953,1.952,1.953,5.118,0,7.07l-62.736,62.735  c1.936,3.182,3.073,6.9,3.073,10.89c0,11.598-9.435,21.032-21.032,21.032c-11.597,0-21.032-9.435-21.032-21.032  s9.435-21.032,21.032-21.032C253.989,283.729,257.708,284.866,260.889,286.802z M261.032,304.762  c0-6.083-4.949-11.032-11.032-11.032s-11.032,4.949-11.032,11.032s4.949,11.032,11.032,11.032S261.032,310.845,261.032,304.762z   M445.238,286.632v36.258c0,9.839-8.004,17.843-17.843,17.843H400.04c-3.771,15.808-9.986,30.802-18.519,44.679l19.352,19.353  c6.957,6.956,6.957,18.276,0,25.232l-25.639,25.639c-3.369,3.37-7.85,5.227-12.616,5.227c-4.766,0-9.246-1.856-12.616-5.227  l-19.353-19.352c-13.878,8.532-28.872,14.748-44.678,18.52v27.354c0,9.839-8.004,17.843-17.843,17.843h-36.258  c-9.838,0-17.842-8.004-17.842-17.843v-27.354c-15.805-3.771-30.799-9.987-44.677-18.52l-19.353,19.352  c-3.37,3.37-7.851,5.227-12.617,5.227c-4.766,0-9.247-1.856-12.617-5.227l-25.639-25.639c-6.956-6.956-6.956-18.276,0-25.232  l19.353-19.353c-8.532-13.876-14.748-28.87-18.52-44.679H72.604c-9.838,0-17.843-8.004-17.843-17.843v-36.258  c0-9.839,8.004-17.843,17.843-17.843h27.355c3.772-15.807,9.987-30.801,18.52-44.677L99.126,204.76  c-6.957-6.958-6.956-18.278,0-25.234l25.638-25.637c3.37-3.371,7.851-5.228,12.617-5.228c4.767,0,9.247,1.856,12.617,5.228  l19.352,19.352c13.875-8.531,28.87-14.741,44.678-18.514V88.171h-28.134c-1.933,0-3.693-1.114-4.52-2.861s-0.572-3.814,0.653-5.31  l64.105-78.171c1.602-1.952,4.407-2.405,6.542-1.053c0.489,0.31,0.907,0.692,1.249,1.125C256.04,4.48,317.971,80,317.971,80  c1.226,1.495,1.48,3.563,0.653,5.31s-2.587,2.861-4.52,2.861h-28.132v66.556c15.809,3.773,30.803,9.982,44.677,18.514l19.353-19.352  c3.369-3.371,7.851-5.228,12.616-5.228c4.767,0,9.247,1.856,12.617,5.228l25.638,25.638c3.37,3.369,5.227,7.85,5.227,12.616  c0,4.766-1.855,9.247-5.226,12.617l-19.353,19.353c8.532,13.877,14.747,28.87,18.519,44.677h27.355  C437.234,268.789,445.238,276.793,445.238,286.632z M435.238,286.632c0-4.324-3.519-7.843-7.843-7.843H396.04  c-2.363,0-4.404-1.655-4.893-3.968c-3.667-17.378-10.456-33.759-20.18-48.688c-1.29-1.979-1.018-4.593,0.654-6.264l22.181-22.181  c1.48-1.482,2.297-3.452,2.297-5.547s-0.815-4.064-2.297-5.545l-25.639-25.639c-1.482-1.481-3.451-2.298-5.546-2.298  s-4.063,0.816-5.545,2.298l-22.183,22.181c-1.671,1.671-4.283,1.945-6.265,0.654c-13.184-8.589-27.508-14.886-42.653-18.767v19.854  c0,2.762-2.238,5-5,5s-5-2.238-5-5v-26.173c0-0.009,0-0.017,0-0.025V83.171c0-2.762,2.238-5,5-5h22.565L250,12.886l-53.539,65.285  h22.567c2.761,0,5,2.238,5,5v75.521c0,0.002,0,0.004,0,0.006v26.184c0,2.762-2.239,5-5,5s-5-2.238-5-5v-19.855  c-15.145,3.882-29.469,10.178-42.656,18.768c-1.981,1.29-4.593,1.017-6.265-0.654l-22.182-22.181  c-1.481-1.481-3.451-2.298-5.545-2.298c-2.094,0-4.064,0.816-5.545,2.298l-25.639,25.638c-3.058,3.058-3.058,8.034,0,11.093  l22.181,22.181c1.671,1.671,1.944,4.284,0.654,6.264c-9.723,14.928-16.513,31.309-20.181,48.688  c-0.488,2.313-2.529,3.968-4.892,3.968H72.604c-4.325,0-7.843,3.519-7.843,7.843v36.258c0,4.324,3.518,7.843,7.843,7.843h31.355  c2.363,0,4.404,1.655,4.892,3.968c3.668,17.381,10.458,33.762,20.181,48.689c1.29,1.979,1.017,4.593-0.654,6.264l-22.182,22.181  c-3.058,3.058-3.058,8.033,0,11.092l25.639,25.639c1.481,1.481,3.451,2.297,5.545,2.297s4.064-0.815,5.545-2.297l22.182-22.181  c1.671-1.672,4.284-1.945,6.264-0.654c14.93,9.723,31.311,16.513,48.688,20.181c2.313,0.488,3.967,2.529,3.967,4.893v31.354  c0,4.324,3.518,7.843,7.842,7.843h36.258c4.324,0,7.843-3.519,7.843-7.843v-31.354c0-2.363,1.655-4.404,3.968-4.893  c17.377-3.668,33.759-10.458,48.688-20.181c1.98-1.291,4.593-1.017,6.264,0.654l22.181,22.181c1.481,1.481,3.451,2.297,5.546,2.297  s4.064-0.815,5.545-2.297l25.64-25.639c3.058-3.059,3.058-8.033,0-11.092l-22.181-22.181c-1.672-1.671-1.944-4.284-0.654-6.264  c9.723-14.928,16.513-31.31,20.18-48.689c0.488-2.313,2.529-3.968,4.893-3.968h31.355c4.324,0,7.843-3.519,7.843-7.843V286.632z"/>
</svg>
