<?xml version="1.0" encoding="utf-8"?>
<!-- Generator: Adobe Illustrator 22.0.0, SVG Export Plug-In . SVG Version: 6.00 Build 0)  -->
<svg xmlns="http://www.w3.org/2000/svg" xmlns:xlink="http://www.w3.org/1999/xlink" version="1.1" id="Layer_1" x="0px" y="0px" viewBox="0 0 500 500" style="enable-background:new 0 0 500 500;" xml:space="preserve" width="512" height="512">
<style type="text/css">
	.st0{fill:#83E1E5;}
	.st1{fill:#AAB1BA;}
	.st2{fill:#ECF4F7;}
	.st3{fill:#FDDF7F;}
	.st4{fill:#1C1D21;}
	.st5{fill:#FFFFFF;}
</style>
<g>
	<path class="st0" d="M441.196,315.958v22.641c0,6.523-5.285,11.811-11.808,11.811s-11.81-5.287-11.81-11.811v-76.502   c0-6.523,5.287-11.811,11.81-11.811s11.808,5.287,11.808,11.811v22.031l13.489-12.188V139.818H302.811   c-19.802,0-38.799,7.873-52.802,21.874l-0.003,0.005l-0.01-0.01c-14.003-14.001-32.995-21.869-52.797-21.869H45.327v110.47h5.885   c17.214,0,31.218,14.003,31.218,31.218c0,17.212-14.003,31.215-31.218,31.215h-5.885v119.903h146.624   c19.802,0,38.794,7.868,52.797,21.871l5.257,5.254l5.254-5.254c14.003-14.003,32.995-21.871,52.797-21.871h146.627V318.578   l-6.366-9.055L441.196,315.958z"/>
</g>
<g>
	<path class="st1" d="M255.261,454.496l-5.254,5.254l-5.257-5.254c-14.003-14.003-32.995-21.871-52.797-21.871H45.327v35.252   h146.624c19.802,0,38.794,7.868,52.797,21.871l5.257,5.257l5.254-5.257c14.003-14.003,32.995-21.871,52.797-21.871h146.627v-35.252   H308.058C288.256,432.624,269.264,440.492,255.261,454.496z"/>
</g>
<g>
	<path class="st2" d="M51.212,250.288H16.817c-6.523,0-11.81,5.287-11.81,11.808v38.817v37.688c0,6.521,5.287,11.808,11.81,11.808   s11.81-5.287,11.81-11.808v-25.88h22.585c17.214,0,31.218-14.003,31.218-31.215C82.43,264.292,68.426,250.288,51.212,250.288z    M51.212,289.103H28.627v-15.196h22.585c4.191,0,7.599,3.408,7.599,7.599C58.812,285.694,55.403,289.103,51.212,289.103z"/>
</g>
<g>
	<path class="st2" d="M294.776,280.377c0-17.214-14.003-31.218-31.217-31.218h-34.395c-6.523,0-11.81,5.287-11.81,11.811v38.815   v38.817c0,6.521,5.287,11.808,11.81,11.808h34.395c17.214,0,31.217-14.003,31.217-31.215c0-7.333-2.545-14.077-6.791-19.41   C292.231,294.451,294.776,287.708,294.776,280.377z M240.974,272.777h22.585c4.191,0,7.599,3.408,7.599,7.599   c0,4.191-3.408,7.599-7.599,7.599h-22.585V272.777z M263.559,326.791h-22.585v-15.196h22.585c4.191,0,7.599,3.408,7.599,7.599   C271.158,323.382,267.75,326.791,263.559,326.791z"/>
</g>
<g>
	<g>
		<path class="st2" d="M370.052,350.409h-27.751c-13.694,0-24.836-11.142-24.836-24.837v-50.448    c0-13.695,11.142-24.837,24.836-24.837h27.748c13.697,0,24.841,11.142,24.841,24.839v50.445    C394.891,339.267,383.749,350.409,370.052,350.409z M342.301,273.907c-0.671,0-1.218,0.547-1.218,1.218v50.448    c0,0.671,0.547,1.218,1.218,1.218h27.751c0.671,0,1.218-0.547,1.218-1.218v-50.445c0-0.674-0.547-1.221-1.221-1.221H342.301z"/>
	</g>
</g>
<g>
	<path class="st2" d="M184.304,250.987c-4.682-1.688-9.921-0.26-13.099,3.575c0,0-22.591,27.273-22.593,27.273l-22.59-27.273   c-3.179-3.835-8.417-5.263-13.1-3.575c-4.685,1.688-7.804,6.13-7.804,11.108v76.506c0,6.519,5.284,11.807,11.808,11.807   c6.522,0,11.81-5.287,11.81-11.807v-43.735l10.782,13.015c2.241,2.709,5.576,4.277,9.096,4.277c3.518,0,6.853-1.567,9.094-4.277   l10.782-13.015v43.735c0,6.519,5.287,11.807,11.811,11.807c6.522,0,11.808-5.287,11.808-11.807v-76.506   C192.11,257.117,188.989,252.675,184.304,250.987z"/>
</g>
<g>
	<path class="st2" d="M492.853,331.807l-26.88-38.237l25.138-22.712c4.839-4.373,5.216-11.841,0.843-16.68   c-4.371-4.839-11.838-5.219-16.68-0.843l-34.079,30.792v-22.031c0-6.523-5.285-11.811-11.808-11.811s-11.81,5.287-11.81,11.811   v76.502c0,6.523,5.287,11.811,11.81,11.811s11.808-5.287,11.808-11.811V315.96l7.123-6.437l25.214,35.867   c2.299,3.272,5.956,5.019,9.671,5.019c2.347,0,4.715-0.696,6.781-2.147C495.32,344.509,496.604,337.143,492.853,331.807z"/>
</g>
<path class="st4" d="M234.183,15.827c0-2.77,2.226-4.995,4.995-4.995h5.836V4.995c0-2.77,2.226-4.995,4.995-4.995  c2.77,0,4.995,2.226,4.995,4.995v5.836h5.836c2.77,0,4.995,2.226,4.995,4.995s-2.226,4.995-4.995,4.995h-5.836v5.836  c0,2.77-2.226,4.995-4.995,4.995c-2.77,0-4.995-2.226-4.995-4.995v-5.836h-5.836C236.409,20.822,234.183,18.596,234.183,15.827z   M459.686,350.413v82.2v35.264c0,2.77-2.226,4.995-4.995,4.995H308.049c-18.596,0-36.08,7.246-49.26,20.402l-5.243,5.267  c-0.94,0.94-2.201,1.459-3.536,1.459c-1.335,0-2.597-0.519-3.536-1.459l-5.267-5.267c-13.156-13.156-30.639-20.402-49.26-20.402  H45.328c-2.77,0-4.995-2.226-4.995-4.995v-35.264V330.506c0-2.77,2.226-4.995,4.995-4.995s4.995,2.226,4.995,4.995v97.112h141.623  c19.558,0,38.537,7.641,53.068,20.675v-29.998c0-2.77,2.226-4.995,4.995-4.995c2.77,0,4.995,2.226,4.995,4.995v29.98  c14.547-13.021,33.519-20.657,53.044-20.657h141.647v-77.205c0-2.77,2.226-4.995,4.995-4.995S459.686,347.643,459.686,350.413z   M449.696,437.608H308.049c-18.299,0-36.253,7.444-49.26,20.426l-5.243,5.243c-1.978,1.929-5.094,1.978-7.072,0l-5.267-5.243  c-12.983-12.983-30.936-20.426-49.26-20.426H50.323v25.273h141.623c21.292,0,41.297,8.284,56.333,23.32l1.731,1.731l1.706-1.731  c15.06-15.035,35.066-23.32,56.333-23.32h141.647V437.608z M45.328,238.414c2.77,0,4.995-2.226,4.995-4.995v-88.605h146.865  c17.959,0,34.814,6.892,47.826,19.204v29.191c0,2.77,2.226,4.995,4.995,4.995c2.77,0,4.995-2.226,4.995-4.995v-29.193  c12.987-12.311,29.818-19.202,47.801-19.202h146.89v104.333c0,2.77,2.226,4.995,4.995,4.995s4.995-2.226,4.995-4.995V139.819  c0-2.77-2.226-4.995-4.995-4.995H302.806c-17.548,0-34.063,5.912-47.801,16.32V50.917c0-2.77-2.226-4.995-4.995-4.995  c-2.77,0-4.995,2.226-4.995,4.995v100.228c-13.743-10.409-30.276-16.321-47.826-16.321H45.328c-2.77,0-4.995,2.226-4.995,4.995v93.6  C40.333,236.189,42.559,238.414,45.328,238.414z M163.483,338.592v-29.848l-1.929,2.325c-6.331,7.666-19.437,7.716-25.891,0  l-1.929-2.325v29.848c0,9.273-7.542,16.816-16.816,16.816s-16.791-7.542-16.791-16.816v-76.487c0-7.048,4.451-13.403,11.079-15.827  c6.677-2.399,14.194-0.297,18.67,5.094L148.621,274l18.72-22.627c4.525-5.465,12.092-7.493,18.646-5.094c0.025,0,0.025,0,0.025,0  c6.652,2.423,11.103,8.779,11.103,15.827v76.487c0,9.273-7.542,16.816-16.816,16.816  C171.025,355.408,163.483,347.866,163.483,338.592z M164.621,291.681c0.989-1.162,2.399-1.805,3.858-1.805  c0.569,0,1.138,0.099,1.706,0.297c1.978,0.717,3.289,2.597,3.289,4.699v43.721c0,3.759,3.066,6.825,6.825,6.825  c3.759,0,6.825-3.066,6.825-6.825v-76.487c0-2.844-1.805-5.44-4.501-6.43c-2.77-0.989-5.737-0.099-7.592,2.077l-22.553,27.276  c-1.929,2.275-5.787,2.275-7.715,0l-22.602-27.276c-1.83-2.201-4.822-3.091-7.567-2.077c-2.671,0.989-4.476,3.561-4.476,6.43v76.487  c0,3.759,3.042,6.825,6.8,6.825s6.825-3.066,6.825-6.825v-43.721c0-2.102,1.311-3.981,3.289-4.699  c2.003-0.717,4.179-0.124,5.564,1.508l10.782,13.008c2.572,3.116,7.889,3.141,10.46,0.025L164.621,291.681z M51.214,317.721H33.631  v20.871c0,9.273-7.542,16.816-16.816,16.816S0,347.866,0,338.592v-76.487c0-9.273,7.542-16.816,16.816-16.816h34.398  c19.956,0,36.203,16.247,36.203,36.228C87.417,301.474,71.17,317.721,51.214,317.721z M51.214,307.73  c14.442,0,26.213-11.771,26.213-26.213c0-14.467-11.771-26.238-26.213-26.238H16.816c-3.759,0-6.825,3.066-6.825,6.825v76.487  c0,3.759,3.066,6.825,6.825,6.825s6.825-3.066,6.825-6.825v-25.867c0-2.77,2.226-4.995,4.995-4.995H51.214z M51.214,294.105H28.636  c-2.77,0-4.995-2.226-4.995-4.995v-15.208c0-2.77,2.226-4.995,4.995-4.995h22.578c6.949,0,12.587,5.663,12.587,12.612  S58.162,294.105,51.214,294.105z M33.631,284.114h17.582c1.434,0,2.597-1.162,2.597-2.597s-1.162-2.621-2.597-2.621H33.631V284.114z   M276.148,319.205c0,6.949-5.638,12.587-12.587,12.587h-22.578c-2.77,0-4.995-2.226-4.995-4.995v-15.208  c0-2.77,2.226-4.995,4.995-4.995h22.578C270.51,306.593,276.148,312.256,276.148,319.205z M266.158,319.205  c0-1.434-1.162-2.621-2.597-2.621h-17.582v5.218h17.582C264.995,321.801,266.158,320.639,266.158,319.205z M299.764,280.38  c0,6.85-1.978,13.626-5.638,19.412c3.66,5.762,5.638,12.538,5.638,19.412c0,19.956-16.247,36.204-36.203,36.204h-34.398  c-9.273,0-16.816-7.542-16.816-16.816v-77.625c0-9.273,7.542-16.816,16.816-16.816h34.398  C283.517,244.152,299.764,260.399,299.764,280.38z M284.061,296.701c3.734-4.723,5.712-10.362,5.712-16.321  c0-14.467-11.771-26.238-26.213-26.238h-34.398c-3.759,0-6.825,3.066-6.825,6.825v77.625c0,3.759,3.066,6.825,6.825,6.825h34.398  c14.442,0,26.213-11.771,26.213-26.213c0-5.984-1.978-11.623-5.688-16.297C282.627,301.078,282.627,298.506,284.061,296.701z   M276.148,280.38c0,6.949-5.638,12.587-12.587,12.587h-22.578c-2.77,0-4.995-2.226-4.995-4.995v-15.184  c0-2.77,2.226-4.995,4.995-4.995h22.578C270.51,267.793,276.148,273.431,276.148,280.38z M266.158,280.38  c0-1.434-1.162-2.597-2.597-2.597h-17.582v5.193h17.582C264.995,282.976,266.158,281.814,266.158,280.38z M370.044,268.905  c3.437,0,6.232,2.794,6.232,6.232v50.448c0,3.437-2.794,6.207-6.232,6.207h-27.746c-3.437,0-6.207-2.77-6.207-6.207v-50.472  c0-3.437,2.77-6.207,6.207-6.207H370.044z M366.285,278.896h-20.204v42.905h20.204V278.896z M370.044,245.289  c16.469,0,29.848,13.379,29.848,29.848v50.448c0,16.445-13.378,29.823-29.848,29.823h-27.746c-16.445,0-29.823-13.378-29.823-29.823  v-50.472c0-16.445,13.378-29.823,29.823-29.823H370.044z M370.044,255.28h-27.746c-10.93,0-19.833,8.902-19.833,19.833v50.472  c0,10.93,8.902,19.833,19.833,19.833h27.746c10.955,0,19.857-8.902,19.857-19.833v-50.448  C389.901,264.182,380.999,255.28,370.044,255.28z M496.928,328.948c2.597,3.66,3.586,8.086,2.819,12.513  c-0.767,4.427-3.215,8.309-6.899,10.881c-2.794,2.003-6.158,3.066-9.644,3.066c-5.465,0-10.609-2.671-13.749-7.147l-21.984-31.258  l-1.286,1.187v20.402c0,9.273-7.518,16.816-16.791,16.816c-9.273,0-16.816-7.542-16.816-16.816v-76.487  c0-9.273,7.542-16.816,16.816-16.816c9.273,0,16.791,7.542,16.791,16.816v10.782l25.718-23.27  c6.899-6.182,17.558-5.688,23.765,1.187c6.207,6.875,5.663,17.533-1.187,23.765l-21.885,19.734L496.928,328.948z M489.905,339.755  c0.297-1.781-0.099-3.586-1.138-5.045v-0.025l-26.88-38.256c-1.459-2.053-1.138-4.896,0.742-6.578l25.149-22.701  c2.77-2.522,2.992-6.85,0.47-9.62c-2.498-2.77-6.85-2.992-9.62-0.495l-34.077,30.813c-1.459,1.311-3.635,1.607-5.391,0.866  c-1.805-0.816-2.967-2.597-2.967-4.575v-22.034c0-3.759-3.042-6.825-6.8-6.825c-3.759,0-6.825,3.066-6.825,6.825v76.487  c0,3.759,3.066,6.825,6.825,6.825c3.759,0,6.8-3.066,6.8-6.825v-22.627c0-1.41,0.593-2.745,1.632-3.709l7.122-6.454  c0.94-0.841,2.127-1.286,3.363-1.286c0.173,0,0.371,0,0.544,0.025c1.434,0.148,2.72,0.915,3.536,2.102l25.224,35.882  c2.102,2.943,6.528,3.759,9.471,1.657C488.595,343.118,489.584,341.56,489.905,339.755z M255.005,215.861v-3.61  c0-2.77-2.226-4.995-4.995-4.995c-2.77,0-4.995,2.226-4.995,4.995v3.61c0,2.77,2.226,4.995,4.995,4.995  C252.779,220.857,255.005,218.631,255.005,215.861z M245.014,398.239v3.882c0,2.77,2.226,4.995,4.995,4.995  c2.77,0,4.995-2.226,4.995-4.995v-3.882c0-2.77-2.226-4.995-4.995-4.995C247.24,393.244,245.014,395.47,245.014,398.239z"/>
</svg>
