<?xml version="1.0" encoding="utf-8"?>
<!-- Generator: Adobe Illustrator 22.0.0, SVG Export Plug-In . SVG Version: 6.00 Build 0)  -->
<svg xmlns="http://www.w3.org/2000/svg" xmlns:xlink="http://www.w3.org/1999/xlink" version="1.1" id="Layer_1" x="0px" y="0px" viewBox="0 0 500 500" style="enable-background:new 0 0 500 500;" xml:space="preserve" width="512" height="512">
<style type="text/css">
	.st0{fill:#83E1E5;}
	.st1{fill:#AAB1BA;}
	.st2{fill:#ECF4F7;}
	.st3{fill:#FDDF7F;}
	.st4{fill:#1C1D21;}
	.st5{fill:#FFFFFF;}
</style>
<g>
	<g>
		<path class="st2" d="M459.828,5H103.362c-9.654,0-17.479,7.825-17.479,17.479v217.168H42.981    c-11.205,0-20.289,9.083-20.289,20.288v107.387v107.388c0,11.205,9.083,20.289,20.289,20.289h42.902h373.191    c10.07,0,18.233-8.163,18.233-18.233V22.48C477.307,12.826,469.481,5,459.828,5z"/>
	</g>
</g>
<g>
	<g>
		<path class="st0" d="M439.722,334.268H228.9c-2.502,0-4.531-2.029-4.531-4.531v-52.505c0-2.502,2.029-4.531,4.531-4.531h210.822    c2.502,0,4.531,2.029,4.531,4.531v52.505C444.253,332.24,442.224,334.268,439.722,334.268z"/>
	</g>
</g>
<g>
	<g>
		<path class="st0" d="M439.722,461.945H228.9c-2.502,0-4.531-2.029-4.531-4.531v-52.505c0-2.502,2.029-4.531,4.531-4.531h210.822    c2.502,0,4.531,2.029,4.531,4.531v52.505C444.253,459.916,442.224,461.945,439.722,461.945z"/>
	</g>
</g>
<g>
	<g>
		<path class="st3" d="M439.722,206.592H121.203c-2.502,0-4.531-2.029-4.531-4.531v-31.798c0-2.502,2.029-4.531,4.531-4.531h318.518    c2.502,0,4.531,2.029,4.531,4.531v31.798C444.253,204.563,442.224,206.592,439.722,206.592z"/>
	</g>
</g>
<g>
	<g>
		<path class="st1" d="M297.385,38.055h-73.021l22.542,22.542c4.551,4.552,4.551,11.931,0,16.483l-22.542,22.542h73.021    c3.974,0,7.785-1.579,10.595-4.389l17.595-17.595c4.86-4.86,4.86-12.74,0-17.6l-17.594-17.595    C305.171,39.633,301.359,38.055,297.385,38.055z"/>
	</g>
</g>
<g>
	<g>
		<path class="st1" d="M185.193,38.055h-58.724c-2.502,0-4.531,2.029-4.531,4.531v52.505c0,2.502,2.029,4.531,4.531,4.531h58.724    c3.974,0,7.785-1.579,10.595-4.389l17.595-17.595c4.86-4.86,4.86-12.74,0-17.6l-17.595-17.595    C192.978,39.633,189.167,38.055,185.193,38.055z"/>
	</g>
</g>
<g>
	<g>
		<path class="st1" d="M438.452,60.038l-17.595-17.595c-2.81-2.81-6.621-4.389-10.595-4.389h-73.705l22.542,22.542    c4.552,4.552,4.552,11.931,0,16.483l-22.542,22.542h73.706c3.974,0,7.785-1.579,10.595-4.389l17.595-17.595    C443.313,72.778,443.313,64.898,438.452,60.038z"/>
	</g>
</g>
<path class="st4" d="M27.622,44.454c0-2.762,2.239-5,5-5h5.833v-5.833c0-2.762,2.239-5,5-5s5,2.238,5,5v5.833h5.833  c2.761,0,5,2.238,5,5s-2.239,5-5,5h-5.833v5.833c0,2.762-2.239,5-5,5s-5-2.238-5-5v-5.833h-5.833  C29.861,49.454,27.622,47.216,27.622,44.454z M32.622,98.223h5.833v5.833c0,2.762,2.239,5,5,5s5-2.238,5-5v-5.833h5.833  c2.761,0,5-2.238,5-5s-2.239-5-5-5h-5.833V82.39c0-2.762-2.239-5-5-5s-5,2.238-5,5v5.833h-5.833c-2.761,0-5,2.238-5,5  S29.861,98.223,32.622,98.223z M449.253,404.909v52.505c0,5.256-4.275,9.531-9.531,9.531H228.9c-5.255,0-9.531-4.275-9.531-9.531  v-52.505c0-5.256,4.275-9.531,9.531-9.531h210.822C444.977,395.378,449.253,399.653,449.253,404.909z M229.369,456.945h104.453  v-51.567H229.369V456.945z M439.253,405.378h-95.431v51.567h95.431V405.378z M449.253,277.232v52.505  c0,5.256-4.275,9.531-9.531,9.531H228.9c-5.255,0-9.531-4.275-9.531-9.531v-52.505c0-5.256,4.275-9.531,9.531-9.531h210.822  C444.977,267.701,449.253,271.977,449.253,277.232z M229.369,329.269h104.453v-51.567H229.369V329.269z M439.253,277.701h-95.431  v51.567h95.431V277.701z M439.721,211.592H121.203c-5.255,0-9.531-4.275-9.531-9.531v-31.798c0-5.256,4.276-9.531,9.531-9.531  h318.518c5.256,0,9.531,4.275,9.531,9.531v31.798C449.253,207.316,444.977,211.592,439.721,211.592z M439.253,170.731H121.672v30.86  h317.581V170.731z M147.657,234.646h-5.463c-2.761,0-5,2.238-5,5s2.239,5,5,5h5.463c2.761,0,5-2.238,5-5  S150.419,234.646,147.657,234.646z M482.307,22.479v454.287c0,12.811-10.423,23.233-23.233,23.233H85.883H42.981  c-13.944,0-25.289-11.345-25.289-25.289V367.323V259.936c0-13.944,11.344-25.289,25.289-25.289h37.902V22.479  C80.883,10.084,90.968,0,103.363,0h356.465C472.223,0,482.307,10.084,482.307,22.479z M90.883,362.323h381.424V244.646H166.483  c-2.761,0-5-2.238-5-5s2.239-5,5-5h305.825v-96.97H90.883v96.97h28.055c2.761,0,5,2.238,5,5s-2.239,5-5,5H90.883V362.323z   M90.883,22.479v105.197h381.424V22.479c0-6.881-5.599-12.479-12.479-12.479H103.363C96.481,10,90.883,15.599,90.883,22.479z   M27.693,362.323h53.19V244.646H42.981c-8.43,0-15.289,6.858-15.289,15.289V362.323z M42.981,490h37.902V372.323h-53.19v102.388  C27.693,483.142,34.551,490,42.981,490z M472.307,476.767V372.323H90.883V490h368.191C466.371,490,472.307,484.063,472.307,476.767z   M61.066,298.485H47.51c-2.761,0-5,2.238-5,5s2.239,5,5,5h13.556c2.761,0,5-2.238,5-5S63.827,298.485,61.066,298.485z   M61.066,426.161H47.51c-2.761,0-5,2.238-5,5s2.239,5,5,5h13.556c2.761,0,5-2.238,5-5S63.827,426.161,61.066,426.161z   M220.829,41.59c-1.43-1.43-1.857-3.58-1.084-5.448c0.774-1.869,2.597-3.087,4.62-3.087h73.021c5.338,0,10.355,2.079,14.13,5.854  l17.595,17.595c6.803,6.802,6.803,17.869,0,24.671l-17.595,17.595c-3.774,3.774-8.792,5.854-14.13,5.854h-73.021  c-2.022,0-3.846-1.218-4.62-3.087c-0.773-1.868-0.346-4.019,1.084-5.448l22.542-22.543c2.594-2.595,2.594-6.817,0-9.412  L220.829,41.59z M236.436,43.055l14.006,14.007c6.493,6.493,6.493,17.06,0,23.553l-14.007,14.008h60.951  c2.666,0,5.174-1.038,7.06-2.924l17.595-17.595c2.902-2.903,2.902-7.627,0-10.53l-17.595-17.595  c-1.886-1.886-4.394-2.924-7.06-2.924H236.436z M116.938,95.091V42.586c0-5.256,4.276-9.531,9.531-9.531h58.724  c5.337,0,10.355,2.078,14.13,5.853l17.595,17.596c3.295,3.295,5.11,7.676,5.11,12.336c0,4.659-1.815,9.04-5.11,12.335  l-17.595,17.595c-3.775,3.775-8.793,5.854-14.131,5.854h-58.724C121.213,104.622,116.938,100.347,116.938,95.091z M126.938,94.622  h58.255c2.667,0,5.174-1.039,7.06-2.925l17.594-17.594c1.406-1.406,2.181-3.276,2.181-5.265c0-1.989-0.775-3.859-2.181-5.266  l-17.595-17.595c-1.886-1.885-4.393-2.924-7.06-2.924h-58.255V94.622z M333.022,41.59c-1.431-1.43-1.858-3.58-1.084-5.448  c0.773-1.869,2.597-3.087,4.619-3.087h73.705c5.337,0,10.355,2.078,14.131,5.853l17.595,17.596c0.001,0,0.001,0,0.001,0  c6.8,6.802,6.8,17.869,0,24.671l-17.596,17.595c-3.775,3.775-8.794,5.854-14.131,5.854h-73.706c-2.022,0-3.846-1.218-4.619-3.087  c-0.774-1.868-0.347-4.019,1.084-5.448l22.543-22.542c2.595-2.596,2.595-6.817,0-9.413L333.022,41.59z M348.629,43.055  l14.006,14.007c3.146,3.146,4.879,7.328,4.879,11.777c0,4.448-1.732,8.631-4.879,11.776l-14.007,14.007h61.635  c2.666,0,5.174-1.039,7.061-2.925l17.595-17.594c2.902-2.903,2.902-7.627-0.001-10.53l-17.594-17.595  c-1.887-1.885-4.395-2.924-7.061-2.924H348.629z"/>
</svg>
