<?xml version="1.0" encoding="utf-8"?>
<!-- Generator: Adobe Illustrator 22.0.0, SVG Export Plug-In . SVG Version: 6.00 Build 0)  -->
<svg xmlns="http://www.w3.org/2000/svg" xmlns:xlink="http://www.w3.org/1999/xlink" version="1.1" id="Layer_1" x="0px" y="0px" viewBox="0 0 500 500" style="enable-background:new 0 0 500 500;" xml:space="preserve" width="512" height="512">
<style type="text/css">
	.st0{fill:#ECF4F7;}
	.st1{fill:#FDDF7F;}
	.st2{fill:#83E1E5;}
	.st3{fill:#AAB1BA;}
	.st4{fill:#1C1D21;}
</style>
<g>
	<g>
		<polygon class="st0" points="297.1,108.2 92.3,108.2 92.3,421.1 354.5,421.1 354.5,165.6   "/>
	</g>
</g>
<g>
	<g>
		<path class="st1" d="M172.3,352.9l9.5-9.5c4.4-4.5,4.4-11.7-0.2-16.1c-4.5-4.3-11.7-4-16.1,0.4l-9.2,9.2l-9.2-9.2    c-4.4-4.4-11.6-4.7-16.1-0.4c-4.6,4.4-4.6,11.6-0.2,16.1l9.5,9.5l-9.5,9.5c-4.5,4.5-4.4,11.8,0.2,16.2l0,0    c4.4,4.2,11.4,4.1,15.7-0.2l9.5-9.5l9.5,9.5c4.3,4.3,11.3,4.4,15.7,0.2c4.6-4.4,4.7-11.7,0.2-16.2L172.3,352.9z"/>
	</g>
</g>
<g>
	<g>
		<g>
			<path class="st2" d="M148,205.3c-3,0-5.9-1.2-8-3.3l-18.4-18.4c-4.4-4.4-4.4-11.5,0-15.9c4.4-4.4,11.5-4.4,15.9,0l10.4,10.4     l27.1-27.1c4.4-4.4,11.5-4.4,15.9,0s4.4,11.5,0,15.9L156,202C153.8,204.1,151,205.3,148,205.3z"/>
		</g>
	</g>
</g>
<g>
	<g>
		<g>
			<path class="st2" d="M148,293.5c-3,0-5.9-1.2-8-3.3l-18.4-18.4c-4.4-4.4-4.4-11.5,0-15.9c4.4-4.4,11.5-4.4,15.9,0l10.4,10.4     l27.1-27.1c4.4-4.4,11.5-4.4,15.9,0s4.4,11.5,0,15.9L156,290.2C153.8,292.3,151,293.5,148,293.5z"/>
		</g>
	</g>
</g>
<g>
	<polygon class="st3" points="350.3,55 145.5,55 145.5,108.2 297.1,108.2 297.1,165.6 354.5,165.6 354.5,391.8 407.7,391.8    407.7,112.4  "/>
</g>
<path class="st4" d="M359.2,164.5C359.2,164.5,359.2,164.4,359.2,164.5c-0.1-0.3-0.1-0.6-0.3-0.8c0-0.1-0.1-0.2-0.1-0.2  c-0.1-0.2-0.2-0.4-0.3-0.6c0-0.1-0.1-0.1-0.1-0.2c-0.2-0.2-0.4-0.5-0.6-0.7l-57.5-57.3c-0.2-0.2-0.4-0.4-0.7-0.6  c-0.1-0.1-0.1-0.1-0.2-0.1c-0.2-0.1-0.4-0.2-0.6-0.3c-0.1,0-0.2-0.1-0.2-0.1c-0.3-0.1-0.5-0.2-0.8-0.2c0,0,0,0,0,0  c-0.3-0.1-0.6-0.1-0.9-0.1c0,0-0.1,0-0.1,0l-199.8,0.3L97,70.4c0-2.8-2.2-5-5-5c-2.8,0-5,2.2-5,5l0.1,38.1c0,0,0,0,0,0l0.5,312.8  c0,2.8,2.2,5,5,5l262.2-0.5c2.8,0,5-2.2,5-5l-0.4-255.4c0,0,0-0.1,0-0.1C359.3,165,359.3,164.7,359.2,164.5z M342.3,160.5l-40.3,0.1  l-0.1-40.3L342.3,160.5z M97.6,416.3l-0.5-302.8l194.8-0.3l0.1,52.4c0,2.8,2.2,5,5,5l52.4-0.1l0.4,245.4L97.6,416.3z M86.9,21.1  l-5.8,0c-2.8,0-5-2.2-5-5c0-2.8,2.2-5,5-5l5.8,0l0-5.8c0-2.8,2.2-5,5-5c2.8,0,5,2.2,5,5l0,5.8l5.8,0c2.8,0,5,2.2,5,5  c0,2.8-2.2,5-5,5l-5.8,0l0,5.8c0,2.8-2.2,5-5,5c-2.8,0-5-2.2-5-5L86.9,21.1z M96.9,45l0,4.7c0,2.8-2.2,5-5,5c-2.8,0-5-2.2-5-5l0-4.7  c0-2.8,2.2-5,5-5C94.7,40,96.9,42.3,96.9,45z M423.9,483.9c0,2.8-2.2,5-5,5l-5.8,0l0,5.8c0,2.8-2.2,5-5,5c-2.8,0-5-2.2-5-5l0-5.8  l-5.8,0c-2.8,0-5-2.2-5-5s2.2-5,5-5l5.8,0l0-5.8c0-2.8,2.2-5,5-5s5,2.2,5,5l0,5.8l5.8,0C421.7,478.9,423.9,481.1,423.9,483.9z   M413,450.2l0,4.7c0,2.8-2.2,5-5,5c-2.8,0-5-2.2-5-5l0-4.7c0-2.8,2.2-5,5-5C410.8,445.2,413,447.5,413,450.2z M403,396.5l-27.7,0  c-2.8,0-5-2.2-5-5s2.2-5,5-5l27.7,0l-0.5-272.3l-54.6-54.4l-197.7,0.3l0.1,29.7c0,2.8-2.2,5-5,5c-2.8,0-5-2.2-5-5l-0.1-34.7  c0-2.8,2.2-5,5-5L350,49.9c1.3,0,2.6,0.5,3.5,1.5l57.5,57.3c0.9,0.9,1.5,2.2,1.5,3.5l0.5,279.4l0.1,38.1c0,2.8-2.2,5-5,5s-5-2.2-5-5  L403,396.5z M171.4,147.6l-23.5,23.6l-6.9-6.9c-6.4-6.3-16.7-6.3-23,0c-6.3,6.4-6.3,16.7,0,23l18.4,18.4c3.1,3.1,7.2,4.8,11.5,4.7  s8.4-1.7,11.5-4.8l35-35.1c3.1-3.1,4.8-7.2,4.7-11.5c0-4.3-1.7-8.4-4.8-11.5C188.1,141.2,177.7,141.2,171.4,147.6z M187.4,163.5  l-35,35.1c-1.2,1.2-2.8,1.8-4.4,1.8s-3.3-0.6-4.4-1.8L125,180.3c-2.4-2.4-2.5-6.4,0-8.9c1.2-1.2,2.8-1.8,4.4-1.8  c1.7,0,3.3,0.6,4.4,1.8l10.5,10.4c2,1.9,5.1,1.9,7.1,0l27.1-27.2c2.4-2.4,6.4-2.5,8.9,0c1.2,1.2,1.8,2.8,1.8,4.4  C189.2,160.8,188.5,162.3,187.4,163.5z M171.5,235.7L148,259.4l-6.9-6.9c-6.4-6.3-16.7-6.3-23,0c-6.3,6.4-6.3,16.7,0,23l18.4,18.4  c3.1,3.1,7.2,4.8,11.5,4.7s8.4-1.7,11.5-4.8l35-35.1c3.1-3.1,4.8-7.2,4.7-11.5c0-4.3-1.7-8.4-4.8-11.5  C188.2,229.4,177.9,229.4,171.5,235.7z M187.5,251.6l-35,35.1c-1.2,1.2-2.8,1.8-4.4,1.8s-3.3-0.6-4.4-1.8l-18.4-18.4  c-2.4-2.4-2.5-6.4,0-8.9c1.2-1.2,2.8-1.8,4.4-1.8c1.7,0,3.3,0.6,4.4,1.8l10.5,10.4c0.9,0.9,2.2,1.5,3.5,1.5c1.3,0,2.6-0.5,3.5-1.5  l27.1-27.2c2.4-2.4,6.4-2.5,8.9,0c1.2,1.2,1.8,2.8,1.8,4.4C189.3,248.9,188.7,250.5,187.5,251.6z M190.2,335.3c0-4.4-1.8-8.5-5-11.6  c-6.3-6.1-16.7-5.9-23.1,0.5l-5.7,5.7l-5.7-5.7c-6.4-6.4-16.7-6.6-23.1-0.4c-3.2,3.1-4.9,7.2-5,11.6c0,4.4,1.7,8.5,4.8,11.6l6,6  l-6,6c-3.1,3.1-4.8,7.3-4.7,11.7c0.1,4.4,1.9,8.5,5.1,11.6c3.2,3,7.2,4.5,11.2,4.5c4.2,0,8.3-1.6,11.5-4.8l6-6l6,6  c6.3,6.3,16.2,6.4,22.7,0.3c3.2-3,5-7.2,5.1-11.6c0.1-4.4-1.6-8.6-4.8-11.7l-6-6l6-6C188.6,343.9,190.3,339.7,190.2,335.3z   M178.4,339.9l-9.5,9.5c-0.9,0.9-1.5,2.2-1.5,3.5s0.5,2.6,1.5,3.5l9.5,9.5c1.2,1.2,1.9,2.8,1.8,4.5c0,1.7-0.7,3.3-2,4.5  c-2.5,2.4-6.3,2.3-8.7-0.1l-9.5-9.5c-2-1.9-5.1-1.9-7.1,0l-9.5,9.5c-2.4,2.4-6.3,2.5-8.7,0.1c-1.2-1.2-1.9-2.8-2-4.5  c0-1.7,0.6-3.3,1.8-4.5l9.5-9.5c0.9-0.9,1.5-2.2,1.5-3.5s-0.5-2.6-1.5-3.5l-9.5-9.5c-1.2-1.2-1.9-2.8-1.8-4.5c0-1.7,0.7-3.3,1.9-4.5  c1.2-1.1,2.7-1.7,4.2-1.7c1.7,0,3.5,0.7,4.8,2l9.3,9.2c0.9,0.9,2.2,1.5,3.5,1.5c1.3,0,2.6-0.5,3.5-1.5l9.2-9.3  c2.5-2.6,6.6-2.7,9-0.4c1.2,1.2,1.9,2.8,1.9,4.5C180.2,337.1,179.6,338.7,178.4,339.9z M280.6,205.3c0,2.8-2.2,5-5,5l-61.3,0.1  c-2.8,0-5-2.2-5-5c0-2.8,2.2-5,5-5l61.3-0.1C278.3,200.3,280.6,202.5,280.6,205.3z M306.4,205.2c0,2.8-2.2,5-5,5l-4.4,0  c-2.8,0-5-2.2-5-5c0-2.8,2.2-5,5-5l4.4,0C304.1,200.2,306.3,202.5,306.4,205.2z M280.7,293.4c0,2.8-2.2,5-5,5l-61.3,0.1  c-2.8,0-5-2.2-5-5c0-2.8,2.2-5,5-5l61.3-0.1C278.5,288.4,280.7,290.6,280.7,293.4z M306.5,293.4c0,2.8-2.2,5-5,5l-4.4,0  c-2.8,0-5-2.2-5-5s2.2-5,5-5l4.4,0C304.3,288.4,306.5,290.6,306.5,293.4z M280.9,381.5c0,2.8-2.2,5-5,5l-61.3,0.1c-2.8,0-5-2.2-5-5  c0-2.8,2.2-5,5-5l61.3-0.1C278.6,376.5,280.9,378.8,280.9,381.5z M306.7,381.5c0,2.8-2.2,5-5,5l-4.4,0c-2.8,0-5-2.2-5-5  c0-2.8,2.2-5,5-5l4.4,0C304.4,376.5,306.7,378.7,306.7,381.5z"/>
</svg>
