<?xml version="1.0" encoding="utf-8"?>
<!-- Generator: Adobe Illustrator 22.0.0, SVG Export Plug-In . SVG Version: 6.00 Build 0)  -->
<svg xmlns="http://www.w3.org/2000/svg" xmlns:xlink="http://www.w3.org/1999/xlink" version="1.1" id="Layer_1" x="0px" y="0px" viewBox="0 0 500 500" style="enable-background:new 0 0 500 500;" xml:space="preserve" width="512" height="512">
<style type="text/css">
	.st0{fill:#83E1E5;}
	.st1{fill:#AAB1BA;}
	.st2{fill:#ECF4F7;}
	.st3{fill:#FDDF7F;}
	.st4{fill:#1C1D21;}
	.st5{fill:#FFFFFF;}
</style>
<g>
	<g>
		<polygon class="st3" points="204.339,5 204.339,261.491 140.466,261.491 250,348.319 359.533,261.491 295.66,261.491 295.66,5       "/>
	</g>
</g>
<g>
	<g>
		<path class="st0" d="M411.353,299.798H311.21C281.028,323.723,250,348.319,250,348.319l-61.21-48.521H88.647l-55.531,54.357    h55.531V495h322.706V354.155h55.531L411.353,299.798z"/>
	</g>
</g>
<path class="st4" d="M416.354,370.429V495c0,2.761-2.239,5-5,5H88.647c-2.761,0-5-2.239-5-5V370.429c0-2.761,2.239-5,5-5  s5,2.239,5,5V490H245v-99.828c0-2.761,2.239-5,5-5s5,2.239,5,5V490h151.354V370.429c0-2.761,2.239-5,5-5  S416.354,367.667,416.354,370.429z M137.36,265.41l109.533,86.828c0.91,0.721,2.008,1.082,3.106,1.082s2.196-0.361,3.106-1.082  l109.534-86.828c1.667-1.322,2.315-3.554,1.616-5.563s-2.594-3.355-4.722-3.355H300.66V5c0-2.761-2.239-5-5-5s-5,2.239-5,5v256.492  c0,2.761,2.239,5,5,5h49.517L250,341.939l-95.177-75.447h49.517c2.761,0,5-2.239,5-5V5c0-2.761-2.239-5-5-5s-5,2.239-5,5v251.492  h-58.873c-2.127,0-4.022,1.346-4.722,3.355S135.693,264.088,137.36,265.41z M197.966,357.729l16.306-15.961  c1.974-1.932,2.007-5.098,0.076-7.071c-1.932-1.973-5.098-2.007-7.071-0.076l-14.848,14.535H45.372l45.315-44.357h71.022  c2.761,0,5-2.239,5-5s-2.239-5-5-5H88.647c-1.308,0-2.563,0.512-3.498,1.427l-55.531,54.357c-1.452,1.421-1.899,3.581-1.132,5.462  s2.597,3.111,4.629,3.111h161.353C195.776,359.155,197.032,358.643,197.966,357.729z M470.382,350.582l-55.531-54.357  c-0.935-0.915-2.19-1.427-3.498-1.427h-72.559c-2.761,0-5,2.239-5,5s2.239,5,5,5h70.519l45.315,44.357H307.571l-13.233-12.954  c-1.973-1.931-5.139-1.897-7.071,0.076c-1.932,1.973-1.897,5.139,0.076,7.071l14.691,14.38c0.935,0.915,2.19,1.427,3.498,1.427  h161.354c2.032,0,3.862-1.23,4.629-3.111S471.834,352.003,470.382,350.582z M245,368.528v3.505c0,2.761,2.239,5,5,5s5-2.239,5-5  v-3.505c0-2.761-2.239-5-5-5S245,365.767,245,368.528z M140.874,20.833h5.833v5.833c0,2.761,2.239,5,5,5s5-2.239,5-5v-5.833h5.833  c2.761,0,5-2.239,5-5s-2.239-5-5-5h-5.833V5c0-2.761-2.239-5-5-5s-5,2.239-5,5v5.833h-5.833c-2.761,0-5,2.239-5,5  S138.112,20.833,140.874,20.833z M156.706,44.752c0-2.761-2.239-5-5-5s-5,2.239-5,5v4.723c0,2.761,2.239,5,5,5s5-2.239,5-5V44.752z   M151.706,65.138c-2.761,0-5,2.239-5,5V176.66c0,2.761,2.239,5,5,5s5-2.239,5-5V70.138  C156.706,67.376,154.467,65.138,151.706,65.138z M337.461,170.827h5.833v5.833c0,2.761,2.239,5,5,5s5-2.239,5-5v-5.833h5.833  c2.761,0,5-2.239,5-5s-2.239-5-5-5h-5.833v-5.833c0-2.761-2.239-5-5-5s-5,2.239-5,5v5.833h-5.833c-2.761,0-5,2.239-5,5  S334.7,170.827,337.461,170.827z M348.294,141.907c2.761,0,5-2.239,5-5v-4.723c0-2.761-2.239-5-5-5s-5,2.239-5,5v4.723  C343.294,139.668,345.533,141.907,348.294,141.907z M348.294,116.522c2.761,0,5-2.239,5-5V5c0-2.761-2.239-5-5-5s-5,2.239-5,5  v106.522C343.294,114.283,345.533,116.522,348.294,116.522z"/>
</svg>
