<?xml version="1.0" encoding="utf-8"?>
<!-- Generator: Adobe Illustrator 22.0.0, SVG Export Plug-In . SVG Version: 6.00 Build 0)  -->
<svg xmlns="http://www.w3.org/2000/svg" xmlns:xlink="http://www.w3.org/1999/xlink" version="1.1" id="Layer_1" x="0px" y="0px" viewBox="0 0 500 500" style="enable-background:new 0 0 500 500;" xml:space="preserve" width="512" height="512">
<style type="text/css">
	.st0{fill:#83E1E5;}
	.st1{fill:#AAB1BA;}
	.st2{fill:#ECF4F7;}
	.st3{fill:#FDDF7F;}
	.st4{fill:#1C1D21;}
	.st5{fill:#FFFFFF;}
</style>
<g>
	<path class="st2" d="M363.027,46.684H321.9c-0.117,0.14-0.238,0.277-0.369,0.409l-14.866,14.866   c3.871,6.183,6.751,13.043,8.436,20.364h21.023c3.443,0,6.235,2.791,6.235,6.235v17.603c0,3.443-2.792,6.235-6.235,6.235h-21.023   c-1.684,7.321-4.565,14.181-8.436,20.364l14.866,14.866c2.435,2.435,2.435,6.383,0,8.817l-12.447,12.447   c-2.435,2.435-6.383,2.435-8.818,0L285.4,154.023c-6.183,3.871-13.043,6.751-20.364,8.436v21.023c0,3.443-2.792,6.235-6.235,6.235   h-17.603c-3.443,0-6.235-2.791-6.235-6.235v-21.023c-7.321-1.684-14.181-4.565-20.364-8.436l-14.866,14.866   c-2.435,2.435-6.383,2.435-8.818,0l-12.447-12.447c-2.435-2.435-2.435-6.383,0-8.817l14.866-14.866   c-3.871-6.183-6.751-13.043-8.436-20.364h-21.023c-3.443,0-6.235-2.791-6.235-6.235V88.557c0-3.443,2.792-6.235,6.235-6.235h21.023   c1.684-7.321,4.565-14.181,8.436-20.364l-14.866-14.866c-0.131-0.131-0.252-0.269-0.369-0.409h-41.127   c-5.844,0-10.581,4.737-10.581,10.581v106.66l96.859,71.48l9.686-9.376c9.512-9.208,24.614-9.208,34.125,0l9.685,9.375   l96.859-71.48V57.264C373.607,51.421,368.87,46.684,363.027,46.684z"/>
</g>
<g>
	<polygon class="st1" points="373.608,99.134 373.608,163.924 415.011,133.37  "/>
</g>
<g>
	<polygon class="st1" points="84.989,133.37 84.989,133.37 126.392,163.924 126.392,99.134  "/>
</g>
<g>
	<path class="st3" d="M276.748,235.404l-9.685-9.375c-9.512-9.208-24.613-9.208-34.125,0l-9.686,9.376l-73.338-54.121L84.989,133.37   v189.889c0,9.818,7.959,17.777,17.777,17.777h11.362l0,0h271.744v0h11.362c9.818,0,17.777-7.959,17.777-17.777V133.37   L276.748,235.404z"/>
</g>
<g>
	<path class="st0" d="M342.358,106.16V88.557c0-3.443-2.791-6.235-6.235-6.235h-21.023c-1.684-7.321-4.565-14.181-8.436-20.364   l14.866-14.866c2.435-2.435,2.435-6.383,0-8.817l-12.447-12.447c-2.435-2.435-6.383-2.435-8.817,0L285.4,40.693   c-6.183-3.871-13.043-6.751-20.364-8.436V11.235c0-3.443-2.791-6.235-6.235-6.235h-17.603c-3.443,0-6.235,2.791-6.235,6.235v21.023   c-7.321,1.684-14.181,4.565-20.364,8.436l-14.866-14.866c-2.435-2.435-6.383-2.435-8.817,0l-12.447,12.447   c-2.435,2.435-2.435,6.383,0,8.817l14.866,14.866c-3.871,6.183-6.751,13.043-8.436,20.364h-21.023   c-3.443,0-6.235,2.791-6.235,6.235v17.603c0,3.443,2.791,6.235,6.235,6.235h21.023c1.684,7.321,4.565,14.181,8.436,20.364   l-14.866,14.866c-2.435,2.435-2.435,6.383,0,8.817l12.447,12.447c2.435,2.435,6.383,2.435,8.817,0l14.866-14.866   c6.183,3.871,13.043,6.751,20.364,8.436v21.023c0,3.443,2.791,6.235,6.235,6.235h17.603c3.443,0,6.235-2.791,6.235-6.235v-21.023   c7.321-1.684,14.181-4.565,20.364-8.436l14.866,14.866c2.435,2.435,6.383,2.435,8.817,0l12.447-12.447   c2.435-2.435,2.435-6.383,0-8.817l-14.866-14.866c3.871-6.183,6.751-13.043,8.436-20.364h21.023   C339.567,112.395,342.358,109.603,342.358,106.16z"/>
</g>
<g>
	<circle class="st2" cx="250" cy="97.358" r="34.319"/>
</g>
<path class="st4" d="M100.822,450.333c0,2.761-2.239,5-5,5h-5.833v5.833c0,2.761-2.239,5-5,5s-5-2.239-5-5v-5.833h-5.833  c-2.761,0-5-2.239-5-5s2.239-5,5-5h5.833V439.5c0-2.761,2.239-5,5-5s5,2.239,5,5v5.833h5.833  C98.583,445.333,100.822,447.572,100.822,450.333z M425.844,445.333h-5.833V439.5c0-2.761-2.238-5-5-5s-5,2.239-5,5v5.833h-5.832  c-2.762,0-5,2.239-5,5s2.238,5,5,5h5.832v5.833c0,2.761,2.238,5,5,5s5-2.239,5-5v-5.833h5.833c2.762,0,5-2.239,5-5  S428.605,445.333,425.844,445.333z M84.989,424.502c2.761,0,5-2.239,5-5v-3.662c0-2.761-2.239-5-5-5s-5,2.239-5,5v3.662  C79.989,422.264,82.228,424.502,84.989,424.502z M415.011,410.84c-2.762,0-5,2.239-5,5v3.662c0,2.761,2.238,5,5,5s5-2.239,5-5  v-3.662C420.011,413.079,417.772,410.84,415.011,410.84z M410.011,342.104c-3.646,2.48-8.045,3.932-12.777,3.932H102.766  c-4.732,0-9.131-1.452-12.777-3.932v54.13c0,2.761-2.239,5-5,5s-5-2.239-5-5v-72.976v-7.269V133.37c0-0.043,0.008-0.084,0.009-0.126  c0.001-0.054,0.003-0.107,0.006-0.161c0.006-0.101,0.015-0.201,0.027-0.301c0.009-0.078,0.021-0.155,0.034-0.233  c0.016-0.094,0.032-0.188,0.053-0.281c0.011-0.051,0.025-0.1,0.039-0.151c0.017-0.065,0.033-0.131,0.052-0.195  c0.046-0.152,0.101-0.3,0.161-0.447c0.02-0.048,0.035-0.098,0.056-0.145c0.006-0.013,0.011-0.026,0.017-0.04  c0.01-0.021,0.023-0.042,0.033-0.063c0.073-0.154,0.152-0.304,0.24-0.45c0.03-0.049,0.064-0.094,0.095-0.141  c0.04-0.06,0.079-0.12,0.121-0.179c0.013-0.018,0.02-0.038,0.033-0.056c0.006-0.008,0.013-0.013,0.019-0.02  c0.03-0.04,0.063-0.079,0.094-0.119c0.048-0.061,0.1-0.118,0.152-0.177c0.088-0.101,0.18-0.199,0.277-0.293  c0.04-0.038,0.076-0.079,0.117-0.117c0.027-0.025,0.057-0.046,0.084-0.07c0.033-0.028,0.061-0.06,0.095-0.088l39.59-32.736V57.264  c0-8.591,6.989-15.581,15.581-15.581h20.668c2.761,0,5,2.239,5,5s-2.239,5-5,5h-20.668c-3.077,0-5.581,2.503-5.581,5.581v82.672  c0,2.761-2.239,5-5,5s-5-2.239-5-5v-30.18l-28.287,23.39l36.255,26.755c0,0,0,0,0.001,0.001l93.453,68.966l6.645-6.432  c0.36-0.348,0.726-0.686,1.099-1.013c10.051-8.82,24.458-9.701,35.382-2.646c1.618,1.045,3.16,2.265,4.6,3.659l6.645,6.432  l115.349-85.125l14.36-10.597l-28.286-23.39v30.18c0,2.761-2.238,5-5,5s-5-2.239-5-5V57.264c0-3.077-2.503-5.581-5.58-5.581h-20.669  c-2.762,0-5-2.239-5-5s2.238-5,5-5h20.669c8.591,0,15.58,6.99,15.58,15.581V96.78l39.59,32.737c0.034,0.028,0.063,0.06,0.096,0.089  c0.028,0.024,0.057,0.045,0.084,0.07c0.038,0.035,0.072,0.073,0.109,0.109c0.102,0.099,0.198,0.201,0.29,0.307  c0.048,0.055,0.096,0.108,0.142,0.165c0.032,0.041,0.066,0.081,0.097,0.122c0.006,0.008,0.013,0.013,0.019,0.021  c0.014,0.018,0.021,0.039,0.034,0.058c0.045,0.063,0.088,0.127,0.13,0.192c0.027,0.041,0.057,0.08,0.083,0.122  c0.089,0.146,0.168,0.297,0.241,0.451c0.011,0.022,0.024,0.044,0.035,0.066c0.006,0.014,0.012,0.028,0.018,0.041  c0.019,0.042,0.032,0.086,0.05,0.129c0.063,0.152,0.12,0.306,0.168,0.464c0.019,0.062,0.034,0.125,0.051,0.189  c0.014,0.052,0.028,0.103,0.04,0.155c0.021,0.094,0.038,0.189,0.053,0.284c0.012,0.075,0.024,0.15,0.033,0.227  c0.012,0.1,0.021,0.201,0.027,0.303c0.003,0.055,0.004,0.109,0.006,0.164c0.001,0.042,0.009,0.082,0.009,0.124v182.62v7.269v72.976  c0,2.761-2.238,5-5,5s-5-2.239-5-5V342.104z M126.482,336.036h247.036L263.585,229.621c-7.617-7.374-19.551-7.374-27.17,0  l-9.686,9.376c0,0,0,0-0.001,0.001L126.482,336.036z M102.766,336.036h9.338L215.53,235.92L89.989,143.274V315.99v7.269  C89.989,330.304,95.721,336.036,102.766,336.036z M410.011,323.259v-7.269V143.274l-24.033,17.736l-9.401,6.938c0,0,0,0,0,0  l-92.106,67.972l103.426,100.116h9.338C404.279,336.036,410.011,330.304,410.011,323.259z M175.843,485.899c-2.761,0-5,2.239-5,5  v4.1c0,2.761,2.239,5,5,5s5-2.239,5-5v-4.1C180.843,488.138,178.604,485.899,175.843,485.899z M175.843,355.531  c-2.761,0-5,2.239-5,5v108.418c0,2.761,2.239,5,5,5s5-2.239,5-5V360.531C180.843,357.769,178.604,355.531,175.843,355.531z   M324.157,485.899c-2.762,0-5,2.239-5,5v4.1c0,2.761,2.238,5,5,5s5-2.239,5-5v-4.1C329.157,488.138,326.919,485.899,324.157,485.899  z M324.157,355.531c-2.762,0-5,2.239-5,5v108.418c0,2.761,2.238,5,5,5s5-2.239,5-5V360.531  C329.157,357.769,326.919,355.531,324.157,355.531z M226.571,485.9c-2.761,0-5,2.239-5,5v4.1c0,2.761,2.239,5,5,5s5-2.239,5-5v-4.1  C231.571,488.139,229.332,485.9,226.571,485.9z M226.571,355.531c-2.761,0-5,2.239-5,5v108.418c0,2.761,2.239,5,5,5s5-2.239,5-5  V360.531C231.571,357.77,229.332,355.531,226.571,355.531z M273.43,485.9c-2.762,0-5,2.239-5,5v4.1c0,2.761,2.238,5,5,5s5-2.239,5-5  v-4.1C278.43,488.139,276.191,485.9,273.43,485.9z M273.43,355.531c-2.762,0-5,2.239-5,5v108.418c0,2.761,2.238,5,5,5s5-2.239,5-5  V360.531C278.43,357.77,276.191,355.531,273.43,355.531z M210.681,97.358c0-21.681,17.638-39.319,39.319-39.319  s39.319,17.638,39.319,39.319S271.681,136.677,250,136.677S210.681,119.039,210.681,97.358z M220.681,97.358  c0,16.167,13.152,29.319,29.319,29.319c16.167,0,29.319-13.153,29.319-29.319S266.167,68.039,250,68.039  C233.833,68.039,220.681,81.192,220.681,97.358z M181.034,77.322c1.468-5.067,3.486-9.941,6.032-14.562l-12.132-12.132  c-2.122-2.122-3.291-4.943-3.291-7.944s1.168-5.823,3.291-7.944l12.447-12.447c2.122-2.122,4.943-3.291,7.944-3.291  c3,0,5.822,1.169,7.944,3.291l12.132,12.132c4.621-2.545,9.495-4.564,14.562-6.032V11.235C229.963,5.04,235.003,0,241.198,0h17.604  c6.194,0,11.234,5.04,11.234,11.235v17.157c5.068,1.468,9.942,3.487,14.563,6.032l12.133-12.132c4.379-4.38,11.507-4.38,15.888,0  l12.447,12.448c4.381,4.38,4.381,11.508,0.001,15.888L312.935,62.76c2.545,4.62,4.563,9.494,6.031,14.562h17.158  c6.194,0,11.234,5.04,11.234,11.235v17.603c0,6.195-5.04,11.235-11.234,11.235h-17.158c-1.468,5.068-3.486,9.942-6.031,14.562  l12.132,12.132c4.38,4.381,4.38,11.508,0.001,15.888l-12.448,12.448c-4.381,4.379-11.508,4.38-15.889,0l-12.132-12.132  c-4.62,2.545-9.494,4.564-14.563,6.032v17.157c0,6.195-5.04,11.235-11.234,11.235h-17.604c-6.195,0-11.235-5.04-11.235-11.235  v-17.157c-5.068-1.468-9.942-3.487-14.562-6.032l-12.132,12.132c-2.123,2.122-4.944,3.291-7.944,3.291  c-3.001,0-5.823-1.169-7.944-3.291l-12.447-12.447c-4.38-4.381-4.38-11.508,0-15.889l12.132-12.132  c-2.546-4.621-4.565-9.495-6.032-14.562h-17.157c-6.195,0-11.235-5.04-11.235-11.235V88.557c0-6.195,5.04-11.235,11.235-11.235  H181.034z M184.899,87.322h-21.023c-0.681,0-1.235,0.554-1.235,1.235v17.603c0,0.681,0.554,1.235,1.235,1.235h21.023  c2.33,0,4.351,1.609,4.873,3.879c1.538,6.683,4.162,13.019,7.801,18.832c1.236,1.975,0.944,4.541-0.703,6.189l-14.866,14.866  c-0.481,0.481-0.481,1.265,0,1.746l12.447,12.447c0.299,0.299,0.64,0.362,0.873,0.362s0.574-0.063,0.874-0.362l14.865-14.866  c0.965-0.965,2.245-1.465,3.537-1.465c0.914,0,1.833,0.25,2.652,0.762c5.811,3.638,12.147,6.263,18.832,7.801  c2.271,0.522,3.879,2.543,3.879,4.873v21.023c0,0.681,0.554,1.235,1.235,1.235h17.604c0.681,0,1.234-0.554,1.234-1.235v-21.023  c0-2.33,1.608-4.35,3.879-4.873c6.685-1.538,13.021-4.163,18.832-7.801c1.976-1.237,4.541-0.945,6.188,0.702l14.866,14.866  c0.482,0.481,1.265,0.481,1.747,0l12.447-12.447c0.48-0.481,0.48-1.265-0.001-1.747l-14.865-14.865  c-1.647-1.647-1.939-4.214-0.703-6.189c3.639-5.81,6.263-12.146,7.801-18.832c0.522-2.27,2.544-3.879,4.873-3.879h21.023  c0.681,0,1.234-0.554,1.234-1.235V88.557c0-0.681-0.554-1.235-1.234-1.235h-21.023c-2.329,0-4.351-1.609-4.873-3.879  c-1.538-6.686-4.162-13.021-7.801-18.832c-1.236-1.975-0.944-4.542,0.703-6.189l14.866-14.866c0.48-0.481,0.48-1.265-0.001-1.746  l-12.446-12.448c-0.481-0.48-1.265-0.482-1.746,0l-14.867,14.866c-1.647,1.647-4.213,1.938-6.188,0.702  c-5.812-3.638-12.147-6.263-18.832-7.801c-2.271-0.522-3.879-2.543-3.879-4.873V11.235c0-0.681-0.554-1.235-1.234-1.235h-17.604  c-0.681,0-1.235,0.554-1.235,1.235v21.023c0,2.33-1.609,4.35-3.879,4.873c-6.684,1.538-13.02,4.162-18.832,7.801  c-1.975,1.236-4.541,0.945-6.189-0.703l-14.866-14.866c-0.299-0.299-0.64-0.362-0.873-0.362s-0.574,0.063-0.873,0.362L182.005,41.81  c-0.299,0.299-0.362,0.64-0.362,0.873s0.063,0.574,0.361,0.873l14.866,14.866c1.647,1.647,1.938,4.214,0.702,6.188  c-3.639,5.813-6.263,12.148-7.801,18.832C189.25,85.713,187.229,87.322,184.899,87.322z"/>
</svg>
