<?xml version="1.0" encoding="utf-8"?>
<!-- Generator: Adobe Illustrator 22.0.0, SVG Export Plug-In . SVG Version: 6.00 Build 0)  -->
<svg xmlns="http://www.w3.org/2000/svg" xmlns:xlink="http://www.w3.org/1999/xlink" version="1.1" id="Layer_1" x="0px" y="0px" viewBox="0 0 500 500" style="enable-background:new 0 0 500 500;" xml:space="preserve" width="512" height="512">
<style type="text/css">
	.st0{fill:#FDDF7F;}
	.st1{fill:#83E1E5;}
	.st2{fill:#ECF4F7;}
	.st3{fill:#1C1D21;}
</style>
<g>
	<g>
		<path class="st0" d="M266.5,24L245,6.4c-1.8-1.5-4.4-1.8-6.5-0.8s-3.5,3.2-3.5,5.5v5.6c-56.8,3.6-109.7,27.4-150.3,68    C40.6,128.9,16.2,187.6,16.2,250h25c0-110.1,85.6-200.5,193.8-208.2v4.6c0,2.4,1.4,4.5,3.5,5.5c2.1,1,4.7,0.7,6.5-0.8l21.5-17.6    c1.4-1.2,2.2-2.9,2.2-4.7C268.8,26.9,268,25.2,266.5,24z"/>
	</g>
</g>
<g>
	<g>
		<path class="st0" d="M233.5,476l21.5,17.6c1.8,1.5,4.4,1.8,6.5,0.8s3.5-3.2,3.5-5.5v-5.6c56.8-3.6,109.7-27.4,150.3-68    c44.1-44.2,68.5-102.9,68.5-165.3h-25c0,110.1-85.6,200.5-193.8,208.2v-4.6c0-2.4-1.4-4.5-3.5-5.5c-2.1-1-4.7-0.7-6.5,0.8    l-21.5,17.6c-1.4,1.2-2.2,2.9-2.2,4.7C231.2,473.1,232,474.8,233.5,476z"/>
	</g>
</g>
<g>
	<g>
		<path class="st1" d="M404.3,223.1h-24.5c-3.4-16.6-10-32.1-19-45.8l17.3-17.3c4.4-4.4,4.4-11.4,0-15.8l-22.3-22.3    c-4.4-4.4-11.4-4.4-15.8,0l-17.3,17.3c-13.7-9-29.2-15.6-45.8-19V95.7c0-6.2-5-11.2-11.2-11.2h-31.5c-6.2,0-11.2,5-11.2,11.2v24.5    c-16.6,3.4-32.1,10-45.8,19l-17.3-17.3c-4.4-4.4-11.4-4.4-15.8,0l-22.3,22.3c-4.4,4.4-4.4,11.4,0,15.8l17.3,17.3    c-9,13.7-15.6,29.2-19,45.8H95.7c-6.2,0-11.2,5-11.2,11.2v31.5c0,6.2,5,11.2,11.2,11.2h24.5c3.4,16.6,10,32.1,19,45.8l-17.3,17.3    c-4.4,4.4-4.4,11.4,0,15.8l22.3,22.3c4.4,4.4,11.4,4.4,15.8,0l17.3-17.3c13.7,9,29.2,15.6,45.8,19v24.5c0,6.2,5,11.2,11.2,11.2    h31.5c6.2,0,11.2-5,11.2-11.2v-24.5c16.6-3.4,32.1-10,45.8-19l17.3,17.3c4.4,4.4,11.4,4.4,15.8,0l22.3-22.3    c4.4-4.4,4.4-11.4,0-15.8l-17.3-17.3c9-13.7,15.6-29.2,19-45.8h24.5c6.2,0,11.2-5,11.2-11.2v-31.5    C415.5,228.1,410.5,223.1,404.3,223.1z"/>
	</g>
</g>
<g>
	<g>
		<circle class="st2" cx="250" cy="250" r="102"/>
	</g>
</g>
<g>
	<g>
		<path class="st0" d="M255,239.5h-5h-5c-1.8,0-3.2-1.5-3.2-3.2v-11.9c0-1.8,1.5-3.2,3.2-3.2h23.8c5.8,0,10.5-4.7,10.5-10.5    s-4.7-10.5-10.5-10.5h-6.6v-10.7c0-5.8-4.7-10.5-10.5-10.5c-5.8,0-10.5,4.7-10.5,10.5v10.9c-11.6,1.8-20.5,11.8-20.5,23.9v11.9    c0,13.4,10.9,24.2,24.2,24.2h5h5c1.8,0,3.2,1.5,3.2,3.2v11.9c0,1.8-1.5,3.2-3.2,3.2h-23.8c-5.8,0-10.5,4.7-10.5,10.5    c0,5.8,4.7,10.5,10.5,10.5h10v10.7c0,5.8,4.7,10.5,10.5,10.5c5.8,0,10.5-4.7,10.5-10.5v-11.7c9.9-3.1,17-12.3,17-23.1v-11.9    C279.2,250.4,268.4,239.5,255,239.5z"/>
	</g>
</g>
<path class="st3" d="M488.8,250c0,63.8-24.8,123.7-69.9,168.8c-40,40-92.7,64.4-148.8,69.1v1c0,4.3-2.5,8.2-6.4,10.1  c-1.5,0.7-3.1,1.1-4.8,1.1c-2.5,0-5-0.9-7.1-2.5l-21.5-17.6c-2.6-2.1-4.1-5.3-4.1-8.6c0-3.4,1.5-6.5,4.1-8.6l21.5-17.6  c3.3-2.7,7.9-3.3,11.8-1.4c3.6,1.7,6,5.3,6.3,9.2c103.5-10.1,183.8-98.2,183.8-202.8v-66.4c0-2.8,2.2-5,5-5s5,2.2,5,5V250  c0,54.3-20.5,106.1-57.7,145.9c-37,39.6-87,63.5-140.7,67.3c-1.4,0.1-2.7-0.4-3.8-1.3c-1-0.9-1.6-2.3-1.6-3.7v-4.6  c0-0.4-0.3-0.8-0.6-1c-0.4-0.2-0.9-0.1-1.2,0.1l-21.5,17.6c-0.3,0.2-0.4,0.5-0.4,0.9s0.1,0.7,0.4,0.9l21.5,17.6  c0.3,0.3,0.8,0.3,1.2,0.1c0.4-0.2,0.6-0.6,0.6-1v-5.6c0-2.6,2.1-4.8,4.7-5c55.4-3.5,107.7-27.1,147.1-66.5  c43.2-43.2,67-100.7,67-161.8c0-2.8,2.2-5,5-5S488.8,247.2,488.8,250z M235.3,21.7c2.6-0.2,4.7-2.4,4.7-5v-5.6c0-0.4,0.3-0.8,0.6-1  c0.4-0.2,0.9-0.1,1.2,0.1l21.5,17.6c0.3,0.2,0.4,0.5,0.4,0.9c0,0.3-0.1,0.7-0.4,0.9l-21.5,17.6c-0.3,0.3-0.8,0.3-1.2,0.1  c-0.4-0.2-0.6-0.6-0.6-1v-4.6c0-1.4-0.6-2.7-1.6-3.7s-2.4-1.4-3.8-1.3c-53.7,3.8-103.7,27.7-140.7,67.3  C56.7,143.9,36.2,195.7,36.2,250v66.4c0,2.8,2.2,5,5,5s5-2.2,5-5V250c0-104.6,80.3-192.7,183.8-202.8c0.3,3.9,2.7,7.5,6.3,9.2  c3.9,1.8,8.5,1.3,11.8-1.4l21.5-17.6c2.6-2.1,4.1-5.3,4.1-8.6c0-3.4-1.5-6.5-4.1-8.6L248.2,2.5c-3.3-2.7-7.9-3.3-11.8-1.4  c-3.9,1.8-6.4,5.8-6.4,10.1v1c-56.1,4.6-108.8,29.1-148.8,69.1C36.1,126.3,11.2,186.2,11.2,250c0,2.8,2.2,5,5,5s5-2.2,5-5  c0-61.1,23.8-118.5,67-161.8C127.7,48.8,179.9,25.2,235.3,21.7z M250,357c-59,0-107-48-107-107s48-107,107-107s107,48,107,107  S309,357,250,357z M250,347c53.5,0,97-43.5,97-97s-43.5-97-97-97s-97,43.5-97,97S196.5,347,250,347z M234.2,420.5  c-8.9,0-16.2-7.3-16.2-16.2v-20.5c-14.2-3.4-27.6-9-40.1-16.6l-14.5,14.5c-3.1,3.1-7.1,4.7-11.4,4.7c-4.3,0-8.4-1.7-11.4-4.7  l-22.3-22.3c-6.3-6.3-6.3-16.6,0-22.9l14.5-14.5c-7.7-12.5-13.3-25.9-16.6-40.1H95.7c-8.9,0-16.2-7.3-16.2-16.2v-31.5  c0-8.9,7.3-16.2,16.2-16.2h20.5c3.4-14.2,8.9-27.6,16.6-40.1l-14.5-14.5c-3.1-3.1-4.7-7.1-4.7-11.4s1.7-8.4,4.7-11.4l22.3-22.3  c3.1-3.1,7.1-4.7,11.4-4.7c4.3,0,8.4,1.7,11.4,4.7l14.5,14.5c12.5-7.7,25.9-13.3,40.1-16.6V95.7c0-8.9,7.3-16.2,16.2-16.2h31.5  c8.9,0,16.2,7.3,16.2,16.2v20.5c14.2,3.4,27.6,8.9,40.1,16.6l14.5-14.5c3.1-3.1,7.1-4.7,11.4-4.7c4.3,0,8.4,1.7,11.4,4.7l22.3,22.3  c3.1,3.1,4.7,7.1,4.7,11.4s-1.7,8.4-4.7,11.4L367.2,178c7.7,12.5,13.3,25.9,16.6,40.1h20.5c8.9,0,16.2,7.3,16.2,16.2v31.5  c0,8.9-7.3,16.2-16.2,16.2h-20.5c-3.4,14.2-9,27.6-16.6,40.1l14.5,14.5c6.3,6.3,6.3,16.6,0,22.9l-22.3,22.3  c-3.1,3.1-7.1,4.7-11.4,4.7c-4.3,0-8.4-1.7-11.4-4.7L322,367.2c-12.5,7.7-25.9,13.3-40.1,16.6v20.5c0,8.9-7.3,16.2-16.2,16.2  L234.2,420.5L234.2,420.5z M234.2,410.5h31.5c3.4,0,6.2-2.8,6.2-6.2v-24.5c0-2.4,1.7-4.4,4-4.9c15.7-3.3,30.6-9.4,44.1-18.3  c2-1.3,4.6-1,6.3,0.6l17.3,17.3c1.2,1.2,2.7,1.8,4.4,1.8s3.2-0.6,4.4-1.8l22.3-22.3c2.4-2.4,2.4-6.3,0-8.7l-17.3-17.3  c-1.7-1.7-1.9-4.3-0.6-6.3c8.9-13.5,15-28.3,18.3-44.1c0.5-2.3,2.5-4,4.9-4h24.5c3.4,0,6.2-2.8,6.2-6.2v-31.5c0-3.4-2.8-6.2-6.2-6.2  h-24.5c-2.4,0-4.4-1.7-4.9-4c-3.3-15.7-9.4-30.6-18.3-44.1c-1.3-2-1-4.6,0.6-6.3l17.3-17.3c1.2-1.2,1.8-2.7,1.8-4.4  s-0.6-3.2-1.8-4.4l-22.3-22.3c-1.2-1.2-2.7-1.8-4.4-1.8s-3.2,0.6-4.4,1.8l-17.3,17.3c-1.7,1.7-4.3,1.9-6.3,0.6  c-13.5-8.9-28.3-15-44.1-18.3c-2.3-0.5-4-2.5-4-4.9V95.7c0-3.4-2.8-6.2-6.2-6.2h-31.5c-3.4,0-6.2,2.8-6.2,6.2v24.5  c0,2.4-1.7,4.4-4,4.9c-15.7,3.3-30.6,9.4-44.1,18.3c-2,1.3-4.6,1-6.3-0.6l-17.3-17.3c-1.2-1.2-2.7-1.8-4.4-1.8s-3.2,0.6-4.4,1.8  l-22.3,22.3c-1.2,1.2-1.8,2.7-1.8,4.4s0.6,3.2,1.8,4.4l17.3,17.3c1.7,1.7,1.9,4.3,0.6,6.3c-8.9,13.5-15,28.3-18.3,44.1  c-0.5,2.3-2.5,4-4.9,4H95.7c-3.4,0-6.2,2.8-6.2,6.2v31.5c0,3.4,2.8,6.2,6.2,6.2h24.5c2.4,0,4.4,1.7,4.9,4  c3.3,15.7,9.4,30.6,18.3,44.1c1.3,2,1,4.6-0.6,6.3l-17.3,17.3c-2.4,2.4-2.4,6.3,0,8.7l22.3,22.3c1.2,1.2,2.7,1.8,4.4,1.8  s3.2-0.6,4.4-1.8l17.3-17.3c1-1,2.2-1.5,3.5-1.5c0.9,0,1.9,0.3,2.7,0.8c13.5,8.9,28.3,15,44.1,18.3c2.3,0.5,4,2.5,4,4.9v24.5  C228.1,407.7,230.8,410.5,234.2,410.5z M52.1,367.5h-5.8v-5.8c0-2.8-2.2-5-5-5s-5,2.2-5,5v5.8h-5.8c-2.8,0-5,2.2-5,5s2.2,5,5,5h5.8  v5.8c0,2.8,2.2,5,5,5s5-2.2,5-5v-5.8h5.8c2.8,0,5-2.2,5-5S54.8,367.5,52.1,367.5z M41.2,333.4c-2.8,0-5,2.2-5,5v4.2c0,2.8,2.2,5,5,5  s5-2.2,5-5v-4.2C46.2,335.7,44,333.4,41.2,333.4z M447.9,132.5h5.8v5.8c0,2.8,2.2,5,5,5s5-2.2,5-5v-5.8h5.8c2.8,0,5-2.2,5-5  s-2.2-5-5-5h-5.8v-5.8c0-2.8-2.2-5-5-5s-5,2.2-5,5v5.8h-5.8c-2.8,0-5,2.2-5,5S445.2,132.5,447.9,132.5z M458.8,152.4  c-2.8,0-5,2.2-5,5v4.2c0,2.8,2.2,5,5,5s5-2.2,5-5v-4.2C463.8,154.6,461.5,152.4,458.8,152.4z M251.7,326c-8.5,0-15.5-6.9-15.5-15.5  v-5.7h-5c-8.5,0-15.5-6.9-15.5-15.5c0-8.5,6.9-15.5,15.5-15.5h22v-8.4H245c-16.1,0-29.2-13.1-29.2-29.2v-11.9  c0-12.8,8.6-24.1,20.5-27.9v-7c0-8.5,6.9-15.5,15.5-15.5c8.5,0,15.5,6.9,15.5,15.5v5.7h1.6c8.5,0,15.5,6.9,15.5,15.5  s-6.9,15.5-15.5,15.5h-22v8.4h8.3c16.1,0,29.2,13.1,29.2,29.2v11.9c0,11.6-6.7,21.9-17,26.6v8.3C267.2,319.1,260.3,326,251.7,326z   M251.7,316c3,0,5.5-2.5,5.5-5.5v-11.7c0-2.2,1.4-4.1,3.5-4.8c8.1-2.5,13.5-9.9,13.5-18.4v-11.9c0-10.6-8.6-19.2-19.2-19.2H245  c-4.5,0-8.2-3.7-8.2-8.2v-11.9c0-4.5,3.7-8.2,8.2-8.2h23.8c3,0,5.5-2.5,5.5-5.5s-2.5-5.5-5.5-5.5h-6.6c-2.8,0-5-2.2-5-5v-10.7  c0-3-2.5-5.5-5.5-5.5c-3,0-5.5,2.5-5.5,5.5v10.9c0,2.5-1.8,4.6-4.2,4.9c-9.3,1.4-16.3,9.6-16.3,19v11.9c0,10.6,8.6,19.2,19.2,19.2  H255c4.5,0,8.2,3.7,8.2,8.2v11.9c0,4.5-3.7,8.2-8.2,8.2h-23.8c-3,0-5.5,2.5-5.5,5.5c0,3,2.5,5.5,5.5,5.5h10c2.8,0,5,2.2,5,5v10.7  C246.2,313.5,248.7,316,251.7,316z"/>
</svg>
