<?xml version="1.0" encoding="utf-8"?>
<!-- Generator: Adobe Illustrator 22.0.0, SVG Export Plug-In . SVG Version: 6.00 Build 0)  -->
<svg xmlns="http://www.w3.org/2000/svg" xmlns:xlink="http://www.w3.org/1999/xlink" version="1.1" id="Layer_1" x="0px" y="0px" viewBox="0 0 500 500" style="enable-background:new 0 0 500 500;" xml:space="preserve" width="512" height="512">
<style type="text/css">
	.st0{fill:#83E1E5;}
	.st1{fill:#ECF4F7;}
	.st2{fill:#FDDF7F;}
	.st3{fill:#AAB1BA;}
	.st4{fill:#1C1D21;}
</style>
<g>
	<g>
		<circle class="st0" cx="223.4" cy="421.1" r="73.9"/>
	</g>
</g>
<g>
	<g>
		<path class="st1" d="M297.1,108.2H92.3v312.8h39.6h17.5l0,0c0-40.8,33.1-73.9,73.9-73.9s73.9,33.1,73.9,73.9l0,0h18.5h38.7V165.6    L297.1,108.2z"/>
	</g>
</g>
<g>
	<g>
		<g>
			<path class="st1" d="M214.6,451.6c-3.2,0-6.2-1.3-8.5-3.5l-19.5-19.5c-4.7-4.7-4.7-12.2,0-16.9c4.7-4.7,12.2-4.7,16.9,0     l11.1,11.1l28.8-28.8c4.7-4.7,12.2-4.7,16.9,0c4.7,4.7,4.7,12.2,0,16.9L223,448.1C220.8,450.4,217.7,451.6,214.6,451.6z"/>
		</g>
	</g>
</g>
<g>
	<g>
		<path class="st2" d="M152.1,183.5h-26.2c-2.7,0-4.8-2.1-4.8-4.8v-26.2c0-2.7,2.2-4.8,4.8-4.8h26.2c2.7,0,4.8,2.1,4.8,4.8v26.2    C156.9,181.4,154.8,183.5,152.1,183.5z"/>
	</g>
</g>
<g>
	<g>
		<path class="st2" d="M152.1,250h-26.2c-2.7,0-4.8-2.1-4.8-4.8V219c0-2.7,2.2-4.8,4.8-4.8h26.2c2.7,0,4.8,2.1,4.8,4.8v26.2    C156.9,247.9,154.8,250,152.1,250z"/>
	</g>
</g>
<g>
	<g>
		<path class="st2" d="M152.1,316.5h-26.2c-2.7,0-4.8-2.1-4.8-4.8v-26.2c0-2.7,2.2-4.8,4.8-4.8h26.2c2.7,0,4.8,2.1,4.8,4.8v26.2    C156.9,314.3,154.8,316.5,152.1,316.5z"/>
	</g>
</g>
<g>
	<polygon class="st3" points="350.3,55 145.5,55 145.5,108.2 297.1,108.2 297.1,165.6 354.5,165.6 354.5,391.8 407.7,391.8    407.7,112.4  "/>
</g>
<path class="st4" d="M359.4,164.6C359.4,164.6,359.4,164.6,359.4,164.6c-0.1-0.3-0.1-0.6-0.3-0.8c0-0.1-0.1-0.2-0.1-0.2  c-0.1-0.2-0.2-0.4-0.3-0.6c0-0.1-0.1-0.1-0.1-0.2c-0.2-0.2-0.4-0.5-0.6-0.7l-57.4-57.4c0,0,0,0,0,0c-0.2-0.2-0.4-0.4-0.7-0.6  c-0.1-0.1-0.1-0.1-0.2-0.1c-0.2-0.1-0.4-0.2-0.6-0.3c-0.1,0-0.2-0.1-0.2-0.1c-0.3-0.1-0.6-0.2-0.8-0.3l0,0c-0.3-0.1-0.6-0.1-0.9-0.1  c0,0-0.1,0-0.1,0H97.3V70.1c0-2.8-2.2-5-5-5s-5,2.2-5,5v38.1c0,0,0,0,0,0v312.8c0,2.8,2.2,5,5,5h39.6c2.8,0,5-2.2,5-5s-2.2-5-5-5  H97.3V113.2h194.8v52.4c0,2.8,2.2,5,5,5h52.4v245.4h-33.7c-2.8,0-5,2.2-5,5s2.2,5,5,5h38.7c2.8,0,5-2.2,5-5V165.6c0,0,0-0.1,0-0.1  C359.5,165.2,359.5,164.9,359.4,164.6z M302.1,160.6v-40.3l40.3,40.3H302.1z M87.3,20.8h-5.8c-2.8,0-5-2.2-5-5s2.2-5,5-5h5.8V5  c0-2.8,2.2-5,5-5s5,2.2,5,5v5.8h5.8c2.8,0,5,2.2,5,5s-2.2,5-5,5h-5.8v5.8c0,2.8-2.2,5-5,5s-5-2.2-5-5V20.8z M97.3,44.8v4.7  c0,2.8-2.2,5-5,5s-5-2.2-5-5v-4.7c0-2.8,2.2-5,5-5S97.3,42,97.3,44.8z M423.5,484.2c0,2.8-2.2,5-5,5h-5.8v5.8c0,2.8-2.2,5-5,5  s-5-2.2-5-5v-5.8h-5.8c-2.8,0-5-2.2-5-5s2.2-5,5-5h5.8v-5.8c0-2.8,2.2-5,5-5s5,2.2,5,5v5.8h5.8C421.3,479.2,423.5,481.4,423.5,484.2  z M412.7,450.5v4.7c0,2.8-2.2,5-5,5s-5-2.2-5-5v-4.7c0-2.8,2.2-5,5-5S412.7,447.8,412.7,450.5z M402.7,396.8H375c-2.8,0-5-2.2-5-5  s2.2-5,5-5h27.7V114.5L348.2,60H150.5v29.7c0,2.8-2.2,5-5,5s-5-2.2-5-5V55c0-2.8,2.2-5,5-5h204.8c1.3,0,2.6,0.5,3.5,1.5l57.4,57.4  c0.9,0.9,1.5,2.2,1.5,3.5v279.3c0,0,0,0,0,0v38.1c0,2.8-2.2,5-5,5s-5-2.2-5-5L402.7,396.8L402.7,396.8z M223.4,342.1  c-43.5,0-78.9,35.4-78.9,78.9s35.4,78.9,78.9,78.9s78.9-35.4,78.9-78.9S266.9,342.1,223.4,342.1z M223.4,490  c-38,0-68.9-30.9-68.9-68.9s30.9-68.9,68.9-68.9s68.9,30.9,68.9,68.9S261.4,490,223.4,490z M125.9,188.5h26.2c5.4,0,9.8-4.4,9.8-9.8  v-26.2c0-5.4-4.4-9.8-9.8-9.8h-26.2c-5.4,0-9.8,4.4-9.8,9.8v26.2C116.1,184.1,120.5,188.5,125.9,188.5z M126.1,152.7h25.8v25.8  h-25.8V152.7z M116.1,245.2c0,5.4,4.4,9.8,9.8,9.8h26.2c5.4,0,9.8-4.4,9.8-9.8V219c0-5.4-4.4-9.8-9.8-9.8h-26.2  c-5.4,0-9.8,4.4-9.8,9.8C116.1,219,116.1,245.2,116.1,245.2z M126.1,219.2h25.8V245h-25.8V219.2z M116.1,311.7  c0,5.4,4.4,9.8,9.8,9.8h26.2c5.4,0,9.8-4.4,9.8-9.8v-26.2c0-5.4-4.4-9.8-9.8-9.8h-26.2c-5.4,0-9.8,4.4-9.8,9.8  C116.1,285.4,116.1,311.7,116.1,311.7z M126.1,285.6h25.8v25.8h-25.8V285.6z M179.4,165.6c0-2.8,2.2-5,5-5h68.2c2.8,0,5,2.2,5,5  s-2.2,5-5,5h-68.2C181.6,170.6,179.4,168.4,179.4,165.6z M179.4,232.1c0-2.8,2.2-5,5-5h68.2c2.8,0,5,2.2,5,5s-2.2,5-5,5h-68.2  C181.6,237.1,179.4,234.8,179.4,232.1z M179.4,298.5c0-2.8,2.2-5,5-5h68.2c2.8,0,5,2.2,5,5s-2.2,5-5,5h-68.2  C181.6,303.5,179.4,301.3,179.4,298.5z M251.8,385.5c-4.5,0-8.8,1.8-12,5l-25.2,25.2l-7.5-7.5c-3.2-3.2-7.5-5-12-5s-8.8,1.8-12,5  c-6.6,6.6-6.6,17.4,0,24l19.5,19.5c3.2,3.2,7.5,5,12,5s8.8-1.8,12-5l37.2-37.2c3.2-3.2,5-7.5,5-12c0-4.5-1.8-8.8-5-12  C260.6,387.3,256.3,385.5,251.8,385.5z M256.7,407.4l-37.2,37.2c-1.3,1.3-3.1,2-4.9,2c-1.9,0-3.6-0.7-4.9-2l-19.5-19.5  c-2.7-2.7-2.7-7.1,0-9.8c1.3-1.3,3.1-2,4.9-2c1.9,0,3.6,0.7,4.9,2l11.1,11.1c2,2,5.1,2,7.1,0l28.8-28.8c1.3-1.3,3.1-2,4.9-2  s3.6,0.7,4.9,2s2,3.1,2,4.9S258,406.1,256.7,407.4z"/>
</svg>
