<?xml version="1.0" encoding="utf-8"?>
<!-- Generator: Adobe Illustrator 22.0.0, SVG Export Plug-In . SVG Version: 6.00 Build 0)  -->
<svg xmlns="http://www.w3.org/2000/svg" xmlns:xlink="http://www.w3.org/1999/xlink" version="1.1" id="Layer_1" x="0px" y="0px" viewBox="0 0 500 500" style="enable-background:new 0 0 500 500;" xml:space="preserve" width="512" height="512">
<style type="text/css">
	.st0{fill:#83E1E5;}
	.st1{fill:#ECF4F7;}
	.st2{fill:#AAB1BA;}
	.st3{fill:#FDDF7F;}
	.st4{fill:#1C1D21;}
</style>
<g>
	<path class="st0" d="M250.5,75.2h83.7V25.4C334.1,14.1,325,5,313.7,5H88.8c-11.3,0-20.4,9.1-20.4,20.4v449.1   c0,11.3,9.1,20.4,20.4,20.4h224.9c11.3,0,20.4-9.1,20.4-20.4v-49.8h-83.7c-7.6,0-13.8-6.2-13.8-13.8V285.8   c0-7.6,6.2-13.8,13.8-13.8h83.7v-44h-83.7v0c-7.6,0-13.8-6.2-13.8-13.8V89.1C236.6,81.4,242.8,75.2,250.5,75.2z"/>
</g>
<g>
	<g>
		<path class="st1" d="M166.6,185.6h-54c-3.9,0-7-3.1-7-7v-54c0-3.9,3.1-7,7-7h54c3.9,0,7,3.1,7,7v54    C173.6,182.5,170.5,185.6,166.6,185.6z"/>
	</g>
</g>
<g>
	<g>
		<path class="st1" d="M166.6,382.3h-54c-3.9,0-7-3.1-7-7v-54c0-3.9,3.1-7,7-7h54c3.9,0,7,3.1,7,7v54    C173.6,379.2,170.5,382.3,166.6,382.3z"/>
	</g>
</g>
<g>
	<g>
		<path class="st2" d="M239.4,40.6h-76.3c-7.2,0-13-5.8-13-13V5h102.3v22.6C252.4,34.8,246.6,40.6,239.4,40.6z"/>
	</g>
</g>
<g>
	<g>
		<path class="st3" d="M417.8,228H250.5c-7.6,0-13.8-6.2-13.8-13.8V89.1c0-7.6,6.2-13.8,13.8-13.8h167.3c7.6,0,13.8,6.2,13.8,13.8    v125.1C431.6,221.8,425.4,228,417.8,228z"/>
	</g>
</g>
<g>
	<g>
		<path class="st1" d="M389.4,156.9v-10.5c0-2.1-1.7-3.7-3.7-3.7h-12.6c-1-4.4-2.7-8.5-5.1-12.2l8.9-8.9c1.5-1.5,1.5-3.8,0-5.3    l-7.5-7.5c-1.5-1.5-3.8-1.5-5.3,0l-8.9,8.9c-3.7-2.3-7.8-4-12.2-5.1V100c0-2.1-1.7-3.7-3.7-3.7h-10.5c-2.1,0-3.7,1.7-3.7,3.7v12.6    c-4.4,1-8.5,2.7-12.2,5.1l-8.9-8.9c-1.5-1.5-3.8-1.5-5.3,0l-7.5,7.5c-1.5,1.5-1.5,3.8,0,5.3l8.9,8.9c-2.3,3.7-4,7.8-5.1,12.2    h-12.6c-2.1,0-3.7,1.7-3.7,3.7v10.5c0,2.1,1.7,3.7,3.7,3.7h12.6c1,4.4,2.7,8.5,5.1,12.2l-8.9,8.9c-1.5,1.5-1.5,3.8,0,5.3l7.5,7.5    c1.5,1.5,3.8,1.5,5.3,0l8.9-8.9c3.7,2.3,7.8,4,12.2,5.1v12.6c0,2.1,1.7,3.7,3.7,3.7h10.5c2.1,0,3.7-1.7,3.7-3.7v-12.6    c4.4-1,8.5-2.7,12.2-5.1l8.9,8.9c1.5,1.5,3.8,1.5,5.3,0l7.5-7.5c1.5-1.5,1.5-3.8,0-5.3l-8.9-8.9c2.3-3.7,4-7.8,5.1-12.2h12.6    C387.8,160.6,389.4,159,389.4,156.9z"/>
	</g>
</g>
<g>
	<g>
		<circle class="st2" cx="334.1" cy="151.6" r="20.6"/>
	</g>
</g>
<g>
	<g>
		<path class="st1" d="M417.8,424.8H250.5c-7.6,0-13.8-6.2-13.8-13.8V285.8c0-7.6,6.2-13.8,13.8-13.8h167.3    c7.6,0,13.8,6.2,13.8,13.8v125.1C431.6,418.6,425.4,424.8,417.8,424.8z"/>
	</g>
</g>
<g>
	<g>
		<path class="st3" d="M389.4,353.6v-10.5c0-2.1-1.7-3.7-3.7-3.7h-12.6c-1-4.4-2.7-8.5-5.1-12.2l8.9-8.9c1.5-1.5,1.5-3.8,0-5.3    l-7.5-7.5c-1.5-1.5-3.8-1.5-5.3,0l-8.9,8.9c-3.7-2.3-7.8-4-12.2-5.1v-12.6c0-2.1-1.7-3.7-3.7-3.7h-10.5c-2.1,0-3.7,1.7-3.7,3.7    v12.6c-4.4,1-8.5,2.7-12.2,5.1l-8.9-8.9c-1.5-1.5-3.8-1.5-5.3,0l-7.5,7.5c-1.5,1.5-1.5,3.8,0,5.3l8.9,8.9c-2.3,3.7-4,7.8-5.1,12.2    h-12.6c-2.1,0-3.7,1.7-3.7,3.7v10.5c0,2.1,1.7,3.7,3.7,3.7h12.6c1,4.4,2.7,8.5,5.1,12.2l-8.9,8.9c-1.5,1.5-1.5,3.8,0,5.3l7.5,7.5    c1.5,1.5,3.8,1.5,5.3,0l8.9-8.9c3.7,2.3,7.8,4,12.2,5.1V400c0,2.1,1.7,3.7,3.7,3.7h10.5c2.1,0,3.7-1.7,3.7-3.7v-12.6    c4.4-1,8.5-2.7,12.2-5.1l8.9,8.9c1.5,1.5,3.8,1.5,5.3,0l7.5-7.5c1.5-1.5,1.5-3.8,0-5.3l-8.9-8.9c2.3-3.7,4-7.8,5.1-12.2h12.6    C387.8,357.4,389.4,355.7,389.4,353.6z"/>
	</g>
</g>
<g>
	<g>
		<circle class="st2" cx="334.1" cy="348.4" r="20.6"/>
	</g>
</g>
<path class="st4" d="M129.5,470.8c-2.8,0-5-2.2-5-5s2.2-5,5-5H273c2.8,0,5,2.2,5,5s-2.2,5-5,5H129.5z M182.8,26.4h15.3  c2.8,0,5-2.2,5-5s-2.2-5-5-5h-15.3c-2.8,0-5,2.2-5,5S180.1,26.4,182.8,26.4z M216.8,26.4h2.9c2.8,0,5-2.2,5-5s-2.2-5-5-5h-2.9  c-2.8,0-5,2.2-5,5S214,26.4,216.8,26.4z M359,20.8h5.8v5.8c0,2.8,2.2,5,5,5s5-2.2,5-5v-5.8h5.8c2.8,0,5-2.2,5-5s-2.2-5-5-5h-5.8V5  c0-2.8-2.2-5-5-5s-5,2.2-5,5v5.8H359c-2.8,0-5,2.2-5,5S356.2,20.8,359,20.8z M409.9,20.8h5.8v5.8c0,2.8,2.2,5,5,5s5-2.2,5-5v-5.8  h5.8c2.8,0,5-2.2,5-5s-2.2-5-5-5h-5.8V5c0-2.8-2.2-5-5-5s-5,2.2-5,5v5.8h-5.8c-2.8,0-5,2.2-5,5S407.2,20.8,409.9,20.8z M436.6,89.1  v125.1c0,10.4-8.4,18.8-18.8,18.8h-78.7v34h78.7c10.4,0,18.8,8.4,18.8,18.8v125.1c0,10.4-8.4,18.8-18.8,18.8H250.5  c-10.4,0-18.8-8.4-18.8-18.8v-57.6h-53v22c0,6.6-5.4,12-12,12h-54c-6.6,0-12-5.4-12-12v-54c0-6.6,5.4-12,12-12h54  c6.6,0,12,5.4,12,12v22h53v-57.6c0-10.4,8.4-18.8,18.8-18.8h78.7v-34h-78.7c-10.4,0-18.8-8.4-18.8-18.8v-57.6h-53v22  c0,6.6-5.4,12-12,12h-54c-6.6,0-12-5.4-12-12v-54c0-6.6,5.4-12,12-12h54c6.6,0,12,5.4,12,12v22h53V89.1c0-10.4,8.4-18.8,18.8-18.8  h167.3C428.2,70.2,436.6,78.7,436.6,89.1z M168.6,124.6c0-1.1-0.9-2-2-2h-54c-1.1,0-2,0.9-2,2v54c0,1.1,0.9,2,2,2h54  c1.1,0,2-0.9,2-2V124.6z M168.6,321.4c0-1.1-0.9-2-2-2h-54c-1.1,0-2,0.9-2,2v54c0,1.1,0.9,2,2,2h54c1.1,0,2-0.9,2-2V321.4z   M417.8,277H250.5c-4.9,0-8.8,4-8.8,8.8v125.1c0,4.9,4,8.8,8.8,8.8h167.3c4.9,0,8.8-4,8.8-8.8V285.8  C426.6,280.9,422.6,277,417.8,277z M426.6,89.1c0-4.9-4-8.8-8.8-8.8H250.5c-4.9,0-8.8,4-8.8,8.8v125.1c0,4.9,4,8.8,8.8,8.8h167.3  c4.9,0,8.8-4,8.8-8.8L426.6,89.1L426.6,89.1z M359.7,151.6c0,14.1-11.5,25.6-25.6,25.6c-14.1,0-25.6-11.5-25.6-25.6  s11.5-25.6,25.6-25.6C348.2,126.1,359.7,137.5,359.7,151.6z M349.7,151.6c0-8.6-7-15.6-15.6-15.6s-15.6,7-15.6,15.6  s7,15.6,15.6,15.6C342.7,167.2,349.7,160.2,349.7,151.6z M394.4,146.4v10.5c0,4.8-3.9,8.7-8.7,8.7h-8.8c-0.7,2.2-1.6,4.3-2.6,6.3  l6.2,6.2c1.6,1.6,2.6,3.8,2.6,6.2s-0.9,4.5-2.6,6.2L373,198c-3.4,3.4-8.9,3.4-12.4,0l-6.2-6.2c-2,1-4.2,1.9-6.3,2.6v8.8  c0,4.8-3.9,8.7-8.7,8.7h-10.5c-4.8,0-8.7-3.9-8.7-8.7v-8.8c-2.2-0.7-4.3-1.6-6.3-2.6l-6.2,6.2c-3.4,3.4-8.9,3.4-12.4,0l-7.5-7.5  c-1.6-1.6-2.6-3.8-2.6-6.2s0.9-4.5,2.6-6.2l6.2-6.2c-1-2-1.9-4.2-2.6-6.3h-8.8c-4.8,0-8.7-3.9-8.7-8.7v-10.5c0-4.8,3.9-8.7,8.7-8.7  h8.8c0.7-2.2,1.6-4.3,2.6-6.3l-6.2-6.2c-1.6-1.7-2.6-3.8-2.6-6.2s0.9-4.5,2.6-6.2l7.5-7.5c3.4-3.4,8.9-3.4,12.4,0l6.2,6.2  c2-1,4.2-1.9,6.3-2.6V100c0-4.8,3.9-8.7,8.7-8.7h10.5c4.8,0,8.7,3.9,8.7,8.7v8.8c2.2,0.7,4.3,1.6,6.3,2.6l6.2-6.2  c3.4-3.4,8.9-3.4,12.4,0l7.5,7.5c1.6,1.6,2.6,3.8,2.6,6.2s-0.9,4.5-2.6,6.2l-6.2,6.2c1,2,1.9,4.2,2.6,6.3h8.8  C390.5,137.6,394.4,141.5,394.4,146.4z M384.4,147.6h-11.3c-2.3,0-4.4-1.6-4.9-3.9c-0.9-3.8-2.4-7.4-4.4-10.7  c-1.2-2-0.9-4.5,0.7-6.2l8-8l-5.7-5.7l-8,8c-1.6,1.6-4.2,1.9-6.2,0.7c-3.3-2.1-6.9-3.5-10.7-4.4c-2.3-0.5-3.9-2.5-3.9-4.9v-11.3h-8  v11.3c0,2.3-1.6,4.3-3.9,4.9c-3.8,0.9-7.4,2.4-10.7,4.4c-2,1.2-4.5,0.9-6.2-0.7l-8-8l-5.7,5.7l8,8c1.6,1.6,1.9,4.2,0.7,6.2  c-2.1,3.3-3.5,6.9-4.4,10.7c-0.5,2.3-2.5,3.9-4.9,3.9h-11.3v8h11.3c2.3,0,4.4,1.6,4.9,3.9c0.9,3.8,2.4,7.4,4.4,10.7  c1.2,2,0.9,4.5-0.7,6.2l-8,8l5.7,5.7l8-8c1.6-1.6,4.2-1.9,6.2-0.7c3.3,2.1,6.9,3.5,10.7,4.4c2.3,0.5,3.9,2.5,3.9,4.9v11.3h8v-11.3  c0-2.3,1.6-4.4,3.9-4.9c3.8-0.9,7.4-2.4,10.7-4.4c2-1.2,4.5-0.9,6.2,0.7l8,8l5.7-5.7l-8-8c-1.6-1.6-1.9-4.2-0.7-6.2  c2.1-3.3,3.5-6.9,4.4-10.7c0.5-2.3,2.5-3.9,4.9-3.9h11.3L384.4,147.6L384.4,147.6z M334.1,322.8c14.1,0,25.6,11.5,25.6,25.6  s-11.5,25.6-25.6,25.6c-14.1,0-25.6-11.5-25.6-25.6S320,322.8,334.1,322.8z M318.6,348.4c0,8.6,7,15.6,15.6,15.6  c8.6,0,15.6-7,15.6-15.6c0-8.6-7-15.6-15.6-15.6C325.5,332.8,318.6,339.8,318.6,348.4z M328.8,288.1h10.5c4.8,0,8.7,3.9,8.7,8.7v8.8  c2.2,0.7,4.3,1.6,6.3,2.6l6.2-6.2c3.4-3.4,8.9-3.4,12.4,0l7.5,7.5c1.6,1.6,2.6,3.8,2.6,6.2c0,2.3-0.9,4.5-2.6,6.2l-6.2,6.2  c1,2,1.9,4.2,2.6,6.3h8.8c4.8,0,8.7,3.9,8.7,8.7v10.5c0,4.8-3.9,8.7-8.7,8.7h-8.8c-0.7,2.2-1.6,4.3-2.6,6.3l6.2,6.2  c1.6,1.6,2.6,3.8,2.6,6.2c0,2.3-0.9,4.5-2.6,6.2l-7.5,7.5c-3.4,3.4-8.9,3.4-12.4,0l-6.2-6.2c-2,1-4.2,1.9-6.3,2.6v8.8  c0,4.8-3.9,8.7-8.7,8.7h-10.5c-4.8,0-8.7-3.9-8.7-8.7v-8.8c-2.2-0.7-4.3-1.6-6.3-2.6l-6.2,6.2c-3.4,3.4-8.9,3.4-12.4,0l-7.5-7.5  c-1.6-1.6-2.6-3.8-2.6-6.2c0-2.3,0.9-4.5,2.6-6.2l6.2-6.2c-1-2-1.9-4.2-2.6-6.3h-8.8c-4.8,0-8.7-3.9-8.7-8.7v-10.5  c0-4.8,3.9-8.7,8.7-8.7h8.8c0.7-2.2,1.6-4.3,2.6-6.3l-6.2-6.2c-1.6-1.6-2.6-3.8-2.6-6.2c0-2.3,0.9-4.5,2.6-6.2l7.5-7.5  c3.4-3.4,8.9-3.4,12.4,0l6.2,6.2c2-1,4.2-1.9,6.3-2.6v-8.8C320.1,292,324,288.1,328.8,288.1z M330.1,309.4c0,2.3-1.6,4.4-3.9,4.9  c-3.8,0.9-7.4,2.4-10.7,4.4c-2,1.2-4.5,0.9-6.2-0.7l-8-8l-5.7,5.7l8,8c1.6,1.6,1.9,4.2,0.7,6.2c-2.1,3.3-3.5,6.9-4.4,10.7  c-0.5,2.3-2.5,3.9-4.9,3.9h-11.3v8h11.3c2.3,0,4.4,1.6,4.9,3.9c0.9,3.8,2.4,7.4,4.4,10.7c1.2,2,0.9,4.5-0.7,6.2l-8,8l5.7,5.7l8-8  c1.6-1.6,4.2-1.9,6.2-0.7c3.3,2.1,6.9,3.5,10.7,4.4c2.3,0.5,3.9,2.5,3.9,4.9v11.3h8v-11.3c0-2.3,1.6-4.4,3.9-4.9  c3.8-0.9,7.4-2.4,10.7-4.4c2-1.2,4.5-0.9,6.2,0.7l8,8l5.7-5.7l-8-8c-1.6-1.6-1.9-4.2-0.7-6.2c2.1-3.3,3.5-6.9,4.4-10.7  c0.5-2.3,2.5-3.9,4.9-3.9h11.3v-8h-11.3c-2.3,0-4.4-1.6-4.9-3.9c-0.9-3.8-2.4-7.4-4.4-10.7c-1.2-2-0.9-4.5,0.7-6.2l8-8l-5.7-5.7  l-8,8c-1.6,1.6-4.2,1.9-6.2,0.7c-3.3-2.1-6.9-3.5-10.7-4.4c-2.3-0.5-3.9-2.5-3.9-4.9v-11.3h-8V309.4z M413.7,495c0,2.8-2.2,5-5,5  h-95H88.8c-14,0-25.4-11.4-25.4-25.4V25.4C63.4,11.4,74.8,0,88.8,0h61.3h102.3h61.3c14,0,25.4,11.4,25.4,25.4V57c0,2.8-2.2,5-5,5  s-5-2.2-5-5V25.4c0-8.5-6.9-15.4-15.4-15.4h-56.3v17.6c0,9.9-8.1,18-18,18h-76.3c-9.9,0-18-8.1-18-18V10H88.8  c-8.5,0-15.4,6.9-15.4,15.4v449.1c0,8.5,6.9,15.4,15.4,15.4h224.9c8.5,0,15.4-6.9,15.4-15.4v-31.7c0-2.8,2.2-5,5-5s5,2.2,5,5v31.7  c0,5.8-2,11.1-5.2,15.4h74.8C411.4,490,413.7,492.2,413.7,495z M155.1,10v17.6c0,4.4,3.6,8,8,8h76.3c4.4,0,8-3.6,8-8V10H155.1z   M431.6,490h-3.8c-2.8,0-5,2.2-5,5s2.2,5,5,5h3.8c2.8,0,5-2.2,5-5S434.4,490,431.6,490z"/>
</svg>
