<?xml version="1.0" encoding="utf-8"?>
<!-- Generator: Adobe Illustrator 22.0.0, SVG Export Plug-In . SVG Version: 6.00 Build 0)  -->
<svg xmlns="http://www.w3.org/2000/svg" xmlns:xlink="http://www.w3.org/1999/xlink" version="1.1" id="Layer_1" x="0px" y="0px" viewBox="0 0 500 500" style="enable-background:new 0 0 500 500;" xml:space="preserve" width="512" height="512">
<style type="text/css">
	.st0{fill:#ECF4F7;}
	.st1{fill:#AAB1BA;}
	.st2{fill:#FDDF7F;}
	.st3{fill:#83E1E5;}
	.st4{fill:#1C1D21;}
</style>
<g>
	<g>
		<polygon class="st0" points="354.5,445 354.5,165.6 297.1,108.2 92.3,108.2 92.3,445   "/>
	</g>
</g>
<g>
	<polygon class="st1" points="350.3,55 145.5,55 145.5,108.2 297.1,108.2 297.1,165.6 354.5,165.6 354.5,391.8 407.7,391.8    407.7,112.4  "/>
</g>
<g>
	<g>
		<circle class="st2" cx="196.3" cy="180.5" r="40.6"/>
	</g>
</g>
<g>
	<g>
		<polygon class="st3" points="205.4,267.2 203.2,221.1 189.4,221.1 187.3,267.2   "/>
	</g>
</g>
<path class="st4" d="M359.4,164.6C359.4,164.6,359.4,164.6,359.4,164.6c-0.1-0.3-0.2-0.6-0.3-0.8c0-0.1-0.1-0.2-0.1-0.2  c-0.1-0.2-0.2-0.4-0.3-0.6c0-0.1-0.1-0.1-0.1-0.2c-0.2-0.2-0.3-0.5-0.6-0.7c0,0,0,0,0,0l-57.4-57.4c0,0,0,0,0,0  c-0.2-0.2-0.4-0.4-0.7-0.6c-0.1-0.1-0.1-0.1-0.2-0.1c-0.2-0.1-0.4-0.2-0.6-0.3c-0.1,0-0.2-0.1-0.2-0.1c-0.3-0.1-0.5-0.2-0.8-0.3  c0,0,0,0,0,0c-0.3-0.1-0.6-0.1-0.9-0.1c0,0-0.1,0-0.1,0H97.3V70.1c0-2.8-2.2-5-5-5s-5,2.2-5,5v38.1c0,0,0,0,0,0V445c0,2.8,2.2,5,5,5  h262.2c2.8,0,5-2.2,5-5V165.6c0,0,0-0.1,0-0.1C359.5,165.2,359.5,164.9,359.4,164.6z M342.4,160.6h-40.3v-40.3L342.4,160.6z   M97.3,440V113.2h194.8v52.4c0,2.8,2.2,5,5,5h52.4V440H97.3z M87.3,20.8h-5.8c-2.8,0-5-2.2-5-5s2.2-5,5-5h5.8V5c0-2.8,2.2-5,5-5  s5,2.2,5,5v5.8h5.8c2.8,0,5,2.2,5,5s-2.2,5-5,5h-5.8v5.8c0,2.8-2.2,5-5,5s-5-2.2-5-5V20.8z M97.3,44.8v4.7c0,2.8-2.2,5-5,5  s-5-2.2-5-5v-4.7c0-2.8,2.2-5,5-5S97.3,42,97.3,44.8z M423.5,484.2c0,2.8-2.2,5-5,5h-5.8v5.8c0,2.8-2.2,5-5,5s-5-2.2-5-5v-5.8h-5.8  c-2.8,0-5-2.2-5-5s2.2-5,5-5h5.8v-5.8c0-2.8,2.2-5,5-5s5,2.2,5,5v5.8h5.8C421.3,479.2,423.5,481.4,423.5,484.2z M412.7,450.5v4.7  c0,2.8-2.2,5-5,5s-5-2.2-5-5v-4.7c0-2.8,2.2-5,5-5S412.7,447.8,412.7,450.5z M402.7,396.8H375c-2.8,0-5-2.2-5-5s2.2-5,5-5h27.7  V114.5L348.2,60H150.5v29.7c0,2.8-2.2,5-5,5s-5-2.2-5-5V55c0-2.8,2.2-5,5-5h204.8c1.3,0,2.6,0.5,3.5,1.5l57.4,57.4  c0.9,0.9,1.5,2.2,1.5,3.5v279.3c0,0,0,0,0,0v38.1c0,2.8-2.2,5-5,5s-5-2.2-5-5L402.7,396.8L402.7,396.8z M167,239.1c2.8,0,5,2.2,5,5  v23c0,2.8-2.2,5-5,5s-5-2.2-5-5v-23C162,241.4,164.2,239.1,167,239.1z M230.7,244.1v23c0,2.8-2.2,5-5,5s-5-2.2-5-5v-23  c0-2.8,2.2-5,5-5S230.7,241.4,230.7,244.1z M145.5,272.2c2.8,0,5-2.2,5-5v-29.5c0-6.4,5.2-11.6,11.6-11.6h22.1l-1.9,40.8  c-0.1,2.8,2,5.1,4.8,5.2c2.8,0.1,5.1-2,5.2-4.8l2-41.3h4.3l2,41.3c0.1,2.7,2.3,4.8,5,4.8c0.1,0,0.2,0,0.2,0c2.8-0.1,4.9-2.5,4.8-5.2  l-1.9-40.8h22.1c6.4,0,11.6,5.2,11.6,11.6v29.5c0,2.8,2.2,5,5,5s5-2.2,5-5v-29.5c0-11.9-9.7-21.6-21.6-21.6h-5.8  c10.5-8.4,17.2-21.2,17.2-35.6c0-25.2-20.5-45.6-45.6-45.6s-45.6,20.5-45.6,45.6c0,14.4,6.7,27.3,17.2,35.6h-5.8  c-11.9,0-21.6,9.7-21.6,21.6v29.5C140.5,269.9,142.7,272.2,145.5,272.2z M160.7,180.5c0-19.6,16-35.6,35.6-35.6s35.6,16,35.6,35.6  s-16,35.6-35.6,35.6S160.7,200.1,160.7,180.5z M120.7,131.6v7.9c0,2.8-2.2,5-5,5s-5-2.2-5-5v-7.9c0-2.8,2.2-5,5-5  S120.7,128.8,120.7,131.6z M120.7,166.9v7.9c0,2.8-2.2,5-5,5s-5-2.2-5-5v-7.9c0-2.8,2.2-5,5-5S120.7,164.1,120.7,166.9z   M120.7,202.1v7.9c0,2.8-2.2,5-5,5s-5-2.2-5-5v-7.9c0-2.8,2.2-5,5-5S120.7,199.4,120.7,202.1z M120.7,237.4v7.9c0,2.8-2.2,5-5,5  s-5-2.2-5-5v-7.9c0-2.8,2.2-5,5-5S120.7,234.6,120.7,237.4z M120.7,272.6v7.9c0,2.8-2.2,5-5,5s-5-2.2-5-5v-7.9c0-2.8,2.2-5,5-5  S120.7,269.9,120.7,272.6z M120.7,307.9v7.9c0,2.8-2.2,5-5,5s-5-2.2-5-5v-7.9c0-2.8,2.2-5,5-5S120.7,305.1,120.7,307.9z   M120.7,343.2v7.9c0,2.8-2.2,5-5,5s-5-2.2-5-5v-7.9c0-2.8,2.2-5,5-5S120.7,340.4,120.7,343.2z M120.7,378.4v7.9c0,2.8-2.2,5-5,5  s-5-2.2-5-5v-7.9c0-2.8,2.2-5,5-5S120.7,375.7,120.7,378.4z M120.7,413.7v7.9c0,2.8-2.2,5-5,5s-5-2.2-5-5v-7.9c0-2.8,2.2-5,5-5  S120.7,410.9,120.7,413.7z M324.5,201.8c0,2.8-2.2,5-5,5H271c-2.8,0-5-2.2-5-5s2.2-5,5-5h48.6C322.3,196.8,324.5,199,324.5,201.8z   M324.5,234.6c0,2.8-2.2,5-5,5H271c-2.8,0-5-2.2-5-5s2.2-5,5-5h48.6C322.3,229.6,324.5,231.9,324.5,234.6z M324.5,267.4  c0,2.8-2.2,5-5,5H271c-2.8,0-5-2.2-5-5s2.2-5,5-5h48.6C322.3,262.4,324.5,264.7,324.5,267.4z M324.5,300.3c0,2.8-2.2,5-5,5h-174  c-2.8,0-5-2.2-5-5s2.2-5,5-5h174C322.3,295.3,324.5,297.5,324.5,300.3z M324.5,333.1c0,2.8-2.2,5-5,5h-174c-2.8,0-5-2.2-5-5  s2.2-5,5-5h174C322.3,328.1,324.5,330.3,324.5,333.1z M324.5,365.9c0,2.8-2.2,5-5,5h-174c-2.8,0-5-2.2-5-5s2.2-5,5-5h174  C322.3,360.9,324.5,363.2,324.5,365.9z M324.5,398.8c0,2.8-2.2,5-5,5h-174c-2.8,0-5-2.2-5-5s2.2-5,5-5h174  C322.3,393.8,324.5,396,324.5,398.8z"/>
</svg>
