<?xml version="1.0" encoding="utf-8"?>
<!-- Generator: Adobe Illustrator 22.0.0, SVG Export Plug-In . SVG Version: 6.00 Build 0)  -->
<svg xmlns="http://www.w3.org/2000/svg" xmlns:xlink="http://www.w3.org/1999/xlink" version="1.1" id="Layer_1" x="0px" y="0px" viewBox="0 0 500 500" style="enable-background:new 0 0 500 500;" xml:space="preserve" width="512" height="512">
<style type="text/css">
	.st0{fill:#83E1E5;}
	.st1{fill:#AAB1BA;}
	.st2{fill:#ECF4F7;}
	.st3{fill:#FDDF7F;}
	.st4{fill:#1C1D21;}
	.st5{fill:#FFFFFF;}
</style>
<g>
	<g>
		<path class="st2" d="M362.376,365.501H137.624c-4.153,0-7.519-3.366-7.519-7.519V142.019c0-4.153,3.366-7.519,7.519-7.519h224.751    c4.153,0,7.519,3.366,7.519,7.519v215.963C369.895,362.134,366.528,365.501,362.376,365.501z"/>
	</g>
</g>
<g>
	<g>
		<circle class="st1" cx="250" cy="262.53" r="36.586"/>
	</g>
</g>
<g>
	<g>
		<path class="st3" d="M147.853,396.567h-39.528c-5.568,0-10.082-4.514-10.082-10.082l0-122.321c0-6.32-4.914-11.703-11.23-11.927    c-6.631-0.236-12.08,5.07-12.08,11.648v51.289c0-6.437-5.218-11.655-11.655-11.655s-11.655,5.218-11.655,11.655    c0-6.437-5.218-11.655-11.655-11.655s-11.655,5.218-11.655,11.655c0-6.578-5.45-11.884-12.08-11.648    C9.914,303.751,5,309.134,5,315.453L5,495h89.258v-53.048c0-11.004,8.92-19.924,19.924-19.924h33.671    c7.031,0,12.73-5.7,12.73-12.73l0,0C160.583,402.267,154.883,396.567,147.853,396.567z"/>
	</g>
</g>
<g>
	<g>
		<path class="st3" d="M352.147,103.433h39.528c5.568,0,10.082,4.514,10.082,10.082v122.321c0,6.32,4.914,11.703,11.23,11.927    c6.631,0.236,12.08-5.07,12.08-11.648v-51.289c0,6.437,5.218,11.655,11.655,11.655s11.655-5.218,11.655-11.655    c0,6.437,5.218,11.655,11.655,11.655c6.437,0,11.655-5.218,11.655-11.655c0,6.578,5.45,11.884,12.08,11.648    c6.316-0.225,11.23-5.607,11.23-11.927V5h-89.258v53.048c0,11.004-8.92,19.924-19.924,19.924l-33.671,0    c-7.031,0-12.73,5.7-12.73,12.73v0C339.417,97.733,345.117,103.433,352.147,103.433z"/>
	</g>
</g>
<g>
	<g>
		<path class="st0" d="M369.895,173.585v-31.567c0-4.153-3.366-7.519-7.519-7.519H137.624c-4.153,0-7.519,3.366-7.519,7.519v31.567    H369.895z"/>
	</g>
</g>
<path class="st4" d="M333.916,257.159c-20.063-23.015-49.565-36.215-80.944-36.215h-5.943c-31.379,0-60.882,13.2-80.944,36.214  c-0.627,0.72-1.246,1.448-1.855,2.187c-1.529,1.85-1.528,4.524,0.001,6.373c0.61,0.737,1.228,1.465,1.855,2.185  c20.063,23.014,49.565,36.212,80.943,36.212h5.943c31.378,0,60.881-13.199,80.944-36.213c0.628-0.72,1.247-1.45,1.858-2.189  c1.526-1.85,1.524-4.522-0.004-6.37C335.161,258.606,334.543,257.878,333.916,257.159z M250,294.116  c-17.417,0-31.586-14.169-31.586-31.585s14.169-31.586,31.586-31.586s31.586,14.169,31.586,31.586S267.417,294.116,250,294.116z   M174.686,262.531c11.865-13.146,27.211-22.608,44.228-27.582c-6.525,7.346-10.499,17.006-10.499,27.581  c0,10.575,3.974,20.234,10.499,27.581C201.896,285.137,186.549,275.675,174.686,262.531z M281.087,290.111  c6.525-7.346,10.499-17.006,10.499-27.581c0-10.575-3.974-20.235-10.499-27.581c17.016,4.973,32.363,14.435,44.228,27.582  C313.45,275.676,298.103,285.138,281.087,290.111z M114.272,96.053c0-2.761,2.238-5,5-5h5.833v-5.833c0-2.761,2.238-5,5-5  s5,2.239,5,5v5.833h5.832c2.762,0,5,2.239,5,5s-2.238,5-5,5h-5.832v5.833c0,2.761-2.238,5-5,5s-5-2.239-5-5v-5.833h-5.833  C116.511,101.053,114.272,98.814,114.272,96.053z M385.728,403.947c0,2.761-2.238,5-5,5h-5.833v5.833c0,2.761-2.238,5-5,5  s-5-2.239-5-5v-5.833h-5.832c-2.762,0-5-2.239-5-5s2.238-5,5-5h5.832v-5.833c0-2.761,2.238-5,5-5s5,2.239,5,5v5.833h5.833  C383.489,398.947,385.728,401.186,385.728,403.947z M153.294,495c0,2.761-2.238,5-5,5H94.258c-2.762,0-5-2.239-5-5v-53.048  c0-13.743,11.181-24.924,24.924-24.924h33.671c4.263,0,7.73-3.468,7.73-7.73s-3.468-7.73-7.73-7.73h-39.527  c-8.316,0-15.082-6.766-15.082-15.082V264.165c0-3.696-2.875-6.805-6.408-6.93c-1.816-0.066-3.557,0.596-4.868,1.861  c-1.313,1.266-2.035,2.967-2.035,4.79v50.093v1.195v38.453c0,2.761-2.238,5-5,5s-5-2.239-5-5v-38.453  c0-3.67-2.985-6.655-6.655-6.655s-6.655,2.985-6.655,6.655v38.453c0,2.761-2.238,5-5,5s-5-2.239-5-5v-38.453  c0-3.67-2.985-6.655-6.655-6.655s-6.655,2.985-6.655,6.655v38.453c0,2.761-2.238,5-5,5s-5-2.239-5-5v-38.453  c0-1.823-0.723-3.523-2.034-4.79c-1.311-1.266-3.041-1.926-4.868-1.861c-3.533,0.125-6.408,3.234-6.408,6.93V495  c0,2.761-2.238,5-5,5s-5-2.239-5-5V315.454c0-9.17,7.051-16.604,16.053-16.924c4.551-0.156,8.886,1.493,12.168,4.659  c0.031,0.031,0.063,0.062,0.096,0.093c3.006-2.945,7.119-4.763,11.649-4.763c4.533,0,8.649,1.821,11.655,4.769  c3.006-2.948,7.122-4.769,11.655-4.769c2.365,0,4.616,0.495,6.655,1.388v-36.021c0-4.561,1.808-8.817,5.091-11.985  c3.28-3.167,7.582-4.813,12.168-4.66c9.002,0.32,16.053,7.754,16.053,16.924v122.321c0,2.802,2.28,5.082,5.082,5.082h39.527  c9.776,0,17.73,7.954,17.73,17.73s-7.954,17.73-17.73,17.73h-33.671c-8.229,0-14.924,6.695-14.924,14.924V490h49.036  C151.056,490,153.294,492.239,153.294,495z M174.233,495c0,2.761-2.238,5-5,5h-4.799c-2.762,0-5-2.239-5-5s2.238-5,5-5h4.799  C171.995,490,174.233,492.239,174.233,495z M500,5v179.546c0,9.17-7.051,16.604-16.053,16.924c-4.56,0.145-8.887-1.493-12.168-4.659  c-0.031-0.031-0.063-0.062-0.096-0.093c-3.006,2.945-7.119,4.763-11.649,4.763c-4.533,0-8.649-1.821-11.655-4.769  c-3.006,2.948-7.122,4.769-11.655,4.769c-2.365,0-4.616-0.495-6.655-1.388v36.021c0,4.561-1.808,8.817-5.091,11.985  c-3.134,3.025-7.218,4.67-11.556,4.67c-0.203,0-0.407-0.004-0.612-0.011c-9.002-0.32-16.053-7.754-16.053-16.924V113.515  c0-2.802-2.28-5.082-5.082-5.082h-39.527c-9.776,0-17.73-7.954-17.73-17.73s7.954-17.73,17.73-17.73h33.671  c8.229,0,14.924-6.695,14.924-14.924V10h-49.036c-2.762,0-5-2.239-5-5s2.238-5,5-5h54.036c2.762,0,5,2.239,5,5v53.048  c0,13.743-11.181,24.924-24.924,24.924h-33.671c-4.263,0-7.73,3.468-7.73,7.73s3.468,7.73,7.73,7.73h39.527  c8.316,0,15.082,6.766,15.082,15.082v122.321c0,3.696,2.875,6.805,6.408,6.93c1.824,0.064,3.557-0.596,4.868-1.861  c1.313-1.266,2.035-2.967,2.035-4.79v-50.093v-1.195v-38.453c0-2.761,2.238-5,5-5s5,2.239,5,5v38.453  c0,3.67,2.985,6.655,6.655,6.655s6.655-2.985,6.655-6.655v-38.453c0-2.761,2.238-5,5-5s5,2.239,5,5v38.453  c0,3.67,2.985,6.655,6.655,6.655s6.655-2.985,6.655-6.655v-38.453c0-2.761,2.238-5,5-5s5,2.239,5,5v38.453  c0,1.823,0.723,3.523,2.034,4.79c1.312,1.266,3.064,1.926,4.868,1.861c3.533-0.125,6.408-3.234,6.408-6.93V5c0-2.761,2.238-5,5-5  S500,2.239,500,5z M325.767,5c0-2.761,2.238-5,5-5h4.799c2.762,0,5,2.239,5,5s-2.238,5-5,5h-4.799  C328.005,10,325.767,7.761,325.767,5z M125.105,142.019v215.963c0,6.903,5.616,12.519,12.519,12.519h224.752  c6.902,0,12.519-5.616,12.519-12.519V142.019c0-6.903-5.616-12.519-12.519-12.519H137.624  C130.722,129.5,125.105,135.116,125.105,142.019z M362.376,360.5H137.624c-1.389,0-2.519-1.13-2.519-2.519V178.585h229.789v179.396  C364.895,359.371,363.765,360.5,362.376,360.5z M364.895,142.019v26.566H135.105v-26.566c0-1.389,1.13-2.519,2.519-2.519h224.752  C363.765,139.5,364.895,140.629,364.895,142.019z M285.886,154.042c0-2.761,2.238-5,5-5h4.815c2.762,0,5,2.239,5,5s-2.238,5-5,5  h-4.815C288.124,159.042,285.886,156.804,285.886,154.042z M309.319,154.042c0-2.761,2.238-5,5-5h4.815c2.762,0,5,2.239,5,5  s-2.238,5-5,5h-4.815C311.558,159.042,309.319,156.804,309.319,154.042z M332.753,154.042c0-2.761,2.238-5,5-5h4.815  c2.762,0,5,2.239,5,5s-2.238,5-5,5h-4.815C334.991,159.042,332.753,156.804,332.753,154.042z"/>
</svg>
