<?xml version="1.0" encoding="utf-8"?>
<!-- Generator: Adobe Illustrator 22.0.0, SVG Export Plug-In . SVG Version: 6.00 Build 0)  -->
<svg xmlns="http://www.w3.org/2000/svg" xmlns:xlink="http://www.w3.org/1999/xlink" version="1.1" id="Layer_1" x="0px" y="0px" viewBox="0 0 500 500" style="enable-background:new 0 0 500 500;" xml:space="preserve" width="512" height="512">
<style type="text/css">
	.st0{fill:#83E1E5;}
	.st1{fill:#AAB1BA;}
	.st2{fill:#ECF4F7;}
	.st3{fill:#FDDF7F;}
	.st4{fill:#1C1D21;}
	.st5{fill:#FFFFFF;}
</style>
<g>
	<g>
		<path class="st3" d="M188.4,495h195.26C449.878,459.942,495,390.349,495,310.207c0-115.411-93.559-208.97-208.97-208.97    S77.06,194.796,77.06,310.207C77.06,390.349,122.182,459.942,188.4,495z"/>
	</g>
</g>
<g>
	<g>
		<path class="st2" d="M205.427,328.983h-35.089c-5.457,0-9.881-4.424-9.881-9.881V211.508c0-5.457,4.424-9.881,9.881-9.881h35.089    c5.457,0,9.881,4.424,9.881,9.881v107.594C215.308,324.559,210.884,328.983,205.427,328.983z"/>
	</g>
</g>
<g>
	<g>
		<path class="st2" d="M303.575,289.33h-35.089c-5.457,0-9.881-4.424-9.881-9.881v-67.942c0-5.457,4.424-9.881,9.881-9.881h35.089    c5.457,0,9.881,4.424,9.881,9.881v67.942C313.456,284.907,309.032,289.33,303.575,289.33z"/>
	</g>
</g>
<g>
	<g>
		<path class="st2" d="M401.723,393.947h-35.089c-5.457,0-9.881-4.424-9.881-9.881V211.508c0-5.457,4.424-9.881,9.881-9.881h35.089    c5.457,0,9.881,4.424,9.881,9.881v172.558C411.604,389.523,407.18,393.947,401.723,393.947z"/>
	</g>
</g>
<g>
	<g>
		<circle class="st3" cx="88.788" cy="93.887" r="83.788"/>
	</g>
</g>
<path class="st4" d="M210.875,15.833c0-2.762,2.238-5,5-5h5.832V5c0-2.762,2.238-5,5-5s5,2.238,5,5v5.833h5.833c2.762,0,5,2.238,5,5  s-2.238,5-5,5h-5.833v5.833c0,2.762-2.238,5-5,5s-5-2.238-5-5v-5.833h-5.832C213.113,20.833,210.875,18.595,210.875,15.833z   M262.46,20.833h5.833v5.833c0,2.762,2.238,5,5,5s5-2.238,5-5v-5.833h5.832c2.762,0,5-2.238,5-5s-2.238-5-5-5h-5.832V5  c0-2.762-2.238-5-5-5s-5,2.238-5,5v5.833h-5.833c-2.762,0-5,2.238-5,5S259.698,20.833,262.46,20.833z M72.06,310.207  c0-48.677,16.155-94.866,45.911-132.465c-9.144,3.191-18.963,4.933-29.182,4.933C39.83,182.675,0,142.845,0,93.887  S39.83,5.099,88.788,5.099s88.788,39.83,88.788,88.788c0,13.089-2.849,25.524-7.956,36.722  c34.352-22.365,74.456-34.372,116.41-34.372c57.153,0,110.886,22.257,151.3,62.671c40.413,40.413,62.67,94.146,62.67,151.3  c0,64.553-28.727,125.008-78.813,165.864c-0.928,0.758-2.046,1.126-3.157,1.126c-1.45,0-2.889-0.628-3.877-1.84  c-1.746-2.14-1.426-5.289,0.714-7.034C462.614,429.373,490,371.742,490,310.207c0-112.47-91.5-203.971-203.97-203.971  S82.06,197.737,82.06,310.207c0,61.535,27.386,119.166,75.134,158.116c2.14,1.745,2.46,4.895,0.714,7.034s-4.896,2.459-7.034,0.714  C100.786,435.215,72.06,374.76,72.06,310.207z M167.576,93.887c0-43.444-35.344-78.788-78.788-78.788S10,50.442,10,93.887  s35.344,78.788,78.788,78.788S167.576,137.331,167.576,93.887z M205.427,196.627c8.205,0,14.881,6.676,14.881,14.881v107.594  c0,8.205-6.676,14.881-14.881,14.881h-35.09c-8.205,0-14.881-6.676-14.881-14.881V211.508c0-8.205,6.676-14.881,14.881-14.881  H205.427z M205.427,206.627h-35.09c-2.691,0-4.881,2.189-4.881,4.881v107.594c0,2.691,2.189,4.881,4.881,4.881h35.09  c2.691,0,4.881-2.189,4.881-4.881V211.508C210.308,208.816,208.118,206.627,205.427,206.627z M303.574,196.627  c8.205,0,14.881,6.676,14.881,14.881v67.941c0,8.205-6.676,14.881-14.881,14.881h-35.089c-8.205,0-14.881-6.676-14.881-14.881  v-67.941c0-8.205,6.676-14.881,14.881-14.881H303.574z M303.574,206.627h-35.089c-2.691,0-4.881,2.189-4.881,4.881v67.941  c0,2.691,2.189,4.881,4.881,4.881h35.089c2.691,0,4.881-2.189,4.881-4.881v-67.941C308.455,208.816,306.266,206.627,303.574,206.627  z M416.604,384.066c0,8.205-6.676,14.881-14.881,14.881h-35.09c-8.205,0-14.881-6.676-14.881-14.881V211.508  c0-8.205,6.676-14.881,14.881-14.881h35.09c8.205,0,14.881,6.676,14.881,14.881V384.066z M406.604,211.508  c0-2.691-2.189-4.881-4.881-4.881h-35.09c-2.691,0-4.881,2.189-4.881,4.881v172.559c0,2.691,2.189,4.881,4.881,4.881h35.09  c2.691,0,4.881-2.189,4.881-4.881V211.508z M451.91,490H117.449c-2.762,0-5,2.238-5,5s2.238,5,5,5H451.91c2.762,0,5-2.238,5-5  S454.672,490,451.91,490z M91.657,490h-6.236c-2.762,0-5,2.238-5,5s2.238,5,5,5h6.236c2.762,0,5-2.238,5-5S94.419,490,91.657,490z   M483.938,490h-6.235c-2.762,0-5,2.238-5,5s2.238,5,5,5h6.235c2.762,0,5-2.238,5-5S486.699,490,483.938,490z"/>
</svg>
