<?xml version="1.0" encoding="utf-8"?>
<!-- Generator: Adobe Illustrator 22.0.0, SVG Export Plug-In . SVG Version: 6.00 Build 0)  -->
<svg xmlns="http://www.w3.org/2000/svg" xmlns:xlink="http://www.w3.org/1999/xlink" version="1.1" id="Layer_1" x="0px" y="0px" viewBox="0 0 500 500" style="enable-background:new 0 0 500 500;" xml:space="preserve" width="512" height="512">
<style type="text/css">
	.st0{fill:#83E1E5;}
	.st1{fill:#AAB1BA;}
	.st2{fill:#ECF4F7;}
	.st3{fill:#FDDF7F;}
	.st4{fill:#1C1D21;}
	.st5{fill:#FFFFFF;}
</style>
<g>
	<g>
		<path class="st2" d="M314.724,218.405v-35.508c0-11.648-9.443-21.092-21.091-21.092h-87.248c-11.648,0-21.092,9.443-21.092,21.092    v35.508H314.724z"/>
	</g>
</g>
<g>
	<g>
		<path class="st0" d="M209.04,299.007c0,14.754-11.961,26.715-26.715,26.715h25.617c4.54,0,8.22,3.68,8.22,8.22    c0-4.54,3.68-8.22,8.22-8.22H250c-14.754,0-26.715-11.96-26.715-26.715s11.961-26.715,26.715-26.715s26.715,11.96,26.715,26.715    S264.754,325.722,250,325.722h25.617c4.54,0,8.22,3.68,8.22,8.22c0-4.54,3.68-8.22,8.22-8.22h25.617    c-14.754,0-26.715-11.96-26.715-26.715s11.961-26.715,26.715-26.715c3.867,0,7.539,0.829,10.857,2.307v-29.802h20.017    c3,0,5.433-2.432,5.433-5.433v-15.526c0-3-2.432-5.433-5.433-5.433h-86.974l-2.788-56.601h-17.559l-2.787,56.601h-86.991    c-3,0-5.433,2.432-5.433,5.433v15.526c0,3,2.432,5.433,5.433,5.433h20.017v29.802c3.318-1.479,6.99-2.307,10.857-2.307    C197.079,272.292,209.04,284.253,209.04,299.007z"/>
	</g>
</g>
<g>
	<g>
		<path class="st1" d="M459.031,32.376H40.969c-8.298,0-15.025,6.727-15.025,15.025v5.412c0,8.298,6.727,15.025,15.025,15.025    h179.182c8.437-5.975,18.732-9.498,29.857-9.498c11.125,0,21.42,3.523,29.857,9.498h179.165c8.298,0,15.025-6.727,15.025-15.025    v-5.412C474.056,39.103,467.329,32.376,459.031,32.376z"/>
	</g>
</g>
<g>
	<g>
		<path class="st1" d="M459.031,358.615H40.969c-8.298,0-15.025,6.727-15.025,15.025v5.412c0,8.298,6.727,15.025,15.025,15.025    h163.921l-38.96,76.611c-4.187,8.234-0.907,18.303,7.327,22.49c8.234,4.187,18.303,0.907,22.49-7.327l46.671-91.775h14.444    l46.671,91.775c4.187,8.234,14.256,11.514,22.49,7.327c8.234-4.187,11.514-14.256,7.327-22.49l-38.959-76.611h164.639    c8.298,0,15.025-6.727,15.025-15.025v-5.412C474.056,365.342,467.329,358.615,459.031,358.615z"/>
	</g>
</g>
<g>
	<g>
		<circle class="st3" cx="250.008" cy="110.073" r="51.733"/>
	</g>
</g>
<g>
	<g>
		<circle class="st3" cx="114.65" cy="299.007" r="26.715"/>
	</g>
</g>
<g>
	<g>
		<circle class="st3" cx="182.325" cy="299.007" r="26.715"/>
	</g>
</g>
<g>
	<g>
		<circle class="st3" cx="250" cy="299.007" r="26.715"/>
	</g>
</g>
<g>
	<g>
		<circle class="st3" cx="317.675" cy="299.007" r="26.715"/>
	</g>
</g>
<g>
	<g>
		<circle class="st3" cx="385.35" cy="299.007" r="26.715"/>
	</g>
</g>
<g>
	<g>
		<path class="st2" d="M410.967,325.722H385.35h-25.617c-4.54,0-8.22,3.68-8.22,8.22c0-4.54-3.68-8.22-8.22-8.22h-25.618h-25.617    c-4.54,0-8.22,3.68-8.22,8.22c0-4.54-3.68-8.22-8.22-8.22H250h-25.617c-4.54,0-8.22,3.68-8.22,8.22c0-4.54-3.68-8.22-8.22-8.22    h-25.617h-25.618c-4.54,0-8.22,3.68-8.22,8.22c0-4.54-3.68-8.22-8.22-8.22H114.65H89.033c-4.54,0-8.22,3.68-8.22,8.22v24.673    h67.675h67.675h67.675h67.675h67.675v-24.673C419.187,329.402,415.507,325.722,410.967,325.722z"/>
	</g>
</g>
<path class="st4" d="M459.03,353.615h-34.843v-19.673c0-7.289-5.931-13.22-13.221-13.22h-2.534  c5.346-5.68,8.632-13.319,8.632-21.716c0-17.487-14.228-31.715-31.715-31.715s-31.715,14.228-31.715,31.715  c0,8.397,3.286,16.036,8.632,21.716h-2.534c-3.106,0-5.961,1.084-8.22,2.885c-2.259-1.8-5.114-2.885-8.221-2.885h-2.534  c5.346-5.68,8.632-13.319,8.632-21.716c0-17.487-14.228-31.715-31.715-31.715s-31.715,14.228-31.715,31.715  c0,8.397,3.286,16.036,8.632,21.716h-2.534c-3.106,0-5.961,1.084-8.22,2.885c-2.259-1.8-5.114-2.885-8.221-2.885h-2.534  c5.346-5.68,8.632-13.319,8.632-21.716c0-17.487-14.228-31.715-31.715-31.715s-31.715,14.228-31.715,31.715  c0,8.397,3.286,16.036,8.632,21.716h-2.534c-3.107,0-5.961,1.084-8.221,2.885c-2.259-1.8-5.113-2.885-8.22-2.885h-2.534  c5.346-5.68,8.632-13.319,8.632-21.716c0-17.487-14.228-31.715-31.715-31.715s-31.715,14.228-31.715,31.715  c0,8.397,3.286,16.036,8.632,21.716h-2.534c-3.107,0-5.961,1.084-8.221,2.885c-2.259-1.8-5.113-2.885-8.22-2.885h-2.534  c5.346-5.68,8.632-13.319,8.632-21.716c0-17.487-14.228-31.715-31.715-31.715s-31.715,14.228-31.715,31.715  c0,8.397,3.286,16.036,8.632,21.716h-2.534c-7.29,0-13.221,5.931-13.221,13.22v19.673H40.97c-11.042,0-20.025,8.983-20.025,20.025  v5.412c0,11.041,8.983,20.024,20.025,20.024H459.03c11.042,0,20.025-8.983,20.025-20.024v-5.412  C479.056,362.599,470.072,353.615,459.03,353.615z M363.635,299.007c0-11.974,9.741-21.715,21.715-21.715  s21.715,9.741,21.715,21.715c0,11.975-9.741,21.716-21.715,21.716S363.635,310.981,363.635,299.007z M359.732,330.723h51.234  c1.776,0,3.221,1.444,3.221,3.22v19.673h-57.675v-19.673C356.513,332.167,357.957,330.723,359.732,330.723z M295.96,299.007  c0-11.974,9.741-21.715,21.715-21.715s21.715,9.741,21.715,21.715c0,11.975-9.741,21.716-21.715,21.716  S295.96,310.981,295.96,299.007z M292.058,330.723h51.234c1.776,0,3.221,1.444,3.221,3.22v19.673h-57.675v-19.673  C288.838,332.167,290.282,330.723,292.058,330.723z M228.285,299.007c0-11.974,9.741-21.715,21.715-21.715  s21.715,9.741,21.715,21.715c0,11.975-9.741,21.716-21.715,21.716S228.285,310.981,228.285,299.007z M224.383,330.723h51.234  c1.776,0,3.221,1.444,3.221,3.22v19.673h-57.676v-19.673C221.162,332.167,222.606,330.723,224.383,330.723z M160.61,299.007  c0-11.974,9.741-21.715,21.715-21.715s21.715,9.741,21.715,21.715c0,11.975-9.741,21.716-21.715,21.716  S160.61,310.981,160.61,299.007z M156.708,330.723h51.234c1.775,0,3.22,1.444,3.22,3.22v19.673h-57.675v-19.673  C153.487,332.167,154.932,330.723,156.708,330.723z M92.936,299.007c0-11.974,9.741-21.715,21.715-21.715  s21.715,9.741,21.715,21.715c0,11.975-9.741,21.716-21.715,21.716S92.936,310.981,92.936,299.007z M85.813,333.942  c0-1.775,1.444-3.22,3.221-3.22h51.234c1.775,0,3.22,1.444,3.22,3.22v19.673H85.813V333.942z M469.056,379.053  c0,5.527-4.497,10.024-10.025,10.024H40.97c-5.528,0-10.025-4.497-10.025-10.024v-5.412c0-5.528,4.497-10.025,10.025-10.025h39.843  h67.675h67.675h67.676h67.675h67.675h39.843c5.528,0,10.025,4.497,10.025,10.025V379.053z M459.03,27.375H270.266  c0.607-1.985,0.93-4.064,0.93-6.188C271.196,9.505,261.691,0,250.009,0c-11.684,0-21.188,9.505-21.188,21.188  c0,2.124,0.323,4.203,0.93,6.188H40.97c-11.042,0-20.025,8.983-20.025,20.025v5.412c0,10.956,8.846,19.874,19.77,20.012v171.598  c0,2.761,2.238,5,5,5s5-2.239,5-5V72.838h140.743c2.762,0,5-2.239,5-5s-2.238-5-5-5H40.97c-5.528,0-10.025-4.498-10.025-10.025  v-5.412c0-5.528,4.497-10.025,10.025-10.025h197.353c0.002,0,0.003,0,0.005,0h23.363c0.002,0,0.003,0,0.005,0H459.03  c5.528,0,10.025,4.498,10.025,10.025v5.412c0,5.528-4.497,10.025-10.025,10.025H307.237c-2.762,0-5,2.239-5,5s2.238,5,5,5h142.049  v171.584c0,2.761,2.238,5,5,5s5-2.239,5-5V72.825c10.923-0.139,19.77-9.057,19.77-20.012v-5.412  C479.056,36.359,470.072,27.375,459.03,27.375z M238.82,21.188c0-6.169,5.02-11.188,11.188-11.188s11.188,5.019,11.188,11.188  c0,2.224-0.657,4.363-1.878,6.188h-18.621C239.478,25.551,238.82,23.412,238.82,21.188z M454.286,269.743c-2.762,0-5-2.238-5-5  v-3.077c0-2.762,2.238-5,5-5s5,2.238,5,5v3.077C459.286,267.505,457.048,269.743,454.286,269.743z M40.714,264.743v-3.077  c0-2.762,2.238-5,5-5s5,2.238,5,5v3.077c0,2.762-2.238,5-5,5S40.714,267.505,40.714,264.743z M47.501,495c0,2.762-2.238,5-5,5  h-4.219c-2.762,0-5-2.238-5-5s2.238-5,5-5h4.219C45.263,490,47.501,492.238,47.501,495z M443.68,495c0,2.762-2.238,5-5,5H61.32  c-2.762,0-5-2.238-5-5s2.238-5,5-5h101.244c-4.016-6.281-4.707-14.466-1.091-21.577l31.146-61.245  c1.253-2.463,4.262-3.441,6.724-2.19c2.461,1.252,3.442,4.262,2.19,6.724l-31.146,61.245c-2.931,5.763-0.626,12.836,5.137,15.767  c5.764,2.931,12.837,0.627,15.767-5.137l38.856-76.408c1.252-2.463,4.262-3.441,6.724-2.19c2.461,1.252,3.442,4.262,2.19,6.724  l-38.856,76.408c-0.333,0.654-0.704,1.275-1.092,1.881h101.055c-0.388-0.605-0.76-1.227-1.092-1.881l-38.856-76.408  c-1.252-2.462-0.271-5.472,2.19-6.724s5.471-0.271,6.724,2.19l38.856,76.408c2.931,5.763,10.004,8.067,15.767,5.137  c2.792-1.42,4.864-3.842,5.834-6.819c0.971-2.979,0.723-6.155-0.697-8.947l-31.145-61.245c-1.252-2.462-0.271-5.472,2.19-6.724  c2.462-1.252,5.471-0.271,6.724,2.19l31.145,61.245c2.631,5.173,3.089,11.06,1.292,16.578c-0.583,1.789-1.401,3.455-2.389,4.999  H438.68C441.441,490,443.68,492.238,443.68,495z M466.718,495c0,2.762-2.238,5-5,5h-4.219c-2.762,0-5-2.238-5-5s2.238-5,5-5h4.219  C464.479,490,466.718,492.238,466.718,495z M212.627,181.105c2.762,0,5,2.239,5,5v15.819c0,2.761-2.238,5-5,5s-5-2.239-5-5v-15.819  C207.627,183.344,209.865,181.105,212.627,181.105z M287.389,181.105c2.762,0,5,2.239,5,5v15.819c0,2.761-2.238,5-5,5s-5-2.239-5-5  v-15.819C282.389,183.344,284.627,181.105,287.389,181.105z M180.293,182.897v19.027c0,2.761,2.238,5,5,5s5-2.239,5-5v-19.027  c0-8.873,7.219-16.092,16.092-16.092h29.588l-1.838,36.899c-0.137,2.758,1.987,5.105,4.745,5.242  c0.085,0.004,0.169,0.006,0.253,0.006c2.647,0,4.856-2.078,4.99-4.751l1.862-37.396h8.045l1.863,37.396  c0.139,2.758,2.468,4.891,5.243,4.745c2.758-0.137,4.882-2.484,4.745-5.243l-1.839-36.898h29.59c8.872,0,16.091,7.219,16.091,16.092  v19.027c0,2.761,2.238,5,5,5s5-2.239,5-5v-19.027c0-14.387-11.704-26.092-26.091-26.092h-11.508  c14.855-10.241,24.616-27.365,24.616-46.732c0-31.283-25.45-56.733-56.732-56.733c-31.283,0-56.733,25.45-56.733,56.733  c0,19.368,9.761,36.492,24.617,46.732h-11.507C191.998,156.805,180.293,168.51,180.293,182.897z M203.275,110.073  c0-25.769,20.965-46.733,46.733-46.733s46.732,20.964,46.732,46.733s-20.964,46.732-46.732,46.732S203.275,135.841,203.275,110.073z   M141.019,223.838v15.526c0,5.752,4.68,10.433,10.433,10.433h15.017v7.641c0,2.762,2.238,5,5,5s5-2.238,5-5v-7.641h147.064v7.641  c0,2.762,2.238,5,5,5s5-2.238,5-5v-7.641h15.017c5.753,0,10.433-4.68,10.433-10.433v-15.526c0-5.752-4.68-10.433-10.433-10.433  H151.451C145.698,213.405,141.019,218.085,141.019,223.838z M348.981,223.838v15.526c0,0.239-0.194,0.433-0.433,0.433H151.451  c-0.238,0-0.433-0.194-0.433-0.433v-15.526c0-0.239,0.194-0.433,0.433-0.433h197.098  C348.787,223.405,348.981,223.599,348.981,223.838z"/>
</svg>
