<?xml version="1.0" encoding="utf-8"?>
<!-- Generator: Adobe Illustrator 22.0.0, SVG Export Plug-In . SVG Version: 6.00 Build 0)  -->
<svg xmlns="http://www.w3.org/2000/svg" xmlns:xlink="http://www.w3.org/1999/xlink" version="1.1" id="Layer_1" x="0px" y="0px" viewBox="0 0 500 500" style="enable-background:new 0 0 500 500;" xml:space="preserve" width="512" height="512">
<style type="text/css">
	.st0{fill:#83E1E5;}
	.st1{fill:#AAB1BA;}
	.st2{fill:#ECF4F7;}
	.st3{fill:#FDDF7F;}
	.st4{fill:#1C1D21;}
	.st5{fill:#FFFFFF;}
</style>
<g>
	<g>
		<path class="st3" d="M390.179,196.993c0-77.756-63.308-140.726-141.191-140.176c-75.835,0.535-137.961,62.1-139.15,137.927    c-0.886,56.544,31.712,105.57,79.255,128.541c17.871,8.634,29.26,26.693,29.26,46.54v0c0,10.508-3.548,20.708-10.068,28.947    l-13.796,17.433h111.02l-13.796-17.432c-6.52-8.24-10.068-18.44-10.068-28.948v0c0-19.829,11.356-37.898,29.214-46.518    C357.797,300.651,390.179,252.604,390.179,196.993z"/>
	</g>
</g>
<g>
	<g>
		<path class="st0" d="M315.692,416.206H305.51l-13.796-17.432c-6.52-8.24-10.068-18.44-10.068-28.948V263.435h7.279    c3.339,0,6.045-2.707,6.045-6.045v-8.256c0-3.339-2.707-6.045-6.045-6.045h-7.279v-12.78c0-4.775,0.936-9.504,2.756-13.919    l21.108-51.201l-31.651,25.947c-4.77,3.911-11.976,1.857-13.97-3.979L250,158.198l-9.89,28.958c-1.994,5.836-9.2,7.89-13.97,3.979    l-31.65-25.947l21.108,51.201c1.82,4.415,2.756,9.144,2.756,13.919v12.78h-7.279c-3.339,0-6.045,2.707-6.045,6.045v8.256    c0,3.339,2.707,6.045,6.045,6.045h7.279v106.391c0,10.508-3.548,20.708-10.068,28.947l-13.796,17.433h-10.183    c-4.591,0-8.312,3.721-8.312,8.312v32.621c0,4.591,3.721,8.312,8.312,8.312h131.385c4.591,0,8.312-3.721,8.312-8.312v-32.621    C324.004,419.927,320.283,416.206,315.692,416.206z"/>
	</g>
</g>
<g>
	<g>
		<circle class="st5" cx="250" cy="143.676" r="14.522"/>
	</g>
</g>
<g>
	<g>
		<path class="st1" d="M266.036,495h-32.072c-5.375,0-9.733-4.358-9.733-9.733v-19.815h51.538v19.815    C275.769,490.642,271.411,495,266.036,495z"/>
	</g>
</g>
<path class="st4" d="M234.167,15.833c0-2.762,2.238-5,5-5H245V5c0-2.762,2.238-5,5-5s5,2.238,5,5v5.833h5.833c2.762,0,5,2.238,5,5  s-2.238,5-5,5H255v5.833c0,2.762-2.238,5-5,5s-5-2.238-5-5v-5.833h-5.833C236.405,20.833,234.167,18.595,234.167,15.833z   M81.068,155.164h-5.833v-5.833c0-2.762-2.238-5-5-5s-5,2.238-5,5v5.833h-5.833c-2.762,0-5,2.238-5,5s2.238,5,5,5h5.833v5.833  c0,2.762,2.238,5,5,5s5-2.238,5-5v-5.833h5.833c2.762,0,5-2.238,5-5S83.83,155.164,81.068,155.164z M440.598,155.164h-5.833v-5.833  c0-2.762-2.238-5-5-5s-5,2.238-5,5v5.833h-5.833c-2.762,0-5,2.238-5,5s2.238,5,5,5h5.833v5.833c0,2.762,2.238,5,5,5s5-2.238,5-5  v-5.833h5.833c2.762,0,5-2.238,5-5S443.359,155.164,440.598,155.164z M352.291,93.972c27.656,27.462,42.888,64.049,42.888,103.021  c0,27.835-7.9,54.881-22.848,78.213c-14.551,22.712-35.056,40.902-59.298,52.604c-16.03,7.737-26.388,24.229-26.388,42.015  c0,9.341,3.192,18.52,8.989,25.846l12.294,15.535h7.763c7.34,0,13.312,5.972,13.312,13.313v11.311h13.472c2.762,0,5,2.238,5,5  s-2.238,5-5,5h-13.472v11.311c0,7.341-5.972,13.313-13.312,13.313H280.77v14.814c0,8.124-6.609,14.733-14.733,14.733h-32.072  c-8.124,0-14.733-6.609-14.733-14.733v-14.814h-34.923c-7.34,0-13.312-5.972-13.312-13.313v-11.311h-13.472c-2.762,0-5-2.238-5-5  s2.238-5,5-5h13.472v-11.311c0-7.341,5.972-13.313,13.312-13.313h7.763l12.294-15.536c2.174-2.747,3.981-5.754,5.392-8.934  c2.351-5.299,3.598-11.073,3.598-16.911c0-17.777-10.377-34.278-26.436-42.038c-24.575-11.874-45.27-30.38-59.845-53.518  c-14.989-23.796-22.679-51.323-22.234-79.604c0.595-37.986,15.888-73.738,43.062-100.671  c27.171-26.931,63.059-41.909,101.052-42.178c0.352-0.002,0.704-0.004,1.056-0.004C288.601,51.813,324.888,66.761,352.291,93.972z   M270.77,470.452H229.23v14.814c0,2.61,2.123,4.733,4.733,4.733h32.072c2.61,0,4.733-2.123,4.733-4.733V470.452z M319.004,445.829  H180.996v11.311c0,1.826,1.485,3.313,3.312,3.313h39.923h51.539h39.923c1.826,0,3.312-1.486,3.312-3.313V445.829z M194.49,421.206  h-10.183c-1.826,0-3.312,1.486-3.312,3.313v11.311h138.008v-11.311c0-1.826-1.485-3.313-3.312-3.313H305.51H194.49z   M276.646,369.825v-78.316h-24.74c-2.762,0-5-2.238-5-5s2.238-5,5-5h24.74v-13.074h-53.291v101.391c0,2.896-0.248,5.779-0.731,8.617  c-1.45,8.515-5.025,16.62-10.417,23.434l-7.384,9.33h90.354l-7.384-9.33C280.604,392.792,276.646,381.409,276.646,369.825z   M288.925,258.435c0.577,0,1.046-0.469,1.046-1.045v-8.257c0-0.576-0.469-1.045-1.046-1.045h-7.279h-63.291h-7.279  c-0.577,0-1.046,0.469-1.046,1.045v8.257c0,0.576,0.469,1.045,1.046,1.045h7.279h63.291H288.925z M244.842,188.772  c-1.465,4.291-4.944,7.595-9.306,8.837c-4.357,1.239-9.058,0.269-12.565-2.608l-16.286-13.351l13.536,32.834  c2.079,5.044,3.134,10.368,3.134,15.824v7.779h53.291v-7.779c0-5.456,1.055-10.78,3.135-15.825l13.535-32.833l-16.286,13.352  c-3.509,2.875-8.208,3.847-12.565,2.607c-4.361-1.242-7.841-4.546-9.306-8.837L250,173.669L244.842,188.772z M250,153.198  c5.251,0,9.522-4.271,9.522-9.521c0-5.251-4.271-9.522-9.522-9.522s-9.522,4.271-9.522,9.522  C240.478,148.927,244.749,153.198,250,153.198z M385.179,196.993c0-36.288-14.182-70.355-39.934-95.926  c-25.748-25.567-59.94-39.476-96.222-39.25c-72.85,0.514-133.045,60.18-134.186,133.005c-0.822,52.473,29.179,101.13,76.431,123.961  c9.034,4.364,16.583,11.013,22.086,19.037v-69.386h-2.279c-6.091,0-11.046-4.955-11.046-11.045v-8.257  c0-6.09,4.955-11.045,11.046-11.045h2.279v-7.779c0-4.142-0.801-8.184-2.379-12.013l-21.108-51.202  c-0.873-2.118-0.194-4.559,1.646-5.923c1.84-1.363,4.373-1.303,6.146,0.15l31.65,25.946c0.986,0.81,2.261,1.072,3.486,0.724  c1.229-0.35,2.169-1.243,2.582-2.451l8.03-23.512c-7.526-2.712-12.931-9.902-12.931-18.352c0-10.765,8.758-19.522,19.522-19.522  s19.522,8.758,19.522,19.522c0,8.449-5.405,15.64-12.931,18.352l8.03,23.512c0.413,1.208,1.354,2.102,2.582,2.451  c1.226,0.35,2.499,0.086,3.486-0.723l31.65-25.947c1.773-1.451,4.305-1.514,6.146-0.15c1.841,1.364,2.52,3.805,1.646,5.923  l-21.107,51.201c-1.579,3.83-2.38,7.872-2.38,12.014v7.779h2.279c6.091,0,11.046,4.955,11.046,11.045v8.257  c0,6.09-4.955,11.045-11.046,11.045h-2.279V337.8c5.494-8.011,13.027-14.645,22.04-18.995  C355.153,296.375,385.179,248.562,385.179,196.993z M237.337,281.509h-1.847c-2.762,0-5,2.238-5,5s2.238,5,5,5h1.847  c2.762,0,5-2.238,5-5S240.099,281.509,237.337,281.509z M139.928,435.829h-2.658c-2.762,0-5,2.238-5,5s2.238,5,5,5h2.658  c2.762,0,5-2.238,5-5S142.689,435.829,139.928,435.829z M362.73,435.829h-2.658c-2.762,0-5,2.238-5,5s2.238,5,5,5h2.658  c2.762,0,5-2.238,5-5S365.492,435.829,362.73,435.829z"/>
</svg>
