<?xml version="1.0" encoding="utf-8"?>
<!-- Generator: Adobe Illustrator 22.0.0, SVG Export Plug-In . SVG Version: 6.00 Build 0)  -->
<svg xmlns="http://www.w3.org/2000/svg" xmlns:xlink="http://www.w3.org/1999/xlink" version="1.1" id="Layer_1" x="0px" y="0px" viewBox="0 0 500 500" style="enable-background:new 0 0 500 500;" xml:space="preserve" width="512" height="512">
<style type="text/css">
	.st0{fill:#83E1E5;}
	.st1{fill:#AAB1BA;}
	.st2{fill:#ECF4F7;}
	.st3{fill:#FDDF7F;}
	.st4{fill:#1C1D21;}
	.st5{fill:#FFFFFF;}
</style>
<g>
	<g>
		<path class="st3" d="M180.522,182.809c0-6.172,0.719-12.172,2.036-17.946c-9.949-4.41-20.95-6.878-32.534-6.878    c-44.399,0-80.392,35.993-80.392,80.391c0,44.4,35.993,80.392,80.392,80.392c10.798,0,21.091-2.143,30.498-6.005L180.522,182.809    L180.522,182.809z"/>
	</g>
</g>
<g>
	<g>
		<circle class="st5" cx="377.007" cy="137.205" r="80.392"/>
	</g>
</g>
<g>
	<g>
		<path class="st0" d="M260.913,102.418c-44.399,0-80.391,35.993-80.391,80.391c0,44.4,35.992,80.391,80.391,80.391    c12.827,0,24.944-3.019,35.702-8.362V137.205h0c0-8.513,1.334-16.713,3.786-24.413    C288.735,106.198,275.27,102.418,260.913,102.418z"/>
	</g>
</g>
<g>
	<g>
		<path class="st1" d="M377.007,217.597c-44.399,0-80.392-35.993-80.392-80.393v117.634c-10.759,5.343-22.875,8.363-35.702,8.363    c-44.399,0-80.392-35.993-80.392-80.393v129.954c-9.407,3.862-19.7,6.006-30.498,6.006c-44.399,0-80.392-35.993-80.392-80.393V495    h110.889h116.094h160.783V137.205C457.399,181.605,421.406,217.597,377.007,217.597z"/>
	</g>
</g>
<path class="st4" d="M361.174,15.833c0-2.762,2.238-5,5-5h5.833V5c0-2.762,2.238-5,5-5s5,2.238,5,5v5.833h5.833c2.762,0,5,2.238,5,5  s-2.238,5-5,5h-5.833v5.833c0,2.762-2.238,5-5,5s-5-2.238-5-5v-5.833h-5.833C363.412,20.833,361.174,18.595,361.174,15.833z   M252.683,61.813h5.833v5.833c0,2.762,2.238,5,5,5s5-2.238,5-5v-5.833h5.833c2.762,0,5-2.238,5-5s-2.238-5-5-5h-5.833V45.98  c0-2.762-2.238-5-5-5s-5,2.238-5,5v5.833h-5.833c-2.762,0-5,2.238-5,5S249.921,61.813,252.683,61.813z M139.191,107.418h5.833v5.833  c0,2.762,2.238,5,5,5s5-2.238,5-5v-5.833h5.833c2.762,0,5-2.238,5-5s-2.238-5-5-5h-5.833v-5.833c0-2.762-2.238-5-5-5s-5,2.238-5,5  v5.833h-5.833c-2.762,0-5,2.238-5,5S136.43,107.418,139.191,107.418z M485.068,495c0,2.762-2.238,5-5,5h-22.67c-2.762,0-5-2.238-5-5  V177.278c-0.067,0.126-0.139,0.248-0.207,0.373c-0.125,0.232-0.257,0.46-0.384,0.691c-0.49,0.887-0.995,1.765-1.515,2.632  c-0.151,0.251-0.299,0.504-0.452,0.753c-0.639,1.041-1.295,2.07-1.977,3.081c-0.099,0.146-0.202,0.289-0.302,0.435  c-0.603,0.882-1.222,1.751-1.857,2.608c-0.183,0.248-0.366,0.496-0.552,0.741c-1.48,1.958-3.042,3.849-4.681,5.67  c-0.206,0.229-0.413,0.456-0.622,0.683c-0.74,0.805-1.493,1.598-2.263,2.373c-0.1,0.101-0.196,0.205-0.297,0.305  c-0.865,0.863-1.752,1.705-2.654,2.53c-0.212,0.194-0.427,0.385-0.641,0.577c-0.765,0.688-1.542,1.36-2.331,2.02  c-0.18,0.151-0.357,0.305-0.539,0.454c-0.943,0.774-1.904,1.529-2.88,2.264c-0.195,0.147-0.393,0.288-0.59,0.434  c-0.826,0.61-1.663,1.206-2.511,1.787c-0.233,0.159-0.464,0.32-0.698,0.478c-1.02,0.684-2.052,1.35-3.102,1.99  c-0.134,0.082-0.271,0.159-0.406,0.24c-0.934,0.563-1.88,1.105-2.836,1.632c-0.265,0.146-0.53,0.292-0.796,0.436  c-2.18,1.173-4.417,2.252-6.705,3.235c-0.281,0.121-0.562,0.238-0.844,0.356c-1.025,0.427-2.059,0.838-3.104,1.226  c-0.138,0.052-0.273,0.107-0.411,0.157c-1.172,0.429-2.357,0.827-3.552,1.205c-0.275,0.087-0.552,0.169-0.828,0.253  c-1.01,0.308-2.027,0.598-3.052,0.868c-0.235,0.063-0.468,0.129-0.704,0.189c-1.219,0.311-2.448,0.595-3.688,0.853  c-0.241,0.051-0.484,0.094-0.726,0.142c-1.047,0.209-2.101,0.397-3.161,0.566c-0.291,0.047-0.581,0.096-0.872,0.139  c-1.267,0.189-2.541,0.355-3.825,0.488c-0.155,0.016-0.312,0.025-0.467,0.041c-1.145,0.111-2.297,0.197-3.454,0.264  c-0.32,0.018-0.64,0.035-0.96,0.05c-1.309,0.061-2.622,0.102-3.945,0.102s-2.636-0.041-3.945-0.102  c-0.321-0.015-0.641-0.032-0.96-0.05c-1.157-0.066-2.309-0.152-3.454-0.264c-0.155-0.016-0.312-0.025-0.467-0.041  c-1.284-0.133-2.558-0.299-3.825-0.488c-0.292-0.043-0.581-0.092-0.872-0.139c-1.06-0.169-2.114-0.357-3.161-0.566  c-0.242-0.048-0.485-0.091-0.726-0.142c-1.239-0.258-2.469-0.542-3.688-0.853c-0.236-0.061-0.469-0.127-0.704-0.189  c-1.025-0.271-2.042-0.561-3.052-0.868c-0.276-0.084-0.553-0.166-0.828-0.253c-1.195-0.378-2.381-0.776-3.552-1.205  c-0.138-0.05-0.273-0.105-0.411-0.157c-1.045-0.388-2.079-0.799-3.104-1.226c-0.282-0.118-0.564-0.235-0.844-0.356  c-2.288-0.983-4.525-2.063-6.705-3.235c-0.267-0.144-0.531-0.289-0.796-0.436c-0.956-0.526-1.902-1.069-2.836-1.632  c-0.135-0.081-0.272-0.158-0.406-0.24c-1.05-0.641-2.082-1.307-3.102-1.99c-0.234-0.157-0.466-0.318-0.698-0.478  c-0.848-0.581-1.685-1.177-2.511-1.787c-0.196-0.146-0.395-0.286-0.59-0.434c-0.976-0.734-1.937-1.489-2.88-2.264  c-0.181-0.149-0.358-0.303-0.539-0.454c-0.789-0.659-1.566-1.332-2.331-2.02c-0.214-0.192-0.429-0.383-0.641-0.577  c-0.901-0.825-1.789-1.667-2.654-2.53c-0.1-0.1-0.197-0.204-0.297-0.305c-0.77-0.775-1.523-1.568-2.263-2.373  c-0.208-0.227-0.416-0.453-0.622-0.683c-1.639-1.821-3.201-3.712-4.681-5.67c-0.186-0.245-0.369-0.493-0.552-0.741  c-0.634-0.857-1.254-1.727-1.857-2.608c-0.099-0.146-0.203-0.288-0.302-0.435c-0.681-1.011-1.338-2.04-1.977-3.081  c-0.153-0.249-0.301-0.502-0.452-0.753c-0.52-0.867-1.025-1.745-1.515-2.632c-0.128-0.231-0.259-0.459-0.384-0.691  c-0.068-0.125-0.14-0.247-0.207-0.373V490h81.928c2.762,0,5,2.238,5,5s-2.238,5-5,5H247.949c-2.762,0-5-2.238-5-5s2.238-5,5-5  h43.666V137.205c0-47.085,38.307-85.392,85.392-85.392s85.392,38.307,85.392,85.392V490h17.67  C482.83,490,485.068,492.238,485.068,495z M301.615,137.205c0,2.599,0.132,5.166,0.39,7.697  c3.868,37.97,36.029,67.694,75.002,67.694s71.134-29.725,75.002-67.694c0.258-2.531,0.39-5.099,0.39-7.697  c0-41.571-33.82-75.392-75.392-75.392S301.615,95.634,301.615,137.205z M24.669,490h-4.737c-2.762,0-5,2.238-5,5s2.238,5,5,5h4.737  c2.762,0,5-2.238,5-5S27.431,490,24.669,490z M228.251,490h-3.355c-2.762,0-5,2.238-5,5s2.238,5,5,5h3.355c2.762,0,5-2.238,5-5  S231.013,490,228.251,490z M206.26,490h-20.738V222.851c14.375,26.955,42.77,45.35,75.392,45.35c3.652,0,7.332-0.234,10.937-0.697  c2.738-0.351,4.674-2.856,4.322-5.596c-0.351-2.738-2.853-4.688-5.596-4.322c-3.184,0.408-6.435,0.615-9.663,0.615  c-41.571,0-75.392-33.82-75.392-75.392c0-41.57,33.82-75.391,75.392-75.391c5.587,0,11.16,0.616,16.564,1.832  c2.697,0.6,5.37-1.087,5.976-3.78c0.606-2.694-1.087-5.37-3.78-5.976c-6.124-1.378-12.436-2.076-18.76-2.076  c-47.085,0-85.392,38.306-85.392,85.391V490H74.632V278.419c14.375,26.955,42.77,45.35,75.392,45.35c2.835,0,5.692-0.142,8.493-0.42  c2.748-0.273,4.754-2.723,4.48-5.471s-2.717-4.744-5.471-4.48c-2.474,0.246-4.998,0.371-7.503,0.371  c-41.571,0-75.392-33.821-75.392-75.393c0-41.57,33.82-75.391,75.392-75.391c3.161,0,6.345,0.199,9.461,0.592  c2.741,0.351,5.241-1.597,5.586-4.336c0.345-2.74-1.597-5.24-4.336-5.586c-3.53-0.444-7.134-0.67-10.711-0.67  c-47.085,0-85.392,38.306-85.392,85.391V490H41.034c-2.762,0-5,2.238-5,5s2.238,5,5,5H206.26c2.762,0,5-2.238,5-5  S209.021,490,206.26,490z"/>
</svg>
