<?xml version="1.0" encoding="utf-8"?>
<!-- Generator: Adobe Illustrator 22.0.0, SVG Export Plug-In . SVG Version: 6.00 Build 0)  -->
<svg xmlns="http://www.w3.org/2000/svg" xmlns:xlink="http://www.w3.org/1999/xlink" version="1.1" id="Layer_1" x="0px" y="0px" viewBox="0 0 500 500" style="enable-background:new 0 0 500 500;" xml:space="preserve" width="512" height="512">
<style type="text/css">
	.st0{fill:#83E1E5;}
	.st1{fill:#AAB1BA;}
	.st2{fill:#ECF4F7;}
	.st3{fill:#FDDF7F;}
	.st4{fill:#1C1D21;}
	.st5{fill:#FFFFFF;}
</style>
<g>
	<g>
		<path class="st3" d="M288.954,24.408l-17.271,18.874c95.079,9.857,171.109,83.81,184.161,177.904l19.749,18.073l18.743-17.152    C481.265,106.358,387.858,14.961,271.194,5L288.954,24.408z"/>
	</g>
</g>
<g>
	<g>
		<path class="st0" d="M24.408,211.046l18.873,17.271c9.857-95.079,83.81-171.108,177.904-184.16l18.072-19.749L222.107,5.665    C106.358,18.736,14.961,112.142,5,228.806L24.408,211.046z"/>
	</g>
</g>
<g>
	<g>
		<path class="st3" d="M211.046,475.592l17.271-18.873c-95.079-9.857-171.108-83.811-184.16-177.905l-19.749-18.072L5.665,277.894    C18.735,393.642,112.143,485.039,228.806,495L211.046,475.592z"/>
	</g>
</g>
<g>
	<g>
		<path class="st0" d="M475.592,288.954l-18.873-17.271c-9.857,95.079-83.811,171.109-177.905,184.161l-18.072,19.749l17.151,18.743    C393.642,481.264,485.039,387.858,495,271.194L475.592,288.954z"/>
	</g>
</g>
<g>
	<g>
		<circle class="st1" cx="250" cy="250" r="169.31"/>
	</g>
</g>
<g>
	<g>
		<circle class="st0" cx="250" cy="250" r="135.543"/>
	</g>
</g>
<g>
	<g>
		<path class="st2" d="M302.315,289.596H197.685c-13.969,0-25.294,11.324-25.294,25.294v46.239    c21.985,15.382,48.741,24.414,77.609,24.414s55.624-9.032,77.609-24.414V314.89C327.609,300.92,316.285,289.596,302.315,289.596z"/>
	</g>
</g>
<g>
	<g>
		<path class="st0" d="M239.471,289.595l-3.164,95.262c4.503,0.452,9.07,0.686,13.692,0.686c4.622,0,9.19-0.233,13.693-0.686    l-3.164-95.262H239.471z"/>
	</g>
</g>
<g>
	<g>
		<circle class="st3" cx="250" cy="227.556" r="62.04"/>
	</g>
</g>
<path class="st4" d="M44.307,23.746c0-2.761,2.238-5,5-5h5.832v-5.833c0-2.761,2.238-5,5-5s5,2.239,5,5v5.833h5.833  c2.762,0,5,2.239,5,5s-2.238,5-5,5h-5.833v5.833c0,2.761-2.238,5-5,5s-5-2.239-5-5v-5.833h-5.832  C46.545,28.746,44.307,26.507,44.307,23.746z M450.693,471.255h-5.832v-5.833c0-2.762-2.238-5-5-5s-5,2.238-5,5v5.833h-5.833  c-2.762,0-5,2.238-5,5s2.238,5,5,5h5.833v5.833c0,2.762,2.238,5,5,5s5-2.238,5-5v-5.833h5.832c2.762,0,5-2.238,5-5  S453.455,471.255,450.693,471.255z M424.311,250c0,96.115-78.195,174.311-174.311,174.311S75.689,346.115,75.689,250  c0-96.115,78.195-174.31,174.311-174.31S424.311,153.885,424.311,250z M414.311,250c0-90.601-73.709-164.31-164.311-164.31  S85.689,159.399,85.689,250c0,90.602,73.709,164.311,164.311,164.311S414.311,340.602,414.311,250z M390.543,250  c0,77.496-63.047,140.543-140.543,140.543S109.457,327.496,109.457,250c0-77.496,63.047-140.543,140.543-140.543  S390.543,172.504,390.543,250z M380.543,250c0-71.981-58.562-130.543-130.543-130.543S119.457,178.019,119.457,250  S178.019,380.543,250,380.543S380.543,321.981,380.543,250z M205.171,319.733c-2.762,0-5,2.238-5,5v32.753c0,2.762,2.238,5,5,5  s5-2.238,5-5v-32.753C210.171,321.972,207.933,319.733,205.171,319.733z M294.827,319.733c-2.762,0-5,2.238-5,5v32.753  c0,2.762,2.238,5,5,5s5-2.238,5-5v-32.753C299.827,321.972,297.589,319.733,294.827,319.733z M332.608,314.89v22.68  c0,2.762-2.238,5-5,5s-5-2.238-5-5v-22.68c0-11.19-9.104-20.294-20.293-20.294h-36.618l2.392,71.996  c0.092,2.76-2.071,5.071-4.831,5.163c-0.057,0.002-0.113,0.003-0.169,0.003c-2.685,0-4.904-2.131-4.994-4.834l-2.403-72.328h-11.383  l-2.402,72.328c-0.092,2.759-2.395,4.935-5.163,4.831c-2.76-0.092-4.923-2.403-4.831-5.163l2.391-71.996h-36.618  c-11.19,0-20.294,9.104-20.294,20.294v22.68c0,2.762-2.238,5-5,5s-5-2.238-5-5v-22.68c0-16.704,13.59-30.294,30.294-30.294h17.142  c-19.106-11.825-31.866-32.967-31.866-57.04c0-36.966,30.074-67.04,67.04-67.04s67.04,30.074,67.04,67.04  c0,24.073-12.76,45.214-31.866,57.04h17.142C319.019,284.596,332.608,298.186,332.608,314.89z M250,284.596  c31.452,0,57.04-25.588,57.04-57.04s-25.588-57.04-57.04-57.04s-57.04,25.588-57.04,57.04S218.548,284.596,250,284.596z   M270.769,9.982c113.005,9.649,204.42,97.843,218.3,210.166l-13.477,12.333l-15.052-13.775  c-6.792-46.004-28.956-89.145-62.539-121.653c-34.099-33.006-78.776-53.869-125.803-58.744c-2.763-0.293-5.204,1.711-5.489,4.458  c-0.284,2.747,1.711,5.204,4.458,5.489c92.976,9.639,166.881,81.033,179.725,173.618c0.159,1.154,0.718,2.215,1.576,3.001  l19.748,18.073c0.956,0.875,2.166,1.312,3.376,1.312s2.42-0.437,3.375-1.312l18.743-17.152c1.181-1.08,1.772-2.66,1.594-4.25  C485.952,103.309,390.197,10.143,271.62,0.018c-2.76-0.236-5.173,1.805-5.407,4.557C265.978,7.326,268.018,9.747,270.769,9.982z   M4.574,233.788c0.146,0.012,0.289,0.019,0.432,0.019c2.568,0,4.754-1.968,4.976-4.575  c9.649-113.004,97.843-204.418,210.167-218.299l12.332,13.476l-13.775,15.053C172.701,46.252,129.56,68.416,97.052,102  c-33.007,34.098-53.869,78.775-58.744,125.802c-0.284,2.747,1.711,5.204,4.458,5.489c2.767,0.293,5.205-1.711,5.489-4.458  c9.638-92.976,81.032-166.88,173.617-179.723c1.154-0.16,2.216-0.718,3.002-1.577l18.072-19.749c1.749-1.911,1.749-4.84,0-6.751  L225.795,2.29c-1.079-1.18-2.657-1.779-4.25-1.593C103.309,14.048,10.143,109.803,0.019,228.38  C-0.217,231.132,1.823,233.553,4.574,233.788z M229.231,490.019c-113.005-9.649-204.42-97.843-218.3-210.167l13.477-12.332  l15.053,13.774c6.791,46.005,28.955,89.146,62.538,121.654c34.099,33.007,78.776,53.869,125.803,58.744  c2.767,0.275,5.205-1.712,5.489-4.458c0.284-2.747-1.711-5.204-4.458-5.489c-92.976-9.638-166.881-81.033-179.725-173.618  c-0.159-1.154-0.718-2.216-1.577-3.002l-19.748-18.071c-1.91-1.748-4.84-1.748-6.75,0L2.29,274.205  c-1.181,1.08-1.772,2.659-1.594,4.25C14.048,396.691,109.803,489.857,228.38,499.981c0.146,0.013,0.289,0.019,0.432,0.019  c2.568,0,4.754-1.968,4.976-4.574C234.022,492.674,231.982,490.253,229.231,490.019z M495.426,266.213  c-2.765-0.239-5.174,1.805-5.407,4.556c-9.649,113.005-97.843,204.42-210.167,218.3l-12.332-13.477l13.774-15.053  c46.005-6.791,89.146-28.955,121.654-62.538c33.007-34.099,53.869-78.776,58.744-125.803c0.284-2.747-1.711-5.204-4.458-5.489  c-2.756-0.278-5.204,1.712-5.489,4.458c-9.638,92.976-81.033,166.881-173.618,179.725c-1.154,0.159-2.216,0.718-3.002,1.577  l-18.071,19.748c-1.749,1.91-1.749,4.84,0,6.75l17.151,18.743c0.952,1.042,2.294,1.625,3.688,1.625c0.186,0,0.374-0.011,0.562-0.031  c118.236-13.352,211.402-109.106,221.526-227.684C500.217,268.868,498.177,266.447,495.426,266.213z M43.306,240.262  c-2.762,0-5,2.239-5,5v3.445c0,2.761,2.238,5,5,5s5-2.238,5-5v-3.445C48.306,242.501,46.067,240.262,43.306,240.262z M252.808,10  h1.866c2.762,0,5-2.239,5-5s-2.238-5-5-5h-1.866c-2.762,0-5,2.239-5,5S250.046,10,252.808,10z M495,247.274c-2.762,0-5,2.239-5,5  v2.309c0,2.762,2.238,5,5,5s5-2.238,5-5v-2.309C500,249.513,497.762,247.274,495,247.274z M250.299,490h-2.154c-2.762,0-5,2.238-5,5  s2.238,5,5,5h2.154c2.762,0,5-2.238,5-5S253.061,490,250.299,490z"/>
</svg>
