<?xml version="1.0" encoding="utf-8"?>
<!-- Generator: Adobe Illustrator 22.0.0, SVG Export Plug-In . SVG Version: 6.00 Build 0)  -->
<svg xmlns="http://www.w3.org/2000/svg" xmlns:xlink="http://www.w3.org/1999/xlink" version="1.1" id="Layer_1" x="0px" y="0px" viewBox="0 0 500 500" style="enable-background:new 0 0 500 500;" xml:space="preserve" width="512" height="512">
<style type="text/css">
	.st0{fill:#83E1E5;}
	.st1{fill:#AAB1BA;}
	.st2{fill:#ECF4F7;}
	.st3{fill:#FDDF7F;}
	.st4{fill:#1C1D21;}
	.st5{fill:#FFFFFF;}
</style>
<g>
	<g>
		<path class="st2" d="M209.558,275.265c-2.763-4.413-4.818-9.309-6.021-14.534h-15.004c-2.457,0-4.45-1.992-4.45-4.45v-12.563    c0-2.458,1.992-4.45,4.45-4.45h15.004c1.202-5.225,3.258-10.121,6.021-14.533l-10.61-10.61c-0.221-0.221-0.413-0.46-0.578-0.711    c-24.886,3.985-47.707,16.874-64.003,36.586l0,0l0.002,0.002c16.296,19.711,39.116,32.599,64.001,36.584    c0.165-0.251,0.357-0.49,0.578-0.711L209.558,275.265z"/>
	</g>
</g>
<g>
	<g>
		<path class="st2" d="M365.632,250c-16.296-19.712-39.117-32.601-64.003-36.586c-0.165,0.252-0.357,0.49-0.578,0.711l-10.61,10.61    c2.763,4.413,4.818,9.309,6.021,14.533h15.004c2.457,0,4.45,1.992,4.45,4.45v12.563c0,2.458-1.992,4.45-4.45,4.45h-15.004    c-1.202,5.225-3.258,10.121-6.021,14.534l10.61,10.61c0.221,0.221,0.413,0.459,0.578,0.711    C326.515,282.601,349.336,269.712,365.632,250L365.632,250L365.632,250z"/>
	</g>
</g>
<g>
	<g>
		<path class="st0" d="M315.916,256.282v-12.563c0-2.458-1.992-4.45-4.45-4.45h-15.004c-1.202-5.225-3.258-10.121-6.02-14.534    l10.61-10.61c1.738-1.738,1.738-4.555,0-6.293l-8.884-8.884c-1.738-1.738-4.555-1.738-6.293,0l-10.61,10.61    c-4.413-2.763-9.309-4.818-14.534-6.021v-15.004c0-2.458-1.992-4.45-4.45-4.45h-12.563c-2.458,0-4.45,1.992-4.45,4.45v15.004    c-5.225,1.202-10.121,3.258-14.534,6.021l-10.61-10.61c-1.738-1.738-4.555-1.738-6.293,0l-8.884,8.884    c-1.738,1.738-1.738,4.555,0,6.293l10.61,10.61c-2.763,4.413-4.818,9.309-6.021,14.534h-15.004c-2.458,0-4.45,1.992-4.45,4.45    v12.563c0,2.458,1.992,4.45,4.45,4.45h15.004c1.202,5.225,3.258,10.121,6.021,14.534l-10.61,10.61    c-1.738,1.738-1.738,4.555,0,6.293l8.884,8.884c1.738,1.738,4.555,1.738,6.293,0l10.61-10.61c4.413,2.763,9.309,4.818,14.534,6.02    v15.004c0,2.458,1.992,4.45,4.45,4.45h12.563c2.458,0,4.45-1.992,4.45-4.45v-15.004c5.225-1.202,10.121-3.258,14.534-6.02    l10.61,10.61c1.738,1.738,4.555,1.738,6.293,0l8.884-8.884c1.738-1.738,1.738-4.555,0-6.293l-10.61-10.61    c2.763-4.413,4.818-9.309,6.02-14.534h15.004C313.923,260.731,315.916,258.739,315.916,256.282z"/>
	</g>
</g>
<g>
	<g>
		<circle class="st1" cx="250" cy="250" r="27.129"/>
	</g>
</g>
<g>
	<g>
		<path class="st3" d="M147.853,343.52h-39.528c-5.568,0-10.082-4.514-10.082-10.082l0-122.321c0-6.32-4.914-11.703-11.23-11.927    c-6.631-0.236-12.08,5.07-12.08,11.648v51.289c0-6.437-5.218-11.655-11.655-11.655s-11.655,5.218-11.655,11.655    c0-6.437-5.218-11.655-11.655-11.655s-11.655,5.218-11.655,11.655c0-6.578-5.45-11.883-12.08-11.648    C9.914,250.703,5,256.086,5,262.405L5,495h89.258V388.904c0-11.004,8.92-19.924,19.924-19.924h33.671    c7.031,0,12.73-5.7,12.73-12.73v0C160.583,349.219,154.883,343.52,147.853,343.52z"/>
	</g>
</g>
<g>
	<g>
		<path class="st3" d="M352.147,156.481h39.528c5.568,0,10.082,4.514,10.082,10.082v122.321c0,6.32,4.914,11.703,11.23,11.927    c6.631,0.236,12.08-5.07,12.08-11.648v-51.289c0,6.437,5.218,11.655,11.655,11.655s11.655-5.218,11.655-11.655    c0,6.437,5.218,11.655,11.655,11.655c6.437,0,11.655-5.218,11.655-11.655c0,6.578,5.45,11.884,12.08,11.648    c6.316-0.225,11.23-5.607,11.23-11.927V5h-89.258v106.096c0,11.004-8.92,19.924-19.924,19.924h-33.671    c-7.031,0-12.73,5.7-12.73,12.73v0C339.417,150.781,345.117,156.481,352.147,156.481z"/>
	</g>
</g>
<path class="st4" d="M123.334,120.462c0-2.761,2.238-5,5-5h5.833v-5.833c0-2.761,2.238-5,5-5s5,2.239,5,5v5.833H150  c2.762,0,5,2.239,5,5s-2.238,5-5,5h-5.833v5.833c0,2.761-2.238,5-5,5s-5-2.239-5-5v-5.833h-5.833  C125.572,125.462,123.334,123.223,123.334,120.462z M371.666,374.538h-5.833v-5.833c0-2.761-2.238-5-5-5s-5,2.239-5,5v5.833H350  c-2.762,0-5,2.239-5,5s2.238,5,5,5h5.833v5.833c0,2.761,2.238,5,5,5s5-2.239,5-5v-5.833h5.833c2.762,0,5-2.239,5-5  S374.428,374.538,371.666,374.538z M282.129,250c0,17.716-14.413,32.129-32.129,32.129c-17.717,0-32.13-14.413-32.13-32.129  s14.413-32.129,32.13-32.129C267.716,217.871,282.129,232.284,282.129,250z M272.129,250c0-12.202-9.927-22.129-22.129-22.129  s-22.13,9.927-22.13,22.129s9.928,22.129,22.13,22.129S272.129,262.202,272.129,250z M307.208,290.644  c-0.329,1.906-1.226,3.664-2.622,5.06l-8.882,8.883c-1.786,1.785-4.159,2.768-6.683,2.768c-2.524,0-4.897-0.983-6.683-2.768  l-7.906-7.906c-2.787,1.461-5.695,2.667-8.701,3.604v11.181c0,5.21-4.239,9.45-9.45,9.45h-12.563c-5.21,0-9.449-4.239-9.449-9.45  v-11.181c-3.005-0.938-5.914-2.143-8.702-3.604l-7.906,7.906c-1.784,1.785-4.157,2.768-6.682,2.768  c-2.523,0-4.896-0.983-6.682-2.767l-8.884-8.884c-1.428-1.428-2.295-3.204-2.616-5.058c-24.386-5.022-46.358-18.198-62.281-37.458  c-0.241-0.292-0.449-0.611-0.618-0.95c-0.886-1.77-0.645-3.898,0.617-5.423c15.922-19.261,37.894-32.438,62.282-37.46  c0.321-1.853,1.188-3.629,2.615-5.057l8.885-8.884c1.785-1.785,4.158-2.768,6.682-2.768c2.524,0,4.897,0.983,6.683,2.768  l7.906,7.906c2.787-1.462,5.695-2.667,8.701-3.604v-11.181c0-5.21,4.239-9.45,9.449-9.45h12.563c5.211,0,9.45,4.239,9.45,9.45  v11.181c3.006,0.938,5.914,2.143,8.701,3.604l7.907-7.906c1.784-1.785,4.157-2.768,6.682-2.768c2.523,0,4.896,0.983,6.682,2.767  l8.884,8.885c1.395,1.395,2.292,3.152,2.621,5.058c24.386,5.022,46.356,18.199,62.278,37.459c1.528,1.849,1.528,4.522,0,6.372  C353.563,272.445,331.593,285.622,307.208,290.644z M303.444,218.804l-6.763,6.763c1.462,2.788,2.667,5.696,3.604,8.702h11.181  c5.211,0,9.45,4.239,9.45,9.45v12.563c0,5.21-4.239,9.45-9.45,9.45h-11.181c-0.938,3.005-2.143,5.914-3.604,8.702l6.763,6.763  c21.476-4.025,40.991-14.988,55.586-31.196C344.436,233.792,324.92,222.829,303.444,218.804z M196.555,281.196l6.764-6.763  c-1.462-2.788-2.667-5.696-3.604-8.702h-11.181c-5.211,0-9.45-4.239-9.45-9.45v-12.563c0-5.21,4.239-9.45,9.45-9.45h11.181  c0.938-3.005,2.143-5.914,3.604-8.702l-6.764-6.763c-21.477,4.026-40.991,14.988-55.585,31.197  C155.564,266.208,175.08,277.171,196.555,281.196z M297.126,289.021l-10.22-10.22c-1.647-1.647-1.939-4.214-0.703-6.189  c2.513-4.012,4.324-8.386,5.386-13.001c0.522-2.27,2.544-3.879,4.873-3.879h14.454v-11.463h-14.454  c-2.329,0-4.351-1.609-4.873-3.879c-1.062-4.615-2.873-8.989-5.386-13.001c-1.236-1.975-0.944-4.542,0.703-6.189l10.22-10.22  l-8.104-8.105L278.8,213.094c-1.647,1.647-4.214,1.938-6.188,0.702c-4.012-2.512-8.386-4.324-13.001-5.386  c-2.271-0.522-3.879-2.543-3.879-4.873v-14.454h-11.463v14.454c0,2.33-1.608,4.351-3.879,4.873  c-4.615,1.062-8.989,2.874-13.001,5.386c-1.975,1.237-4.541,0.945-6.188-0.702l-10.222-10.221l-8.105,8.105l10.221,10.22  c1.647,1.647,1.939,4.214,0.703,6.189c-2.513,4.012-4.324,8.386-5.386,13.001c-0.522,2.27-2.544,3.879-4.873,3.879h-14.454v11.463  h14.454c2.329,0,4.351,1.609,4.873,3.879c1.062,4.615,2.873,8.989,5.386,13.001c1.236,1.975,0.944,4.542-0.703,6.189l-10.221,10.22  l8.105,8.105l10.221-10.221c1.646-1.647,4.214-1.938,6.188-0.703c4.013,2.512,8.388,4.325,13.002,5.386  c2.271,0.522,3.879,2.543,3.879,4.873v14.454h11.463v-14.454c0-2.33,1.608-4.35,3.879-4.873c4.615-1.062,8.989-2.874,13.001-5.386  c1.976-1.236,4.541-0.945,6.188,0.702l10.222,10.221L297.126,289.021z M148.294,490H99.258V388.904  c0-8.229,6.694-14.923,14.924-14.923h33.671c9.776,0,17.73-7.954,17.73-17.73s-7.954-17.73-17.73-17.73h-39.527  c-2.802,0-5.082-2.28-5.082-5.082V211.117c0-9.17-7.051-16.604-16.053-16.924c-4.586-0.146-8.888,1.493-12.168,4.66  c-3.283,3.168-5.091,7.424-5.091,11.985v36.021c-2.039-0.893-4.29-1.388-6.655-1.388c-4.533,0-8.649,1.821-11.655,4.769  c-3.006-2.948-7.122-4.769-11.655-4.769c-4.53,0-8.644,1.818-11.649,4.763c-0.032-0.031-0.064-0.063-0.096-0.093  c-3.282-3.167-7.617-4.813-12.168-4.659C7.051,245.802,0,253.235,0,262.405V495c0,2.761,2.238,5,5,5s5-2.239,5-5V262.405  c0-3.695,2.875-6.804,6.408-6.93c1.827-0.068,3.558,0.595,4.868,1.861c1.312,1.266,2.034,2.967,2.034,4.79v38.453  c0,2.761,2.238,5,5,5s5-2.239,5-5v-38.453c0-3.67,2.985-6.655,6.655-6.655s6.655,2.985,6.655,6.655v38.453c0,2.761,2.238,5,5,5  s5-2.239,5-5v-38.453c0-3.67,2.985-6.655,6.655-6.655s6.655,2.985,6.655,6.655v38.453c0,2.761,2.238,5,5,5s5-2.239,5-5v-38.453  v-1.195v-50.093c0-1.822,0.723-3.523,2.035-4.79c1.312-1.265,3.052-1.918,4.868-1.861c3.533,0.125,6.408,3.234,6.408,6.93v122.321  c0,8.316,6.766,15.082,15.082,15.082h39.527c4.263,0,7.73,3.468,7.73,7.73s-3.468,7.73-7.73,7.73h-33.671  c-13.743,0-24.924,11.181-24.924,24.923V495c0,2.761,2.238,5,5,5h54.036c2.762,0,5-2.239,5-5S151.056,490,148.294,490z M169.233,490  h-4.799c-2.762,0-5,2.239-5,5s2.238,5,5,5h4.799c2.762,0,5-2.239,5-5S171.995,490,169.233,490z M495,0c-2.762,0-5,2.239-5,5v232.595  c0,3.695-2.875,6.804-6.408,6.93c-1.804,0.071-3.557-0.595-4.868-1.861c-1.312-1.266-2.034-2.967-2.034-4.79v-38.453  c0-2.761-2.238-5-5-5s-5,2.239-5,5v38.453c0,3.67-2.985,6.655-6.655,6.655s-6.655-2.985-6.655-6.655v-38.453c0-2.761-2.238-5-5-5  s-5,2.239-5,5v38.453c0,3.67-2.985,6.655-6.655,6.655s-6.655-2.985-6.655-6.655v-38.453c0-2.761-2.238-5-5-5s-5,2.239-5,5v38.453  v1.195v50.093c0,1.822-0.723,3.523-2.035,4.79c-1.312,1.266-3.044,1.924-4.868,1.861c-3.533-0.125-6.408-3.234-6.408-6.93V166.563  c0-8.316-6.766-15.082-15.082-15.082h-39.527c-4.263,0-7.73-3.468-7.73-7.73s3.468-7.73,7.73-7.73h33.671  c13.743,0,24.924-11.181,24.924-24.923V5c0-2.761-2.238-5-5-5h-54.036c-2.762,0-5,2.239-5,5s2.238,5,5,5h49.036v101.096  c0,8.229-6.694,14.923-14.924,14.923h-33.671c-9.776,0-17.73,7.954-17.73,17.73s7.954,17.73,17.73,17.73h39.527  c2.802,0,5.082,2.28,5.082,5.082v122.321c0,9.17,7.051,16.604,16.053,16.924c0.205,0.007,0.409,0.011,0.612,0.011  c4.338,0,8.422-1.646,11.556-4.67c3.283-3.168,5.091-7.424,5.091-11.985v-36.021c2.039,0.893,4.29,1.388,6.655,1.388  c4.533,0,8.649-1.821,11.655-4.769c3.006,2.948,7.122,4.769,11.655,4.769c4.53,0,8.644-1.818,11.649-4.763  c0.032,0.031,0.064,0.063,0.096,0.093c3.281,3.167,7.608,4.804,12.168,4.659c9.002-0.32,16.053-7.754,16.053-16.924V5  C500,2.239,497.762,0,495,0z M330.767,10h4.799c2.762,0,5-2.239,5-5s-2.238-5-5-5h-4.799c-2.762,0-5,2.239-5,5  S328.005,10,330.767,10z"/>
</svg>
