<?xml version="1.0" encoding="utf-8"?>
<!-- Generator: Adobe Illustrator 22.0.0, SVG Export Plug-In . SVG Version: 6.00 Build 0)  -->
<svg xmlns="http://www.w3.org/2000/svg" xmlns:xlink="http://www.w3.org/1999/xlink" version="1.1" id="Layer_1" x="0px" y="0px" viewBox="0 0 500 500" style="enable-background:new 0 0 500 500;" xml:space="preserve" width="512" height="512">
<style type="text/css">
	.st0{fill:#83E1E5;}
	.st1{fill:#AAB1BA;}
	.st2{fill:#ECF4F7;}
	.st3{fill:#FDDF7F;}
	.st4{fill:#1C1D21;}
	.st5{fill:#FFFFFF;}
</style>
<g>
	<g>
		<path class="st1" d="M344.385,438.075v-61.823c0-6.083-4.931-11.014-11.014-11.014h-61.822c-6.083,0-11.014-4.931-11.014-11.013    v-61.823c0-6.083-4.931-11.014-11.014-11.014H187.7c-6.083,0-11.014-4.931-11.014-11.013v-61.823    c0-6.083-4.931-11.014-11.014-11.014h-61.822c-6.083,0-11.014-4.931-11.014-11.013v-61.823c0-6.083-4.931-11.014-11.014-11.014    H59.585C32.05,152.085,15.833,199.147,15.833,250c0,129.327,104.84,234.167,234.167,234.167    c45.252,0,87.497-12.849,123.311-35.079h-17.913C349.316,449.088,344.385,444.157,344.385,438.075z"/>
	</g>
</g>
<g>
	<g>
		<path class="st1" d="M155.615,61.925v61.823c0,6.083,4.931,11.014,11.014,11.014h61.822c6.083,0,11.014,4.931,11.014,11.013    v61.823c0,6.083,4.931,11.014,11.014,11.014H312.3c6.083,0,11.014,4.931,11.014,11.013v61.823c0,6.083,4.931,11.014,11.014,11.014    h61.821c6.083,0,11.014,4.931,11.014,11.013v61.823c0,6.083,4.931,11.014,11.014,11.014h22.238    c27.535-38.396,43.752-85.458,43.752-136.31c0-129.327-104.84-234.167-234.167-234.167c-45.252,0-87.497,12.849-123.311,35.079    h17.912C150.684,50.912,155.615,55.843,155.615,61.925z"/>
	</g>
</g>
<g>
	<g>
		<g>
			<path class="st0" d="M448.61,449.088h-93.211c-6.083,0-11.014-4.931-11.014-11.014v-61.822c0-6.083-4.931-11.014-11.014-11.014     h-61.822c-6.083,0-11.014-4.931-11.014-11.014v-61.822c0-6.083-4.931-11.014-11.014-11.014H187.7     c-6.083,0-11.014-4.931-11.014-11.014v-61.822c0-6.083-4.931-11.014-11.014-11.014h-61.822c-6.083,0-11.014-4.931-11.014-11.014     v-61.822c0-6.083-4.931-11.014-11.014-11.014H51.39c-6.083,0-11.014-4.931-11.014-11.014V61.925     c0-6.083,4.931-11.014,11.014-11.014h93.211c6.083,0,11.014,4.931,11.014,11.014v61.822c0,6.083,4.931,11.014,11.014,11.014     h61.822c6.083,0,11.014,4.931,11.014,11.014v61.822c0,6.083,4.931,11.014,11.014,11.014H312.3     c6.083,0,11.014,4.931,11.014,11.014v61.822c0,6.083,4.931,11.014,11.014,11.014h61.822c6.083,0,11.014,4.931,11.014,11.014     v61.822c0,6.083,4.931,11.014,11.014,11.014h30.433c6.083,0,11.014,4.931,11.014,11.014v40.751     C459.623,444.157,454.692,449.088,448.61,449.088z"/>
		</g>
	</g>
</g>
<path class="st4" d="M420.414,15.833c0-2.762,2.239-5,5-5h5.833V5c0-2.762,2.239-5,5-5s5,2.238,5,5v5.833h5.833c2.761,0,5,2.238,5,5  s-2.239,5-5,5h-5.833v5.833c0,2.762-2.239,5-5,5s-5-2.238-5-5v-5.833h-5.833C422.653,20.833,420.414,18.595,420.414,15.833z   M74.586,479.167h-5.833v-5.833c0-2.762-2.239-5-5-5s-5,2.238-5,5v5.833H52.92c-2.761,0-5,2.238-5,5s2.239,5,5,5h5.833V495  c0,2.762,2.239,5,5,5s5-2.238,5-5v-5.833h5.833c2.761,0,5-2.238,5-5S77.347,479.167,74.586,479.167z M464.624,397.323v40.751  c0,8.83-7.184,16.014-16.014,16.014h-93.211c-8.83,0-16.014-7.184-16.014-16.014v-61.822c0-3.316-2.698-6.014-6.014-6.014h-61.822  c-8.83,0-16.014-7.184-16.014-16.014v-61.821c0-3.316-2.698-6.015-6.014-6.015H187.7c-8.83,0-16.014-7.184-16.014-16.014v-61.821  c0-3.316-2.698-6.014-6.014-6.014h-61.822c-8.83,0-16.014-7.185-16.014-16.015v-61.821c0-3.316-2.698-6.014-6.014-6.014H51.39  c-8.83,0-16.014-7.184-16.014-16.014V61.926c0-8.83,7.184-16.014,16.014-16.014h93.211c8.83,0,16.014,7.184,16.014,16.014v61.822  c0,3.316,2.698,6.014,6.014,6.014h61.822c8.83,0,16.014,7.184,16.014,16.014v61.821c0,3.316,2.698,6.015,6.014,6.015H312.3  c8.83,0,16.014,7.184,16.014,16.014v61.821c0,3.316,2.698,6.014,6.014,6.014h61.822c8.83,0,16.014,7.185,16.014,16.015v61.821  c0,3.316,2.698,6.014,6.014,6.014h30.433C457.44,381.31,464.624,388.493,464.624,397.323z M454.624,397.323  c0-3.316-2.698-6.014-6.014-6.014h-30.433c-8.83,0-16.014-7.184-16.014-16.014v-61.821c0-3.316-2.698-6.015-6.014-6.015h-61.822  c-8.83,0-16.014-7.184-16.014-16.014v-61.821c0-3.316-2.698-6.014-6.014-6.014h-61.822c-8.83,0-16.014-7.185-16.014-16.015v-61.821  c0-3.316-2.698-6.014-6.014-6.014h-61.822c-8.83,0-16.014-7.184-16.014-16.014V61.926c0-3.316-2.698-6.014-6.014-6.014H51.39  c-3.316,0-6.014,2.697-6.014,6.014v40.751c0,3.316,2.698,6.014,6.014,6.014h30.433c8.83,0,16.014,7.184,16.014,16.014v61.821  c0,3.316,2.698,6.015,6.014,6.015h61.822c8.83,0,16.014,7.184,16.014,16.014v61.821c0,3.316,2.698,6.014,6.014,6.014h61.822  c8.83,0,16.014,7.185,16.014,16.015v61.821c0,3.316,2.698,6.014,6.014,6.014h61.822c8.83,0,16.014,7.184,16.014,16.014v61.822  c0,3.316,2.698,6.014,6.014,6.014h93.211c3.316,0,6.014-2.697,6.014-6.014V397.323z M339.626,460.966  c-28.377,12.077-58.532,18.201-89.626,18.201C123.637,479.167,20.833,376.363,20.833,250c0-33.782,7.182-66.314,21.345-96.695  c1.167-2.502,0.084-5.478-2.419-6.645c-2.505-1.166-5.478-0.083-6.645,2.42C18.33,180.793,10.833,214.747,10.833,250  c0,63.884,24.877,123.944,70.05,169.116c45.172,45.173,105.233,70.051,169.117,70.051c32.448,0,63.92-6.393,93.542-19  c2.541-1.081,3.724-4.018,2.643-6.559C345.104,461.066,342.167,459.883,339.626,460.966z M43.854,138.73  c0.781,0.444,1.63,0.655,2.469,0.655c1.738,0,3.428-0.908,4.35-2.527c0.618-1.085,1.243-2.163,1.877-3.236  c1.406-2.377,0.618-5.443-1.759-6.849c-2.379-1.408-5.444-0.617-6.849,1.759c-0.663,1.12-1.316,2.247-1.96,3.379  C40.616,134.312,41.454,137.364,43.854,138.73z M419.117,80.883C373.944,35.711,313.884,10.833,250,10.833  c-32.215,0-63.479,6.305-92.922,18.737c-2.544,1.074-3.735,4.008-2.661,6.552s4.006,3.73,6.551,2.661  c28.207-11.911,58.162-17.95,89.033-17.95c126.363,0,229.167,102.804,229.167,229.167c0,34.173-7.342,67.05-21.824,97.717  c-1.179,2.497-0.11,5.477,2.387,6.656c0.689,0.325,1.416,0.479,2.131,0.479c1.874,0,3.671-1.059,4.525-2.866  c15.116-32.012,22.781-66.325,22.781-101.986C489.167,186.116,464.289,126.056,419.117,80.883z M451.004,375.178  c1.7,0,3.357-0.867,4.294-2.432c0.566-0.944,1.126-1.894,1.68-2.847c1.387-2.388,0.577-5.447-1.811-6.835  c-2.389-1.388-5.448-0.577-6.835,1.812c-0.531,0.914-1.068,1.824-1.611,2.731c-1.419,2.368-0.649,5.439,1.719,6.858  C449.244,374.948,450.129,375.178,451.004,375.178z"/>
</svg>
