<?xml version="1.0" encoding="utf-8"?>
<!-- Generator: Adobe Illustrator 22.0.0, SVG Export Plug-In . SVG Version: 6.00 Build 0)  -->
<svg xmlns="http://www.w3.org/2000/svg" xmlns:xlink="http://www.w3.org/1999/xlink" version="1.1" id="Layer_1" x="0px" y="0px" viewBox="0 0 500 500" style="enable-background:new 0 0 500 500;" xml:space="preserve" width="512" height="512">
<style type="text/css">
	.st0{fill:#83E1E5;}
	.st1{fill:#AAB1BA;}
	.st2{fill:#ECF4F7;}
	.st3{fill:#FDDF7F;}
	.st4{fill:#1C1D21;}
	.st5{fill:#FFFFFF;}
</style>
<g>
	<g>
		<path class="st3" d="M167.931,53.314c0-4.03,3.278-7.308,7.308-7.308h123.934c4.03,0,7.308,3.278,7.308,7.308v52.803h30.174    V53.314c0-20.667-16.814-37.481-37.481-37.481H175.239c-20.667,0-37.481,16.814-37.481,37.481v52.803h30.174V53.314z"/>
	</g>
</g>
<g>
	<g>
		<path class="st1" d="M266.437,322.433h18.32c31.645,0,57.298-25.653,57.298-57.298v-79.513h10.836    c17.805,0,32.239,14.434,32.239,32.239v47.41c0,12.418,10.067,22.486,22.486,22.486l61.797,0v-166.51    c0-8.356-6.774-15.13-15.13-15.13H20.13c-8.356,0-15.13,6.774-15.13,15.13v248.845c0,8.356,6.774,15.13,15.13,15.13h186.233    v-62.788H266.437z"/>
	</g>
</g>
<g>
	<g>
		<rect x="206.362" y="322.433" class="st0" width="60.075" height="97.581"/>
	</g>
</g>
<g>
	<g>
		<path class="st3" d="M495,304.289L495,304.289c0-9.13-7.402-16.532-16.532-16.532l-70.852,0    c-12.419,0-22.486-10.067-22.486-22.486v-47.41c0-17.805-14.434-32.239-32.239-32.239h-10.837v79.513    c0,31.645-25.653,57.298-57.298,57.298h-18.32v97.581h173.497h38.534c9.13,0,16.532-7.402,16.532-16.532    c0-9.13-7.402-16.532-16.532-16.532c9.13,0,16.532-7.402,16.532-16.532c0-9.13-7.402-16.532-16.532-16.532    c9.13,0,16.532-7.402,16.532-16.532v0c0-9.13-7.402-16.532-16.532-16.532C487.598,320.821,495,313.419,495,304.289z"/>
	</g>
</g>
<g>
	<g>
		<circle class="st3" cx="237.206" cy="216.822" r="25.61"/>
	</g>
</g>
<path class="st4" d="M453.58,15.833c0-2.761,2.239-5,5-5h5.833V5c0-2.761,2.239-5,5-5s5,2.239,5,5v5.833h5.833c2.761,0,5,2.239,5,5  s-2.239,5-5,5h-5.833v5.833c0,2.761-2.239,5-5,5s-5-2.239-5-5v-5.833h-5.833C455.818,20.833,453.58,18.594,453.58,15.833z   M217.195,479.167h-5.833v-5.833c0-2.761-2.239-5-5-5s-5,2.239-5,5v5.833h-5.833c-2.761,0-5,2.239-5,5s2.239,5,5,5h5.833V495  c0,2.761,2.239,5,5,5s5-2.239,5-5v-5.833h5.833c2.761,0,5-2.239,5-5S219.956,479.167,217.195,479.167z M492.241,353.885  c4.737,3.953,7.759,9.895,7.759,16.532s-3.022,12.579-7.759,16.532c4.737,3.953,7.759,9.895,7.759,16.532  c0,8.675-5.167,16.149-12.576,19.556c-0.914,1.194-2.338,1.976-3.958,1.976h-4.999h-38.534H211.362v9.458c0,2.761-2.239,5-5,5  s-5-2.239-5-5V299.89c0-2.761,2.239-5,5-5s5,2.239,5,5v17.544h73.395c28.837,0,52.298-23.461,52.298-52.298v-43.313H267.4  c-2.395,14.507-15.02,25.609-30.194,25.609s-27.8-11.102-30.194-25.609H46.442c-14.763,0-27.929-6.933-36.442-17.704v165.974  c0,5.585,4.544,10.129,10.129,10.129h167.736c2.761,0,5,2.239,5,5s-2.239,5-5,5H20.129C9.03,390.221,0,381.191,0,370.092V175.38  v-54.134c0-11.099,9.03-20.129,20.129-20.129h434.153c2.081,0,4.09,0.317,5.979,0.906c1.466,0.457,2.849,1.094,4.151,1.857v-38.04  c0-2.761,2.239-5,5-5s5,2.239,5,5v55.406v26.375v27.758c0,0.006,0,0.013,0,0.019V267c0,2.761-2.239,5-5,5s-5-2.239-5-5v-62.881  c-8.513,10.771-21.679,17.704-36.441,17.704H390.13v41.688v1.761c0,9.642,7.844,17.485,17.486,17.485h31.379  c0.109,0,0.21,0.025,0.318,0.032c0.208-0.006,0.412-0.031,0.622-0.031h38.534c11.873,0,21.532,9.659,21.532,21.532  c0,6.637-3.022,12.579-7.759,16.532c4.737,3.953,7.759,9.895,7.759,16.532S496.978,349.932,492.241,353.885z M478.468,292.757  h-38.534c-0.954,0-1.875,0.129-2.762,0.348c-0.013,0.003-0.024,0.01-0.037,0.013c-1.241,0.31-2.39,0.817-3.422,1.476  c-0.041,0.026-0.084,0.049-0.124,0.075c-0.144,0.095-0.28,0.199-0.419,0.3c-0.152,0.111-0.306,0.22-0.452,0.338  c-0.104,0.083-0.203,0.171-0.303,0.257c-0.174,0.15-0.345,0.303-0.51,0.463c-0.078,0.076-0.155,0.153-0.231,0.231  c-0.181,0.187-0.356,0.379-0.525,0.578c-0.055,0.064-0.111,0.128-0.165,0.194c-0.195,0.24-0.38,0.488-0.556,0.743  c-0.022,0.031-0.046,0.062-0.067,0.093c-0.396,0.589-0.738,1.217-1.022,1.875c-0.036,0.083-0.066,0.168-0.1,0.252  c-0.096,0.239-0.186,0.48-0.266,0.726c-0.037,0.115-0.072,0.232-0.105,0.348c-0.065,0.224-0.124,0.451-0.176,0.681  c-0.028,0.125-0.057,0.251-0.081,0.377c-0.046,0.24-0.081,0.483-0.111,0.728c-0.014,0.115-0.033,0.228-0.044,0.344  c-0.034,0.36-0.055,0.723-0.055,1.091c0,6.359,5.173,11.532,11.532,11.532h38.534c6.359,0,11.532-5.173,11.532-11.532  C490,297.93,484.827,292.757,478.468,292.757z M257.815,216.822c0-11.364-9.245-20.609-20.609-20.609s-20.609,9.245-20.609,20.609  s9.245,20.609,20.609,20.609S257.815,228.187,257.815,216.822z M337.055,211.822v-26.2c0-2.761,2.239-5,5-5h10.836  c18.477,0,33.847,13.529,36.742,31.2h38.338c20.088,0,36.431-16.337,36.441-36.423v-54.153c0-4.538-3-8.389-7.12-9.673  c-0.951-0.296-1.962-0.456-3.009-0.456H20.129c-5.585,0-10.129,4.544-10.129,10.129v54.134c0,20.094,16.348,36.442,36.442,36.442  h160.57c2.395-14.507,15.02-25.609,30.194-25.609s27.8,11.102,30.194,25.609H337.055z M248.029,327.434v87.581h13.408v-87.581  H248.029z M211.362,415.014h26.667v-87.581h-26.667V415.014z M421.757,415.014c-0.262-0.412-0.51-0.834-0.745-1.264  c-0.003-0.005-0.006-0.01-0.009-0.015c-0.296-0.543-0.56-1.105-0.808-1.676c-0.07-0.161-0.135-0.323-0.202-0.486  c-0.188-0.462-0.36-0.932-0.517-1.409c-0.044-0.135-0.094-0.268-0.135-0.404c-0.183-0.598-0.34-1.207-0.47-1.825  c-0.029-0.139-0.05-0.281-0.077-0.42c-0.096-0.503-0.173-1.011-0.234-1.526c-0.021-0.18-0.042-0.359-0.059-0.541  c-0.059-0.648-0.1-1.302-0.1-1.966c0-0.686,0.04-1.362,0.103-2.031c0.008-0.084,0.013-0.169,0.022-0.252  c0.067-0.633,0.166-1.257,0.287-1.873c0.021-0.108,0.042-0.217,0.065-0.325c0.128-0.604,0.281-1.199,0.46-1.784  c0.031-0.102,0.065-0.202,0.097-0.303c0.19-0.592,0.401-1.175,0.639-1.744c0.027-0.065,0.058-0.128,0.086-0.193  c0.248-0.574,0.517-1.136,0.812-1.683c0.015-0.029,0.029-0.059,0.045-0.087c0.301-0.551,0.63-1.084,0.976-1.604  c0.051-0.077,0.1-0.156,0.153-0.232c0.339-0.496,0.699-0.975,1.077-1.44c0.07-0.085,0.139-0.171,0.21-0.255  c0.383-0.457,0.784-0.899,1.203-1.323c0.07-0.07,0.141-0.138,0.212-0.208c0.42-0.414,0.852-0.815,1.305-1.193  c-0.453-0.378-0.885-0.78-1.305-1.193c-0.071-0.069-0.142-0.137-0.212-0.208c-0.419-0.424-0.82-0.866-1.203-1.323  c-0.071-0.084-0.141-0.17-0.21-0.255c-0.378-0.465-0.739-0.944-1.077-1.44c-0.052-0.076-0.101-0.155-0.153-0.232  c-0.346-0.521-0.675-1.053-0.976-1.604c-0.016-0.029-0.029-0.059-0.045-0.087c-0.295-0.547-0.564-1.109-0.812-1.683  c-0.028-0.065-0.059-0.128-0.086-0.193c-0.239-0.569-0.449-1.152-0.639-1.744c-0.032-0.101-0.066-0.202-0.097-0.303  c-0.178-0.584-0.331-1.179-0.46-1.784c-0.023-0.108-0.044-0.216-0.065-0.325c-0.121-0.616-0.22-1.24-0.287-1.873  c-0.009-0.084-0.014-0.168-0.022-0.252c-0.063-0.67-0.103-1.346-0.103-2.031s0.04-1.362,0.103-2.031  c0.008-0.084,0.013-0.169,0.022-0.252c0.067-0.633,0.166-1.257,0.287-1.873c0.021-0.108,0.042-0.217,0.065-0.325  c0.128-0.604,0.281-1.199,0.46-1.784c0.031-0.102,0.065-0.202,0.097-0.303c0.19-0.592,0.401-1.175,0.639-1.744  c0.027-0.065,0.058-0.128,0.086-0.193c0.248-0.574,0.517-1.136,0.812-1.683c0.015-0.029,0.029-0.059,0.045-0.087  c0.301-0.551,0.63-1.084,0.976-1.604c0.051-0.077,0.1-0.156,0.153-0.232c0.339-0.496,0.699-0.975,1.077-1.44  c0.07-0.085,0.139-0.171,0.21-0.255c0.383-0.457,0.784-0.899,1.203-1.323c0.07-0.07,0.141-0.138,0.212-0.208  c0.42-0.414,0.852-0.815,1.305-1.193c-0.453-0.378-0.885-0.78-1.305-1.193c-0.071-0.069-0.142-0.137-0.212-0.208  c-0.419-0.424-0.82-0.866-1.203-1.323c-0.071-0.084-0.141-0.17-0.21-0.255c-0.378-0.465-0.739-0.944-1.077-1.44  c-0.052-0.076-0.101-0.155-0.153-0.232c-0.346-0.521-0.675-1.053-0.976-1.604c-0.016-0.029-0.029-0.059-0.045-0.087  c-0.295-0.547-0.564-1.109-0.812-1.683c-0.028-0.065-0.059-0.128-0.086-0.193c-0.239-0.569-0.449-1.152-0.639-1.744  c-0.032-0.101-0.066-0.202-0.097-0.303c-0.178-0.584-0.331-1.179-0.46-1.784c-0.023-0.108-0.044-0.216-0.065-0.325  c-0.121-0.616-0.22-1.24-0.287-1.873c-0.009-0.084-0.014-0.168-0.022-0.252c-0.063-0.67-0.103-1.346-0.103-2.031  s0.04-1.362,0.103-2.031c0.008-0.084,0.013-0.169,0.022-0.252c0.067-0.633,0.166-1.257,0.287-1.873  c0.021-0.108,0.042-0.217,0.065-0.325c0.128-0.604,0.281-1.199,0.46-1.784c0.031-0.102,0.065-0.202,0.097-0.303  c0.19-0.592,0.401-1.175,0.639-1.744c0.027-0.065,0.058-0.128,0.086-0.193c0.248-0.574,0.517-1.136,0.812-1.683  c0.015-0.029,0.029-0.059,0.045-0.087c0.301-0.551,0.63-1.084,0.976-1.604c0.051-0.077,0.1-0.156,0.153-0.232  c0.339-0.496,0.699-0.975,1.077-1.44c0.07-0.085,0.139-0.171,0.21-0.255c0.383-0.457,0.784-0.899,1.203-1.323  c0.07-0.07,0.141-0.138,0.212-0.208c0.42-0.414,0.852-0.815,1.305-1.193c-0.453-0.378-0.885-0.781-1.306-1.194  c-0.07-0.069-0.141-0.136-0.21-0.206c-0.42-0.425-0.822-0.868-1.206-1.326c-0.07-0.083-0.138-0.167-0.207-0.251  c-0.379-0.467-0.741-0.947-1.08-1.444c-0.051-0.075-0.099-0.152-0.149-0.227c-0.347-0.522-0.677-1.056-0.979-1.609  c-0.015-0.027-0.028-0.055-0.042-0.082c-0.297-0.549-0.567-1.114-0.816-1.691c-0.027-0.063-0.057-0.125-0.084-0.188  c-0.239-0.57-0.45-1.154-0.64-1.747c-0.032-0.1-0.065-0.2-0.096-0.301c-0.178-0.585-0.332-1.181-0.46-1.786  c-0.023-0.107-0.043-0.215-0.064-0.322c-0.121-0.617-0.22-1.241-0.287-1.875c-0.009-0.083-0.014-0.167-0.021-0.251  c-0.063-0.67-0.103-1.346-0.103-2.032v0c0,0,0,0,0,0c0,0,0-0.001,0-0.001c0-0.662,0.041-1.315,0.1-1.964  c0.016-0.179,0.037-0.356,0.058-0.533c0.061-0.529,0.141-1.052,0.24-1.569c0.023-0.121,0.041-0.245,0.066-0.365  c0.133-0.634,0.295-1.258,0.483-1.872c0.03-0.098,0.065-0.194,0.097-0.291c0.175-0.544,0.371-1.078,0.588-1.603  c0.04-0.096,0.078-0.194,0.119-0.29c0.454-1.058,0.981-2.079,1.594-3.044h-14.13c-6.636,0-12.731-2.365-17.486-6.295v4.46  c0,21.657-8.434,42.017-23.747,57.33c-0.977,0.976-2.256,1.464-3.536,1.464c-1.28,0-2.559-0.488-3.536-1.464  c-1.953-1.953-1.953-5.119,0-7.071c13.425-13.424,20.818-31.273,20.818-50.259v-25.65v-1.761v-45.648  c0-15.02-12.219-27.239-27.239-27.239h-5.836v74.513c0,34.352-27.947,62.298-62.298,62.298h-13.32v87.581H421.757z M478.468,391.95  h-38.534c-6.359,0-11.532,5.173-11.532,11.532s5.173,11.532,11.532,11.532h38.534c6.359,0,11.532-5.173,11.532-11.532  S484.827,391.95,478.468,391.95z M478.468,358.885h-38.534c-6.359,0-11.532,5.173-11.532,11.532s5.173,11.532,11.532,11.532h38.534  c6.359,0,11.532-5.173,11.532-11.532S484.827,358.885,478.468,358.885z M478.468,348.885c6.359,0,11.532-5.173,11.532-11.532  s-5.173-11.532-11.532-11.532h-38.534c-6.359,0-11.532,5.173-11.532,11.532s5.173,11.532,11.532,11.532H478.468z M206.362,461.058  c2.761,0,5-2.239,5-5v-4.073c0-2.761-2.239-5-5-5s-5,2.239-5,5v4.073C201.362,458.819,203.601,461.058,206.362,461.058z   M137.758,94.294c2.761,0,5-2.239,5-5v-35.98c0-17.91,14.571-32.481,32.481-32.481h123.934c17.91,0,32.481,14.571,32.481,32.481  v35.98c0,2.761,2.239,5,5,5s5-2.239,5-5v-35.98c0-23.424-19.057-42.481-42.481-42.481H175.239  c-23.424,0-42.481,19.057-42.481,42.481v35.98C132.758,92.056,134.997,94.294,137.758,94.294z M306.481,94.294c2.761,0,5-2.239,5-5  v-35.98c0-6.787-5.521-12.308-12.308-12.308H175.239c-6.787,0-12.308,5.521-12.308,12.308v35.98c0,2.761,2.239,5,5,5s5-2.239,5-5  v-35.98c0-1.272,1.036-2.308,2.308-2.308h123.934c1.272,0,2.308,1.035,2.308,2.308v35.98  C301.481,92.056,303.72,94.294,306.481,94.294z M469.413,40.544c-2.761,0-5,2.239-5,5v3.271c0,2.761,2.239,5,5,5s5-2.239,5-5v-3.271  C474.413,42.783,472.174,40.544,469.413,40.544z"/>
</svg>
