<?xml version="1.0" encoding="utf-8"?>
<!-- Generator: Adobe Illustrator 22.0.0, SVG Export Plug-In . SVG Version: 6.00 Build 0)  -->
<svg xmlns="http://www.w3.org/2000/svg" xmlns:xlink="http://www.w3.org/1999/xlink" version="1.1" id="Layer_1" x="0px" y="0px" viewBox="0 0 500 500" style="enable-background:new 0 0 500 500;" xml:space="preserve" width="512" height="512">
<style type="text/css">
	.st0{fill:#83E1E5;}
	.st1{fill:#AAB1BA;}
	.st2{fill:#ECF4F7;}
	.st3{fill:#FDDF7F;}
	.st4{fill:#1C1D21;}
	.st5{fill:#FFFFFF;}
</style>
<g>
	<path class="st0" d="M231.223,182.675c0-16.702,4.77-32.282,13-45.481c-0.567-0.113-1.153-0.174-1.753-0.174h-25.388   c-4.966,0-8.992,4.026-8.992,8.992v19.701c-13.376,2.761-25.834,8.03-36.869,15.287l-13.941-13.942   c-3.512-3.512-9.205-3.512-12.717,0l-17.952,17.952c-3.512,3.512-3.512,9.205,0,12.716l13.941,13.942   c-7.257,11.035-12.526,23.492-15.287,36.869h-19.701c-4.966,0-8.992,4.026-8.992,8.992v25.388c0,4.967,4.026,8.992,8.992,8.992   h19.701c2.761,13.377,8.03,25.835,15.287,36.869l-13.941,13.942c-3.512,3.512-3.512,9.206,0,12.717l17.952,17.952   c3.512,3.511,9.205,3.511,12.717,0l13.941-13.942c11.035,7.256,23.493,12.525,36.869,15.286v19.701   c0,4.967,4.026,8.992,8.992,8.992h25.388c4.966,0,8.992-4.026,8.992-8.992v-19.701c13.377-2.761,25.834-8.03,36.869-15.286   l13.941,13.942c3.512,3.511,9.205,3.511,12.717,0l17.952-17.952c3.512-3.512,3.512-9.206,0-12.717l-13.941-13.942   c7.257-11.034,12.526-23.492,15.287-36.869h19.701c4.966,0,8.992-4.026,8.992-8.992V257.53c0-0.6-0.062-1.186-0.174-1.753   c-13.2,8.23-28.78,13-45.481,13C269.773,268.776,231.223,230.227,231.223,182.675z"/>
</g>
<g>
	<path class="st2" d="M317.326,96.572c-47.553,0-86.103,38.549-86.103,86.102c0,5.63,0.557,11.126,1.589,16.454   c0-0.001,0-0.002-0.001-0.003c-1.008-0.042-2.018-0.077-3.036-0.077c-39.309,0-71.176,31.866-71.176,71.176   s31.866,71.176,71.176,71.176c39.309,0,71.176-31.866,71.176-71.176c0-1.018-0.034-2.027-0.077-3.035   c5.327,1.031,10.823,1.588,16.451,1.588c47.553,0,86.102-38.549,86.102-86.103C403.428,135.121,364.879,96.572,317.326,96.572z"/>
</g>
<g>
	<path class="st3" d="M266.545,24.003L245.01,6.384c-1.832-1.498-4.364-1.808-6.503-0.794c-2.139,1.014-3.503,3.169-3.503,5.536   v5.606C178.21,20.305,125.307,44.113,84.71,84.71C40.56,128.861,16.245,187.562,16.245,250h25   c0-110.065,85.625-200.499,193.76-208.212v4.575c0,2.367,1.364,4.522,3.503,5.536c2.139,1.014,4.671,0.705,6.503-0.794   l21.535-17.618c1.422-1.164,2.247-2.904,2.247-4.742C268.792,26.907,267.968,25.166,266.545,24.003z"/>
</g>
<g>
	<path class="st3" d="M233.455,475.997l21.535,17.618c1.832,1.498,4.364,1.808,6.503,0.794c2.139-1.014,3.503-3.169,3.503-5.536   v-5.606c56.795-3.572,109.698-27.381,150.295-67.978c44.15-44.151,68.465-102.852,68.465-165.29h-25   c0,110.065-85.625,200.499-193.76,208.212v-4.575c0-2.367-1.364-4.522-3.503-5.536c-2.139-1.014-4.671-0.705-6.503,0.794   l-21.535,17.618c-1.422,1.164-2.247,2.904-2.247,4.742C231.208,473.093,232.032,474.834,233.455,475.997z"/>
</g>
<g>
	<path class="st3" d="M378.814,188.534v-11.719c0-2.292-1.858-4.151-4.151-4.151h-13.996c-1.121-4.874-3.039-9.441-5.616-13.557   l9.897-9.897c1.621-1.621,1.621-4.249,0-5.87l-8.287-8.287c-1.621-1.621-4.249-1.621-5.87,0l-9.897,9.897   c-4.116-2.577-8.683-4.495-13.557-5.616v-13.996c0-2.292-1.858-4.151-4.151-4.151h-11.719c-2.292,0-4.151,1.858-4.151,4.151v13.996   c-4.874,1.121-9.441,3.039-13.557,5.616l-9.897-9.897c-1.621-1.621-4.249-1.621-5.87,0l-8.287,8.287   c-1.621,1.621-1.621,4.249,0,5.87l9.897,9.897c-2.577,4.116-4.495,8.683-5.616,13.557h-13.996c-2.292,0-4.151,1.858-4.151,4.151   v11.719c0,2.292,1.858,4.151,4.151,4.151h13.996c1.121,4.874,3.039,9.441,5.616,13.557l-9.897,9.897   c-1.621,1.621-1.621,4.249,0,5.87l8.287,8.287c1.621,1.621,4.249,1.621,5.87,0l9.897-9.897c4.116,2.577,8.683,4.495,13.557,5.616   v13.996c0,2.292,1.858,4.151,4.151,4.151h11.719c2.292,0,4.151-1.858,4.151-4.151v-13.996c4.874-1.121,9.441-3.039,13.557-5.616   l9.897,9.897c1.621,1.621,4.249,1.621,5.87,0l8.287-8.287c1.621-1.621,1.621-4.249,0-5.87l-9.897-9.897   c2.577-4.116,4.495-8.683,5.616-13.557h13.996C376.956,192.685,378.814,190.826,378.814,188.534z"/>
</g>
<g>
	<circle class="st1" cx="317.326" cy="182.674" r="22.848"/>
</g>
<path class="st4" d="M488.755,250c0,63.772-24.835,123.729-69.93,168.825c-40.023,40.022-92.716,64.447-148.83,69.091v0.958  c0,4.275-2.497,8.222-6.361,10.054c-1.507,0.715-3.132,1.064-4.75,1.064c-2.53,0-5.042-0.854-7.061-2.507l-21.535-17.618  c-2.593-2.12-4.081-5.26-4.081-8.612c0-3.352,1.488-6.491,4.082-8.612l21.534-17.617c3.311-2.707,7.948-3.273,11.812-1.441  c3.602,1.705,6.017,5.252,6.327,9.19C373.453,442.659,453.755,354.608,453.755,250v-66.433c0-2.762,2.239-5,5-5s5,2.238,5,5V250  c0,54.329-20.484,106.146-57.678,145.904c-37.011,39.563-86.989,63.462-140.726,67.295c-1.381,0.107-2.748-0.382-3.763-1.328  c-1.016-0.946-1.593-2.271-1.593-3.659v-4.575c0-0.433-0.252-0.831-0.643-1.017c-0.393-0.185-0.862-0.129-1.197,0.146  l-21.536,17.618c-0.263,0.215-0.413,0.532-0.413,0.871c0,0.34,0.15,0.657,0.412,0.871l21.536,17.619  c0.335,0.273,0.803,0.332,1.194,0.146c0.393-0.187,0.646-0.585,0.646-1.018v-5.606c0-2.64,2.052-4.824,4.686-4.99  c55.429-3.486,107.661-27.111,147.073-66.522C454.96,368.548,478.755,311.102,478.755,250c0-2.762,2.239-5,5-5  S488.755,247.238,488.755,250z M235.319,21.723c2.634-0.166,4.686-2.351,4.686-4.99v-5.606c0-0.433,0.253-0.831,0.646-1.018  c0.39-0.185,0.858-0.128,1.194,0.146l21.536,17.619c0.262,0.214,0.412,0.531,0.412,0.871c0,0.339-0.15,0.656-0.413,0.871  l-21.535,17.618c-0.335,0.273-0.802,0.332-1.198,0.145c-0.39-0.185-0.642-0.583-0.642-1.016v-4.575c0-1.388-0.577-2.713-1.593-3.659  c-1.016-0.945-2.379-1.429-3.763-1.328c-53.737,3.833-103.714,27.732-140.726,67.295C56.729,143.854,36.245,195.671,36.245,250  v66.433c0,2.762,2.239,5,5,5s5-2.238,5-5V250c0-104.608,80.303-192.659,183.794-202.774c0.31,3.938,2.725,7.485,6.326,9.19  c3.863,1.831,8.5,1.268,11.812-1.441l21.534-17.617c2.594-2.122,4.082-5.261,4.082-8.612c0-3.353-1.488-6.491-4.081-8.612  L248.177,2.515c-3.312-2.71-7.949-3.276-11.81-1.442c-3.865,1.831-6.362,5.777-6.362,10.054v0.958  c-56.114,4.644-108.808,29.068-148.831,69.091C36.08,126.271,11.245,186.228,11.245,250c0,2.762,2.239,5,5,5s5-2.238,5-5  c0-61.102,23.795-118.548,67.001-161.755C127.658,48.834,179.889,25.209,235.319,21.723z M52.078,367.5h-5.833v-5.833  c0-2.762-2.239-5-5-5s-5,2.238-5,5v5.833h-5.833c-2.761,0-5,2.238-5,5s2.239,5,5,5h5.833v5.833c0,2.762,2.239,5,5,5s5-2.238,5-5  V377.5h5.833c2.761,0,5-2.238,5-5S54.839,367.5,52.078,367.5z M41.245,333.425c-2.761,0-5,2.238-5,5v4.213c0,2.762,2.239,5,5,5  s5-2.238,5-5v-4.213C46.245,335.663,44.006,333.425,41.245,333.425z M447.922,132.5h5.833v5.833c0,2.762,2.239,5,5,5s5-2.238,5-5  V132.5h5.833c2.761,0,5-2.238,5-5s-2.239-5-5-5h-5.833v-5.833c0-2.762-2.239-5-5-5s-5,2.238-5,5v5.833h-5.833c-2.761,0-5,2.238-5,5  S445.161,132.5,447.922,132.5z M458.755,152.362c-2.761,0-5,2.238-5,5v4.213c0,2.762,2.239,5,5,5s5-2.238,5-5v-4.213  C463.755,154.601,461.517,152.362,458.755,152.362z M317.326,91.571c50.234,0,91.102,40.868,91.102,91.103  s-40.868,91.103-91.102,91.103s-91.103-40.868-91.103-91.103S267.092,91.571,317.326,91.571z M236.224,182.674  c0,44.72,36.382,81.103,81.103,81.103c44.72,0,81.102-36.383,81.102-81.103s-36.382-81.103-81.102-81.103  C272.606,101.571,236.224,137.954,236.224,182.674z M217.547,205.175c2.714-0.507,4.504-3.118,3.997-5.833  c-0.507-2.715-3.122-4.498-5.833-3.997c-35.989,6.721-62.111,38.212-62.111,74.879c0,42.004,34.172,76.176,76.175,76.176  c35.888,0,67.249-25.461,74.569-60.541c0.564-2.703-1.17-5.352-3.873-5.916c-2.705-0.567-5.352,1.171-5.916,3.873  c-6.358,30.47-33.602,52.584-64.78,52.584c-36.489,0-66.175-29.687-66.175-66.176C163.601,238.369,186.289,211.013,217.547,205.175z   M256.462,394.437v-15.705c10.998-2.691,21.447-7.024,31.16-12.92l11.115,11.115c5.455,5.453,14.332,5.454,19.788-0.001  l17.952-17.952c2.643-2.643,4.099-6.156,4.099-9.895c0-3.737-1.456-7.251-4.098-9.894l-11.115-11.115  c5.896-9.711,10.229-20.161,12.922-31.16h15.704c7.715,0,13.992-6.277,13.992-13.992v-6.349c0-2.762-2.239-5-5-5s-5,2.238-5,5v6.349  c0,2.201-1.791,3.992-3.992,3.992h-19.701c-2.372,0-4.417,1.666-4.897,3.989c-2.591,12.555-7.493,24.375-14.568,35.133  c-1.303,1.981-1.035,4.605,0.642,6.282l13.941,13.941c0.754,0.755,1.169,1.757,1.169,2.823s-0.415,2.069-1.169,2.823l-17.952,17.952  c-1.557,1.557-4.09,1.556-5.646,0.001l-13.941-13.941c-1.678-1.679-4.302-1.946-6.283-0.643  c-10.759,7.074-22.58,11.976-35.133,14.566c-2.323,0.479-3.989,2.524-3.989,4.896v19.702c0,2.201-1.791,3.992-3.992,3.992h-25.388  c-2.201,0-3.992-1.791-3.992-3.992v-19.702c0-2.372-1.667-4.417-3.989-4.896c-12.553-2.591-24.374-7.492-35.133-14.566  c-1.981-1.303-4.604-1.035-6.283,0.643l-13.941,13.94c-1.557,1.557-4.09,1.556-5.646,0.001l-17.953-17.954  c-0.754-0.753-1.169-1.756-1.169-2.822s0.415-2.068,1.169-2.823l13.941-13.941c1.677-1.677,1.945-4.301,0.642-6.282  c-7.075-10.758-11.977-22.578-14.568-35.133c-0.479-2.323-2.525-3.989-4.897-3.989h-19.701c-2.201,0-3.992-1.791-3.992-3.992V257.53  c0-2.201,1.791-3.992,3.992-3.992h19.701c2.372,0,4.417-1.666,4.897-3.989c2.591-12.553,7.492-24.373,14.568-35.133  c1.303-1.981,1.035-4.605-0.642-6.282l-13.941-13.942c-0.754-0.755-1.169-1.757-1.169-2.822c0-1.066,0.415-2.068,1.169-2.823  l17.952-17.952c1.508-1.508,4.138-1.508,5.646,0l13.941,13.941c1.678,1.679,4.302,1.944,6.283,0.643  c10.76-7.076,22.581-11.978,35.133-14.568c2.323-0.479,3.989-2.524,3.989-4.896v-19.701c0-2.201,1.791-3.992,3.992-3.992h7.168  c2.761,0,5-2.238,5-5s-2.239-5-5-5h-7.168c-7.715,0-13.992,6.276-13.992,13.992v15.704c-10.998,2.691-21.447,7.025-31.16,12.922  l-11.115-11.114c-2.643-2.644-6.157-4.099-9.894-4.099s-7.251,1.455-9.894,4.099l-17.952,17.952  c-2.643,2.643-4.098,6.156-4.098,9.894c0,3.736,1.456,7.25,4.098,9.893l11.115,11.116c-5.896,9.712-10.229,20.162-12.922,31.16  h-15.704c-7.715,0-13.992,6.277-13.992,13.992v25.388c0,7.715,6.277,13.992,13.992,13.992h15.704  c2.692,10.999,7.026,21.449,12.922,31.16l-11.115,11.115c-2.643,2.643-4.098,6.156-4.098,9.894c0,3.738,1.456,7.252,4.098,9.894  l17.953,17.954c5.455,5.453,14.332,5.454,19.788-0.001l11.115-11.114c9.713,5.896,20.162,10.229,31.16,12.92v15.705  c0,7.715,6.277,13.992,13.992,13.992h25.388C250.186,408.429,256.462,402.151,256.462,394.437z M289.478,182.674  c0-15.355,12.493-27.848,27.848-27.848s27.848,12.492,27.848,27.848s-12.492,27.849-27.848,27.849S289.478,198.029,289.478,182.674z   M299.478,182.674c0,9.842,8.007,17.849,17.848,17.849s17.848-8.007,17.848-17.849c0-9.841-8.006-17.848-17.848-17.848  S299.478,172.833,299.478,182.674z M250.838,188.534v-11.72c0-5.046,4.105-9.151,9.151-9.151h10.183  c0.845-2.66,1.914-5.239,3.197-7.718l-7.201-7.201c-3.567-3.567-3.567-9.373,0-12.94l8.288-8.287c3.568-3.568,9.373-3.568,12.941,0  l7.201,7.201c2.479-1.284,5.058-2.353,7.718-3.197v-10.184c0-5.046,4.105-9.151,9.151-9.151h11.719c5.046,0,9.151,4.105,9.151,9.151  v10.184c2.661,0.845,5.24,1.913,7.718,3.197l7.201-7.201c3.568-3.568,9.373-3.568,12.941,0l8.287,8.287  c3.568,3.567,3.568,9.373,0,12.94l-7.201,7.201c1.284,2.479,2.352,5.058,3.197,7.718h10.183c5.046,0,9.151,4.105,9.151,9.151v11.72  c0,5.046-4.105,9.15-9.151,9.15H364.48c-0.845,2.66-1.914,5.239-3.197,7.718l7.201,7.2c3.568,3.568,3.568,9.375,0,12.942  l-8.288,8.287c-3.567,3.568-9.373,3.567-12.941-0.001l-7.201-7.2c-2.478,1.284-5.057,2.352-7.718,3.197v10.184  c0,5.046-4.105,9.15-9.151,9.15h-11.719c-5.046,0-9.151-4.104-9.151-9.15v-10.184c-2.661-0.846-5.24-1.913-7.718-3.197l-7.201,7.2  c-3.567,3.57-9.373,3.568-12.941,0l-8.287-8.285c-3.568-3.568-3.568-9.375,0-12.942l7.201-7.2c-1.284-2.479-2.352-5.059-3.197-7.719  h-10.183C254.943,197.685,250.838,193.58,250.838,188.534z M260.838,187.685h13.147c2.33,0,4.351,1.608,4.873,3.879  c0.982,4.269,2.658,8.313,4.981,12.025c1.236,1.975,0.945,4.542-0.702,6.188l-9.297,9.297l7.086,7.086l9.296-9.296  c1.647-1.647,4.215-1.938,6.189-0.703c3.709,2.322,7.755,3.999,12.026,4.982c2.27,0.522,3.878,2.543,3.878,4.872v13.146h10.021  v-13.146c0-2.329,1.608-4.35,3.878-4.872c4.271-0.983,8.316-2.66,12.026-4.982c1.975-1.234,4.541-0.945,6.189,0.703l9.296,9.296  l7.086-7.086l-9.297-9.296c-1.648-1.647-1.939-4.215-0.703-6.189c2.324-3.712,4-7.757,4.981-12.025  c0.522-2.271,2.543-3.879,4.873-3.879h13.147v-10.021h-13.147c-2.33,0-4.351-1.608-4.873-3.879  c-0.981-4.267-2.658-8.313-4.981-12.024c-1.236-1.975-0.945-4.541,0.702-6.188l9.297-9.297l-7.086-7.087l-9.296,9.297  c-1.647,1.647-4.215,1.938-6.189,0.703c-3.711-2.324-7.757-4-12.025-4.981c-2.271-0.522-3.879-2.543-3.879-4.873v-13.147h-10.021  v13.147c0,2.33-1.609,4.351-3.879,4.873c-4.268,0.981-8.313,2.657-12.025,4.981c-1.973,1.235-4.541,0.945-6.189-0.703l-9.296-9.297  l-7.086,7.087l9.297,9.297c1.647,1.647,1.938,4.214,0.702,6.188c-2.324,3.712-4,7.758-4.981,12.024  c-0.522,2.271-2.543,3.879-4.873,3.879h-13.147V187.685z"/>
</svg>
