<?xml version="1.0" encoding="utf-8"?>
<!-- Generator: Adobe Illustrator 22.0.0, SVG Export Plug-In . SVG Version: 6.00 Build 0)  -->
<svg xmlns="http://www.w3.org/2000/svg" xmlns:xlink="http://www.w3.org/1999/xlink" version="1.1" id="Layer_1" x="0px" y="0px" viewBox="0 0 500 500" style="enable-background:new 0 0 500 500;" xml:space="preserve" width="512" height="512">
<style type="text/css">
	.st0{fill:#83E1E5;}
	.st1{fill:#AAB1BA;}
	.st2{fill:#ECF4F7;}
	.st3{fill:#FDDF7F;}
	.st4{fill:#1C1D21;}
	.st5{fill:#FFFFFF;}
</style>
<g>
	<g>
		<path class="st1" d="M430.154,274.862h-14.023c-3.19,0-5.777-2.586-5.777-5.777v-38.171c0-3.19,2.586-5.777,5.777-5.777h14.023    c3.19,0,5.777,2.586,5.777,5.777v38.171C435.931,272.276,433.345,274.862,430.154,274.862z"/>
	</g>
</g>
<g>
	<g>
		<circle class="st1" cx="227.77" cy="250" r="163.701"/>
	</g>
</g>
<g>
	<g>
		<circle class="st2" cx="227.77" cy="250" r="138.768"/>
	</g>
</g>
<g>
	<g>
		<path class="st3" d="M285.582,65.5H169.958c-4.9,0-8.873-3.973-8.873-8.873V5h133.37v51.627    C294.455,61.527,290.483,65.5,285.582,65.5z"/>
	</g>
</g>
<g>
	<g>
		<path class="st3" d="M169.958,434.5h115.625c4.9,0,8.873,3.973,8.873,8.873V495h-133.37v-51.627    C161.085,438.473,165.058,434.5,169.958,434.5z"/>
	</g>
</g>
<g>
	<g>
		<circle class="st0" cx="227.77" cy="250" r="18.59"/>
	</g>
</g>
<path class="st4" d="M74.322,86.299c0-2.761,2.239-5,5-5h5.833v-5.833c0-2.761,2.239-5,5-5s5,2.239,5,5v5.833h5.833  c2.761,0,5,2.239,5,5s-2.239,5-5,5h-5.833v5.833c0,2.761-2.239,5-5,5s-5-2.239-5-5v-5.833h-5.833  C76.561,91.299,74.322,89.06,74.322,86.299z M376.219,408.701h-5.833v-5.833c0-2.762-2.239-5-5-5s-5,2.238-5,5v5.833h-5.833  c-2.761,0-5,2.238-5,5s2.239,5,5,5h5.833v5.833c0,2.762,2.239,5,5,5s5-2.238,5-5v-5.833h5.833c2.761,0,5-2.238,5-5  S378.98,408.701,376.219,408.701z M94.351,164.026c1.211-1.876,2.48-3.753,3.771-5.578c1.595-2.254,1.061-5.375-1.193-6.97  c-2.254-1.595-5.375-1.061-6.97,1.193c-1.373,1.94-2.722,3.936-4.01,5.93c-1.498,2.32-0.831,5.415,1.489,6.913  c0.838,0.542,1.778,0.8,2.707,0.8C91.787,166.314,93.395,165.507,94.351,164.026z M84.002,250  c0-79.274,64.494-143.768,143.768-143.768S371.538,170.726,371.538,250c0,79.273-64.494,143.768-143.768,143.768  S84.002,329.273,84.002,250z M94.002,250c0,73.76,60.008,133.768,133.768,133.768S361.538,323.76,361.538,250  S301.53,116.232,227.77,116.232S94.002,176.24,94.002,250z M204.18,250c0-11.292,7.977-20.751,18.59-23.051V165.83  c0-2.761,2.239-5,5-5s5,2.239,5,5v61.119c10.614,2.3,18.59,11.76,18.59,23.052c0,4.698-1.386,9.076-3.763,12.757l31.286,31.285  c1.953,1.952,1.953,5.118,0,7.07c-0.977,0.977-2.256,1.465-3.536,1.465s-2.559-0.488-3.536-1.465l-31.285-31.285  c-3.681,2.376-8.059,3.762-12.757,3.762C214.763,273.59,204.18,263.008,204.18,250z M214.18,250c0,7.493,6.096,13.59,13.59,13.59  s13.59-6.097,13.59-13.59c0-7.494-6.097-13.59-13.59-13.59S214.18,242.506,214.18,250z M227.77,141.959c2.761,0,5-2.239,5-5v-4.915  c0-2.761-2.239-5-5-5s-5,2.239-5,5v4.915C222.77,139.721,225.009,141.959,227.77,141.959z M227.77,358.041c-2.761,0-5,2.238-5,5  v4.914c0,2.762,2.239,5,5,5s5-2.238,5-5v-4.914C232.77,360.279,230.531,358.041,227.77,358.041z M307.702,175.068  c1.28,0,2.56-0.488,3.536-1.465l3.475-3.476c1.953-1.953,1.953-5.119,0-7.071c-1.952-1.953-5.119-1.953-7.071,0l-3.475,3.476  c-1.953,1.953-1.953,5.119,0,7.071C305.143,174.581,306.422,175.068,307.702,175.068z M144.363,338.407  c1.28,0,2.56-0.488,3.536-1.465l3.475-3.476c1.953-1.952,1.953-5.118,0-7.071c-1.952-1.951-5.119-1.952-7.071,0.001l-3.475,3.476  c-1.953,1.952-1.953,5.118,0,7.071C141.804,337.919,143.083,338.407,144.363,338.407z M340.811,255h4.915c2.761,0,5-2.238,5-5  c0-2.761-2.239-5-5-5h-4.915c-2.761,0-5,2.239-5,5C335.811,252.762,338.05,255,340.811,255z M109.815,255h4.915c2.761,0,5-2.238,5-5  c0-2.761-2.239-5-5-5h-4.915c-2.761,0-5,2.239-5,5C104.815,252.762,107.054,255,109.815,255z M307.642,336.942  c0.976,0.977,2.256,1.465,3.536,1.465c1.279,0,2.559-0.488,3.535-1.464c1.953-1.953,1.953-5.119,0-7.071l-3.475-3.476  c-1.952-1.952-5.118-1.952-7.071-0.001c-1.953,1.953-1.953,5.119,0,7.071L307.642,336.942z M144.303,173.604  c0.976,0.977,2.256,1.465,3.536,1.465c1.279,0,2.559-0.488,3.535-1.464c1.953-1.952,1.953-5.118,0-7.071l-3.475-3.476  c-1.952-1.952-5.118-1.953-7.071,0c-1.953,1.952-1.953,5.118,0,7.071L144.303,173.604z M440.931,230.915v38.17  c0,5.942-4.834,10.777-10.776,10.777h-14.023c-5.942,0-10.777-4.835-10.777-10.777V255h-8.963  c-1.671,57.094-31.847,107.156-76.759,136.428v43.111c0,8.568-6.972,15.54-15.541,15.54h-4.636V495c0,2.762-2.239,5-5,5  s-5-2.238-5-5v-48.902c-0.068-0.329-0.105-0.669-0.105-1.019s0.037-0.689,0.105-1.019v-0.688c0-2.136-1.737-3.873-3.873-3.873  H169.958c-2.136,0-3.873,1.737-3.873,3.873v0.688c0.068,0.329,0.105,0.669,0.105,1.019s-0.037,0.689-0.105,1.019V495  c0,2.762-2.239,5-5,5s-5-2.238-5-5v-44.921h-4.636c-8.569,0-15.541-6.972-15.541-15.54v-43.111  C89.689,361.305,59.069,309.165,59.069,250c0-26.496,5.969-51.86,17.741-75.388c1.236-2.47,4.24-3.471,6.709-2.234  c2.47,1.236,3.47,4.239,2.234,6.709C74.683,201.213,69.069,225.072,69.069,250c0,87.508,71.193,158.701,158.701,158.701  c87.508,0,158.701-71.193,158.701-158.701c0-87.508-71.193-158.701-158.701-158.701c-44.731,0-87.619,19.029-117.666,52.207  c-1.854,2.046-5.017,2.202-7.063,0.35c-2.047-1.854-2.203-5.016-0.35-7.063c9.88-10.91,21.07-20.376,33.216-28.254V65.461  c0-8.569,6.972-15.541,15.541-15.541h4.636V5c0-2.761,2.239-5,5-5s5,2.239,5,5v48.902c0.068,0.329,0.105,0.669,0.105,1.019  s-0.037,0.689-0.105,1.019v0.688c0,2.136,1.737,3.873,3.873,3.873h115.625c2.136,0,3.873-1.737,3.873-3.873v-0.688  c-0.068-0.329-0.105-0.669-0.105-1.019s0.037-0.689,0.105-1.019V5c0-2.761,2.239-5,5-5s5,2.239,5,5v44.921h4.636  c8.569,0,15.541,6.972,15.541,15.541v43.111c44.912,29.271,75.088,79.334,76.759,136.428h8.963v-14.085  c0-5.942,4.834-10.776,10.777-10.776h14.023C436.096,220.138,440.931,224.973,440.931,230.915z M227.77,81.299  c29.688,0,57.604,7.719,81.862,21.239V65.461c0-3.055-2.485-5.541-5.541-5.541h-5.048c-1.485,6.062-6.949,10.579-13.461,10.579  H169.958c-6.513,0-11.977-4.518-13.461-10.579h-5.048c-3.055,0-5.541,2.485-5.541,5.541v37.082  C170.727,88.776,198.883,81.299,227.77,81.299z M309.632,397.462c-24.259,13.521-52.174,21.239-81.862,21.239  c-29.688,0-57.603-7.719-81.862-21.239v37.077c0,3.055,2.485,5.54,5.541,5.54h5.048c1.485-6.062,6.949-10.579,13.461-10.579h115.625  c6.513,0,11.977,4.518,13.461,10.579h5.048c3.055,0,5.541-2.485,5.541-5.54V397.462z M415.354,245h15.576v-14.085  c0-0.428-0.348-0.776-0.776-0.776h-14.023c-0.428,0-0.777,0.348-0.777,0.776V245z M430.931,269.085V255h-15.576v14.085  c0,0.429,0.349,0.777,0.777,0.777h14.023C430.583,269.862,430.931,269.514,430.931,269.085z M179.442,13.339c2.761,0,5-2.239,5-5V5  c0-2.761-2.239-5-5-5s-5,2.239-5,5v3.339C174.442,11.101,176.681,13.339,179.442,13.339z M179.442,32.181c2.761,0,5-2.239,5-5  v-3.339c0-2.761-2.239-5-5-5s-5,2.239-5,5v3.339C174.442,29.942,176.681,32.181,179.442,32.181z M179.442,51.022  c2.761,0,5-2.239,5-5v-3.339c0-2.761-2.239-5-5-5s-5,2.239-5,5v3.339C174.442,48.783,176.681,51.022,179.442,51.022z   M276.098,13.339c2.761,0,5-2.239,5-5V5c0-2.761-2.239-5-5-5s-5,2.239-5,5v3.339C271.098,11.101,273.336,13.339,276.098,13.339z   M276.098,32.181c2.761,0,5-2.239,5-5v-3.339c0-2.761-2.239-5-5-5s-5,2.239-5,5v3.339C271.098,29.942,273.336,32.181,276.098,32.181  z M276.098,51.022c2.761,0,5-2.239,5-5v-3.339c0-2.761-2.239-5-5-5s-5,2.239-5,5v3.339  C271.098,48.783,273.336,51.022,276.098,51.022z M179.442,448.978c-2.761,0-5,2.238-5,5v3.34c0,2.762,2.239,5,5,5s5-2.238,5-5v-3.34  C184.442,451.216,182.204,448.978,179.442,448.978z M179.442,467.819c-2.761,0-5,2.238-5,5v3.339c0,2.762,2.239,5,5,5s5-2.238,5-5  v-3.339C184.442,470.058,182.204,467.819,179.442,467.819z M179.442,486.66c-2.761,0-5,2.238-5,5V495c0,2.762,2.239,5,5,5  s5-2.238,5-5v-3.34C184.442,488.898,182.204,486.66,179.442,486.66z M276.098,448.978c-2.761,0-5,2.238-5,5v3.34  c0,2.762,2.239,5,5,5s5-2.238,5-5v-3.34C281.098,451.216,278.859,448.978,276.098,448.978z M276.098,467.819c-2.761,0-5,2.238-5,5  v3.339c0,2.762,2.239,5,5,5s5-2.238,5-5v-3.339C281.098,470.058,278.859,467.819,276.098,467.819z M276.098,486.66  c-2.761,0-5,2.238-5,5V495c0,2.762,2.239,5,5,5s5-2.238,5-5v-3.34C281.098,488.898,278.859,486.66,276.098,486.66z"/>
</svg>
