<?xml version="1.0" encoding="UTF-8" standalone="no"?>
<!DOCTYPE svg PUBLIC "-//W3C//DTD SVG 1.1//EN" "http://www.w3.org/Graphics/SVG/1.1/DTD/svg11.dtd">
<svg width="100%" height="100%" viewBox="0 0 355 225" version="1.1" xmlns="http://www.w3.org/2000/svg" xmlns:xlink="http://www.w3.org/1999/xlink" xml:space="preserve" xmlns:serif="http://www.serif.com/" style="fill-rule:evenodd;clip-rule:evenodd;stroke-linejoin:round;stroke-miterlimit:2;">
    <g transform="matrix(0.95861,0,0,0.610193,-4.26572,1.72405)">
        <path d="M372.677,49.42C372.677,21.027 358.004,-2.023 339.931,-2.023L37.97,-2.023C19.897,-2.023 5.224,21.027 5.224,49.42L5.224,313.985C5.224,342.378 19.897,365.429 37.97,365.429L339.931,365.429C358.004,365.429 372.677,342.378 372.677,313.985L372.677,49.42Z" style="fill:rgb(10,12,71);"/>
    </g>
    <g transform="matrix(-0.541825,0,0,-0.541291,161.128,142.922)">
        <path d="M180.96,109.01L245.91,109.01L245.91,115.17L180.96,115.17L180.96,109.01" style="fill:rgb(250,236,107);fill-rule:nonzero;"/>
    </g>
    <g transform="matrix(-0.541825,0,0,-0.541291,161.128,161.11)">
        <path d="M180.96,125.81L245.91,125.81L245.91,131.97L180.96,131.97L180.96,125.81" style="fill:rgb(250,236,107);fill-rule:nonzero;"/>
    </g>
    <g transform="matrix(-0.541825,0,0,-0.541291,158.706,342.962)">
        <path d="M178.72,293.79L243.68,293.79L243.68,299.95L178.72,299.95L178.72,293.79" style="fill:rgb(250,236,107);fill-rule:nonzero;"/>
    </g>
    <g transform="matrix(-0.541825,0,0,-0.541291,158.706,361.149)">
        <path d="M178.72,310.59L243.68,310.59L243.68,316.75L178.72,316.75L178.72,310.59" style="fill:rgb(250,236,107);fill-rule:nonzero;"/>
    </g>
    <g transform="matrix(0.541825,0,0,-0.541291,-70.1611,221.42)">
        <path d="M240.55,183.13C239.55,184.58 238.5,186.09 237.6,187.68L184.59,187.68C183.64,185.53 182.44,183.52 181.18,181.52L241.59,181.52C241.26,182.06 240.91,182.6 240.55,183.13" style="fill:rgb(250,236,107);fill-rule:nonzero;"/>
    </g>
    <g transform="matrix(-0.541825,0,0,-0.541291,157.947,240.896)">
        <path d="M178.02,199.51L242.98,199.51L242.98,205.67L178.02,205.67L178.02,199.51" style="fill:rgb(250,236,107);fill-rule:nonzero;"/>
    </g>
    <g transform="matrix(-0.541825,0,0,-0.541291,160.218,260.372)">
        <path d="M180.12,217.5L245.07,217.5L245.07,223.66L180.12,223.66L180.12,217.5" style="fill:rgb(250,236,107);fill-rule:nonzero;"/>
    </g>
    <g transform="matrix(-0.541825,0,0,-0.541291,161.231,279.842)">
        <path d="M184.04,241.64L243.02,241.64C241.52,239.56 239.9,237.56 238.43,235.49L187.68,235.49C186.45,237.52 185.23,239.58 184.04,241.64" style="fill:rgb(250,236,107);fill-rule:nonzero;"/>
    </g>
    <g transform="matrix(0.541825,0,0,-0.541291,-70.1611,251.73)">
        <path d="M246.17,99.215C242.92,99.215 240.29,101.835 240.29,105.085C240.29,129.145 225.05,141.335 208.93,154.255C192.16,167.675 173.15,182.895 173.15,212.595C173.15,242.295 192.16,257.515 208.93,270.935C225.05,283.855 240.29,296.055 240.29,320.105C240.29,323.345 242.92,325.98 246.17,325.98C249.42,325.98 252.05,323.345 252.05,320.105C252.05,290.405 233.04,275.185 216.27,261.755C200.14,248.845 184.91,236.645 184.91,212.595C184.91,188.545 200.14,176.345 216.27,163.425C233.04,150.005 252.05,134.785 252.05,105.085C252.05,101.835 249.42,99.215 246.17,99.215" style="fill:rgb(250,236,107);fill-rule:nonzero;"/>
    </g>
    <g transform="matrix(0.541825,0,0,-0.541291,-70.1611,251.73)">
        <path d="M179.03,99.215C175.78,99.215 173.15,101.835 173.15,105.085C173.15,134.785 192.16,150.005 208.93,163.425C225.05,176.345 240.29,188.545 240.29,212.595C240.29,236.645 225.05,248.845 208.93,261.755C192.16,275.185 173.15,290.405 173.15,320.105C173.15,323.345 175.78,325.98 179.03,325.98C182.28,325.98 184.91,323.345 184.91,320.105C184.91,296.055 200.14,283.855 216.27,270.935C233.04,257.515 252.05,242.295 252.05,212.595C252.05,182.895 233.04,167.675 216.27,154.255C200.14,141.335 184.91,129.145 184.91,105.085C184.91,101.835 182.28,99.215 179.03,99.215" style="fill:rgb(0,197,223);fill-rule:nonzero;"/>
    </g>
    <g transform="matrix(1,0,0,1,-15.4358,-57.2034)">
        <g transform="matrix(101.185,0,0,101.185,93.1021,220.116)">
            <path d="M0.806,-0.462L0.425,-0.462L0.425,-0.317L0.615,-0.317C0.615,-0.216 0.526,-0.158 0.436,-0.158C0.32,-0.158 0.226,-0.272 0.226,-0.412C0.226,-0.555 0.32,-0.67 0.436,-0.67C0.509,-0.67 0.572,-0.641 0.62,-0.564L0.743,-0.699C0.671,-0.786 0.57,-0.84 0.425,-0.84C0.193,-0.84 0.023,-0.649 0.023,-0.412C0.023,-0.176 0.203,0.015 0.425,0.015C0.587,0.015 0.761,-0.074 0.806,-0.283L0.806,-0.462Z" style="fill:white;fill-rule:nonzero;"/>
        </g>
        <g transform="matrix(101.185,0,0,101.185,187.103,220.116)">
            <path d="M0.532,-0.825L0.06,-0.825L0.06,-0L0.532,-0L0.532,-0.165L0.248,-0.165L0.248,-0.331L0.52,-0.331L0.52,-0.496L0.248,-0.496L0.248,-0.66L0.532,-0.66L0.532,-0.825Z" style="fill:white;fill-rule:nonzero;"/>
        </g>
        <g transform="matrix(101.185,0,0,101.185,255.909,220.116)">
            <path d="M0.742,-0L0.93,-0L0.856,-0.825L0.656,-0.825L0.473,-0.349L0.29,-0.825L0.09,-0.825L0.016,-0L0.204,-0L0.243,-0.489L0.248,-0.489L0.417,-0.005L0.529,-0.005L0.698,-0.489L0.703,-0.489L0.742,-0Z" style="fill:white;fill-rule:nonzero;"/>
        </g>
        <g transform="matrix(27.8295,0,0,27.8295,94.3547,254.516)">
            <path d="M0.599,-0.592L0.381,-0.592L0.381,-0L0.234,-0L0.234,-0.592L0.02,-0.592L0.02,-0.711L0.599,-0.711L0.599,-0.592Z" style="fill:rgb(250,236,107);fill-rule:nonzero;"/>
        </g>
        <g transform="matrix(27.8295,0,0,27.8295,114.354,254.516)">
            <path d="M0.491,-0.308L0.21,-0.308L0.21,-0.118L0.54,-0.118L0.54,-0L0.063,-0L0.063,-0.711L0.539,-0.711L0.539,-0.592L0.21,-0.592L0.21,-0.423L0.491,-0.423L0.491,-0.308Z" style="fill:rgb(250,236,107);fill-rule:nonzero;"/>
        </g>
        <g transform="matrix(27.8295,0,0,27.8295,132.791,254.516)">
            <path d="M0.465,-0.146L0.208,-0.146L0.159,-0L0.003,-0L0.268,-0.711L0.404,-0.711L0.67,-0L0.514,-0L0.465,-0.146ZM0.248,-0.265L0.425,-0.265L0.336,-0.531L0.248,-0.265Z" style="fill:rgb(250,236,107);fill-rule:nonzero;"/>
        </g>
        <g transform="matrix(27.8295,0,0,27.8295,154.3,254.516)">
            <path d="M0.255,-0.711L0.438,-0.195L0.619,-0.711L0.812,-0.711L0.812,-0L0.665,-0L0.665,-0.194L0.679,-0.53L0.487,-0L0.387,-0L0.195,-0.529L0.21,-0.194L0.21,-0L0.063,-0L0.063,-0.711L0.255,-0.711Z" style="fill:rgb(250,236,107);fill-rule:nonzero;"/>
        </g>
        <g transform="matrix(27.8295,0,0,27.8295,191.293,254.516)">
            <path d="M0.599,-0.592L0.381,-0.592L0.381,-0L0.234,-0L0.234,-0.592L0.02,-0.592L0.02,-0.711L0.599,-0.711L0.599,-0.592Z" style="fill:rgb(250,236,107);fill-rule:nonzero;"/>
        </g>
        <g transform="matrix(27.8295,0,0,27.8295,211.293,254.516)">
            <path d="M0.602,-0.711L0.602,-0.243C0.602,-0.165 0.577,-0.103 0.529,-0.058C0.48,-0.013 0.413,0.01 0.329,0.01C0.246,0.01 0.18,-0.012 0.131,-0.056C0.083,-0.1 0.058,-0.16 0.057,-0.237L0.057,-0.711L0.203,-0.711L0.203,-0.242C0.203,-0.195 0.214,-0.161 0.237,-0.14C0.259,-0.119 0.29,-0.108 0.329,-0.108C0.411,-0.108 0.453,-0.151 0.455,-0.238L0.455,-0.711L0.602,-0.711ZM0.276,-0.818C0.276,-0.801 0.27,-0.786 0.257,-0.774C0.244,-0.762 0.228,-0.756 0.208,-0.756C0.188,-0.756 0.172,-0.762 0.159,-0.774C0.147,-0.787 0.141,-0.801 0.141,-0.818C0.141,-0.835 0.147,-0.85 0.159,-0.862C0.172,-0.874 0.188,-0.88 0.208,-0.88C0.228,-0.88 0.245,-0.874 0.257,-0.862C0.27,-0.85 0.276,-0.835 0.276,-0.818ZM0.378,-0.818C0.378,-0.836 0.385,-0.851 0.398,-0.862C0.411,-0.874 0.427,-0.88 0.446,-0.88C0.465,-0.88 0.482,-0.874 0.494,-0.862C0.507,-0.85 0.514,-0.835 0.514,-0.818C0.514,-0.801 0.507,-0.786 0.495,-0.774C0.483,-0.762 0.466,-0.756 0.446,-0.756C0.426,-0.756 0.41,-0.762 0.397,-0.774C0.385,-0.786 0.378,-0.801 0.378,-0.818Z" style="fill:rgb(250,236,107);fill-rule:nonzero;"/>
        </g>
        <g transform="matrix(27.8295,0,0,27.8295,232.393,254.516)">
            <path d="M0.063,-0L0.063,-0.711L0.313,-0.711C0.399,-0.711 0.464,-0.694 0.509,-0.661C0.553,-0.628 0.576,-0.58 0.576,-0.516C0.576,-0.481 0.567,-0.451 0.549,-0.424C0.531,-0.398 0.506,-0.378 0.474,-0.366C0.511,-0.357 0.539,-0.338 0.56,-0.311C0.581,-0.283 0.592,-0.249 0.592,-0.209C0.592,-0.141 0.57,-0.089 0.526,-0.054C0.483,-0.019 0.421,-0.001 0.34,-0L0.063,-0ZM0.21,-0.31L0.21,-0.118L0.335,-0.118C0.37,-0.118 0.397,-0.126 0.416,-0.142C0.436,-0.159 0.445,-0.181 0.445,-0.21C0.445,-0.276 0.412,-0.309 0.344,-0.31L0.21,-0.31ZM0.21,-0.413L0.318,-0.413C0.392,-0.414 0.429,-0.444 0.429,-0.501C0.429,-0.534 0.42,-0.557 0.401,-0.571C0.382,-0.585 0.353,-0.592 0.313,-0.592L0.21,-0.592L0.21,-0.413Z" style="fill:rgb(250,236,107);fill-rule:nonzero;"/>
        </g>
        <g transform="matrix(27.8295,0,0,27.8295,252.936,254.516)">
            <rect x="0.073" y="-0.711" width="0.146" height="0.711" style="fill:rgb(250,236,107);fill-rule:nonzero;"/>
        </g>
        <g transform="matrix(27.8295,0,0,27.8295,263.832,254.516)">
            <path d="M0.642,-0L0.495,-0L0.21,-0.468L0.21,-0L0.063,-0L0.063,-0.711L0.21,-0.711L0.496,-0.242L0.496,-0.711L0.642,-0.711L0.642,-0Z" style="fill:rgb(250,236,107);fill-rule:nonzero;"/>
        </g>
        <g transform="matrix(27.8295,0,0,27.8295,286.264,254.516)">
            <path d="M0.626,-0.09C0.6,-0.058 0.562,-0.034 0.514,-0.016C0.466,0.001 0.413,0.01 0.354,0.01C0.292,0.01 0.239,-0.004 0.192,-0.031C0.146,-0.057 0.11,-0.096 0.085,-0.147C0.059,-0.199 0.047,-0.259 0.046,-0.328L0.046,-0.376C0.046,-0.447 0.058,-0.508 0.082,-0.56C0.106,-0.612 0.14,-0.652 0.185,-0.679C0.23,-0.707 0.283,-0.721 0.344,-0.721C0.428,-0.721 0.494,-0.701 0.542,-0.66C0.589,-0.62 0.617,-0.562 0.626,-0.485L0.483,-0.485C0.477,-0.526 0.462,-0.555 0.44,-0.574C0.418,-0.593 0.387,-0.603 0.348,-0.603C0.298,-0.603 0.26,-0.584 0.234,-0.546C0.208,-0.509 0.195,-0.453 0.195,-0.379L0.195,-0.334C0.195,-0.259 0.209,-0.203 0.237,-0.165C0.266,-0.127 0.307,-0.108 0.362,-0.108C0.417,-0.108 0.456,-0.12 0.479,-0.143L0.479,-0.266L0.346,-0.266L0.346,-0.374L0.626,-0.374L0.626,-0.09Z" style="fill:rgb(250,236,107);fill-rule:nonzero;"/>
        </g>
        <g transform="matrix(27.8295,0,0,27.8295,308.003,254.516)">
            <path d="M0.491,-0.308L0.21,-0.308L0.21,-0.118L0.54,-0.118L0.54,-0L0.063,-0L0.063,-0.711L0.539,-0.711L0.539,-0.592L0.21,-0.592L0.21,-0.423L0.491,-0.423L0.491,-0.308Z" style="fill:rgb(250,236,107);fill-rule:nonzero;"/>
        </g>
        <g transform="matrix(27.8295,0,0,27.8295,326.44,254.516)">
            <path d="M0.642,-0L0.495,-0L0.21,-0.468L0.21,-0L0.063,-0L0.063,-0.711L0.21,-0.711L0.496,-0.242L0.496,-0.711L0.642,-0.711L0.642,-0Z" style="fill:rgb(250,236,107);fill-rule:nonzero;"/>
        </g>
    </g>
    <g transform="matrix(1,0,0,1,-15.4358,-57.2034)">
        <clipPath id="_clip1">
            <rect x="39.065" y="74.16" width="67.5" height="56.695"/>
        </clipPath>
        <g clip-path="url(#_clip1)">
            <g transform="matrix(0.339448,0,0,0.340502,0.64808,43.3774)">
                <path d="M177.4,162.8C160.78,162.8 147.3,176.27 147.3,192.9C147.3,209.52 160.78,223 177.4,223C194.02,223 207.5,209.52 207.5,192.9C207.5,176.27 194.02,162.8 177.4,162.8ZM177.4,245.86C148.16,245.86 124.45,222.15 124.45,192.9C124.45,163.65 148.16,139.95 177.4,139.95C206.65,139.95 230.36,163.65 230.36,192.9C230.36,222.15 206.65,245.86 177.4,245.86" style="fill:white;fill-rule:nonzero;"/>
            </g>
            <g transform="matrix(0.339448,0,0,0.340502,0.64808,78.449)">
                <path d="M184.71,128.89L170.09,128.89C167.22,128.89 164.89,131.22 164.89,134.1L164.89,148.71C164.89,151.58 167.22,153.92 170.09,153.92L184.71,153.92C187.59,153.92 189.91,151.58 189.91,148.71L189.91,134.1C189.91,131.22 187.59,128.89 184.71,128.89" style="fill:white;fill-rule:nonzero;"/>
            </g>
            <g transform="matrix(0.339448,0,0,0.340502,0.64808,68.1727)">
                <path d="M210.14,142.48L199.8,152.82C197.77,154.85 197.77,158.15 199.8,160.18L210.14,170.51C212.17,172.54 215.46,172.54 217.5,170.51L227.84,160.18C229.87,158.15 229.87,154.85 227.84,152.82L217.5,142.48C215.46,140.45 212.17,140.45 210.14,142.48" style="fill:white;fill-rule:nonzero;"/>
            </g>
            <g transform="matrix(0.339448,0,0,0.340502,0.64808,43.3739)">
                <path d="M216.39,185.6L216.39,200.22C216.39,203.09 218.72,205.42 221.59,205.42L236.21,205.42C239.09,205.42 241.41,203.09 241.41,200.22L241.41,185.6C241.41,182.73 239.09,180.4 236.21,180.4L221.59,180.4C218.72,180.4 216.39,182.73 216.39,185.6" style="fill:white;fill-rule:nonzero;"/>
            </g>
            <g transform="matrix(0.339448,0,0,0.340502,0.64808,18.5718)">
                <path d="M199.8,233.01L210.14,243.35C212.17,245.38 215.46,245.38 217.5,243.35L227.84,233.01C229.87,230.98 229.87,227.68 227.84,225.65L217.5,215.32C215.46,213.28 212.17,213.28 210.14,215.32L199.8,225.65C197.77,227.68 197.77,230.98 199.8,233.01" style="fill:white;fill-rule:nonzero;"/>
            </g>
            <g transform="matrix(0.339448,0,0,0.340502,0.64808,8.29887)">
                <path d="M170.09,256.93L184.71,256.93C187.59,256.93 189.91,254.6 189.91,251.72L189.91,237.11C189.91,234.24 187.59,231.9 184.71,231.9L170.09,231.9C167.22,231.9 164.89,234.24 164.89,237.11L164.89,251.72C164.89,254.6 167.22,256.93 170.09,256.93" style="fill:white;fill-rule:nonzero;"/>
            </g>
            <g transform="matrix(0.339448,0,0,0.340502,0.64808,18.5718)">
                <path d="M144.66,243.35L155,233.01C157.03,230.98 157.03,227.68 155,225.65L144.66,215.32C142.63,213.28 139.34,213.28 137.3,215.32L126.97,225.65C124.94,227.68 124.94,230.98 126.97,233.01L137.3,243.35C139.34,245.38 142.63,245.38 144.66,243.35" style="fill:white;fill-rule:nonzero;"/>
            </g>
            <g transform="matrix(0.339448,0,0,0.340502,0.64808,43.3739)">
                <path d="M138.41,200.22L138.41,185.6C138.41,182.73 136.08,180.4 133.21,180.4L118.59,180.4C115.71,180.4 113.39,182.73 113.39,185.6L113.39,200.22C113.39,203.09 115.71,205.42 118.59,205.42L133.21,205.42C136.08,205.42 138.41,203.09 138.41,200.22" style="fill:white;fill-rule:nonzero;"/>
            </g>
            <g transform="matrix(0.339448,0,0,0.340502,0.64808,68.1727)">
                <path d="M155,152.82L144.66,142.48C142.63,140.45 139.34,140.45 137.3,142.48L126.97,152.82C124.94,154.85 124.94,158.15 126.97,160.18L137.3,170.51C139.34,172.54 142.63,172.54 144.66,170.51L155,160.18C157.03,158.15 157.03,154.85 155,152.82" style="fill:white;fill-rule:nonzero;"/>
            </g>
            <g transform="matrix(0.339448,0,0,0.340502,0.64808,2.38776)">
                <path d="M268.61,232.78C257.38,232.78 248.29,241.87 248.29,253.09C248.29,264.31 257.38,273.41 268.61,273.41C279.82,273.41 288.92,264.31 288.92,253.09C288.92,241.87 279.82,232.78 268.61,232.78ZM268.61,288.84C248.86,288.84 232.86,272.83 232.86,253.09C232.86,233.35 248.86,217.35 268.61,217.35C288.34,217.35 304.35,233.35 304.35,253.09C304.35,272.83 288.34,288.84 268.61,288.84" style="fill:white;fill-rule:nonzero;"/>
            </g>
            <g transform="matrix(0.339448,0,0,0.340502,0.64808,26.0594)">
                <path d="M273.54,209.89L263.67,209.89C261.73,209.89 260.16,211.46 260.16,213.4L260.16,223.27C260.16,225.21 261.73,226.78 263.67,226.78L273.54,226.78C275.48,226.78 277.05,225.21 277.05,223.27L277.05,213.4C277.05,211.46 275.48,209.89 273.54,209.89" style="fill:white;fill-rule:nonzero;"/>
            </g>
            <g transform="matrix(0.339448,0,0,0.340502,0.64808,19.1268)">
                <path d="M290.7,219.05L283.73,226.03C282.36,227.41 282.36,229.63 283.73,231L290.7,237.98C292.07,239.35 294.3,239.35 295.67,237.98L302.64,231C304.02,229.63 304.02,227.41 302.64,226.03L295.67,219.05C294.3,217.68 292.07,217.68 290.7,219.05" style="fill:white;fill-rule:nonzero;"/>
            </g>
            <g transform="matrix(0.339448,0,0,0.340502,0.64808,2.38775)">
                <path d="M294.92,248.16L294.92,258.03C294.92,259.97 296.5,261.54 298.43,261.54L308.3,261.54C310.24,261.54 311.81,259.97 311.81,258.03L311.81,248.16C311.81,246.22 310.24,244.65 308.3,244.65L298.43,244.65C296.5,244.65 294.92,246.22 294.92,248.16" style="fill:white;fill-rule:nonzero;"/>
            </g>
            <g transform="matrix(0.339448,0,0,0.340502,0.64808,-14.3547)">
                <path d="M283.73,280.16L290.7,287.14C292.07,288.51 294.3,288.51 295.67,287.14L302.64,280.16C304.02,278.79 304.02,276.57 302.64,275.2L295.67,268.22C294.3,266.85 292.07,266.85 290.7,268.22L283.73,275.2C282.36,276.57 282.36,278.79 283.73,280.16" style="fill:white;fill-rule:nonzero;"/>
            </g>
            <g transform="matrix(0.339448,0,0,0.340502,0.64808,-21.2839)">
                <path d="M263.67,296.3L273.54,296.3C275.48,296.3 277.05,294.73 277.05,292.78L277.05,282.92C277.05,280.98 275.48,279.41 273.54,279.41L263.67,279.41C261.73,279.41 260.16,280.98 260.16,282.92L260.16,292.78C260.16,294.73 261.73,296.3 263.67,296.3" style="fill:white;fill-rule:nonzero;"/>
            </g>
            <g transform="matrix(0.339448,0,0,0.340502,0.64808,-14.3547)">
                <path d="M246.51,287.14L253.48,280.16C254.86,278.79 254.86,276.57 253.48,275.2L246.51,268.22C245.13,266.85 242.91,266.85 241.54,268.22L234.56,275.2C233.19,276.57 233.19,278.79 234.56,280.16L241.54,287.14C242.91,288.51 245.13,288.51 246.51,287.14" style="fill:white;fill-rule:nonzero;"/>
            </g>
            <g transform="matrix(0.339448,0,0,0.340502,0.64808,2.38775)">
                <path d="M242.29,258.03L242.29,248.16C242.29,246.22 240.71,244.65 238.77,244.65L228.91,244.65C226.97,244.65 225.39,246.22 225.39,248.16L225.39,258.03C225.39,259.97 226.97,261.54 228.91,261.54L238.77,261.54C240.71,261.54 242.29,259.97 242.29,258.03" style="fill:white;fill-rule:nonzero;"/>
            </g>
            <g transform="matrix(0.339448,0,0,0.340502,0.64808,19.1268)">
                <path d="M253.48,226.03L246.51,219.05C245.13,217.68 242.91,217.68 241.54,219.05L234.56,226.03C233.19,227.41 233.19,229.63 234.56,231L241.54,237.98C242.91,239.35 245.13,239.35 246.51,237.98L253.48,231C254.86,229.63 254.86,227.41 253.48,226.03" style="fill:white;fill-rule:nonzero;"/>
            </g>
        </g>
    </g>
</svg>
